<svg id="Grupo_1101558" data-name="Grupo 1101558" xmlns="http://www.w3.org/2000/svg" xmlns:xlink="http://www.w3.org/1999/xlink" width="132.158" height="118.982" viewBox="0 0 132.158 118.982">
  <defs>
    <clipPath id="clip-path">
      <rect id="Rectángulo_403287" data-name="Rectángulo 403287" width="132.158" height="118.982" fill="none"/>
    </clipPath>
    <clipPath id="clip-path-3">
      <rect id="Rectángulo_403272" data-name="Rectángulo 403272" width="102.294" height="55.239" fill="none"/>
    </clipPath>
  </defs>
  <g id="Grupo_1101557" data-name="Grupo 1101557" clip-path="url(#clip-path)">
    <rect id="Rectángulo_403261" data-name="Rectángulo 403261" width="2.41" height="2.41" transform="translate(124.354 3.186)" fill="#fbb033"/>
    <rect id="Rectángulo_403262" data-name="Rectángulo 403262" width="2.41" height="2.41" transform="translate(124.354 8.514)" fill="#fbb033"/>
    <rect id="Rectángulo_403263" data-name="Rectángulo 403263" width="2.41" height="2.41" transform="translate(129.748 8.514)" fill="#231f20"/>
    <rect id="Rectángulo_403264" data-name="Rectángulo 403264" width="2.41" height="2.41" transform="translate(129.748 3.186)" fill="#fbb033"/>
    <rect id="Rectángulo_403265" data-name="Rectángulo 403265" width="2.41" height="2.41" transform="translate(12.456 116.114)" fill="#fbb033"/>
    <rect id="Rectángulo_403266" data-name="Rectángulo 403266" width="2.41" height="2.41" transform="translate(17.85 116.114)" fill="#231f20"/>
    <g id="Grupo_1101556" data-name="Grupo 1101556">
      <g id="Grupo_1101555" data-name="Grupo 1101555" clip-path="url(#clip-path)">
        <path id="Trazado_879157" data-name="Trazado 879157" d="M564.581,62.512h-1.387a.289.289,0,1,1,0-.578h1.387a.289.289,0,1,1,0,.578m-3.121,0h-1.388a.289.289,0,0,1,0-.578h1.388a.289.289,0,1,1,0,.578m-3.121,0h-1.387a.289.289,0,0,1,0-.578h1.387a.289.289,0,1,1,0,.578m-3.121,0h-1.387a.289.289,0,0,1,0-.578h1.387a.289.289,0,1,1,0,.578m-3.121,0h-1.387a.289.289,0,0,1,0-.578H552.1a.289.289,0,0,1,0,.578m-3.121,0h-1.388a.289.289,0,0,1,0-.578h1.388a.289.289,0,0,1,0,.578m-3.121,0h-1.387a.289.289,0,0,1,0-.578h1.387a.289.289,0,1,1,0,.578m-3.121,0h-1.387a.289.289,0,1,1,0-.578h1.387a.289.289,0,0,1,0,.578m-3.121,0h-1.387a.289.289,0,0,1,0-.578h1.387a.289.289,0,1,1,0,.578m-3.121,0H535.1a.289.289,0,0,1,0-.578h1.387a.289.289,0,1,1,0,.578m-3.121,0h-1.387a.289.289,0,1,1,0-.578h1.387a.289.289,0,0,1,0,.578m-3.121,0h-1.387a.289.289,0,0,1,0-.578h1.387a.289.289,0,1,1,0,.578m-3.121,0h-1.388a.289.289,0,0,1,0-.578h1.388a.289.289,0,1,1,0,.578m-3.121,0H522.62a.289.289,0,0,1,0-.578h1.387a.289.289,0,1,1,0,.578m-3.121,0H519.5a.289.289,0,1,1,0-.578h1.387a.289.289,0,1,1,0,.578m-3.121,0h-1.387a.289.289,0,0,1,0-.578h1.387a.289.289,0,0,1,0,.578m-3.121,0h-1.387a.289.289,0,0,1,0-.578h1.387a.289.289,0,0,1,0,.578m-3.121,0h-1.387a.289.289,0,0,1,0-.578h1.387a.289.289,0,0,1,0,.578m-3.121,0h-1.387a.289.289,0,0,1,0-.578H508.4a.289.289,0,0,1,0,.578m-3.121,0h-1.387a.289.289,0,0,1,0-.578h1.387a.289.289,0,0,1,0,.578m-3.121,0h-1.388a.289.289,0,0,1,0-.578h1.388a.289.289,0,0,1,0,.578" transform="translate(-445.804 -55.168)" fill="#debefb"/>
        <rect id="Rectángulo_403267" data-name="Rectángulo 403267" width="11.951" height="11.951" transform="translate(42.232 20.982)" fill="#fbb033"/>
        <rect id="Rectángulo_403268" data-name="Rectángulo 403268" width="11.951" height="11.951" transform="translate(29.1 20.982)" fill="#a854f3"/>
        <rect id="Rectángulo_403269" data-name="Rectángulo 403269" width="20.043" height="15.318" transform="translate(45.614 100.515)" fill="#9b8b81"/>
        <path id="Trazado_879158" data-name="Trazado 879158" d="M436.3,934.085H415.9V918.416H436.3Zm-20.043-.352h19.692V918.767H416.254Z" transform="translate(-370.464 -818.077)" fill="#231f20"/>
        <rect id="Rectángulo_403270" data-name="Rectángulo 403270" width="20.043" height="15.318" transform="translate(43.745 100.515)" fill="#dbc9bd"/>
        <path id="Trazado_879159" data-name="Trazado 879159" d="M420.45,947.246l-20.043,10.823V947.246Z" transform="translate(-356.661 -843.757)" fill="#9b8b81"/>
        <path id="Trazado_879160" data-name="Trazado 879160" d="M394.134,1063.2H361.951v-.856a2.118,2.118,0,0,1,2.118-2.118h27.947a2.118,2.118,0,0,1,2.118,2.118Z" transform="translate(-322.407 -944.396)" fill="#9b8b81"/>
        <path id="Trazado_879161" data-name="Trazado 879161" d="M392.877,1061.947H360.342v-1.031a2.3,2.3,0,0,1,2.294-2.294h27.947a2.3,2.3,0,0,1,2.294,2.294Zm-32.183-.352h31.832v-.68a1.945,1.945,0,0,0-1.943-1.943H362.636a1.945,1.945,0,0,0-1.943,1.943Z" transform="translate(-320.974 -942.965)" fill="#231f20"/>
        <path id="Trazado_879162" data-name="Trazado 879162" d="M127.961,407.366H27.064a3.143,3.143,0,0,1-3.143-3.143V344.291a3.143,3.143,0,0,1,3.143-3.143h100.9a3.143,3.143,0,0,1,3.143,3.143v59.931a3.143,3.143,0,0,1-3.143,3.143" transform="translate(-21.308 -303.877)" fill="#9b8b81"/>
        <path id="Trazado_879163" data-name="Trazado 879163" d="M126.528,406.109H25.632a3.322,3.322,0,0,1-3.319-3.319V342.859a3.322,3.322,0,0,1,3.319-3.319h100.9a3.322,3.322,0,0,1,3.319,3.319V402.79a3.322,3.322,0,0,1-3.319,3.319m-100.9-66.217a2.97,2.97,0,0,0-2.967,2.967V402.79a2.97,2.97,0,0,0,2.967,2.967h100.9a2.97,2.97,0,0,0,2.967-2.967V342.859a2.97,2.97,0,0,0-2.967-2.967Z" transform="translate(-19.875 -302.444)" fill="#231f20"/>
        <path id="Trazado_879164" data-name="Trazado 879164" d="M377.03,1063.2H344.847v-.856a2.118,2.118,0,0,1,2.118-2.118h27.947a2.118,2.118,0,0,1,2.118,2.118Z" transform="translate(-307.172 -944.396)" fill="#dbc9bd"/>
        <path id="Trazado_879165" data-name="Trazado 879165" d="M419.193,934.085H398.8V918.416h20.395Zm-20.043-.352h19.692V918.767H399.15Z" transform="translate(-355.228 -818.077)" fill="#231f20"/>
        <path id="Trazado_879166" data-name="Trazado 879166" d="M375.773,1061.947H343.238v-1.031a2.3,2.3,0,0,1,2.294-2.294h27.947a2.3,2.3,0,0,1,2.294,2.294Zm-32.183-.352h31.832v-.68a1.945,1.945,0,0,0-1.943-1.943H345.532a1.945,1.945,0,0,0-1.943,1.943Z" transform="translate(-305.738 -942.965)" fill="#231f20"/>
        <path id="Trazado_879167" data-name="Trazado 879167" d="M105.649,407.367H4.752a3.143,3.143,0,0,1-3.143-3.143V344.292a3.143,3.143,0,0,1,3.143-3.143h100.9a3.143,3.143,0,0,1,3.143,3.143v59.932a3.143,3.143,0,0,1-3.143,3.143" transform="translate(-1.433 -303.878)" fill="#dbc9bd"/>
        <rect id="Rectángulo_403271" data-name="Rectángulo 403271" width="102.294" height="55.239" transform="translate(2.62 39.77)" fill="#a854f3"/>
        <g id="Grupo_1101554" data-name="Grupo 1101554" transform="translate(2.62 39.77)" opacity="0.2">
          <g id="Grupo_1101553" data-name="Grupo 1101553">
            <g id="Grupo_1101552" data-name="Grupo 1101552" clip-path="url(#clip-path-3)">
              <path id="Trazado_879168" data-name="Trazado 879168" d="M23.982,419.257l102.294-55.239v55.239Z" transform="translate(-23.982 -364.018)" fill="#183d1b"/>
            </g>
          </g>
        </g>
        <path id="Trazado_879169" data-name="Trazado 879169" d="M104.215,406.109H3.319A3.322,3.322,0,0,1,0,402.79V342.859a3.322,3.322,0,0,1,3.319-3.319h100.9a3.322,3.322,0,0,1,3.319,3.319V402.79a3.322,3.322,0,0,1-3.319,3.319M3.319,339.892a2.97,2.97,0,0,0-2.967,2.967V402.79a2.97,2.97,0,0,0,2.967,2.967h100.9a2.971,2.971,0,0,0,2.967-2.967V342.859a2.971,2.971,0,0,0-2.967-2.967Z" transform="translate(0 -302.444)" fill="#231f20"/>
        <path id="Trazado_879170" data-name="Trazado 879170" d="M125.018,418H22.373v-55.59H125.018Zm-102.294-.352H124.667V362.761H22.725Z" transform="translate(-19.929 -322.815)" fill="#231f20"/>
        <path id="Trazado_879171" data-name="Trazado 879171" d="M483.187,899.689a.978.978,0,1,1,.978.978.978.978,0,0,1-.978-.978" transform="translate(-430.398 -800.525)" fill="#231f20"/>
        <path id="Trazado_879172" data-name="Trazado 879172" d="M137.484,471.769H123.492v-.827h13.992Zm14.908,5.474h-8.6v.827h8.6Zm-26.819,3.1h-2.08v.827h2.08Zm0-13.916h-2.08v.827h2.08Zm7.421,21.809h-5.762v.827h5.762Zm13.992-6.063h-2.08V483h2.08Zm-19.808,9.666h-3.684v.827h3.684Zm32.429-20.893h-5.07v.827h5.07Zm-25.635-2.36H128.9v.827h5.07Zm4.837,21.481h-8.166v.827h8.166Zm2.931,1.772H128.271v.827h13.467ZM159.606,475.2H134.894v.827h24.712Zm-6.618,9.211H142.2v.827h10.788Zm-.279-13.465H138.718v.827h13.992Zm-11.193,6.3h-6.623v.827h6.623Zm3.808-8.66h-9.351v.827h9.351ZM163.1,488.231H152.312v.827H163.1Zm-19.31,5.363H128.271v.827h15.522Zm-2.953-9.187H130.488v.827H140.84Zm19.076,0H154.43v.827h5.486Zm-23.942,1.8h-5.486v.827h5.486Zm23.942,5.626H149.648v.827h10.268Zm-11.46,0h-5.486v.827h5.486Zm-12.329,3.346h-5.486v.827h5.486Zm-11.6,3.791h-1.04v.827h1.04Zm13.708-18.634H127.177v.827H138.24Zm18.151,9.725H140.413v.827h15.978Zm4.349-9.725H139.793v.827H160.74Zm-9.879,7.893h-16.6v.827h16.6Zm-7.086-6.063h-16.6V483h16.6Zm18.6-8.838H128.271v.827h34.108Zm0-6.909H127.231v.827h35.148Zm-40.672,0h-.453V499.8h.453Z" transform="translate(-108.007 -415.464)" fill="#dcedff"/>
        <path id="Trazado_879173" data-name="Trazado 879173" d="M568.162,764.519l-.823-.823-3.023,3.023,3.023,3.023.823-.823-2.2-2.2Z" transform="translate(-502.663 -680.261)" fill="#f8f0ea"/>
        <path id="Trazado_879174" data-name="Trazado 879174" d="M651.188,768.92l.823.823,3.023-3.023-3.023-3.023-.823.823,2.2,2.2Z" transform="translate(-580.044 -680.26)" fill="#f8f0ea"/>
        <rect id="Rectángulo_403273" data-name="Rectángulo 403273" width="8.025" height="1.163" transform="matrix(0.372, -0.928, 0.928, 0.372, 66.287, 89.967)" fill="#f8f0ea"/>
        <path id="Trazado_879175" data-name="Trazado 879175" d="M603.57,158.151H565.428a1.111,1.111,0,0,0-1.111,1.111v1.9H604.68v-1.9a1.111,1.111,0,0,0-1.111-1.111" transform="translate(-502.664 -140.873)" fill="#f0c518"/>
        <path id="Trazado_879176" data-name="Trazado 879176" d="M603.627,211.195H562.969V158.061a1.259,1.259,0,0,1,1.258-1.258h38.142a1.259,1.259,0,0,1,1.258,1.258Zm-40.363-.295h40.069V158.061a.964.964,0,0,0-.963-.963H564.227a.964.964,0,0,0-.963.963Z" transform="translate(-501.463 -139.672)" fill="#231f20"/>
        <rect id="Rectángulo_403274" data-name="Rectángulo 403274" width="40.363" height="0.295" transform="translate(61.653 20.141)" fill="#231f20"/>
        <path id="Trazado_879177" data-name="Trazado 879177" d="M578.716,168.73a.451.451,0,1,1-.451-.451.451.451,0,0,1,.451.451" transform="translate(-514.686 -149.894)" fill="#fbb033"/>
        <path id="Trazado_879178" data-name="Trazado 879178" d="M592.486,168.73a.451.451,0,1,1-.451-.451.451.451,0,0,1,.451.451" transform="translate(-526.952 -149.894)" fill="#fbb033"/>
        <path id="Trazado_879179" data-name="Trazado 879179" d="M606.258,168.73a.451.451,0,1,1-.451-.451.451.451,0,0,1,.451.451" transform="translate(-539.219 -149.894)" fill="#fbb033"/>
        <rect id="Rectángulo_403275" data-name="Rectángulo 403275" width="0.295" height="47.601" transform="translate(100.596 22.103)" fill="#231f20"/>
        <path id="Trazado_879180" data-name="Trazado 879180" d="M681.9,321.893h-16.3v-28.06h.295V321.6H681.9Z" transform="translate(-592.876 -261.731)" fill="#231f20"/>
        <rect id="Rectángulo_403276" data-name="Rectángulo 403276" width="16.154" height="0.295" transform="translate(72.865 52.691)" fill="#231f20"/>
        <rect id="Rectángulo_403277" data-name="Rectángulo 403277" width="16.154" height="0.295" transform="translate(72.865 45.61)" fill="#231f20"/>
        <path id="Trazado_879181" data-name="Trazado 879181" d="M638.088,244.177a4.034,4.034,0,1,1-4.034-4.034,4.034,4.034,0,0,1,4.034,4.034" transform="translate(-561.19 -213.907)" fill="#fbb033"/>
        <path id="Trazado_879182" data-name="Trazado 879182" d="M794.072,395.195a2.9,2.9,0,1,1-2.9-2.9,2.9,2.9,0,0,1,2.9,2.9" transform="translate(-702.155 -349.438)" fill="#fbb033"/>
        <path id="Trazado_879183" data-name="Trazado 879183" d="M794.072,460.011a2.9,2.9,0,1,1-2.9-2.9,2.9,2.9,0,0,1,2.9,2.9" transform="translate(-702.155 -407.172)" fill="#fbb033"/>
        <path id="Trazado_879184" data-name="Trazado 879184" d="M794.072,525.7a2.9,2.9,0,1,1-2.9-2.9,2.9,2.9,0,0,1,2.9,2.9" transform="translate(-702.155 -465.681)" fill="#fbb033"/>
        <rect id="Rectángulo_403278" data-name="Rectángulo 403278" width="11.85" height="1.375" transform="translate(81.228 27.298)" fill="#debefb"/>
        <rect id="Rectángulo_403279" data-name="Rectángulo 403279" width="8.123" height="0.488" transform="translate(81.228 29.561)" fill="#debefb"/>
        <rect id="Rectángulo_403280" data-name="Rectángulo 403280" width="11.85" height="0.488" transform="translate(81.228 30.456)" fill="#debefb"/>
        <rect id="Rectángulo_403281" data-name="Rectángulo 403281" width="3.192" height="0.488" transform="translate(89.886 29.576)" fill="#debefb"/>
        <rect id="Rectángulo_403282" data-name="Rectángulo 403282" width="5.6" height="0.488" transform="translate(81.228 31.393)" fill="#debefb"/>
        <rect id="Rectángulo_403283" data-name="Rectángulo 403283" width="8.593" height="1.058" transform="translate(72.602 66.149)" fill="#00ffdf"/>
        <rect id="Rectángulo_403284" data-name="Rectángulo 403284" width="8.593" height="1.058" transform="translate(84.485 66.149)" fill="#00ffdf"/>
        <rect id="Rectángulo_403285" data-name="Rectángulo 403285" width="21.676" height="21.849" transform="translate(4.296)" fill="#f0c518"/>
        <path id="Trazado_879185" data-name="Trazado 879185" d="M111.906,161.817l-10.574-10.3,1.641,14.67L106.01,163l2.5,5.12,1.516-.741-2.5-5.12Z" transform="translate(-90.261 -134.965)" fill="#8722e2"/>
      </g>
    </g>
  </g>
</svg>
