<svg xmlns="http://www.w3.org/2000/svg" xmlns:xlink="http://www.w3.org/1999/xlink" width="400" height="178.344" viewBox="0 0 400 178.344">
  <defs>
    <clipPath id="clip-path">
      <rect id="Rectángulo_403540" data-name="Rectángulo 403540" width="209.908" height="148.128" fill="none"/>
    </clipPath>
  </defs>
  <g id="Grupo_1101841" data-name="Grupo 1101841" transform="translate(-180 -1446.475)">
    <rect id="Rectángulo_403529" data-name="Rectángulo 403529" width="400" height="178.344" transform="translate(180 1446.475)" fill="#f2e5fd"/>
    <g id="Grupo_1101831" data-name="Grupo 1101831" transform="translate(295.281 1476.69)">
      <rect id="Rectángulo_403530" data-name="Rectángulo 403530" width="153.638" height="115.707" transform="translate(0.302 32.317)" fill="#fff"/>
      <path id="Trazado_887531" data-name="Trazado 887531" d="M.785,94.209H154.214v115.5H.785ZM.576,209.916H154.423V94H.576Z" transform="translate(-0.379 -61.788)" fill="#0d0f44"/>
      <path id="Trazado_887532" data-name="Trazado 887532" d="M292.292,198.527H286.02v-.209h6.271Zm-12.542,0h-6.271v-.209h6.271Zm-12.542,0h-6.271v-.209h6.271Zm-12.542,0h-6.271v-.209h6.271Zm-12.542,0h-6.271v-.209h6.271Zm-12.542,0h-6.271v-.209h6.271Zm-11.044-1.5h-.209v-6.271h.209Zm73.86-1.42h-.209v-6.271h.209Zm-73.86-11.123h-.209v-6.271h.209Zm73.86-1.42h-.209V176.8h.209Zm-73.86-11.123h-.209v-6.271h.209Zm73.86-1.42h-.209v-6.271h.209ZM218.536,159.4h-.209v-4.647h1.834v.209h-1.625Zm73.86-1.42h-.209v-3.018h-3.044v-.209H292.4Zm-9.524-3.018H276.6v-.209h6.271Zm-12.542,0h-6.271v-.209h6.271Zm-12.542,0h-6.271v-.209h6.271Zm-12.542,0h-6.271v-.209h6.271Zm-12.543,0h-6.271v-.209H232.7Z" transform="translate(-143.509 -101.723)" fill="#c0cfff"/>
      <g id="Grupo_1101830" data-name="Grupo 1101830">
        <g id="Grupo_1101829" data-name="Grupo 1101829" clip-path="url(#clip-path)">
          <path id="Trazado_887533" data-name="Trazado 887533" d="M124.038,133.779H20.968a1.535,1.535,0,0,1,0-3.07h103.07a1.535,1.535,0,1,1,0,3.07" transform="translate(-12.774 -85.917)" fill="#00ffdf"/>
          <rect id="Rectángulo_403531" data-name="Rectángulo 403531" width="42.891" height="32.769" transform="translate(106.645 106.443)" fill="#c0cfff"/>
          <rect id="Rectángulo_403532" data-name="Rectángulo 403532" width="155.193" height="10.09" transform="translate(0 31.595)" fill="#dbdfeb"/>
          <path id="Trazado_887534" data-name="Trazado 887534" d="M439.172,113.261s-5.956,4.238-1.455,8.538,1.455-8.538,1.455-8.538" transform="translate(-286.612 -74.448)" fill="#0d0f44"/>
          <path id="Trazado_887535" data-name="Trazado 887535" d="M510.538,184.455s.056,7.849-4.309,5.122,4.309-5.122,4.309-5.122" transform="translate(-331.944 -121.245)" fill="#0d0f44"/>
          <path id="Trazado_887536" data-name="Trazado 887536" d="M218.926,146.075s3.017.544,5.325,8.147,7.987,31.369,10.472,35.106,26.439,3.772,26.439,3.772l2.818-21.158-15.412.533s-12.78-30.3-17.572-32.724a17.266,17.266,0,0,0-10.117-1.328Z" transform="translate(-143.903 -90.826)" fill="#f3abaa"/>
          <path id="Trazado_887537" data-name="Trazado 887537" d="M342.649,260.917l8.472.706,7.984.664,2.042-3.177,18.859-29.354L344.793,231.9s-5.727,16.076-2.144,29.012" transform="translate(-224.453 -151.022)" fill="#00ffdf"/>
          <path id="Trazado_887538" data-name="Trazado 887538" d="M385.281,283.237l7.78.688,1.825-5.154,3.233-16.812s-8.631,4.825-12.838,21.277" transform="translate(-253.251 -172.19)" fill="#0d0f44"/>
          <path id="Trazado_887539" data-name="Trazado 887539" d="M455.753,299.071s6.758-60.546-30.132-69.276H404.782s-23.937,8.73-25.626,69.276Z" transform="translate(-249.225 -151.048)" fill="#00ffdf"/>
          <path id="Trazado_887540" data-name="Trazado 887540" d="M524.2,387.573l.094,1.691.259,4.669.491,8.847h26.049l.206-7.118.184-6.4.033-1.127Z" transform="translate(-344.564 -254.757)" fill="#f3abaa"/>
          <path id="Trazado_887541" data-name="Trazado 887541" d="M510.915,272.7a272.408,272.408,0,0,0-2.331,33.318h35.623S542.059,273.1,529.053,261.4c0,0-10.1-5.665-15.948,4.7a18.617,18.617,0,0,0-2.19,6.6" transform="translate(-334.3 -170.805)" fill="#00ffdf"/>
          <path id="Trazado_887542" data-name="Trazado 887542" d="M453.938,191.817c4.364,16.9,21.9.27,21.9.27-4-5.644-1.252-18.295-1.252-18.295-1.175-3.379-18.962-1.971-17.977,4.506a21.021,21.021,0,0,1-.88,8.9c-.316,1.068-.66,2.009-.96,2.757-.468,1.164-.834,1.866-.834,1.866" transform="translate(-298.38 -113.068)" fill="#f3abaa"/>
          <path id="Trazado_887543" data-name="Trazado 887543" d="M460.09,103.2s8.824,3.661,7.416,15.864a33.386,33.386,0,0,1-3.191,7.322,41.1,41.1,0,0,0-3.643,9.481h-7.434s-6.289,6.571-13.611,3.38-6.2-20.464-2.91-29.194S452.2,97.1,460.09,103.2" transform="translate(-285.383 -65.946)" fill="#f3abaa"/>
          <path id="Trazado_887544" data-name="Trazado 887544" d="M346.744,235.362s-4.6,14.81-2.423,29.527L339,264.46a81.9,81.9,0,0,1,3.057-28.837Z" transform="translate(-222.684 -154.707)" fill="#8722e2"/>
          <path id="Trazado_887545" data-name="Trazado 887545" d="M512.147,172.428l1.956,5.386s6.257-1.69,3.535-6.853-5.491,1.467-5.491,1.467" transform="translate(-336.642 -111.082)" fill="#0d0f44"/>
          <path id="Trazado_887546" data-name="Trazado 887546" d="M501.962,155.405a5.481,5.481,0,0,1,1.448-3.545,3.649,3.649,0,0,1,3.108-1.294c5.687.708,2.7,12.964-2.113,11.47-2.443-.759-2.547-4.692-2.443-6.631" transform="translate(-329.93 -98.952)" fill="#f3abaa"/>
          <path id="Trazado_887547" data-name="Trazado 887547" d="M434.165,276.122h5.164l.008-.087c1.473-15.191,8.367-24.254,8.436-24.344l-.152-.118c-.07.09-6.971,9.162-8.467,24.356h-4.989Z" transform="translate(-285.383 -165.363)" fill="#0d0f44"/>
          <path id="Trazado_887548" data-name="Trazado 887548" d="M524.474,392.508l.259,4.669,26.745,1.73.184-6.4Z" transform="translate(-344.744 -258.001)" fill="#0d0f44"/>
          <path id="Trazado_887549" data-name="Trazado 887549" d="M508.3,329.258h.192c0-25.31,2.413-33.907,2.438-33.991l-.184-.053c-.024.084-2.445,8.7-2.445,34.045" transform="translate(-334.116 -194.048)" fill="#0d0f44"/>
          <path id="Trazado_887550" data-name="Trazado 887550" d="M437.5,307.909c0,.933.5,1.69,1.126,1.69s1.126-.757,1.126-1.69-.5-1.69-1.126-1.69-1.126.757-1.126,1.69" transform="translate(-287.576 -201.282)" fill="#ecd10c"/>
          <path id="Trazado_887551" data-name="Trazado 887551" d="M442.353,286.974c-.243.9.047,1.763.648,1.925s1.284-.437,1.527-1.338-.047-1.763-.647-1.925-1.285.437-1.528,1.338" transform="translate(-290.709 -187.735)" fill="#ecd10c"/>
          <path id="Trazado_887552" data-name="Trazado 887552" d="M542.734,382.588H506.941v5.652h36.187Z" transform="translate(-333.219 -251.48)" fill="#8722e2"/>
          <path id="Trazado_887553" data-name="Trazado 887553" d="M456.374,207.952a13.266,13.266,0,0,0,11.5-8.55c-.079.127-2.678,4.2-10.545,5.792-.316,1.068-.66,2.01-.959,2.758" transform="translate(-299.981 -131.07)" fill="#0d0f44"/>
          <path id="Trazado_887554" data-name="Trazado 887554" d="M464.08,156.606c0,.853.427,1.545.953,1.545s.953-.692.953-1.545-.427-1.545-.953-1.545-.953.692-.953,1.545" transform="translate(-305.047 -101.924)" fill="#0d0f44"/>
          <path id="Trazado_887555" data-name="Trazado 887555" d="M436.364,153.585c0,.853.311,1.545.7,1.545s.7-.692.7-1.545-.311-1.545-.7-1.545-.7.692-.7,1.545" transform="translate(-286.828 -99.938)" fill="#0d0f44"/>
          <path id="Trazado_887556" data-name="Trazado 887556" d="M442.5,165.084l.007-.192a3,3,0,0,1-2.422-1.07.791.791,0,0,1,0-.815c.555-1.011,2.905-4.626,2.929-4.663l-.161-.1c-.024.036-2.378,3.657-2.937,4.675a.985.985,0,0,0,0,1,3.191,3.191,0,0,0,2.582,1.168" transform="translate(-289.074 -104.013)" fill="#0d0f44"/>
          <path id="Trazado_887557" data-name="Trazado 887557" d="M464.827,145.595a11.583,11.583,0,0,0-4.544-.617.448.448,0,0,1-.5-.443v-.751a.446.446,0,0,1,.489-.445,13.227,13.227,0,0,1,4.919,1.443.448.448,0,0,1-.362.814" transform="translate(-302.221 -94.217)" fill="#0d0f44"/>
          <path id="Trazado_887558" data-name="Trazado 887558" d="M439.5,143.575l-.139.813a.388.388,0,0,1-.468.315,6.413,6.413,0,0,0-2.087-.174.39.39,0,0,1-.229-.733,5.888,5.888,0,0,1,2.542-.677.392.392,0,0,1,.381.457" transform="translate(-286.828 -94.073)" fill="#0d0f44"/>
          <path id="Trazado_887559" data-name="Trazado 887559" d="M509.474,163.02a3,3,0,0,0,2.532-1.557c.411-.74.308-.941.075-1.262a1.951,1.951,0,0,1-.407-1.094,3.053,3.053,0,0,1,.283-1.388c.315-.843.613-1.639-.987-2.259a2.37,2.37,0,0,0-2.046-.078,1.324,1.324,0,0,0-.618.89l.19.027a1.147,1.147,0,0,1,.527-.753,2.2,2.2,0,0,1,1.878.093c1.422.551,1.193,1.164.876,2.013a3.245,3.245,0,0,0-.3,1.475,2.143,2.143,0,0,0,.443,1.187c.188.259.282.389-.088,1.056a2.634,2.634,0,0,1-3.207,1.274l-.083.173a2.138,2.138,0,0,0,.926.2" transform="translate(-334.117 -102.005)" fill="#0d0f44"/>
          <path id="Trazado_887560" data-name="Trazado 887560" d="M183.745,135.255l-5.784-2.3-4.588-1.9s-3.71-1.834-2.053-2.78,3.077.236,5.325,1.124,8.383,2.328,8.383,2.328-.774,3.285-1.283,3.53" transform="translate(-112.331 -84.086)" fill="#f3abaa"/>
          <path id="Trazado_887561" data-name="Trazado 887561" d="M203.275,145.838s-9.141-.888-12.337-2.6,1.657-8.047,1.657-8.047l5.752,1.323s7.54-.987,12.241.707c7.8,2.811-7.313,8.62-7.313,8.62" transform="translate(-124.791 -88.861)" fill="#f3abaa"/>
          <path id="Trazado_887562" data-name="Trazado 887562" d="M174.383,136.666l-5.739-1.716-4.851-2.6s-3.491-1.716-1.834-2.662,3.077.236,5.325,1.124,8.383,2.328,8.383,2.328-.774,3.285-1.283,3.53" transform="translate(-106.164 -85.014)" fill="#f3abaa"/>
          <path id="Trazado_887563" data-name="Trazado 887563" d="M212.658,122.76l-1.3-3.195s-2.722-2.308-3.136-3.55-1.42-3.432-.3-3.668,1.716,1.124,3.017,2.722,3.727,2.071,5.443,3.195,5.089,3.668,5.089,3.668-5.5,1.716-8.816.828" transform="translate(-136.333 -73.829)" fill="#f3abaa"/>
          <path id="Trazado_887564" data-name="Trazado 887564" d="M174.383,141.673l-5.739-1.716-4.851-2.6s-3.491-1.716-1.834-2.662,3.077.236,5.325,1.124,8.383,2.328,8.383,2.328-.774,3.285-1.283,3.53" transform="translate(-106.164 -88.305)" fill="#f3abaa"/>
          <path id="Trazado_887565" data-name="Trazado 887565" d="M176.1,147.643l-6.248-1.471-4.851-2.6s-3.491-1.716-1.834-2.663,3.077.237,5.325,1.124,8.383,2.328,8.383,2.328-.266,3.04-.774,3.285" transform="translate(-106.958 -92.391)" fill="#f3abaa"/>
          <path id="Trazado_887566" data-name="Trazado 887566" d="M292.475,248.492l-.209-.007c.11-3.631,2.552-8.146,3.4-9.6l-3.691,2.858-.128-.166,4.591-3.554-.311.5c-.035.056-3.516,5.658-3.647,9.972" transform="translate(-191.832 -156.456)" fill="#0d0f44"/>
          <path id="Trazado_887567" data-name="Trazado 887567" d="M177.581,143.756l-6.554-1.626c-.032-.015-3.236-1.547-4.4-1.919a2.052,2.052,0,0,0-1.84.19l-.128-.165a2.255,2.255,0,0,1,2.031-.224c1.156.37,4.185,1.814,4.416,1.925l6.523,1.616Z" transform="translate(-108.234 -91.944)" fill="#0d0f44"/>
          <path id="Trazado_887568" data-name="Trazado 887568" d="M177.162,137.959l-7.238-1.835a42.924,42.924,0,0,0-5.015-2,1.8,1.8,0,0,0-1.565.215l-.147-.148a1.95,1.95,0,0,1,1.753-.271,41.5,41.5,0,0,1,5.045,2.01l7.22,1.829Z" transform="translate(-107.272 -87.983)" fill="#0d0f44"/>
          <path id="Trazado_887569" data-name="Trazado 887569" d="M181.745,133.725l-8.6-2.415-2.344-1.042.085-.191,2.33,1.037,8.584,2.41Z" transform="translate(-112.271 -85.502)" fill="#0d0f44"/>
          <path id="Trazado_887570" data-name="Trazado 887570" d="M229.641,137.987c-3.568-1.75-8.588-.428-8.638-.414l-.055-.2c.051-.014,5.146-1.356,8.785.428Z" transform="translate(-145.232 -89.969)" fill="#0d0f44"/>
          <path id="Trazado_887571" data-name="Trazado 887571" d="M439.777,188.934a1.771,1.771,0,0,1-.181-.009c-1.5-.15-2.336-2.1-2.371-2.185l.193-.081c.008.019.823,1.921,2.2,2.058.918.091,1.886-.608,2.884-2.076l.173.117c-.981,1.445-1.955,2.176-2.9,2.176" transform="translate(-287.394 -122.682)" fill="#0d0f44"/>
          <path id="Trazado_887572" data-name="Trazado 887572" d="M452.756,108.73a4.642,4.642,0,0,0-.551,3.9c.729,2.078,2.859,1.986,3.864,3.718s0,4.217,0,4.217l2.7.443s-.794-5.355,2.424-6.952,5.488,1.9,4.885,6.393l1.593,1.42s3.307-.713,2.656-4.914c0,0,2.189-2.615,1.538-5.123s-1.657-2.8-1.657-2.8a5.733,5.733,0,0,0,1.777-5.5c-.831-3.313-5.86-4.2-5.86-4.2s-1.065-3.846-7.987-4.733-8.579.591-8.579.591a31,31,0,0,0-8.4,1.479c-3.727,1.361-7.573,5.172-2.81,8.621,0,0,.384.905,3.52.55s4.614-1.479,6.951-.3,2.811,1.893,3.817,1.775.118,1.42.118,1.42" transform="translate(-286.677 -61.988)" fill="#0d0f44"/>
          <path id="Trazado_887573" data-name="Trazado 887573" d="M454.918,159.487c-2,0-3.57-2.3-3.57-5.236s1.568-5.236,3.57-5.236,3.569,2.3,3.569,5.236-1.568,5.236-3.569,5.236m0-9.427c-1.368,0-2.525,1.919-2.525,4.191s1.156,4.191,2.525,4.191,2.524-1.919,2.524-4.191-1.156-4.191-2.524-4.191" transform="translate(-296.678 -97.95)" fill="#475aea"/>
          <path id="Trazado_887574" data-name="Trazado 887574" d="M428.506,156.251c-1.619,0-2.887-2.3-2.887-5.236s1.268-5.236,2.887-5.236,2.887,2.3,2.887,5.236-1.268,5.236-2.887,5.236m0-9.427c-.871,0-1.842,1.721-1.842,4.191s.971,4.191,1.842,4.191,1.842-1.721,1.842-4.191-.971-4.191-1.842-4.191" transform="translate(-279.766 -95.823)" fill="#475aea"/>
          <rect id="Rectángulo_403533" data-name="Rectángulo 403533" width="19.032" height="1.045" transform="translate(160.451 52.615) rotate(-5.229)" fill="#475aea"/>
          <path id="Trazado_887575" data-name="Trazado 887575" d="M443.542,154.311c-.933-1.075-1.786-1.6-2.468-1.515a1.613,1.613,0,0,0-1.084.826l-.937-.463a2.656,2.656,0,0,1,1.879-1.4c1.062-.138,2.206.49,3.4,1.866Z" transform="translate(-288.596 -99.742)" fill="#475aea"/>
          <path id="Trazado_887576" data-name="Trazado 887576" d="M161.208,38.813h-50.7a5.42,5.42,0,0,1-5.42-5.42V5.42A5.42,5.42,0,0,1,110.51,0h50.7a5.42,5.42,0,0,1,5.42,5.42V33.393a5.42,5.42,0,0,1-5.42,5.42" transform="translate(-69.077)" fill="#8722e2"/>
          <path id="Trazado_887577" data-name="Trazado 887577" d="M155.747,29.829c.009-.132.012-.264.016-.4l2.571-.637-.887-4.4-2.508.621a9.814,9.814,0,0,0-1.26-2.136l1.632-1.991-3.388-2.678-1.6,1.929a9.773,9.773,0,0,0-2.018-.731l.192-2.391-4.405-.054-.206,2.345a11,11,0,0,0-1.958.566l-1.177-1.924-3.833,2.49,1.161,1.931a11.851,11.851,0,0,0-1.094,1.223l-2.082-.907-2.074,4.121,2.105.929a11.279,11.279,0,0,0-.314,1.724c-.02.2-.034.4-.043.594l-2.379.589.693,4.455,2.438-.6a9.852,9.852,0,0,0,1.27,2.221l-1.691,2.042,3.385,2.878,1.726-2.1a9.765,9.765,0,0,0,2.031.734l-.236,2.694,4.594.1.22-2.743a11,11,0,0,0,1.9-.577l1.369,2.276,3.954-2.657-1.39-2.272a11.9,11.9,0,0,0,1-1.172l2.412,1.064,1.98-4.291-2.388-1.041a11.152,11.152,0,0,0,.277-1.824m-11.328,5.934a5.492,5.492,0,0,1-5.376-6.145A6.459,6.459,0,0,1,145.43,23.8a5.491,5.491,0,0,1,5.413,6.027,6.45,6.45,0,0,1-6.423,5.941" transform="translate(-86.898 -11.152)" fill="#fff"/>
          <path id="Trazado_887578" data-name="Trazado 887578" d="M223.1,20.892c0-.072.007-.143.009-.213l1.388-.344-.478-2.374-1.353.335a5.291,5.291,0,0,0-.68-1.152l.881-1.074-1.829-1.445-.862,1.041a5.272,5.272,0,0,0-1.089-.395l.1-1.29-2.377-.029-.111,1.265a5.909,5.909,0,0,0-1.057.305l-.635-1.038-2.068,1.344.627,1.042a6.318,6.318,0,0,0-.59.66l-1.123-.489-1.119,2.224,1.136.5a6.046,6.046,0,0,0-.17.93c-.011.108-.019.215-.023.321l-1.283.318.374,2.4,1.316-.326a5.3,5.3,0,0,0,.685,1.2l-.913,1.1,1.827,1.553.931-1.135a5.261,5.261,0,0,0,1.1.4l-.127,1.453,2.479.056.119-1.48a5.93,5.93,0,0,0,1.025-.312l.739,1.229,2.133-1.434-.75-1.226a6.386,6.386,0,0,0,.541-.633l1.3.574,1.068-2.316-1.289-.562a6.031,6.031,0,0,0,.15-.984m-6.112,3.2a2.963,2.963,0,0,1-2.9-3.315,3.486,3.486,0,0,1,3.446-3.142,2.963,2.963,0,0,1,2.921,3.252,3.481,3.481,0,0,1-3.466,3.205" transform="translate(-138.293 -9.17)" fill="#fff"/>
          <rect id="Rectángulo_403534" data-name="Rectángulo 403534" width="52.191" height="32.682" transform="translate(13.937 64.018)" fill="#dbdfeb"/>
          <path id="Trazado_887579" data-name="Trazado 887579" d="M54.673,225.07l13.312-19.841,13.255,15.882,6.815-7.477,9.572,11.436Z" transform="translate(-35.937 -134.9)" fill="#fff"/>
          <path id="Trazado_887580" data-name="Trazado 887580" d="M143.774,202.775A3.373,3.373,0,1,1,140.4,199.4a3.372,3.372,0,0,1,3.372,3.372" transform="translate(-90.071 -131.07)" fill="#fff"/>
          <rect id="Rectángulo_403535" data-name="Rectángulo 403535" width="30.359" height="20.34" transform="translate(13.937 117.366)" fill="#c0cfff"/>
          <path id="Trazado_887581" data-name="Trazado 887581" d="M54.733,304.112a3.734,3.734,0,0,1,1.092-2.748c.141-.184.285-.376.43-.579.374-.528.8-1.032,1.2-1.519a21.452,21.452,0,0,0,1.37-1.766,10.747,10.747,0,0,0,.926-9.956l.192-.082A10.96,10.96,0,0,1,59,297.615a21.341,21.341,0,0,1-1.384,1.783c-.4.485-.822.986-1.192,1.506-.146.206-.293.4-.433.585a3.525,3.525,0,0,0-1.05,2.6Z" transform="translate(-35.969 -188.952)" fill="#dbdfeb"/>
          <path id="Trazado_887582" data-name="Trazado 887582" d="M135.548,304.028c-1.93-4.281-6.587-6.064-10.154-6.805-4.008-.834-8.2-.485-12.248-.147l-.727.06c-4.49.37-8.863.6-13-.613-3.672-1.078-8.039-3.879-9.283-8.507l.2-.054c1.221,4.544,5.522,7.3,9.14,8.361,4.1,1.2,8.455.974,12.924.605l.727-.061c4.066-.339,8.271-.689,12.308.151,3.614.751,8.335,2.563,10.3,6.924Z" transform="translate(-59.247 -189.282)" fill="#dbdfeb"/>
          <path id="Trazado_887583" data-name="Trazado 887583" d="M56.834,356.971l-.6-.828-8.351,5.68v.638l8.366,5.269.569-.848-7.558-4.76Z" transform="translate(-31.474 -234.098)" fill="#fff"/>
          <path id="Trazado_887584" data-name="Trazado 887584" d="M105.006,361.777l-8.284-5.634-.6.828,7.573,5.151-7.557,4.759.569.848,8.3-5.227Z" transform="translate(-63.183 -234.098)" fill="#fff"/>
          <path id="Trazado_887585" data-name="Trazado 887585" d="M213.9,362.734H183.33V342.185H213.9Zm-30.359-.209h30.149V342.394H183.539Z" transform="translate(-120.505 -224.923)" fill="#0d0f44"/>
          <path id="Trazado_887586" data-name="Trazado 887586" d="M215.813,355.616h8.306v1.571h-8.306Zm3.327.963h1.651v10.807H219.14Z" transform="translate(-141.857 -233.752)" fill="#00ffdf"/>
          <rect id="Rectángulo_403536" data-name="Rectángulo 403536" width="3.995" height="3.995" transform="translate(91.022 115.766)" fill="#0d0f44"/>
          <rect id="Rectángulo_403537" data-name="Rectángulo 403537" width="3.995" height="3.995" transform="translate(91.022 135.709)" fill="#0d0f44"/>
          <rect id="Rectángulo_403538" data-name="Rectángulo 403538" width="3.995" height="3.995" transform="translate(61.69 115.766)" fill="#0d0f44"/>
          <rect id="Rectángulo_403539" data-name="Rectángulo 403539" width="3.995" height="3.995" transform="translate(61.69 135.709)" fill="#0d0f44"/>
          <path id="Trazado_887587" data-name="Trazado 887587" d="M54.22,329.951a1.474,1.474,0,1,1-1.474-1.474,1.473,1.473,0,0,1,1.474,1.474" transform="translate(-33.702 -215.913)" fill="#dbdfeb"/>
          <path id="Trazado_887588" data-name="Trazado 887588" d="M221.579,329.951a1.474,1.474,0,1,1-1.474-1.474,1.473,1.473,0,0,1,1.474,1.474" transform="translate(-143.71 -215.913)" fill="#dbdfeb"/>
          <path id="Trazado_887589" data-name="Trazado 887589" d="M68.349,287.622a1.474,1.474,0,1,1-1.474-1.474,1.473,1.473,0,0,1,1.474,1.474" transform="translate(-42.99 -188.089)" fill="#dbdfeb"/>
          <path id="Trazado_887590" data-name="Trazado 887590" d="M89.077,287.622a1.474,1.474,0,1,1-1.474-1.474,1.473,1.473,0,0,1,1.474,1.474" transform="translate(-56.614 -188.089)" fill="#dbdfeb"/>
          <path id="Trazado_887591" data-name="Trazado 887591" d="M40.67,155.734v7.647l15.179-7.367Z" transform="translate(-26.733 -102.366)" fill="#c0cfff"/>
          <path id="Trazado_887592" data-name="Trazado 887592" d="M9.254,181.2a1.2,1.2,0,0,1-1.2-1.2V152.1a1.2,1.2,0,0,1,2.4,0V180a1.2,1.2,0,0,1-1.2,1.2" transform="translate(-5.295 -99.187)" fill="#dbdfeb"/>
          <path id="Trazado_887593" data-name="Trazado 887593" d="M373.01,104.436h-6.54a2.055,2.055,0,1,1,0-4.11h6.54a2.055,2.055,0,1,1,0,4.11" transform="translate(-239.535 -65.946)" fill="#fff"/>
          <path id="Trazado_887594" data-name="Trazado 887594" d="M411.562,104.436h-6.54a2.055,2.055,0,1,1,0-4.11h6.54a2.055,2.055,0,1,1,0,4.11" transform="translate(-264.876 -65.946)" fill="#fff"/>
        </g>
      </g>
    </g>
  </g>
</svg>
