<svg xmlns="http://www.w3.org/2000/svg" xmlns:xlink="http://www.w3.org/1999/xlink" width="190" height="109" viewBox="0 0 190 109">
  <defs>
    <clipPath id="clip-path">
      <rect id="Rectángulo_403353" data-name="Rectángulo 403353" width="91.198" height="74.657" fill="#8722e2"/>
    </clipPath>
    <clipPath id="clip-path-2">
      <rect id="Rectángulo_403354" data-name="Rectángulo 403354" width="91.198" height="74.657" fill="none"/>
    </clipPath>
  </defs>
  <g id="Grupo_1101854" data-name="Grupo 1101854" transform="translate(-180 -8019)">
    <g id="Grupo_1101660" data-name="Grupo 1101660" transform="translate(0 3037)">
      <rect id="Rectángulo_403324" data-name="Rectángulo 403324" width="190" height="109" transform="translate(180 4982)" fill="#f2e5fd"/>
    </g>
    <g id="Grupo_1101665" data-name="Grupo 1101665" transform="translate(242.234 8033.461)">
      <g id="Grupo_1101662" data-name="Grupo 1101662">
        <g id="Grupo_1101661" data-name="Grupo 1101661" clip-path="url(#clip-path)">
          <path id="Trazado_886712" data-name="Trazado 886712" d="M37.027,0A37.027,37.027,0,1,0,74.053,37.027,37.069,37.069,0,0,0,37.027,0M23.853,62.46A31.426,31.426,0,0,0,26.5,67.28,32.037,32.037,0,0,1,16.44,61.549a31.965,31.965,0,0,1,5.639-3.805,45.061,45.061,0,0,0,1.774,4.717m2.831-6.7a32.295,32.295,0,0,1,20.685,0c-2.536,8.284-6.572,13.3-10.343,13.3s-7.806-5.018-10.343-13.3M22.079,16.31A31.966,31.966,0,0,1,16.44,12.5,32.043,32.043,0,0,1,26.5,6.773a31.41,31.41,0,0,0-2.643,4.82,45,45,0,0,0-1.774,4.717M37.027,4.993c3.77,0,7.807,5.019,10.343,13.3A32.085,32.085,0,0,1,37.027,20a32.078,32.078,0,0,1-10.343-1.7c2.536-8.283,6.572-13.3,10.343-13.3m13.173,6.6a31.41,31.41,0,0,0-2.643-4.82A32.043,32.043,0,0,1,57.613,12.5a31.95,31.95,0,0,1-5.639,3.805A45.029,45.029,0,0,0,50.2,11.593m-13.173,13.4A37.108,37.108,0,0,0,48.6,23.152,67.868,67.868,0,0,1,49.9,34.53H24.158a67.875,67.875,0,0,1,1.3-11.379,37.1,37.1,0,0,0,11.572,1.836M49.9,39.523A67.871,67.871,0,0,1,48.6,50.9a37.381,37.381,0,0,0-23.144,0,67.875,67.875,0,0,1-1.3-11.379Zm.3,22.937a45,45,0,0,0,1.774-4.717,31.95,31.95,0,0,1,5.639,3.805A32.043,32.043,0,0,1,47.557,67.28,31.426,31.426,0,0,0,50.2,62.46m3.09-9.65a72.672,72.672,0,0,0,1.6-13.287H68.964a31.9,31.9,0,0,1-7.773,18.511,36.9,36.9,0,0,0-7.9-5.224m1.6-18.279a72.665,72.665,0,0,0-1.6-13.286,36.9,36.9,0,0,0,7.9-5.225A31.9,31.9,0,0,1,68.964,34.53ZM12.864,16.018a36.941,36.941,0,0,0,7.9,5.225,72.648,72.648,0,0,0-1.6,13.288H5.09a31.9,31.9,0,0,1,7.774-18.512M5.09,39.523H19.168a72.655,72.655,0,0,0,1.6,13.288,36.928,36.928,0,0,0-7.9,5.224A31.9,31.9,0,0,1,5.09,39.523" fill="#8722e2"/>
          <path id="Trazado_886713" data-name="Trazado 886713" d="M84.954,108.006H42.7a3.756,3.756,0,0,1-3.745-3.745V94.068A3.756,3.756,0,0,1,42.7,90.323H84.954A3.756,3.756,0,0,1,88.7,94.068v10.194a3.756,3.756,0,0,1-3.745,3.745" transform="translate(-26.803 -62.138)" fill="#8722e2"/>
        </g>
      </g>
      <text id="www" transform="translate(15.313 40.785)" fill="#fff" font-size="17" font-family="SegoeUI, Segoe UI"><tspan x="0" y="0" letter-spacing="0.111em">ww</tspan><tspan y="0">w</tspan></text>
      <g id="Grupo_1101664" data-name="Grupo 1101664">
        <g id="Grupo_1101663" data-name="Grupo 1101663" clip-path="url(#clip-path-2)">
          <path id="Trazado_886714" data-name="Trazado 886714" d="M219.075,171.779a2.479,2.479,0,0,1-1.765-.731l-6.429-6.429-2.594,4.817a2.5,2.5,0,0,1-4.566-.394l-7.588-22.764a2.465,2.465,0,0,1,.34-2.245,2.486,2.486,0,0,1,2.818-.913l22.764,7.588a2.5,2.5,0,0,1,.394,4.566l-4.817,2.594,6.429,6.429a2.5,2.5,0,0,1,0,3.531l-3.22,3.22a2.479,2.479,0,0,1-1.765.731" transform="translate(-134.84 -98.37)" fill="#f0c518"/>
        </g>
      </g>
    </g>
  </g>
</svg>
