<svg xmlns="http://www.w3.org/2000/svg" xmlns:xlink="http://www.w3.org/1999/xlink" width="610" height="378.553" viewBox="0 0 610 378.553">
  <defs>
    <clipPath id="clip-path">
      <rect id="Rectángulo_403305" data-name="Rectángulo 403305" width="48.81" height="31.685" fill="#8722e2"/>
    </clipPath>
    <clipPath id="clip-path-2">
      <rect id="Rectángulo_403317" data-name="Rectángulo 403317" width="63.646" height="38.304" fill="#8722e2"/>
    </clipPath>
    <clipPath id="clip-path-4">
      <rect id="Rectángulo_403368" data-name="Rectángulo 403368" width="25.601" height="47.184" transform="translate(0 0)" fill="none"/>
    </clipPath>
    <clipPath id="clip-path-6">
      <rect id="Rectángulo_403367" data-name="Rectángulo 403367" width="78.204" height="45.158" fill="#8722e2"/>
    </clipPath>
    <clipPath id="clip-path-7">
      <rect id="Rectángulo_403398" data-name="Rectángulo 403398" width="59.545" height="50.775" fill="none"/>
    </clipPath>
  </defs>
  <g id="Grupo_1101768" data-name="Grupo 1101768" transform="translate(-495 -10363.708)">
    <path id="Trazado_879252" data-name="Trazado 879252" d="M0,0H610V378.553H0Z" transform="translate(495 10363.708)" fill="#f7eefe"/>
    <g id="Grupo_1101758" data-name="Grupo 1101758" transform="translate(537.546 10637.938)">
      <g id="Grupo_1101573" data-name="Grupo 1101573" transform="translate(0 0)" clip-path="url(#clip-path)">
        <path id="Trazado_879211" data-name="Trazado 879211" d="M152.326,26.349H112.593V2.012A2.013,2.013,0,0,1,114.606,0h35.707a2.013,2.013,0,0,1,2.013,2.013Z" transform="translate(-108.055 0.001)" fill="#8722e2"/>
        <rect id="Rectángulo_403304" data-name="Rectángulo 403304" width="34.351" height="23.823" transform="translate(7.23 2.776)" fill="#fff"/>
        <path id="Trazado_879212" data-name="Trazado 879212" d="M47.144,688.21H1.666a1.646,1.646,0,0,1-1.479-1.595l-.18-1.535a.815.815,0,0,1,.68-.982H48.123a.815.815,0,0,1,.68.982l-.18,1.535a1.646,1.646,0,0,1-1.479,1.595" transform="translate(0 -656.525)" fill="#8722e2"/>
        <path id="Trazado_879213" data-name="Trazado 879213" d="M521.7,723.56h-6.289a.506.506,0,0,1,0-1.012H521.7a.506.506,0,1,1,0,1.012" transform="translate(-494.155 -693.424)" fill="#fff"/>
      </g>
    </g>
    <g id="Grupo_1101759" data-name="Grupo 1101759" transform="translate(-273.646 6054.438)">
      <g id="Grupo_1101613" data-name="Grupo 1101613" transform="translate(895 4577.817)">
        <g id="Grupo_1101612" data-name="Grupo 1101612" clip-path="url(#clip-path-2)">
          <path id="Trazado_879256" data-name="Trazado 879256" d="M42.41,0H1.774A1.774,1.774,0,0,0,0,1.774V30.866a1.774,1.774,0,0,0,1.774,1.774H42.41a1.774,1.774,0,0,0,1.774-1.774V1.774A1.774,1.774,0,0,0,42.41,0m-.662,30.021H2.436V2.619H41.748Z" fill="#8722e2"/>
          <path id="Trazado_879257" data-name="Trazado 879257" d="M68.829,148.24v-.018H58.279v.018a1.814,1.814,0,0,1-1.814,1.814H53.478v2H73.63v-2H70.643a1.814,1.814,0,0,1-1.814-1.814" transform="translate(-41.093 -113.895)" fill="#8722e2"/>
          <path id="Trazado_879258" data-name="Trazado 879258" d="M213.777,13.059H199.465a1.775,1.775,0,0,0-1.775,1.775V46.564a1.775,1.775,0,0,0,1.775,1.775h14.312a1.775,1.775,0,0,0,1.775-1.775V14.834a1.775,1.775,0,0,0-1.775-1.775m-7.156,26.615a1.326,1.326,0,1,1,1.326-1.326,1.326,1.326,0,0,1-1.326,1.326m5.408-15.741a1.153,1.153,0,0,1-1.153,1.153h-8.511a1.153,1.153,0,0,1-1.153-1.153V23.91a1.153,1.153,0,0,1,1.153-1.153h8.511a1.153,1.153,0,0,1,1.153,1.153Zm0-5.648a1.153,1.153,0,0,1-1.153,1.153h-8.511a1.153,1.153,0,0,1-1.153-1.153v-.023a1.153,1.153,0,0,1,1.153-1.153h8.511a1.153,1.153,0,0,1,1.153,1.153Z" transform="translate(-151.906 -10.035)" fill="#8722e2"/>
        </g>
      </g>
      <rect id="Rectángulo_403318" data-name="Rectángulo 403318" width="40" height="28" transform="translate(897 4580)" fill="#fff"/>
    </g>
    <g id="Grupo_1101760" data-name="Grupo 1101760" transform="translate(775.596 10637.938)">
      <g id="Grupo_1101573-2" data-name="Grupo 1101573" transform="translate(0 0)" clip-path="url(#clip-path)">
        <path id="Trazado_879211-2" data-name="Trazado 879211" d="M152.326,26.349H112.593V2.012A2.013,2.013,0,0,1,114.606,0h35.707a2.013,2.013,0,0,1,2.013,2.013Z" transform="translate(-108.055 0.001)" fill="#8722e2"/>
        <rect id="Rectángulo_403304-2" data-name="Rectángulo 403304" width="34.351" height="23.823" transform="translate(7.23 2.776)" fill="#fff"/>
        <path id="Trazado_879212-2" data-name="Trazado 879212" d="M47.144,688.21H1.666a1.646,1.646,0,0,1-1.479-1.595l-.18-1.535a.815.815,0,0,1,.68-.982H48.123a.815.815,0,0,1,.68.982l-.18,1.535a1.646,1.646,0,0,1-1.479,1.595" transform="translate(0 -656.525)" fill="#8722e2"/>
        <path id="Trazado_879213-2" data-name="Trazado 879213" d="M521.7,723.56h-6.289a.506.506,0,0,1,0-1.012H521.7a.506.506,0,1,1,0,1.012" transform="translate(-494.155 -693.424)" fill="#fff"/>
      </g>
    </g>
    <g id="Grupo_1101761" data-name="Grupo 1101761" transform="translate(954.559 10590.819)">
      <g id="Grupo_1101683" data-name="Grupo 1101683" transform="translate(0 -0.004)" clip-path="url(#clip-path-4)">
        <path id="Trazado_886756" data-name="Trazado 886756" d="M97.924,286.784H78.016a.753.753,0,0,1-.753-.753V254.078a.753.753,0,0,1,.753-.753H97.924a.753.753,0,0,1,.753.753v31.953a.753.753,0,0,1-.753.753" transform="translate(-75.17 -246.462)" fill="#fff"/>
        <path id="Trazado_886757" data-name="Trazado 886757" d="M21.137,0H4.464A4.464,4.464,0,0,0,0,4.46V42.716A4.464,4.464,0,0,0,4.464,47.18H21.137A4.464,4.464,0,0,0,25.6,42.716V4.46A4.464,4.464,0,0,0,21.137,0m2.371,39.569a.753.753,0,0,1-.753.753H2.846a.753.753,0,0,1-.753-.753V7.612a.753.753,0,0,1,.753-.753H22.754a.753.753,0,0,1,.753.753Z" transform="translate(0 0.004)" fill="#8722e2"/>
        <path id="Trazado_886758" data-name="Trazado 886758" d="M373.557,103.3h-4.381a.626.626,0,0,1,0-1.252h4.381a.626.626,0,0,1,0,1.252" transform="translate(-358.566 -99.281)" fill="#fff"/>
        <path id="Trazado_886759" data-name="Trazado 886759" d="M373.557,103.3h-4.381a.626.626,0,0,1,0-1.252h4.381a.626.626,0,0,1,0,1.252" transform="translate(-358.566 -99.281)" fill="#fff"/>
      </g>
    </g>
    <g id="Grupo_1101762" data-name="Grupo 1101762" transform="translate(1039.399 10590.819)">
      <g id="Grupo_1101683-2" data-name="Grupo 1101683" transform="translate(0 -0.004)" clip-path="url(#clip-path-4)">
        <path id="Trazado_886756-2" data-name="Trazado 886756" d="M97.924,286.784H78.016a.753.753,0,0,1-.753-.753V254.078a.753.753,0,0,1,.753-.753H97.924a.753.753,0,0,1,.753.753v31.953a.753.753,0,0,1-.753.753" transform="translate(-75.17 -246.462)" fill="#fff"/>
        <path id="Trazado_886757-2" data-name="Trazado 886757" d="M21.137,0H4.464A4.464,4.464,0,0,0,0,4.46V42.716A4.464,4.464,0,0,0,4.464,47.18H21.137A4.464,4.464,0,0,0,25.6,42.716V4.46A4.464,4.464,0,0,0,21.137,0m2.371,39.569a.753.753,0,0,1-.753.753H2.846a.753.753,0,0,1-.753-.753V7.612a.753.753,0,0,1,.753-.753H22.754a.753.753,0,0,1,.753.753Z" transform="translate(0 0.004)" fill="#8722e2"/>
        <path id="Trazado_886758-2" data-name="Trazado 886758" d="M373.557,103.3h-4.381a.626.626,0,0,1,0-1.252h4.381a.626.626,0,0,1,0,1.252" transform="translate(-358.566 -99.281)" fill="#fff"/>
        <path id="Trazado_886759-2" data-name="Trazado 886759" d="M373.557,103.3h-4.381a.626.626,0,0,1,0-1.252h4.381a.626.626,0,0,1,0,1.252" transform="translate(-358.566 -99.281)" fill="#fff"/>
      </g>
    </g>
    <g id="Grupo_1101763" data-name="Grupo 1101763" transform="translate(760.916 10472.271)">
      <g id="Grupo_1101681" data-name="Grupo 1101681" clip-path="url(#clip-path-6)">
        <path id="Trazado_886755" data-name="Trazado 886755" d="M66.005,20.759c-.313,0-.623.013-.93.036.018-.272.028-.545.028-.821a12.477,12.477,0,0,0-20.4-9.641,15.676,15.676,0,0,0-30.413,5.339c0,.3.009.6.026.9h-.026a14.292,14.292,0,1,0,0,28.584H66.005a12.2,12.2,0,1,0,0-24.4" transform="translate(0 0.001)" fill="#8722e2"/>
      </g>
    </g>
    <path id="Trazado_887253" data-name="Trazado 887253" d="M92.107,161.364V154.64h17.979a4.416,4.416,0,0,0,4.408-4.408V134.5a4.451,4.451,0,0,0-4.408-4.333h-39.1a4.416,4.416,0,0,0-4.408,4.408v15.658a4.416,4.416,0,0,0,4.408,4.408H88.968v6.724a4.855,4.855,0,1,0,3.138,0m-3.487-24.548h18.03a1.569,1.569,0,1,1,0,3.138H88.619a1.569,1.569,0,0,1,0-3.138M76.293,147.991H74.35a1.569,1.569,0,1,1,0-3.138h1.942a1.569,1.569,0,1,1,0,3.138m0-8.037H74.35a1.569,1.569,0,1,1,0-3.138h1.942a1.569,1.569,0,1,1,0,3.138m7.172,8.037H81.522a1.569,1.569,0,1,1,0-3.138h1.942a1.578,1.578,0,0,1,1.569,1.569,1.687,1.687,0,0,1-1.569,1.569m0-8.037H81.522a1.569,1.569,0,1,1,0-3.138h1.942a1.578,1.578,0,0,1,1.569,1.569,1.687,1.687,0,0,1-1.569,1.569m5.155,8.037a1.569,1.569,0,0,1,0-3.138h18.03a1.569,1.569,0,1,1,0,3.138Z" transform="translate(709.463 10283.208)" fill="#0b47db"/>
    <g id="Grupo_1101765" data-name="Grupo 1101765" transform="translate(927.364 10404.625)">
      <g id="Grupo_1101764" data-name="Grupo 1101764" clip-path="url(#clip-path-7)">
        <path id="Trazado_887254" data-name="Trazado 887254" d="M198.477,206.263a4.226,4.226,0,0,1-4.227,4.212H182.265a5.4,5.4,0,0,1,0,2.273H194.25a6.5,6.5,0,0,0,6.5-6.485V203.9h-2.273Z" transform="translate(-146.871 -164.304)" fill="#203a72"/>
        <path id="Trazado_887255" data-name="Trazado 887255" d="M35.668,210.475a4.222,4.222,0,0,1-4.212-4.212V203.9H29.183v2.364a6.492,6.492,0,0,0,6.485,6.485h12a5.406,5.406,0,0,1,0-2.273Z" transform="translate(-23.516 -164.304)" fill="#203a72"/>
        <path id="Trazado_887256" data-name="Trazado 887256" d="M230.016,78.905h12.106a2.784,2.784,0,0,0,2.772-2.773V70.738a2.771,2.771,0,0,0-2.772-2.757H230.016a4.967,4.967,0,0,1,.833,2.757v5.394a5.016,5.016,0,0,1-.833,2.773m8.773-6.409h1.227a.985.985,0,0,1,0,1.97h-1.227a.992.992,0,0,1-.985-.985.964.964,0,0,1,.985-.985m-4.5,0h1.227a.985.985,0,0,1,0,1.97h-1.227a.992.992,0,0,1-.985-.985,1.023,1.023,0,0,1,.985-.985" transform="translate(-185.349 -54.78)" fill="#14a0de"/>
        <path id="Trazado_887257" data-name="Trazado 887257" d="M2.758,78.905H14.864a5.015,5.015,0,0,1-.833-2.773V70.738a4.966,4.966,0,0,1,.833-2.757H2.758A2.758,2.758,0,0,0,0,70.738v5.394a2.771,2.771,0,0,0,2.758,2.773M9.379,72.5h1.213a1.023,1.023,0,0,1,.985.985.992.992,0,0,1-.985.985H9.379a.985.985,0,0,1,0-1.97m-4.5,0H6.091a.964.964,0,0,1,.985.985.992.992,0,0,1-.985.985H4.879a.983.983,0,0,1-.985-.985.993.993,0,0,1,.985-.985" transform="translate(0 -54.78)" fill="#14a0de"/>
        <path id="Trazado_887258" data-name="Trazado 887258" d="M86.693,78.882h21.434a2.773,2.773,0,0,0,2.768-2.768V70.726a2.773,2.773,0,0,0-2.768-2.768H86.74a2.773,2.773,0,0,0-2.768,2.768v5.388a2.733,2.733,0,0,0,2.721,2.768m18.1-6.4h1.22a.985.985,0,1,1,0,1.97H104.8a.991.991,0,0,1-.985-.985.962.962,0,0,1,.985-.985m-4.5,0h1.22a.985.985,0,1,1,0,1.97h-1.22a.991.991,0,0,1-.985-.985,1.023,1.023,0,0,1,.985-.985m-11.44,0h8.2a.985.985,0,0,1,0,1.97h-8.2a.991.991,0,0,1-.985-.985.962.962,0,0,1,.985-.985" transform="translate(-67.666 -54.761)" fill="#203a72"/>
        <path id="Trazado_887259" data-name="Trazado 887259" d="M2.758,10.946H14.864a4.942,4.942,0,0,1-.833-2.773V2.779A4.929,4.929,0,0,1,14.864.022H2.758A2.758,2.758,0,0,0,0,2.779V8.173a2.771,2.771,0,0,0,2.758,2.773M9.379,4.537h1.213a1.023,1.023,0,0,1,.985.985.993.993,0,0,1-.985.985H9.379a.985.985,0,0,1,0-1.97m-4.5,0H6.091a.964.964,0,0,1,.985.985.993.993,0,0,1-.985.985H4.879a.983.983,0,0,1-.985-.985.993.993,0,0,1,.985-.985" transform="translate(0 -0.018)" fill="#14a0de"/>
        <path id="Trazado_887260" data-name="Trazado 887260" d="M230.016,10.946h12.106a2.784,2.784,0,0,0,2.772-2.773V2.779A2.771,2.771,0,0,0,242.122.022H230.016a4.93,4.93,0,0,1,.833,2.757V8.173a4.944,4.944,0,0,1-.833,2.773m8.773-6.409h1.227a.985.985,0,0,1,0,1.97h-1.227a.993.993,0,0,1-.985-.985.964.964,0,0,1,.985-.985m-4.5,0h1.227a.985.985,0,0,1,0,1.97h-1.227a.992.992,0,0,1-.985-.985,1.023,1.023,0,0,1,.985-.985" transform="translate(-185.349 -0.018)" fill="#14a0de"/>
        <path id="Trazado_887261" data-name="Trazado 887261" d="M86.693,10.923h21.434a2.773,2.773,0,0,0,2.768-2.768V2.767A2.773,2.773,0,0,0,108.127,0H86.74a2.773,2.773,0,0,0-2.768,2.768V8.155a2.734,2.734,0,0,0,2.721,2.768m18.1-6.4h1.22a.985.985,0,1,1,0,1.97H104.8a.991.991,0,0,1-.985-.985.962.962,0,0,1,.985-.985m-4.5,0h1.22a.985.985,0,1,1,0,1.97h-1.22a.991.991,0,0,1-.985-.985,1.023,1.023,0,0,1,.985-.985m-11.44,0h8.2a.985.985,0,0,1,0,1.97h-8.2a.991.991,0,0,1-.985-.985.962.962,0,0,1,.985-.985" transform="translate(-67.666 0.001)" fill="#203a72"/>
        <path id="Trazado_887262" data-name="Trazado 887262" d="M2.758,146.864H14.864a4.942,4.942,0,0,1-.833-2.773V138.7a4.928,4.928,0,0,1,.833-2.757H2.758A2.758,2.758,0,0,0,0,138.7v5.394a2.771,2.771,0,0,0,2.758,2.773m6.621-6.409h1.213a1.023,1.023,0,0,1,.985.985.993.993,0,0,1-.985.985H9.379a.985.985,0,0,1,0-1.97m-4.5,0H6.091a.964.964,0,0,1,.985.985.993.993,0,0,1-.985.985H4.879a.983.983,0,0,1-.985-.985.993.993,0,0,1,.985-.985" transform="translate(0 -109.542)" fill="#14a0de"/>
        <path id="Trazado_887263" data-name="Trazado 887263" d="M230.016,146.864h12.106a2.784,2.784,0,0,0,2.772-2.773V138.7a2.771,2.771,0,0,0-2.772-2.757H230.016a4.93,4.93,0,0,1,.833,2.757v5.394a4.943,4.943,0,0,1-.833,2.773m8.773-6.409h1.227a.985.985,0,0,1,0,1.97h-1.227a.993.993,0,0,1-.985-.985.964.964,0,0,1,.985-.985m-4.5,0h1.227a.985.985,0,0,1,0,1.97h-1.227a.992.992,0,0,1-.985-.985,1.023,1.023,0,0,1,.985-.985" transform="translate(-185.349 -109.542)" fill="#14a0de"/>
        <path id="Trazado_887264" data-name="Trazado 887264" d="M86.693,146.84h9.6v6.728a3.468,3.468,0,1,0,2.273,0V146.84h9.557a2.773,2.773,0,0,0,2.768-2.768v-5.388a2.773,2.773,0,0,0-2.768-2.768H86.74a2.773,2.773,0,0,0-2.768,2.768v5.388a2.734,2.734,0,0,0,2.721,2.768m18.1-6.4h1.22a.985.985,0,1,1,0,1.97H104.8a.991.991,0,0,1-.985-.985.962.962,0,0,1,.985-.985m-4.5,0h1.22a.985.985,0,1,1,0,1.97h-1.22a.991.991,0,0,1-.985-.985,1.023,1.023,0,0,1,.985-.985m-11.44,0h8.2a.985.985,0,0,1,0,1.97h-8.2a.991.991,0,0,1-.985-.985.962.962,0,0,1,.985-.985" transform="translate(-67.666 -109.523)" fill="#203a72"/>
      </g>
    </g>
    <text id="Cliente_A" data-name="Cliente A" transform="translate(531 10701.907)" fill="#12263f" font-size="16" font-family="Roboto-Regular, Roboto"><tspan x="0" y="0">Cliente A</tspan></text>
    <text id="Lado_del_cliente" data-name="Lado del cliente" transform="translate(954.559 10664.907)" fill="#12263f" font-size="16" font-family="Roboto-Regular, Roboto"><tspan x="0" y="0">Lado del cliente</tspan></text>
    <text id="Internet" transform="translate(773 10534.429)" fill="#12263f" font-size="16" font-family="Roboto-Regular, Roboto"><tspan x="0" y="0">Internet</tspan></text>
    <text id="Servidor" transform="translate(773 10401.429)" fill="#12263f" font-size="16" font-family="Roboto-Regular, Roboto"><tspan x="0" y="0">Servidor</tspan></text>
    <text id="Bade_de_datos" data-name="Bade de
datos" transform="translate(1000 10419.844)" fill="#12263f" font-size="16" font-family="Roboto-Regular, Roboto"><tspan x="0" y="0">Bade de</tspan><tspan x="0" y="20">datos</tspan></text>
    <text id="Lado_del_servidor" data-name="Lado del servidor" transform="translate(592 10503.429)" fill="#12263f" font-size="16" font-family="Roboto-Regular, Roboto"><tspan x="0" y="0">Lado del servidor</tspan></text>
    <path id="Trazado_887265" data-name="Trazado 887265" d="M-8507-1179.613h544.359" transform="translate(9038 11764.429)" fill="none" stroke="#707070" stroke-width="1" stroke-dasharray="6"/>
    <path id="Trazado_887266" data-name="Trazado 887266" d="M-8439-1159.96c3.888-1.4,136.405-58.46,136.405-58.46" transform="translate(8987.595 11781.477)" fill="none" stroke="#a854f3" stroke-width="1"/>
    <path id="Trazado_887267" data-name="Trazado 887267" d="M-8439-1158.769c3.966-1.426,139.185-59.651,139.185-59.651" transform="translate(9072.815 11780.286)" fill="none" stroke="#a854f3" stroke-width="1"/>
    <path id="Trazado_887268" data-name="Trazado 887268" d="M-8182.1-1222.44v81.018" transform="translate(8982.1 11764.429)" fill="none" stroke="#a854f3" stroke-width="1"/>
    <path id="Trazado_887269" data-name="Trazado 887269" d="M-8302.594-1159.96c-3.888-1.4-136.405-58.46-136.405-58.46" transform="translate(9350.956 11781.477)" fill="none" stroke="#a854f3" stroke-width="1"/>
    <path id="Trazado_887270" data-name="Trazado 887270" d="M-8299.816-1158.769c-3.966-1.426-139.185-59.651-139.185-59.651" transform="translate(9262.958 11780.286)" fill="none" stroke="#a854f3" stroke-width="1"/>
    <path id="Trazado_887271" data-name="Trazado 887271" d="M-8162.88-1341.5h62.817" transform="translate(9002 11764.429)" fill="none" stroke="#a854f3" stroke-width="1"/>
    <path id="Trazado_887272" data-name="Trazado 887272" d="M-8182.1-1207.166v-15.274" transform="translate(8982.1 11679.437)" fill="none" stroke="#a854f3" stroke-width="1"/>
  </g>
</svg>
