<svg xmlns="http://www.w3.org/2000/svg" xmlns:xlink="http://www.w3.org/1999/xlink" width="610" height="378.553" viewBox="0 0 610 378.553">
  <defs>
    <clipPath id="clip-path">
      <rect id="Rectángulo_403305" data-name="Rectángulo 403305" width="48.81" height="31.685" fill="#8722e2"/>
    </clipPath>
    <clipPath id="clip-path-2">
      <rect id="Rectángulo_403317" data-name="Rectángulo 403317" width="63.646" height="38.304" fill="#8722e2"/>
    </clipPath>
    <clipPath id="clip-path-4">
      <rect id="Rectángulo_403368" data-name="Rectángulo 403368" width="25.601" height="47.184" transform="translate(0 0)" fill="none"/>
    </clipPath>
    <clipPath id="clip-path-6">
      <rect id="Rectángulo_403367" data-name="Rectángulo 403367" width="78.204" height="45.158" fill="#8722e2"/>
    </clipPath>
    <clipPath id="clip-path-7">
      <rect id="Rectángulo_403398" data-name="Rectángulo 403398" width="59.545" height="50.775" fill="none"/>
    </clipPath>
  </defs>
  <g id="Grupo_1101861" data-name="Grupo 1101861" transform="translate(-495 -10363.708)">
    <path id="Trazado_879252" data-name="Trazado 879252" d="M0,0H610V378.553H0Z" transform="translate(495 10363.708)" fill="#f7eefe"/>
    <g id="Grupo_1101758" data-name="Grupo 1101758" transform="translate(537.546 10632.256)">
      <g id="Grupo_1101573" data-name="Grupo 1101573" transform="translate(0 0)" clip-path="url(#clip-path)">
        <path id="Trazado_879211" data-name="Trazado 879211" d="M152.326,26.349H112.593V2.012A2.013,2.013,0,0,1,114.606,0h35.707a2.013,2.013,0,0,1,2.013,2.013Z" transform="translate(-108.055 0.001)" fill="#8722e2"/>
        <rect id="Rectángulo_403304" data-name="Rectángulo 403304" width="34.351" height="23.823" transform="translate(7.23 2.776)" fill="#fff"/>
        <path id="Trazado_879212" data-name="Trazado 879212" d="M47.144,688.21H1.666a1.646,1.646,0,0,1-1.479-1.595l-.18-1.535a.815.815,0,0,1,.68-.982H48.123a.815.815,0,0,1,.68.982l-.18,1.535a1.646,1.646,0,0,1-1.479,1.595" transform="translate(0 -656.525)" fill="#8722e2"/>
        <path id="Trazado_879213" data-name="Trazado 879213" d="M521.7,723.56h-6.289a.506.506,0,0,1,0-1.012H521.7a.506.506,0,1,1,0,1.012" transform="translate(-494.155 -693.424)" fill="#fff"/>
      </g>
    </g>
    <g id="Grupo_1101759" data-name="Grupo 1101759" transform="translate(-273.646 6054.438)">
      <g id="Grupo_1101613" data-name="Grupo 1101613" transform="translate(895 4577.817)">
        <g id="Grupo_1101612" data-name="Grupo 1101612" clip-path="url(#clip-path-2)">
          <path id="Trazado_879256" data-name="Trazado 879256" d="M42.41,0H1.774A1.774,1.774,0,0,0,0,1.774V30.866a1.774,1.774,0,0,0,1.774,1.774H42.41a1.774,1.774,0,0,0,1.774-1.774V1.774A1.774,1.774,0,0,0,42.41,0m-.662,30.021H2.436V2.619H41.748Z" fill="#8722e2"/>
          <path id="Trazado_879257" data-name="Trazado 879257" d="M68.829,148.24v-.018H58.279v.018a1.814,1.814,0,0,1-1.814,1.814H53.478v2H73.63v-2H70.643a1.814,1.814,0,0,1-1.814-1.814" transform="translate(-41.093 -113.895)" fill="#8722e2"/>
          <path id="Trazado_879258" data-name="Trazado 879258" d="M213.777,13.059H199.465a1.775,1.775,0,0,0-1.775,1.775V46.564a1.775,1.775,0,0,0,1.775,1.775h14.312a1.775,1.775,0,0,0,1.775-1.775V14.834a1.775,1.775,0,0,0-1.775-1.775m-7.156,26.615a1.326,1.326,0,1,1,1.326-1.326,1.326,1.326,0,0,1-1.326,1.326m5.408-15.741a1.153,1.153,0,0,1-1.153,1.153h-8.511a1.153,1.153,0,0,1-1.153-1.153V23.91a1.153,1.153,0,0,1,1.153-1.153h8.511a1.153,1.153,0,0,1,1.153,1.153Zm0-5.648a1.153,1.153,0,0,1-1.153,1.153h-8.511a1.153,1.153,0,0,1-1.153-1.153v-.023a1.153,1.153,0,0,1,1.153-1.153h8.511a1.153,1.153,0,0,1,1.153,1.153Z" transform="translate(-151.906 -10.035)" fill="#8722e2"/>
        </g>
      </g>
      <rect id="Rectángulo_403318" data-name="Rectángulo 403318" width="40" height="28" transform="translate(897 4580)" fill="#fff"/>
    </g>
    <g id="Grupo_1101760" data-name="Grupo 1101760" transform="translate(775.596 10637.938)">
      <g id="Grupo_1101573-2" data-name="Grupo 1101573" transform="translate(0 0)" clip-path="url(#clip-path)">
        <path id="Trazado_879211-2" data-name="Trazado 879211" d="M152.326,26.349H112.593V2.012A2.013,2.013,0,0,1,114.606,0h35.707a2.013,2.013,0,0,1,2.013,2.013Z" transform="translate(-108.055 0.001)" fill="#8722e2"/>
        <rect id="Rectángulo_403304-2" data-name="Rectángulo 403304" width="34.351" height="23.823" transform="translate(7.23 2.776)" fill="#fff"/>
        <path id="Trazado_879212-2" data-name="Trazado 879212" d="M47.144,688.21H1.666a1.646,1.646,0,0,1-1.479-1.595l-.18-1.535a.815.815,0,0,1,.68-.982H48.123a.815.815,0,0,1,.68.982l-.18,1.535a1.646,1.646,0,0,1-1.479,1.595" transform="translate(0 -656.525)" fill="#8722e2"/>
        <path id="Trazado_879213-2" data-name="Trazado 879213" d="M521.7,723.56h-6.289a.506.506,0,0,1,0-1.012H521.7a.506.506,0,1,1,0,1.012" transform="translate(-494.155 -693.424)" fill="#fff"/>
      </g>
    </g>
    <g id="Grupo_1101761" data-name="Grupo 1101761" transform="translate(954.559 10632.26)">
      <g id="Grupo_1101683" data-name="Grupo 1101683" transform="translate(0 -0.004)" clip-path="url(#clip-path-4)">
        <path id="Trazado_886756" data-name="Trazado 886756" d="M97.924,286.784H78.016a.753.753,0,0,1-.753-.753V254.078a.753.753,0,0,1,.753-.753H97.924a.753.753,0,0,1,.753.753v31.953a.753.753,0,0,1-.753.753" transform="translate(-75.17 -246.462)" fill="#fff"/>
        <path id="Trazado_886757" data-name="Trazado 886757" d="M21.137,0H4.464A4.464,4.464,0,0,0,0,4.46V42.716A4.464,4.464,0,0,0,4.464,47.18H21.137A4.464,4.464,0,0,0,25.6,42.716V4.46A4.464,4.464,0,0,0,21.137,0m2.371,39.569a.753.753,0,0,1-.753.753H2.846a.753.753,0,0,1-.753-.753V7.612a.753.753,0,0,1,.753-.753H22.754a.753.753,0,0,1,.753.753Z" transform="translate(0 0.004)" fill="#8722e2"/>
        <path id="Trazado_886758" data-name="Trazado 886758" d="M373.557,103.3h-4.381a.626.626,0,0,1,0-1.252h4.381a.626.626,0,0,1,0,1.252" transform="translate(-358.566 -99.281)" fill="#fff"/>
        <path id="Trazado_886759" data-name="Trazado 886759" d="M373.557,103.3h-4.381a.626.626,0,0,1,0-1.252h4.381a.626.626,0,0,1,0,1.252" transform="translate(-358.566 -99.281)" fill="#fff"/>
      </g>
    </g>
    <g id="Grupo_1101762" data-name="Grupo 1101762" transform="translate(1039.399 10632.26)">
      <g id="Grupo_1101683-2" data-name="Grupo 1101683" transform="translate(0 -0.004)" clip-path="url(#clip-path-4)">
        <path id="Trazado_886756-2" data-name="Trazado 886756" d="M97.924,286.784H78.016a.753.753,0,0,1-.753-.753V254.078a.753.753,0,0,1,.753-.753H97.924a.753.753,0,0,1,.753.753v31.953a.753.753,0,0,1-.753.753" transform="translate(-75.17 -246.462)" fill="#fff"/>
        <path id="Trazado_886757-2" data-name="Trazado 886757" d="M21.137,0H4.464A4.464,4.464,0,0,0,0,4.46V42.716A4.464,4.464,0,0,0,4.464,47.18H21.137A4.464,4.464,0,0,0,25.6,42.716V4.46A4.464,4.464,0,0,0,21.137,0m2.371,39.569a.753.753,0,0,1-.753.753H2.846a.753.753,0,0,1-.753-.753V7.612a.753.753,0,0,1,.753-.753H22.754a.753.753,0,0,1,.753.753Z" transform="translate(0 0.004)" fill="#8722e2"/>
        <path id="Trazado_886758-2" data-name="Trazado 886758" d="M373.557,103.3h-4.381a.626.626,0,0,1,0-1.252h4.381a.626.626,0,0,1,0,1.252" transform="translate(-358.566 -99.281)" fill="#fff"/>
        <path id="Trazado_886759-2" data-name="Trazado 886759" d="M373.557,103.3h-4.381a.626.626,0,0,1,0-1.252h4.381a.626.626,0,0,1,0,1.252" transform="translate(-358.566 -99.281)" fill="#fff"/>
      </g>
    </g>
    <g id="Grupo_1101763" data-name="Grupo 1101763" transform="translate(760.916 10472.271)">
      <g id="Grupo_1101681" data-name="Grupo 1101681" clip-path="url(#clip-path-6)">
        <path id="Trazado_886755" data-name="Trazado 886755" d="M66.005,20.759c-.313,0-.623.013-.93.036.018-.272.028-.545.028-.821a12.477,12.477,0,0,0-20.4-9.641,15.676,15.676,0,0,0-30.413,5.339c0,.3.009.6.026.9h-.026a14.292,14.292,0,1,0,0,28.584H66.005a12.2,12.2,0,1,0,0-24.4" transform="translate(0 0.001)" fill="#8722e2"/>
      </g>
    </g>
    <path id="Trazado_887253" data-name="Trazado 887253" d="M92.107,161.364V154.64h17.979a4.416,4.416,0,0,0,4.408-4.408V134.5a4.451,4.451,0,0,0-4.408-4.333h-39.1a4.416,4.416,0,0,0-4.408,4.408v15.658a4.416,4.416,0,0,0,4.408,4.408H88.968v6.724a4.855,4.855,0,1,0,3.138,0m-3.487-24.548h18.03a1.569,1.569,0,1,1,0,3.138H88.619a1.569,1.569,0,0,1,0-3.138M76.293,147.991H74.35a1.569,1.569,0,1,1,0-3.138h1.942a1.569,1.569,0,1,1,0,3.138m0-8.037H74.35a1.569,1.569,0,1,1,0-3.138h1.942a1.569,1.569,0,1,1,0,3.138m7.172,8.037H81.522a1.569,1.569,0,1,1,0-3.138h1.942a1.578,1.578,0,0,1,1.569,1.569,1.687,1.687,0,0,1-1.569,1.569m0-8.037H81.522a1.569,1.569,0,1,1,0-3.138h1.942a1.578,1.578,0,0,1,1.569,1.569,1.687,1.687,0,0,1-1.569,1.569m5.155,8.037a1.569,1.569,0,0,1,0-3.138h18.03a1.569,1.569,0,1,1,0,3.138Z" transform="translate(709.463 10283.208)" fill="#0b47db"/>
    <g id="Grupo_1101765" data-name="Grupo 1101765" transform="translate(927.364 10404.625)">
      <g id="Grupo_1101764" data-name="Grupo 1101764" clip-path="url(#clip-path-7)">
        <path id="Trazado_887254" data-name="Trazado 887254" d="M198.477,206.263a4.226,4.226,0,0,1-4.227,4.212H182.265a5.4,5.4,0,0,1,0,2.273H194.25a6.5,6.5,0,0,0,6.5-6.485V203.9h-2.273Z" transform="translate(-146.871 -164.304)" fill="#203a72"/>
        <path id="Trazado_887255" data-name="Trazado 887255" d="M35.668,210.475a4.222,4.222,0,0,1-4.212-4.212V203.9H29.183v2.364a6.492,6.492,0,0,0,6.485,6.485h12a5.406,5.406,0,0,1,0-2.273Z" transform="translate(-23.516 -164.304)" fill="#203a72"/>
        <path id="Trazado_887256" data-name="Trazado 887256" d="M230.016,78.905h12.106a2.784,2.784,0,0,0,2.772-2.773V70.738a2.771,2.771,0,0,0-2.772-2.757H230.016a4.967,4.967,0,0,1,.833,2.757v5.394a5.016,5.016,0,0,1-.833,2.773m8.773-6.409h1.227a.985.985,0,0,1,0,1.97h-1.227a.992.992,0,0,1-.985-.985.964.964,0,0,1,.985-.985m-4.5,0h1.227a.985.985,0,0,1,0,1.97h-1.227a.992.992,0,0,1-.985-.985,1.023,1.023,0,0,1,.985-.985" transform="translate(-185.349 -54.78)" fill="#14a0de"/>
        <path id="Trazado_887257" data-name="Trazado 887257" d="M2.758,78.905H14.864a5.015,5.015,0,0,1-.833-2.773V70.738a4.966,4.966,0,0,1,.833-2.757H2.758A2.758,2.758,0,0,0,0,70.738v5.394a2.771,2.771,0,0,0,2.758,2.773M9.379,72.5h1.213a1.023,1.023,0,0,1,.985.985.992.992,0,0,1-.985.985H9.379a.985.985,0,0,1,0-1.97m-4.5,0H6.091a.964.964,0,0,1,.985.985.992.992,0,0,1-.985.985H4.879a.983.983,0,0,1-.985-.985.993.993,0,0,1,.985-.985" transform="translate(0 -54.78)" fill="#14a0de"/>
        <path id="Trazado_887258" data-name="Trazado 887258" d="M86.693,78.882h21.434a2.773,2.773,0,0,0,2.768-2.768V70.726a2.773,2.773,0,0,0-2.768-2.768H86.74a2.773,2.773,0,0,0-2.768,2.768v5.388a2.733,2.733,0,0,0,2.721,2.768m18.1-6.4h1.22a.985.985,0,1,1,0,1.97H104.8a.991.991,0,0,1-.985-.985.962.962,0,0,1,.985-.985m-4.5,0h1.22a.985.985,0,1,1,0,1.97h-1.22a.991.991,0,0,1-.985-.985,1.023,1.023,0,0,1,.985-.985m-11.44,0h8.2a.985.985,0,0,1,0,1.97h-8.2a.991.991,0,0,1-.985-.985.962.962,0,0,1,.985-.985" transform="translate(-67.666 -54.761)" fill="#203a72"/>
        <path id="Trazado_887259" data-name="Trazado 887259" d="M2.758,10.946H14.864a4.942,4.942,0,0,1-.833-2.773V2.779A4.929,4.929,0,0,1,14.864.022H2.758A2.758,2.758,0,0,0,0,2.779V8.173a2.771,2.771,0,0,0,2.758,2.773M9.379,4.537h1.213a1.023,1.023,0,0,1,.985.985.993.993,0,0,1-.985.985H9.379a.985.985,0,0,1,0-1.97m-4.5,0H6.091a.964.964,0,0,1,.985.985.993.993,0,0,1-.985.985H4.879a.983.983,0,0,1-.985-.985.993.993,0,0,1,.985-.985" transform="translate(0 -0.018)" fill="#14a0de"/>
        <path id="Trazado_887260" data-name="Trazado 887260" d="M230.016,10.946h12.106a2.784,2.784,0,0,0,2.772-2.773V2.779A2.771,2.771,0,0,0,242.122.022H230.016a4.93,4.93,0,0,1,.833,2.757V8.173a4.944,4.944,0,0,1-.833,2.773m8.773-6.409h1.227a.985.985,0,0,1,0,1.97h-1.227a.993.993,0,0,1-.985-.985.964.964,0,0,1,.985-.985m-4.5,0h1.227a.985.985,0,0,1,0,1.97h-1.227a.992.992,0,0,1-.985-.985,1.023,1.023,0,0,1,.985-.985" transform="translate(-185.349 -0.018)" fill="#14a0de"/>
        <path id="Trazado_887261" data-name="Trazado 887261" d="M86.693,10.923h21.434a2.773,2.773,0,0,0,2.768-2.768V2.767A2.773,2.773,0,0,0,108.127,0H86.74a2.773,2.773,0,0,0-2.768,2.768V8.155a2.734,2.734,0,0,0,2.721,2.768m18.1-6.4h1.22a.985.985,0,1,1,0,1.97H104.8a.991.991,0,0,1-.985-.985.962.962,0,0,1,.985-.985m-4.5,0h1.22a.985.985,0,1,1,0,1.97h-1.22a.991.991,0,0,1-.985-.985,1.023,1.023,0,0,1,.985-.985m-11.44,0h8.2a.985.985,0,0,1,0,1.97h-8.2a.991.991,0,0,1-.985-.985.962.962,0,0,1,.985-.985" transform="translate(-67.666 0.001)" fill="#203a72"/>
        <path id="Trazado_887262" data-name="Trazado 887262" d="M2.758,146.864H14.864a4.942,4.942,0,0,1-.833-2.773V138.7a4.928,4.928,0,0,1,.833-2.757H2.758A2.758,2.758,0,0,0,0,138.7v5.394a2.771,2.771,0,0,0,2.758,2.773m6.621-6.409h1.213a1.023,1.023,0,0,1,.985.985.993.993,0,0,1-.985.985H9.379a.985.985,0,0,1,0-1.97m-4.5,0H6.091a.964.964,0,0,1,.985.985.993.993,0,0,1-.985.985H4.879a.983.983,0,0,1-.985-.985.993.993,0,0,1,.985-.985" transform="translate(0 -109.542)" fill="#14a0de"/>
        <path id="Trazado_887263" data-name="Trazado 887263" d="M230.016,146.864h12.106a2.784,2.784,0,0,0,2.772-2.773V138.7a2.771,2.771,0,0,0-2.772-2.757H230.016a4.93,4.93,0,0,1,.833,2.757v5.394a4.943,4.943,0,0,1-.833,2.773m8.773-6.409h1.227a.985.985,0,0,1,0,1.97h-1.227a.993.993,0,0,1-.985-.985.964.964,0,0,1,.985-.985m-4.5,0h1.227a.985.985,0,0,1,0,1.97h-1.227a.992.992,0,0,1-.985-.985,1.023,1.023,0,0,1,.985-.985" transform="translate(-185.349 -109.542)" fill="#14a0de"/>
        <path id="Trazado_887264" data-name="Trazado 887264" d="M86.693,146.84h9.6v6.728a3.468,3.468,0,1,0,2.273,0V146.84h9.557a2.773,2.773,0,0,0,2.768-2.768v-5.388a2.773,2.773,0,0,0-2.768-2.768H86.74a2.773,2.773,0,0,0-2.768,2.768v5.388a2.734,2.734,0,0,0,2.721,2.768m18.1-6.4h1.22a.985.985,0,1,1,0,1.97H104.8a.991.991,0,0,1-.985-.985.962.962,0,0,1,.985-.985m-4.5,0h1.22a.985.985,0,1,1,0,1.97h-1.22a.991.991,0,0,1-.985-.985,1.023,1.023,0,0,1,.985-.985m-11.44,0h8.2a.985.985,0,0,1,0,1.97h-8.2a.991.991,0,0,1-.985-.985.962.962,0,0,1,.985-.985" transform="translate(-67.666 -109.523)" fill="#203a72"/>
      </g>
    </g>
    <path id="Trazado_887663" data-name="Trazado 887663" d="M9.688-3.609A4.185,4.185,0,0,1,8.355-.824a4.365,4.365,0,0,1-2.98.98,4.008,4.008,0,0,1-3.23-1.445A5.815,5.815,0,0,1,.93-5.156V-6.25A6.481,6.481,0,0,1,1.5-9.039,4.231,4.231,0,0,1,3.1-10.887a4.47,4.47,0,0,1,2.406-.645A4.11,4.11,0,0,1,8.414-10.52a4.235,4.235,0,0,1,1.273,2.8H8.18a3.268,3.268,0,0,0-.848-1.975A2.565,2.565,0,0,0,5.508-10.3,2.684,2.684,0,0,0,3.254-9.241a4.882,4.882,0,0,0-.816,3.026v1.1a5.018,5.018,0,0,0,.773,2.948A2.5,2.5,0,0,0,5.375-1.07a2.887,2.887,0,0,0,1.918-.566A3.143,3.143,0,0,0,8.18-3.609ZM13.078,0H11.633V-12h1.445Zm3.883,0H15.516V-8.453h1.445ZM15.4-10.7a.863.863,0,0,1,.215-.594.807.807,0,0,1,.637-.242.819.819,0,0,1,.641.242.854.854,0,0,1,.219.594.826.826,0,0,1-.219.586.834.834,0,0,1-.641.234.821.821,0,0,1-.637-.234A.834.834,0,0,1,15.4-10.7ZM22.781.156a3.693,3.693,0,0,1-2.8-1.129,4.19,4.19,0,0,1-1.078-3.02v-.266a5.073,5.073,0,0,1,.48-2.246A3.748,3.748,0,0,1,20.73-8.051,3.378,3.378,0,0,1,22.6-8.609a3.166,3.166,0,0,1,2.563,1.086,4.7,4.7,0,0,1,.914,3.109v.6H20.352a3,3,0,0,0,.73,2.02,2.3,2.3,0,0,0,1.777.77,2.517,2.517,0,0,0,1.3-.312,3.259,3.259,0,0,0,.93-.828l.883.688A3.55,3.55,0,0,1,22.781.156ZM22.6-7.422a1.928,1.928,0,0,0-1.469.637A3.1,3.1,0,0,0,20.4-5h4.234v-.109a2.753,2.753,0,0,0-.594-1.707A1.815,1.815,0,0,0,22.6-7.422Zm6.516-1.031.047,1.063A3.08,3.08,0,0,1,31.7-8.609q2.68,0,2.7,3.023V0H32.953V-5.594a1.946,1.946,0,0,0-.418-1.352,1.675,1.675,0,0,0-1.277-.437,2.086,2.086,0,0,0-1.234.375,2.546,2.546,0,0,0-.828.984V0H27.75V-8.453ZM38.539-10.5v2.047h1.578v1.117H38.539v5.249a1.173,1.173,0,0,0,.211.763.888.888,0,0,0,.719.254,3.5,3.5,0,0,0,.688-.094V0a4.215,4.215,0,0,1-1.109.155A1.8,1.8,0,0,1,37.586-.43a2.517,2.517,0,0,1-.492-1.664V-7.336H35.555V-8.453h1.539V-10.5ZM45.313.156a3.693,3.693,0,0,1-2.8-1.129,4.19,4.19,0,0,1-1.078-3.02v-.266a5.073,5.073,0,0,1,.48-2.246,3.748,3.748,0,0,1,1.344-1.547,3.378,3.378,0,0,1,1.871-.559A3.166,3.166,0,0,1,47.7-7.523a4.7,4.7,0,0,1,.914,3.109v.6H42.883a3,3,0,0,0,.73,2.02,2.3,2.3,0,0,0,1.777.77,2.517,2.517,0,0,0,1.3-.312,3.259,3.259,0,0,0,.93-.828l.883.688A3.55,3.55,0,0,1,45.313.156Zm-.18-7.578a1.928,1.928,0,0,0-1.469.637A3.1,3.1,0,0,0,42.93-5h4.234v-.109a2.753,2.753,0,0,0-.594-1.707A1.815,1.815,0,0,0,45.133-7.422ZM60.75-2.977H55.984L54.914,0H53.367l4.344-11.375h1.313L63.375,0H61.836ZM56.438-4.2H60.3l-1.937-5.32Z" transform="translate(531 10701.907)" fill="#12263f"/>
    <path id="Trazado_887664" data-name="Trazado 887664" d="M2.828-1.227H8.219V0H1.32V-11.375H2.828ZM14.922,0a3.036,3.036,0,0,1-.2-.891A3.225,3.225,0,0,1,12.313.156a2.984,2.984,0,0,1-2.051-.707,2.287,2.287,0,0,1-.8-1.793,2.39,2.39,0,0,1,1-2.051,4.733,4.733,0,0,1,2.824-.73H14.7v-.664A1.623,1.623,0,0,0,14.242-7a1.821,1.821,0,0,0-1.336-.449,2.107,2.107,0,0,0-1.3.391,1.151,1.151,0,0,0-.523.945H9.633a2,2,0,0,1,.449-1.223A3.066,3.066,0,0,1,11.3-8.266a4.1,4.1,0,0,1,1.691-.344,3.342,3.342,0,0,1,2.289.73,2.635,2.635,0,0,1,.859,2.012v3.891a4.757,4.757,0,0,0,.3,1.852V0Zm-2.4-1.1a2.54,2.54,0,0,0,1.289-.352,2.127,2.127,0,0,0,.883-.914V-4.1H13.563q-2.656,0-2.656,1.555a1.316,1.316,0,0,0,.453,1.063A1.742,1.742,0,0,0,12.523-1.1Zm5.531-3.2a4.952,4.952,0,0,1,.922-3.129,2.915,2.915,0,0,1,2.414-1.184,2.932,2.932,0,0,1,2.352,1.016V-12h1.445V0H23.859l-.07-.906A2.943,2.943,0,0,1,21.375.156a2.887,2.887,0,0,1-2.395-1.2,5.008,5.008,0,0,1-.926-3.141Zm1.445.164a3.749,3.749,0,0,0,.594,2.25,1.92,1.92,0,0,0,1.641.813A2.108,2.108,0,0,0,23.742-2.3V-6.187a2.125,2.125,0,0,0-1.992-1.2,1.929,1.929,0,0,0-1.656.82A4.128,4.128,0,0,0,19.5-4.133ZM27.047-4.3a4.993,4.993,0,0,1,.488-2.234A3.643,3.643,0,0,1,28.895-8.07a3.7,3.7,0,0,1,1.988-.539,3.565,3.565,0,0,1,2.793,1.2,4.6,4.6,0,0,1,1.066,3.18v.1a5.036,5.036,0,0,1-.473,2.215A3.589,3.589,0,0,1,32.918-.391,3.743,3.743,0,0,1,30.9.156a3.556,3.556,0,0,1-2.785-1.2A4.575,4.575,0,0,1,27.047-4.2Zm1.453.172a3.616,3.616,0,0,0,.652,2.258,2.088,2.088,0,0,0,1.746.852,2.075,2.075,0,0,0,1.75-.863A3.955,3.955,0,0,0,33.3-4.3a3.61,3.61,0,0,0-.66-2.254,2.1,2.1,0,0,0-1.754-.863,2.075,2.075,0,0,0-1.727.852A3.925,3.925,0,0,0,28.5-4.133ZM40.164-4.3a4.952,4.952,0,0,1,.922-3.129A2.915,2.915,0,0,1,43.5-8.609a2.932,2.932,0,0,1,2.352,1.016V-12H47.3V0H45.969L45.9-.906A2.943,2.943,0,0,1,43.484.156a2.887,2.887,0,0,1-2.395-1.2,5.008,5.008,0,0,1-.926-3.141Zm1.445.164a3.749,3.749,0,0,0,.594,2.25,1.92,1.92,0,0,0,1.641.813A2.108,2.108,0,0,0,45.852-2.3V-6.187a2.125,2.125,0,0,0-1.992-1.2,1.929,1.929,0,0,0-1.656.82A4.128,4.128,0,0,0,41.609-4.133ZM53.047.156a3.693,3.693,0,0,1-2.8-1.129,4.19,4.19,0,0,1-1.078-3.02v-.266a5.073,5.073,0,0,1,.48-2.246A3.748,3.748,0,0,1,51-8.051a3.378,3.378,0,0,1,1.871-.559A3.166,3.166,0,0,1,55.43-7.523a4.7,4.7,0,0,1,.914,3.109v.6H50.617a3,3,0,0,0,.73,2.02,2.3,2.3,0,0,0,1.777.77,2.517,2.517,0,0,0,1.3-.312,3.259,3.259,0,0,0,.93-.828l.883.688A3.55,3.55,0,0,1,53.047.156Zm-.18-7.578a1.928,1.928,0,0,0-1.469.637A3.1,3.1,0,0,0,50.664-5H54.9v-.109A2.753,2.753,0,0,0,54.3-6.816,1.815,1.815,0,0,0,52.867-7.422ZM59.586,0H58.141V-12h1.445ZM69.25-1.023A2.082,2.082,0,0,0,70.6-1.492a1.649,1.649,0,0,0,.641-1.172h1.367a2.621,2.621,0,0,1-.5,1.383,3.293,3.293,0,0,1-1.23,1.047A3.55,3.55,0,0,1,69.25.156,3.482,3.482,0,0,1,66.5-1a4.59,4.59,0,0,1-1.02-3.152v-.242a5.089,5.089,0,0,1,.453-2.2,3.451,3.451,0,0,1,1.3-1.492,3.7,3.7,0,0,1,2-.531,3.39,3.39,0,0,1,2.363.852,3.043,3.043,0,0,1,1,2.211H71.242a1.992,1.992,0,0,0-.621-1.348,1.932,1.932,0,0,0-1.379-.527,2.023,2.023,0,0,0-1.707.793,3.724,3.724,0,0,0-.605,2.293v.273a3.65,3.65,0,0,0,.6,2.25A2.033,2.033,0,0,0,69.25-1.023ZM75.8,0H74.359V-12H75.8Zm3.883,0H78.242V-8.453h1.445ZM78.125-10.7a.863.863,0,0,1,.215-.594.807.807,0,0,1,.637-.242.819.819,0,0,1,.641.242.854.854,0,0,1,.219.594.826.826,0,0,1-.219.586.834.834,0,0,1-.641.234.821.821,0,0,1-.637-.234A.834.834,0,0,1,78.125-10.7ZM85.508.156a3.693,3.693,0,0,1-2.8-1.129,4.19,4.19,0,0,1-1.078-3.02v-.266a5.073,5.073,0,0,1,.48-2.246,3.748,3.748,0,0,1,1.344-1.547,3.378,3.378,0,0,1,1.871-.559,3.166,3.166,0,0,1,2.563,1.086A4.7,4.7,0,0,1,88.8-4.414v.6H83.078a3,3,0,0,0,.73,2.02,2.3,2.3,0,0,0,1.777.77,2.517,2.517,0,0,0,1.3-.312,3.259,3.259,0,0,0,.93-.828l.883.688A3.55,3.55,0,0,1,85.508.156Zm-.18-7.578a1.928,1.928,0,0,0-1.469.637A3.1,3.1,0,0,0,83.125-5h4.234v-.109a2.753,2.753,0,0,0-.594-1.707A1.815,1.815,0,0,0,85.328-7.422Zm6.516-1.031.047,1.063a3.08,3.08,0,0,1,2.531-1.219q2.68,0,2.7,3.023V0H95.68V-5.594a1.946,1.946,0,0,0-.418-1.352,1.675,1.675,0,0,0-1.277-.437,2.086,2.086,0,0,0-1.234.375,2.546,2.546,0,0,0-.828.984V0H90.477V-8.453Zm9.422-2.047v2.047h1.578v1.117h-1.578v5.249a1.173,1.173,0,0,0,.211.763.888.888,0,0,0,.719.254,3.5,3.5,0,0,0,.688-.094V0a4.215,4.215,0,0,1-1.109.155,1.8,1.8,0,0,1-1.461-.586,2.517,2.517,0,0,1-.492-1.664V-7.336H98.281V-8.453H99.82V-10.5ZM108.039.156a3.693,3.693,0,0,1-2.8-1.129,4.19,4.19,0,0,1-1.078-3.02v-.266a5.073,5.073,0,0,1,.48-2.246,3.748,3.748,0,0,1,1.344-1.547,3.378,3.378,0,0,1,1.871-.559,3.166,3.166,0,0,1,2.563,1.086,4.7,4.7,0,0,1,.914,3.109v.6h-5.727a3,3,0,0,0,.73,2.02,2.3,2.3,0,0,0,1.777.77,2.517,2.517,0,0,0,1.3-.312,3.259,3.259,0,0,0,.93-.828l.883.688A3.55,3.55,0,0,1,108.039.156Zm-.18-7.578a1.928,1.928,0,0,0-1.469.637A3.1,3.1,0,0,0,105.656-5h4.234v-.109a2.753,2.753,0,0,0-.594-1.707A1.815,1.815,0,0,0,107.859-7.422Z" transform="translate(954.559 10701.907)" fill="#12263f"/>
    <path id="Trazado_887665" data-name="Trazado 887665" d="M2.93,0H1.43V-11.375h1.5ZM6.813-8.453l.047,1.063A3.08,3.08,0,0,1,9.391-8.609q2.68,0,2.7,3.023V0H10.648V-5.594a1.946,1.946,0,0,0-.418-1.352,1.675,1.675,0,0,0-1.277-.437,2.086,2.086,0,0,0-1.234.375,2.546,2.546,0,0,0-.828.984V0H5.445V-8.453ZM16.234-10.5v2.047h1.578v1.117H16.234v5.249a1.173,1.173,0,0,0,.211.763.888.888,0,0,0,.719.254,3.5,3.5,0,0,0,.688-.094V0a4.215,4.215,0,0,1-1.109.155A1.8,1.8,0,0,1,15.281-.43a2.517,2.517,0,0,1-.492-1.664V-7.336H13.25V-8.453h1.539V-10.5ZM23.008.156a3.693,3.693,0,0,1-2.8-1.129,4.19,4.19,0,0,1-1.078-3.02v-.266a5.073,5.073,0,0,1,.48-2.246,3.748,3.748,0,0,1,1.344-1.547,3.378,3.378,0,0,1,1.871-.559,3.166,3.166,0,0,1,2.563,1.086A4.7,4.7,0,0,1,26.3-4.414v.6H20.578a3,3,0,0,0,.73,2.02,2.3,2.3,0,0,0,1.777.77,2.517,2.517,0,0,0,1.3-.312,3.259,3.259,0,0,0,.93-.828l.883.688A3.55,3.55,0,0,1,23.008.156Zm-.18-7.578a1.928,1.928,0,0,0-1.469.637A3.1,3.1,0,0,0,20.625-5h4.234v-.109a2.753,2.753,0,0,0-.594-1.707A1.815,1.815,0,0,0,22.828-7.422Zm9.234.266a4.331,4.331,0,0,0-.711-.055A1.9,1.9,0,0,0,29.422-6V0H27.977V-8.453h1.406l.023.977a2.251,2.251,0,0,1,2.016-1.133,1.477,1.477,0,0,1,.641.109Zm2.7-1.3L34.8-7.391a3.08,3.08,0,0,1,2.531-1.219q2.68,0,2.7,3.023V0H38.594V-5.594a1.946,1.946,0,0,0-.418-1.352A1.675,1.675,0,0,0,36.9-7.383a2.086,2.086,0,0,0-1.234.375,2.546,2.546,0,0,0-.828.984V0H33.391V-8.453ZM45.727.156a3.693,3.693,0,0,1-2.8-1.129,4.19,4.19,0,0,1-1.078-3.02v-.266a5.073,5.073,0,0,1,.48-2.246,3.748,3.748,0,0,1,1.344-1.547,3.378,3.378,0,0,1,1.871-.559,3.166,3.166,0,0,1,2.563,1.086,4.7,4.7,0,0,1,.914,3.109v.6H43.3a3,3,0,0,0,.73,2.02,2.3,2.3,0,0,0,1.777.77,2.517,2.517,0,0,0,1.3-.312,3.259,3.259,0,0,0,.93-.828l.883.688A3.55,3.55,0,0,1,45.727.156Zm-.18-7.578a1.928,1.928,0,0,0-1.469.637A3.1,3.1,0,0,0,43.344-5h4.234v-.109a2.753,2.753,0,0,0-.594-1.707A1.815,1.815,0,0,0,45.547-7.422ZM52.656-10.5v2.047h1.578v1.117H52.656v5.249a1.173,1.173,0,0,0,.211.763.888.888,0,0,0,.719.254,3.5,3.5,0,0,0,.688-.094V0a4.215,4.215,0,0,1-1.109.155A1.8,1.8,0,0,1,51.7-.43a2.517,2.517,0,0,1-.492-1.664V-7.336H49.672V-8.453h1.539V-10.5Z" transform="translate(773 10534.429)" fill="#12263f"/>
    <path id="Trazado_887666" data-name="Trazado 887666" d="M4.672-5.07A7.053,7.053,0,0,1,1.863-6.434a2.6,2.6,0,0,1-.879-2,2.751,2.751,0,0,1,1.074-2.223,4.269,4.269,0,0,1,2.793-.879,4.66,4.66,0,0,1,2.09.453,3.436,3.436,0,0,1,1.422,1.25,3.2,3.2,0,0,1,.5,1.742H7.359A2.08,2.08,0,0,0,6.7-9.713,2.669,2.669,0,0,0,4.852-10.3a2.732,2.732,0,0,0-1.73.489A1.632,1.632,0,0,0,2.5-8.458,1.468,1.468,0,0,0,3.09-7.28,5.785,5.785,0,0,0,5.1-6.4a9.316,9.316,0,0,1,2.219.88A3.367,3.367,0,0,1,8.5-4.4a2.861,2.861,0,0,1,.387,1.508A2.658,2.658,0,0,1,7.813-.676,4.6,4.6,0,0,1,4.93.156,5.347,5.347,0,0,1,2.742-.293a3.681,3.681,0,0,1-1.566-1.23A3,3,0,0,1,.625-3.3H2.133a1.959,1.959,0,0,0,.762,1.629,3.207,3.207,0,0,0,2.035.6,2.948,2.948,0,0,0,1.82-.484,1.573,1.573,0,0,0,.633-1.32A1.545,1.545,0,0,0,6.8-4.168,6.755,6.755,0,0,0,4.672-5.07ZM14.094.156A3.693,3.693,0,0,1,11.3-.973a4.19,4.19,0,0,1-1.078-3.02v-.266A5.073,5.073,0,0,1,10.7-6.5a3.748,3.748,0,0,1,1.344-1.547,3.378,3.378,0,0,1,1.871-.559,3.166,3.166,0,0,1,2.563,1.086,4.7,4.7,0,0,1,.914,3.109v.6H11.664a3,3,0,0,0,.73,2.02,2.3,2.3,0,0,0,1.777.77,2.517,2.517,0,0,0,1.3-.312,3.259,3.259,0,0,0,.93-.828l.883.688A3.55,3.55,0,0,1,14.094.156Zm-.18-7.578a1.928,1.928,0,0,0-1.469.637A3.1,3.1,0,0,0,11.711-5h4.234v-.109a2.753,2.753,0,0,0-.594-1.707A1.815,1.815,0,0,0,13.914-7.422Zm9.234.266a4.331,4.331,0,0,0-.711-.055A1.9,1.9,0,0,0,20.508-6V0H19.063V-8.453h1.406l.023.977a2.251,2.251,0,0,1,2.016-1.133,1.477,1.477,0,0,1,.641.109Zm4.258,5.2L29.5-8.453h1.477L27.945,0h-1.1L23.781-8.453h1.477ZM33.938,0H32.492V-8.453h1.445ZM32.375-10.7a.863.863,0,0,1,.215-.594.807.807,0,0,1,.637-.242.819.819,0,0,1,.641.242.854.854,0,0,1,.219.594.826.826,0,0,1-.219.586.834.834,0,0,1-.641.234.821.821,0,0,1-.637-.234A.834.834,0,0,1,32.375-10.7ZM35.9-4.3a4.952,4.952,0,0,1,.922-3.129,2.915,2.915,0,0,1,2.414-1.184,2.932,2.932,0,0,1,2.352,1.016V-12h1.445V0H41.7l-.07-.906A2.943,2.943,0,0,1,39.219.156a2.887,2.887,0,0,1-2.395-1.2A5.008,5.008,0,0,1,35.9-4.187Zm1.445.164a3.749,3.749,0,0,0,.594,2.25,1.92,1.92,0,0,0,1.641.813A2.108,2.108,0,0,0,41.586-2.3V-6.187a2.125,2.125,0,0,0-1.992-1.2,1.929,1.929,0,0,0-1.656.82A4.128,4.128,0,0,0,37.344-4.133ZM44.891-4.3a4.993,4.993,0,0,1,.488-2.234A3.643,3.643,0,0,1,46.738-8.07a3.7,3.7,0,0,1,1.988-.539,3.565,3.565,0,0,1,2.793,1.2,4.6,4.6,0,0,1,1.066,3.18v.1a5.036,5.036,0,0,1-.473,2.215A3.589,3.589,0,0,1,50.762-.391a3.743,3.743,0,0,1-2.02.547,3.556,3.556,0,0,1-2.785-1.2A4.575,4.575,0,0,1,44.891-4.2Zm1.453.172A3.616,3.616,0,0,0,47-1.875a2.088,2.088,0,0,0,1.746.852,2.075,2.075,0,0,0,1.75-.863A3.955,3.955,0,0,0,51.141-4.3a3.61,3.61,0,0,0-.66-2.254,2.1,2.1,0,0,0-1.754-.863A2.075,2.075,0,0,0,47-6.57,3.925,3.925,0,0,0,46.344-4.133ZM58.484-7.156a4.331,4.331,0,0,0-.711-.055A1.9,1.9,0,0,0,55.844-6V0H54.4V-8.453H55.8l.023.977a2.251,2.251,0,0,1,2.016-1.133,1.477,1.477,0,0,1,.641.109Z" transform="translate(773 10401.429)" fill="#12263f"/>
    <path id="Trazado_887667" data-name="Trazado 887667" d="M1.32,0V-11.375H5.039a4.317,4.317,0,0,1,2.785.766,2.759,2.759,0,0,1,.934,2.266A2.31,2.31,0,0,1,8.3-6.934a2.938,2.938,0,0,1-1.234.949A2.638,2.638,0,0,1,8.527-5a2.814,2.814,0,0,1,.535,1.723A3.042,3.042,0,0,1,8.07-.875,4.1,4.1,0,0,1,5.266,0Zm1.5-5.32v4.094H5.3A2.385,2.385,0,0,0,6.949-1.77a1.907,1.907,0,0,0,.605-1.5q0-2.055-2.234-2.055Zm0-1.2H5.086A2.375,2.375,0,0,0,6.66-7.017a1.654,1.654,0,0,0,.59-1.339A1.626,1.626,0,0,0,6.7-9.722a2.686,2.686,0,0,0-1.664-.427H2.82ZM16.273,0a3.036,3.036,0,0,1-.2-.891A3.225,3.225,0,0,1,13.664.156a2.984,2.984,0,0,1-2.051-.707,2.287,2.287,0,0,1-.8-1.793,2.39,2.39,0,0,1,1-2.051,4.733,4.733,0,0,1,2.824-.73h1.406v-.664A1.623,1.623,0,0,0,15.594-7a1.821,1.821,0,0,0-1.336-.449,2.107,2.107,0,0,0-1.3.391,1.151,1.151,0,0,0-.523.945H10.984a2,2,0,0,1,.449-1.223,3.066,3.066,0,0,1,1.219-.934,4.1,4.1,0,0,1,1.691-.344,3.342,3.342,0,0,1,2.289.73,2.635,2.635,0,0,1,.859,2.012v3.891a4.757,4.757,0,0,0,.3,1.852V0Zm-2.4-1.1a2.54,2.54,0,0,0,1.289-.352,2.127,2.127,0,0,0,.883-.914V-4.1H14.914q-2.656,0-2.656,1.555a1.316,1.316,0,0,0,.453,1.063A1.742,1.742,0,0,0,13.875-1.1Zm5.531-3.2a4.952,4.952,0,0,1,.922-3.129,2.915,2.915,0,0,1,2.414-1.184,2.932,2.932,0,0,1,2.352,1.016V-12h1.445V0H25.211l-.07-.906A2.943,2.943,0,0,1,22.727.156a2.887,2.887,0,0,1-2.395-1.2,5.008,5.008,0,0,1-.926-3.141Zm1.445.164a3.749,3.749,0,0,0,.594,2.25,1.92,1.92,0,0,0,1.641.813A2.108,2.108,0,0,0,25.094-2.3V-6.187a2.125,2.125,0,0,0-1.992-1.2,1.929,1.929,0,0,0-1.656.82A4.128,4.128,0,0,0,20.852-4.133ZM32.289.156a3.693,3.693,0,0,1-2.8-1.129,4.19,4.19,0,0,1-1.078-3.02v-.266a5.073,5.073,0,0,1,.48-2.246,3.748,3.748,0,0,1,1.344-1.547,3.378,3.378,0,0,1,1.871-.559,3.166,3.166,0,0,1,2.563,1.086,4.7,4.7,0,0,1,.914,3.109v.6H29.859a3,3,0,0,0,.73,2.02,2.3,2.3,0,0,0,1.777.77,2.517,2.517,0,0,0,1.3-.312,3.259,3.259,0,0,0,.93-.828l.883.688A3.55,3.55,0,0,1,32.289.156Zm-.18-7.578a1.928,1.928,0,0,0-1.469.637A3.1,3.1,0,0,0,29.906-5h4.234v-.109a2.753,2.753,0,0,0-.594-1.707A1.815,1.815,0,0,0,32.109-7.422ZM40.867-4.3a4.952,4.952,0,0,1,.922-3.129A2.915,2.915,0,0,1,44.2-8.609a2.932,2.932,0,0,1,2.352,1.016V-12H48V0H46.672L46.6-.906A2.943,2.943,0,0,1,44.188.156a2.887,2.887,0,0,1-2.395-1.2,5.008,5.008,0,0,1-.926-3.141Zm1.445.164a3.749,3.749,0,0,0,.594,2.25,1.92,1.92,0,0,0,1.641.813A2.108,2.108,0,0,0,46.555-2.3V-6.187a2.125,2.125,0,0,0-1.992-1.2,1.929,1.929,0,0,0-1.656.82A4.128,4.128,0,0,0,42.313-4.133ZM53.75.156a3.693,3.693,0,0,1-2.8-1.129,4.19,4.19,0,0,1-1.078-3.02v-.266a5.073,5.073,0,0,1,.48-2.246A3.748,3.748,0,0,1,51.7-8.051a3.378,3.378,0,0,1,1.871-.559,3.166,3.166,0,0,1,2.563,1.086,4.7,4.7,0,0,1,.914,3.109v.6H51.32a3,3,0,0,0,.73,2.02,2.3,2.3,0,0,0,1.777.77,2.517,2.517,0,0,0,1.3-.312,3.259,3.259,0,0,0,.93-.828l.883.688A3.55,3.55,0,0,1,53.75.156Zm-.18-7.578a1.928,1.928,0,0,0-1.469.637A3.1,3.1,0,0,0,51.367-5H55.6v-.109a2.753,2.753,0,0,0-.594-1.707A1.815,1.815,0,0,0,53.57-7.422ZM.742,15.7a4.952,4.952,0,0,1,.922-3.129,2.915,2.915,0,0,1,2.414-1.184A2.932,2.932,0,0,1,6.43,12.406V8H7.875V20H6.547l-.07-.906a2.943,2.943,0,0,1-2.414,1.063,2.887,2.887,0,0,1-2.395-1.2,5.008,5.008,0,0,1-.926-3.141Zm1.445.164a3.749,3.749,0,0,0,.594,2.25,1.92,1.92,0,0,0,1.641.813A2.108,2.108,0,0,0,6.43,17.7V13.813a2.125,2.125,0,0,0-1.992-1.2,1.929,1.929,0,0,0-1.656.82A4.128,4.128,0,0,0,2.188,15.867ZM15.336,20a3.036,3.036,0,0,1-.2-.891,3.225,3.225,0,0,1-2.406,1.047,2.984,2.984,0,0,1-2.051-.707,2.287,2.287,0,0,1-.8-1.793,2.39,2.39,0,0,1,1-2.051,4.733,4.733,0,0,1,2.824-.73h1.406v-.664A1.623,1.623,0,0,0,14.656,13a1.821,1.821,0,0,0-1.336-.449,2.107,2.107,0,0,0-1.3.391,1.151,1.151,0,0,0-.523.945H10.047a2,2,0,0,1,.449-1.223,3.066,3.066,0,0,1,1.219-.934,4.1,4.1,0,0,1,1.691-.344,3.342,3.342,0,0,1,2.289.73,2.635,2.635,0,0,1,.859,2.012v3.891a4.757,4.757,0,0,0,.3,1.852V20Zm-2.4-1.1a2.54,2.54,0,0,0,1.289-.352,2.127,2.127,0,0,0,.883-.914V15.9H13.977q-2.656,0-2.656,1.555a1.316,1.316,0,0,0,.453,1.063A1.742,1.742,0,0,0,12.938,18.9Zm7.844-9.4v2.047h1.578v1.117H20.781v5.249a1.173,1.173,0,0,0,.211.763.888.888,0,0,0,.719.254,3.5,3.5,0,0,0,.688-.094V20a4.215,4.215,0,0,1-1.109.155,1.8,1.8,0,0,1-1.461-.586,2.517,2.517,0,0,1-.492-1.664V12.664H17.8V11.547h1.539V9.5Zm2.727,6.2A4.993,4.993,0,0,1,24,13.461a3.643,3.643,0,0,1,1.359-1.531,3.7,3.7,0,0,1,1.988-.539,3.565,3.565,0,0,1,2.793,1.2,4.6,4.6,0,0,1,1.066,3.18v.1a5.036,5.036,0,0,1-.473,2.215,3.589,3.589,0,0,1-1.352,1.527,3.743,3.743,0,0,1-2.02.547,3.556,3.556,0,0,1-2.785-1.2A4.575,4.575,0,0,1,23.508,15.8Zm1.453.172a3.616,3.616,0,0,0,.652,2.258,2.211,2.211,0,0,0,3.5-.012,3.955,3.955,0,0,0,.648-2.418,3.61,3.61,0,0,0-.66-2.254,2.1,2.1,0,0,0-1.754-.863,2.075,2.075,0,0,0-1.727.852A3.925,3.925,0,0,0,24.961,15.867Zm12.977,1.891a1.064,1.064,0,0,0-.441-.91,4.249,4.249,0,0,0-1.539-.559,7.277,7.277,0,0,1-1.742-.562,2.479,2.479,0,0,1-.953-.781,1.869,1.869,0,0,1-.309-1.078,2.193,2.193,0,0,1,.879-1.758,3.432,3.432,0,0,1,2.246-.719,3.532,3.532,0,0,1,2.332.742,2.357,2.357,0,0,1,.895,1.9H37.852a1.3,1.3,0,0,0-.5-1.023,1.888,1.888,0,0,0-1.27-.43,1.976,1.976,0,0,0-1.234.344,1.082,1.082,0,0,0-.445.9.877.877,0,0,0,.414.789,5.1,5.1,0,0,0,1.5.508,7.8,7.8,0,0,1,1.754.578,2.558,2.558,0,0,1,1,.809,1.988,1.988,0,0,1,.324,1.152,2.163,2.163,0,0,1-.906,1.816,3.8,3.8,0,0,1-2.352.684,4.257,4.257,0,0,1-1.8-.359,2.922,2.922,0,0,1-1.223-1,2.42,2.42,0,0,1-.441-1.395h1.445a1.5,1.5,0,0,0,.582,1.152,2.258,2.258,0,0,0,1.434.426,2.331,2.331,0,0,0,1.316-.332A1.02,1.02,0,0,0,37.938,17.758Z" transform="translate(1000 10419.844)" fill="#12263f"/>
    <path id="Trazado_887668" data-name="Trazado 887668" d="M2.828-1.227H8.219V0H1.32V-11.375H2.828ZM14.922,0a3.036,3.036,0,0,1-.2-.891A3.225,3.225,0,0,1,12.313.156a2.984,2.984,0,0,1-2.051-.707,2.287,2.287,0,0,1-.8-1.793,2.39,2.39,0,0,1,1-2.051,4.733,4.733,0,0,1,2.824-.73H14.7v-.664A1.623,1.623,0,0,0,14.242-7a1.821,1.821,0,0,0-1.336-.449,2.107,2.107,0,0,0-1.3.391,1.151,1.151,0,0,0-.523.945H9.633a2,2,0,0,1,.449-1.223A3.066,3.066,0,0,1,11.3-8.266a4.1,4.1,0,0,1,1.691-.344,3.342,3.342,0,0,1,2.289.73,2.635,2.635,0,0,1,.859,2.012v3.891a4.757,4.757,0,0,0,.3,1.852V0Zm-2.4-1.1a2.54,2.54,0,0,0,1.289-.352,2.127,2.127,0,0,0,.883-.914V-4.1H13.563q-2.656,0-2.656,1.555a1.316,1.316,0,0,0,.453,1.063A1.742,1.742,0,0,0,12.523-1.1Zm5.531-3.2a4.952,4.952,0,0,1,.922-3.129,2.915,2.915,0,0,1,2.414-1.184,2.932,2.932,0,0,1,2.352,1.016V-12h1.445V0H23.859l-.07-.906A2.943,2.943,0,0,1,21.375.156a2.887,2.887,0,0,1-2.395-1.2,5.008,5.008,0,0,1-.926-3.141Zm1.445.164a3.749,3.749,0,0,0,.594,2.25,1.92,1.92,0,0,0,1.641.813A2.108,2.108,0,0,0,23.742-2.3V-6.187a2.125,2.125,0,0,0-1.992-1.2,1.929,1.929,0,0,0-1.656.82A4.128,4.128,0,0,0,19.5-4.133ZM27.047-4.3a4.993,4.993,0,0,1,.488-2.234A3.643,3.643,0,0,1,28.895-8.07a3.7,3.7,0,0,1,1.988-.539,3.565,3.565,0,0,1,2.793,1.2,4.6,4.6,0,0,1,1.066,3.18v.1a5.036,5.036,0,0,1-.473,2.215A3.589,3.589,0,0,1,32.918-.391,3.743,3.743,0,0,1,30.9.156a3.556,3.556,0,0,1-2.785-1.2A4.575,4.575,0,0,1,27.047-4.2Zm1.453.172a3.616,3.616,0,0,0,.652,2.258,2.088,2.088,0,0,0,1.746.852,2.075,2.075,0,0,0,1.75-.863A3.955,3.955,0,0,0,33.3-4.3a3.61,3.61,0,0,0-.66-2.254,2.1,2.1,0,0,0-1.754-.863,2.075,2.075,0,0,0-1.727.852A3.925,3.925,0,0,0,28.5-4.133ZM40.164-4.3a4.952,4.952,0,0,1,.922-3.129A2.915,2.915,0,0,1,43.5-8.609a2.932,2.932,0,0,1,2.352,1.016V-12H47.3V0H45.969L45.9-.906A2.943,2.943,0,0,1,43.484.156a2.887,2.887,0,0,1-2.395-1.2,5.008,5.008,0,0,1-.926-3.141Zm1.445.164a3.749,3.749,0,0,0,.594,2.25,1.92,1.92,0,0,0,1.641.813A2.108,2.108,0,0,0,45.852-2.3V-6.187a2.125,2.125,0,0,0-1.992-1.2,1.929,1.929,0,0,0-1.656.82A4.128,4.128,0,0,0,41.609-4.133ZM53.047.156a3.693,3.693,0,0,1-2.8-1.129,4.19,4.19,0,0,1-1.078-3.02v-.266a5.073,5.073,0,0,1,.48-2.246A3.748,3.748,0,0,1,51-8.051a3.378,3.378,0,0,1,1.871-.559A3.166,3.166,0,0,1,55.43-7.523a4.7,4.7,0,0,1,.914,3.109v.6H50.617a3,3,0,0,0,.73,2.02,2.3,2.3,0,0,0,1.777.77,2.517,2.517,0,0,0,1.3-.312,3.259,3.259,0,0,0,.93-.828l.883.688A3.55,3.55,0,0,1,53.047.156Zm-.18-7.578a1.928,1.928,0,0,0-1.469.637A3.1,3.1,0,0,0,50.664-5H54.9v-.109A2.753,2.753,0,0,0,54.3-6.816,1.815,1.815,0,0,0,52.867-7.422ZM59.586,0H58.141V-12h1.445Zm11.2-2.242a1.064,1.064,0,0,0-.441-.91A4.249,4.249,0,0,0,68.8-3.711a7.277,7.277,0,0,1-1.742-.562,2.479,2.479,0,0,1-.953-.781A1.869,1.869,0,0,1,65.8-6.133a2.193,2.193,0,0,1,.879-1.758,3.432,3.432,0,0,1,2.246-.719,3.532,3.532,0,0,1,2.332.742,2.357,2.357,0,0,1,.895,1.9H70.7a1.3,1.3,0,0,0-.5-1.023,1.888,1.888,0,0,0-1.27-.43,1.976,1.976,0,0,0-1.234.344,1.082,1.082,0,0,0-.445.9.877.877,0,0,0,.414.789,5.1,5.1,0,0,0,1.5.508,7.8,7.8,0,0,1,1.754.578,2.558,2.558,0,0,1,1,.809,1.988,1.988,0,0,1,.324,1.152A2.163,2.163,0,0,1,71.32-.527a3.8,3.8,0,0,1-2.352.684,4.257,4.257,0,0,1-1.8-.359,2.922,2.922,0,0,1-1.223-1A2.42,2.42,0,0,1,65.508-2.6h1.445a1.5,1.5,0,0,0,.582,1.152,2.258,2.258,0,0,0,1.434.426,2.331,2.331,0,0,0,1.316-.332A1.02,1.02,0,0,0,70.781-2.242Zm6.836,2.4a3.693,3.693,0,0,1-2.8-1.129,4.19,4.19,0,0,1-1.078-3.02v-.266a5.073,5.073,0,0,1,.48-2.246,3.748,3.748,0,0,1,1.344-1.547,3.378,3.378,0,0,1,1.871-.559A3.166,3.166,0,0,1,80-7.523a4.7,4.7,0,0,1,.914,3.109v.6H75.188a3,3,0,0,0,.73,2.02,2.3,2.3,0,0,0,1.777.77,2.517,2.517,0,0,0,1.3-.312,3.259,3.259,0,0,0,.93-.828l.883.688A3.55,3.55,0,0,1,77.617.156Zm-.18-7.578a1.928,1.928,0,0,0-1.469.637A3.1,3.1,0,0,0,75.234-5h4.234v-.109a2.753,2.753,0,0,0-.594-1.707A1.815,1.815,0,0,0,77.438-7.422Zm9.234.266a4.331,4.331,0,0,0-.711-.055A1.9,1.9,0,0,0,84.031-6V0H82.586V-8.453h1.406l.023.977a2.251,2.251,0,0,1,2.016-1.133,1.477,1.477,0,0,1,.641.109Zm4.258,5.2,2.094-6.492H94.5L91.469,0h-1.1L87.3-8.453h1.477ZM97.461,0H96.016V-8.453h1.445ZM95.9-10.7a.863.863,0,0,1,.215-.594.807.807,0,0,1,.637-.242.819.819,0,0,1,.641.242.854.854,0,0,1,.219.594.826.826,0,0,1-.219.586.834.834,0,0,1-.641.234.821.821,0,0,1-.637-.234A.834.834,0,0,1,95.9-10.7Zm3.523,6.4a4.952,4.952,0,0,1,.922-3.129,2.915,2.915,0,0,1,2.414-1.184,2.932,2.932,0,0,1,2.352,1.016V-12h1.445V0h-1.328l-.07-.906A2.943,2.943,0,0,1,102.742.156a2.887,2.887,0,0,1-2.395-1.2,5.008,5.008,0,0,1-.926-3.141Zm1.445.164a3.749,3.749,0,0,0,.594,2.25,1.92,1.92,0,0,0,1.641.813A2.109,2.109,0,0,0,105.109-2.3V-6.187a2.125,2.125,0,0,0-1.992-1.2,1.929,1.929,0,0,0-1.656.82A4.128,4.128,0,0,0,100.867-4.133Zm7.547-.172a4.993,4.993,0,0,1,.488-2.234,3.643,3.643,0,0,1,1.359-1.531,3.7,3.7,0,0,1,1.988-.539,3.565,3.565,0,0,1,2.793,1.2,4.6,4.6,0,0,1,1.066,3.18v.1a5.036,5.036,0,0,1-.473,2.215,3.589,3.589,0,0,1-1.352,1.527,3.743,3.743,0,0,1-2.02.547,3.556,3.556,0,0,1-2.785-1.2A4.575,4.575,0,0,1,108.414-4.2Zm1.453.172a3.616,3.616,0,0,0,.652,2.258,2.088,2.088,0,0,0,1.746.852,2.075,2.075,0,0,0,1.75-.863,3.955,3.955,0,0,0,.648-2.418A3.61,3.61,0,0,0,114-6.559a2.1,2.1,0,0,0-1.754-.863,2.075,2.075,0,0,0-1.727.852A3.925,3.925,0,0,0,109.867-4.133Zm12.141-3.023a4.331,4.331,0,0,0-.711-.055A1.9,1.9,0,0,0,119.367-6V0h-1.445V-8.453h1.406l.023.977a2.251,2.251,0,0,1,2.016-1.133,1.477,1.477,0,0,1,.641.109Z" transform="translate(592 10503.429)" fill="#12263f"/>
    <path id="Trazado_887265" data-name="Trazado 887265" d="M-8507-1179.613h544.359" transform="translate(9038 11764.429)" fill="none" stroke="#707070" stroke-width="1" stroke-dasharray="6"/>
    <path id="Trazado_887266" data-name="Trazado 887266" d="M-8439-1159.96c3.888-1.4,136.405-58.46,136.405-58.46" transform="translate(8987.595 11781.477)" fill="none" stroke="#a854f3" stroke-width="1"/>
    <path id="Trazado_887267" data-name="Trazado 887267" d="M-8439-1158.769c3.966-1.426,139.185-59.651,139.185-59.651" transform="translate(9072.815 11780.286)" fill="none" stroke="#a854f3" stroke-width="1"/>
    <path id="Trazado_887268" data-name="Trazado 887268" d="M-8182.1-1222.44v81.018" transform="translate(8982.1 11764.429)" fill="none" stroke="#a854f3" stroke-width="1"/>
    <path id="Trazado_887269" data-name="Trazado 887269" d="M-8302.594-1159.96c-3.888-1.4-136.405-58.46-136.405-58.46" transform="translate(9350.956 11781.477)" fill="none" stroke="#a854f3" stroke-width="1"/>
    <path id="Trazado_887270" data-name="Trazado 887270" d="M-8299.816-1158.769c-3.966-1.426-139.185-59.651-139.185-59.651" transform="translate(9262.958 11780.286)" fill="none" stroke="#a854f3" stroke-width="1"/>
    <path id="Trazado_887271" data-name="Trazado 887271" d="M-8162.88-1341.5h62.817" transform="translate(9002 11764.429)" fill="none" stroke="#a854f3" stroke-width="1"/>
    <path id="Trazado_887272" data-name="Trazado 887272" d="M-8182.1-1207.166v-15.274" transform="translate(8982.1 11679.437)" fill="none" stroke="#a854f3" stroke-width="1"/>
  </g>
</svg>
