<svg xmlns="http://www.w3.org/2000/svg" xmlns:xlink="http://www.w3.org/1999/xlink" width="505" height="318" viewBox="0 0 505 318">
  <defs>
    <clipPath id="clip-path">
      <rect id="Rectángulo_403305" data-name="Rectángulo 403305" width="35.042" height="22.748" fill="#8722e2"/>
    </clipPath>
    <clipPath id="clip-path-11">
      <rect id="Rectángulo_403311" data-name="Rectángulo 403311" width="34.187" height="27.675" transform="translate(0 0)" fill="#fff"/>
    </clipPath>
  </defs>
  <g id="Grupo_1101862" data-name="Grupo 1101862" transform="translate(6711 9411)">
    <g id="Grupo_1101847" data-name="Grupo 1101847" transform="translate(-7521 -11132)">
      <g id="Grupo_1101572" data-name="Grupo 1101572" transform="translate(-53 743)">
        <rect id="Rectángulo_403031" data-name="Rectángulo 403031" width="505" height="318" rx="21" transform="translate(863 978)" fill="#8722e2"/>
      </g>
    </g>
    <g id="Grupo_1101850" data-name="Grupo 1101850" transform="translate(262 -618.542)">
      <ellipse id="Elipse_11686" data-name="Elipse 11686" cx="24" cy="23.5" rx="24" ry="23.5" transform="translate(-6711 -8542.458)" fill="#debefb"/>
      <circle id="Elipse_11687" data-name="Elipse 11687" cx="23.5" cy="23.5" r="23.5" transform="translate(-6776 -8546.458)" fill="#debefb"/>
      <ellipse id="Elipse_11688" data-name="Elipse 11688" cx="23.5" cy="24" rx="23.5" ry="24" transform="translate(-6833 -8582.458)" fill="#debefb"/>
      <circle id="Elipse_11689" data-name="Elipse 11689" cx="24" cy="24" r="24" transform="translate(-6862 -8656.458)" fill="#debefb"/>
      <g id="Grupo_1101594" data-name="Grupo 1101594" transform="translate(-6703.679 -8770.437)">
        <ellipse id="Elipse_11682" data-name="Elipse 11682" cx="24" cy="23.5" rx="24" ry="23.5" transform="translate(-0.321 -0.021)" fill="#debefb"/>
        <g id="Grupo_1101582" data-name="Grupo 1101582" transform="translate(5.638 12.272)">
          <g id="Grupo_1101573" data-name="Grupo 1101573" transform="translate(0 0)" clip-path="url(#clip-path)">
            <path id="Trazado_879211" data-name="Trazado 879211" d="M141.118,18.916H112.593V1.444A1.445,1.445,0,0,1,114.038,0h25.635a1.445,1.445,0,0,1,1.445,1.445Z" transform="translate(-109.335 0.001)" fill="#8722e2"/>
            <rect id="Rectángulo_403304" data-name="Rectángulo 403304" width="24.661" height="17.103" transform="translate(5.19 1.993)" fill="#fff"/>
            <path id="Trazado_879212" data-name="Trazado 879212" d="M33.846,687.051H1.2a1.181,1.181,0,0,1-1.062-1.145l-.129-1.1a.585.585,0,0,1,.488-.7H34.548a.585.585,0,0,1,.488.7l-.129,1.1a1.181,1.181,0,0,1-1.062,1.145" transform="translate(0 -664.303)" fill="#8722e2"/>
            <path id="Trazado_879213" data-name="Trazado 879213" d="M519.788,723.274h-4.515a.363.363,0,0,1,0-.726h4.515a.363.363,0,0,1,0,.726" transform="translate(-500.01 -701.639)" fill="#fff"/>
          </g>
        </g>
      </g>
      <g id="Grupo_1101596" data-name="Grupo 1101596" transform="translate(-6644.424 -8738.957)">
        <ellipse id="Elipse_11683" data-name="Elipse 11683" cx="23.5" cy="24" rx="23.5" ry="24" transform="translate(0.424 0.499)" fill="#debefb"/>
        <g id="Grupo_1101583" data-name="Grupo 1101583" transform="translate(6.256 12.656)">
          <g id="Grupo_1101573-2" data-name="Grupo 1101573" transform="translate(0 0)" clip-path="url(#clip-path)">
            <path id="Trazado_879211-2" data-name="Trazado 879211" d="M141.118,18.916H112.593V1.444A1.445,1.445,0,0,1,114.038,0h25.635a1.445,1.445,0,0,1,1.445,1.445Z" transform="translate(-109.335 0.001)" fill="#8722e2"/>
            <rect id="Rectángulo_403304-2" data-name="Rectángulo 403304" width="24.661" height="17.103" transform="translate(5.19 1.993)" fill="#fff"/>
            <path id="Trazado_879212-2" data-name="Trazado 879212" d="M33.846,687.051H1.2a1.181,1.181,0,0,1-1.062-1.145l-.129-1.1a.585.585,0,0,1,.488-.7H34.548a.585.585,0,0,1,.488.7l-.129,1.1a1.181,1.181,0,0,1-1.062,1.145" transform="translate(0 -664.303)" fill="#8722e2"/>
            <path id="Trazado_879213-2" data-name="Trazado 879213" d="M519.788,723.274h-4.515a.363.363,0,0,1,0-.726h4.515a.363.363,0,0,1,0,.726" transform="translate(-500.01 -701.639)" fill="#fff"/>
          </g>
        </g>
      </g>
      <g id="Grupo_1101597" data-name="Grupo 1101597" transform="translate(-6608.316 -8656.556)">
        <circle id="Elipse_11684" data-name="Elipse 11684" cx="24" cy="24" r="24" transform="translate(0.316 0.098)" fill="#debefb"/>
        <g id="Grupo_1101584" data-name="Grupo 1101584" transform="translate(7.795 11.952)">
          <g id="Grupo_1101573-3" data-name="Grupo 1101573" clip-path="url(#clip-path)">
            <path id="Trazado_879211-3" data-name="Trazado 879211" d="M141.118,18.916H112.593V1.444A1.445,1.445,0,0,1,114.038,0h25.635a1.445,1.445,0,0,1,1.445,1.445Z" transform="translate(-109.335 0.001)" fill="#8722e2"/>
            <rect id="Rectángulo_403304-3" data-name="Rectángulo 403304" width="24.661" height="17.103" transform="translate(5.19 1.993)" fill="#fff"/>
            <path id="Trazado_879212-3" data-name="Trazado 879212" d="M33.846,687.051H1.2a1.181,1.181,0,0,1-1.062-1.145l-.129-1.1a.585.585,0,0,1,.488-.7H34.548a.585.585,0,0,1,.488.7l-.129,1.1a1.181,1.181,0,0,1-1.062,1.145" transform="translate(0 -664.303)" fill="#8722e2"/>
            <path id="Trazado_879213-3" data-name="Trazado 879213" d="M519.788,723.274h-4.515a.363.363,0,0,1,0-.726h4.515a.363.363,0,0,1,0,.726" transform="translate(-500.01 -701.639)" fill="#fff"/>
          </g>
        </g>
      </g>
      <g id="Grupo_1101598" data-name="Grupo 1101598" transform="translate(-6644.424 -8582.488)">
        <ellipse id="Elipse_11685" data-name="Elipse 11685" cx="23.5" cy="24" rx="23.5" ry="24" transform="translate(0.424 0.031)" fill="#debefb"/>
        <g id="Grupo_1101585" data-name="Grupo 1101585" transform="translate(6 13.007)">
          <g id="Grupo_1101573-4" data-name="Grupo 1101573" transform="translate(0 0)" clip-path="url(#clip-path)">
            <path id="Trazado_879211-4" data-name="Trazado 879211" d="M141.118,18.916H112.593V1.444A1.445,1.445,0,0,1,114.038,0h25.635a1.445,1.445,0,0,1,1.445,1.445Z" transform="translate(-109.335 0.001)" fill="#8722e2"/>
            <rect id="Rectángulo_403304-4" data-name="Rectángulo 403304" width="24.661" height="17.103" transform="translate(5.19 1.993)" fill="#fff"/>
            <path id="Trazado_879212-4" data-name="Trazado 879212" d="M33.846,687.051H1.2a1.181,1.181,0,0,1-1.062-1.145l-.129-1.1a.585.585,0,0,1,.488-.7H34.548a.585.585,0,0,1,.488.7l-.129,1.1a1.181,1.181,0,0,1-1.062,1.145" transform="translate(0 -664.303)" fill="#8722e2"/>
            <path id="Trazado_879213-4" data-name="Trazado 879213" d="M519.788,723.274h-4.515a.363.363,0,0,1,0-.726h4.515a.363.363,0,0,1,0,.726" transform="translate(-500.01 -701.639)" fill="#fff"/>
          </g>
        </g>
      </g>
      <g id="Grupo_1101586" data-name="Grupo 1101586" transform="translate(-6704.813 -8530.462)">
        <g id="Grupo_1101573-5" data-name="Grupo 1101573" transform="translate(0 0)" clip-path="url(#clip-path)">
          <path id="Trazado_879211-5" data-name="Trazado 879211" d="M141.118,18.916H112.593V1.444A1.445,1.445,0,0,1,114.038,0h25.635a1.445,1.445,0,0,1,1.445,1.445Z" transform="translate(-109.335 0.001)" fill="#8722e2"/>
          <rect id="Rectángulo_403304-5" data-name="Rectángulo 403304" width="24.661" height="17.103" transform="translate(5.19 1.993)" fill="#fff"/>
          <path id="Trazado_879212-5" data-name="Trazado 879212" d="M33.846,687.051H1.2a1.181,1.181,0,0,1-1.062-1.145l-.129-1.1a.585.585,0,0,1,.488-.7H34.548a.585.585,0,0,1,.488.7l-.129,1.1a1.181,1.181,0,0,1-1.062,1.145" transform="translate(0 -664.303)" fill="#8722e2"/>
          <path id="Trazado_879213-5" data-name="Trazado 879213" d="M519.788,723.274h-4.515a.363.363,0,0,1,0-.726h4.515a.363.363,0,0,1,0,.726" transform="translate(-500.01 -701.639)" fill="#fff"/>
        </g>
      </g>
      <g id="Grupo_1101587" data-name="Grupo 1101587" transform="translate(-6772.317 -8530.462)">
        <g id="Grupo_1101573-6" data-name="Grupo 1101573" clip-path="url(#clip-path)">
          <path id="Trazado_879211-6" data-name="Trazado 879211" d="M141.118,18.916H112.593V1.444A1.445,1.445,0,0,1,114.038,0h25.635a1.445,1.445,0,0,1,1.445,1.445Z" transform="translate(-109.335 0.001)" fill="#8722e2"/>
          <rect id="Rectángulo_403304-6" data-name="Rectángulo 403304" width="24.661" height="17.103" transform="translate(5.19 1.993)" fill="#fff"/>
          <path id="Trazado_879212-6" data-name="Trazado 879212" d="M33.846,687.051H1.2a1.181,1.181,0,0,1-1.062-1.145l-.129-1.1a.585.585,0,0,1,.488-.7H34.548a.585.585,0,0,1,.488.7l-.129,1.1a1.181,1.181,0,0,1-1.062,1.145" transform="translate(0 -664.303)" fill="#8722e2"/>
          <path id="Trazado_879213-6" data-name="Trazado 879213" d="M519.788,723.274h-4.515a.363.363,0,0,1,0-.726h4.515a.363.363,0,0,1,0,.726" transform="translate(-500.01 -701.639)" fill="#fff"/>
        </g>
      </g>
      <g id="Grupo_1101588" data-name="Grupo 1101588" transform="translate(-6827.158 -8569.48)">
        <g id="Grupo_1101573-7" data-name="Grupo 1101573" clip-path="url(#clip-path)">
          <path id="Trazado_879211-7" data-name="Trazado 879211" d="M141.118,18.916H112.593V1.444A1.445,1.445,0,0,1,114.038,0h25.635a1.445,1.445,0,0,1,1.445,1.445Z" transform="translate(-109.335 0.001)" fill="#8722e2"/>
          <rect id="Rectángulo_403304-7" data-name="Rectángulo 403304" width="24.661" height="17.103" transform="translate(5.19 1.993)" fill="#fff"/>
          <path id="Trazado_879212-7" data-name="Trazado 879212" d="M33.846,687.051H1.2a1.181,1.181,0,0,1-1.062-1.145l-.129-1.1a.585.585,0,0,1,.488-.7H34.548a.585.585,0,0,1,.488.7l-.129,1.1a1.181,1.181,0,0,1-1.062,1.145" transform="translate(0 -664.303)" fill="#8722e2"/>
          <path id="Trazado_879213-7" data-name="Trazado 879213" d="M519.788,723.274h-4.515a.363.363,0,0,1,0-.726h4.515a.363.363,0,0,1,0,.726" transform="translate(-500.01 -701.639)" fill="#fff"/>
        </g>
      </g>
      <g id="Grupo_1101589" data-name="Grupo 1101589" transform="translate(-6855.644 -8644.604)">
        <g id="Grupo_1101573-8" data-name="Grupo 1101573" clip-path="url(#clip-path)">
          <path id="Trazado_879211-8" data-name="Trazado 879211" d="M141.118,18.916H112.593V1.444A1.445,1.445,0,0,1,114.038,0h25.635a1.445,1.445,0,0,1,1.445,1.445Z" transform="translate(-109.335 0.001)" fill="#8722e2"/>
          <rect id="Rectángulo_403304-8" data-name="Rectángulo 403304" width="24.661" height="17.103" transform="translate(5.19 1.993)" fill="#fff"/>
          <path id="Trazado_879212-8" data-name="Trazado 879212" d="M33.846,687.051H1.2a1.181,1.181,0,0,1-1.062-1.145l-.129-1.1a.585.585,0,0,1,.488-.7H34.548a.585.585,0,0,1,.488.7l-.129,1.1a1.181,1.181,0,0,1-1.062,1.145" transform="translate(0 -664.303)" fill="#8722e2"/>
          <path id="Trazado_879213-8" data-name="Trazado 879213" d="M519.788,723.274h-4.515a.363.363,0,0,1,0-.726h4.515a.363.363,0,0,1,0,.726" transform="translate(-500.01 -701.639)" fill="#fff"/>
        </g>
      </g>
      <g id="Grupo_1101599" data-name="Grupo 1101599" transform="translate(-6841.631 -8730.624)">
        <circle id="Elipse_11690" data-name="Elipse 11690" cx="24" cy="24" r="24" transform="translate(-0.369 0.166)" fill="#debefb"/>
        <g id="Grupo_1101590" data-name="Grupo 1101590" transform="translate(5.747 12.22)">
          <g id="Grupo_1101573-9" data-name="Grupo 1101573" transform="translate(0 0)" clip-path="url(#clip-path)">
            <path id="Trazado_879211-9" data-name="Trazado 879211" d="M141.118,18.916H112.593V1.444A1.445,1.445,0,0,1,114.038,0h25.635a1.445,1.445,0,0,1,1.445,1.445Z" transform="translate(-109.335 0.001)" fill="#8722e2"/>
            <rect id="Rectángulo_403304-9" data-name="Rectángulo 403304" width="24.661" height="17.103" transform="translate(5.19 1.993)" fill="#fff"/>
            <path id="Trazado_879212-9" data-name="Trazado 879212" d="M33.846,687.051H1.2a1.181,1.181,0,0,1-1.062-1.145l-.129-1.1a.585.585,0,0,1,.488-.7H34.548a.585.585,0,0,1,.488.7l-.129,1.1a1.181,1.181,0,0,1-1.062,1.145" transform="translate(0 -664.303)" fill="#8722e2"/>
            <path id="Trazado_879213-9" data-name="Trazado 879213" d="M519.788,723.274h-4.515a.363.363,0,0,1,0-.726h4.515a.363.363,0,0,1,0,.726" transform="translate(-500.01 -701.639)" fill="#fff"/>
          </g>
        </g>
      </g>
      <g id="Grupo_1101595" data-name="Grupo 1101595" transform="translate(-6779.599 -8774.14)">
        <ellipse id="Elipse_11691" data-name="Elipse 11691" cx="24.5" cy="24" rx="24.5" ry="24" transform="translate(-0.401 -0.318)" fill="#debefb"/>
        <g id="Grupo_1101591" data-name="Grupo 1101591" transform="translate(6.76 12.386)">
          <g id="Grupo_1101573-10" data-name="Grupo 1101573" clip-path="url(#clip-path)">
            <path id="Trazado_879211-10" data-name="Trazado 879211" d="M141.118,18.916H112.593V1.444A1.445,1.445,0,0,1,114.038,0h25.635a1.445,1.445,0,0,1,1.445,1.445Z" transform="translate(-109.335 0.001)" fill="#8722e2"/>
            <rect id="Rectángulo_403304-10" data-name="Rectángulo 403304" width="24.661" height="17.103" transform="translate(5.19 1.993)" fill="#fff"/>
            <path id="Trazado_879212-10" data-name="Trazado 879212" d="M33.846,687.051H1.2a1.181,1.181,0,0,1-1.062-1.145l-.129-1.1a.585.585,0,0,1,.488-.7H34.548a.585.585,0,0,1,.488.7l-.129,1.1a1.181,1.181,0,0,1-1.062,1.145" transform="translate(0 -664.303)" fill="#8722e2"/>
            <path id="Trazado_879213-10" data-name="Trazado 879213" d="M519.788,723.274h-4.515a.363.363,0,0,1,0-.726h4.515a.363.363,0,0,1,0,.726" transform="translate(-500.01 -701.639)" fill="#fff"/>
          </g>
        </g>
      </g>
      <path id="Trazado_879232" data-name="Trazado 879232" d="M-8167-8621.5h199.378" transform="translate(1354.872 -12.875)" fill="none" stroke="#00ffdf" stroke-width="1"/>
      <path id="Trazado_879235" data-name="Trazado 879235" d="M-8150.826-8603.631-8297-8474.381" transform="translate(1509.227 -95.668)" fill="none" stroke="#00ffdf" stroke-width="1"/>
      <path id="Trazado_879238" data-name="Trazado 879238" d="M-8312.4-8707.037l156.754,117.332" transform="translate(1514.727 13.407)" fill="none" stroke="#00ffdf" stroke-width="1"/>
      <path id="Trazado_879239" data-name="Trazado 879239" d="M-8237.953-8571.8c2.386-1.193,56.9-177.645,56.9-177.645" transform="translate(1493.726 25.369)" fill="none" stroke="#00ffdf" stroke-width="1"/>
      <path id="Trazado_879240" data-name="Trazado 879240" d="M0,174.4C2.385,173.21,85.59,0,85.59,0" transform="translate(-6625.765 -8604.075) rotate(135)" fill="none" stroke="#00ffdf" stroke-width="1"/>
      <circle id="Elipse_11692" data-name="Elipse 11692" cx="24" cy="24" r="24" transform="translate(-6741 -8656.458)" fill="#a854f3"/>
      <g id="Grupo_1101593" data-name="Grupo 1101593" transform="translate(-6734.073 -8647.068)">
        <g id="Grupo_1101592" data-name="Grupo 1101592" transform="translate(0 0)" clip-path="url(#clip-path-11)">
          <path id="Trazado_879219" data-name="Trazado 879219" d="M30.449,827.211H3.738a3.738,3.738,0,1,0,0,7.475H30.449a3.738,3.738,0,1,0,0-7.475m-17.84,4.445h-2.1a.707.707,0,1,1,0-1.415h2.1a.707.707,0,1,1,0,1.415m5.533,0h-2.1a.707.707,0,1,1,0-1.415h2.1a.707.707,0,1,1,0,1.415m5.533,0h-2.1a.707.707,0,1,1,0-1.415h2.1a.707.707,0,1,1,0,1.415" transform="translate(0 -807.011)" fill="#fff"/>
          <path id="Trazado_879220" data-name="Trazado 879220" d="M605.1,178.944v10.393h1.415V178.944a2.358,2.358,0,1,0-1.415,0" transform="translate(-588.714 -170.08)" fill="#fff"/>
          <path id="Trazado_879221" data-name="Trazado 879221" d="M385.543,78.155c-.058.108-.119.209-.179.31-.015.025-.03.051-.044.077l-.042.077c-.028.052-.057.1-.085.152s-.054.1-.081.153-.053.1-.079.152l-.039.075-.036.077c-.024.052-.049.1-.073.153a8.426,8.426,0,0,0-.463,1.232,7.4,7.4,0,0,0-.275,2.509,8.4,8.4,0,0,0,.56,2.484,10.708,10.708,0,0,0,.556,1.207l.082.149c.028.05.053.1.083.15.059.1.115.2.174.3.03.049.062.1.092.148s.06.1.092.151c.064.1.129.2.19.3-.108-.053-.213-.112-.319-.172s-.2-.13-.3-.2c-.051-.034-.1-.071-.146-.108l-.144-.112-.036-.028-.034-.03-.069-.06-.136-.122a5.821,5.821,0,0,1-.938-1.139,6.044,6.044,0,0,1-.922-2.845,5.823,5.823,0,0,1,.105-1.518,5.509,5.509,0,0,1,.5-1.427,5.237,5.237,0,0,1,.86-1.212c.043-.044.086-.088.129-.131l.065-.065c.022-.021.046-.041.069-.061l.138-.12c.046-.04.092-.079.142-.115.1-.073.194-.145.295-.212s.206-.127.312-.184" transform="translate(-373.567 -76.246)" fill="#fff"/>
          <path id="Trazado_879222" data-name="Trazado 879222" d="M511.847,162.631c-.025.073-.054.14-.081.206s-.051.134-.077.2-.048.13-.071.192l-.065.188a6.317,6.317,0,0,0-.195.724,4.988,4.988,0,0,0-.1,1.372,5.134,5.134,0,0,0,.284,1.347,6.808,6.808,0,0,0,.29.694c.029.059.057.12.089.179s.061.122.094.183c.065.123.136.247.206.382a1.958,1.958,0,0,1-.432-.126c-.07-.029-.136-.062-.2-.1l-.05-.026-.049-.028-.1-.06a2.851,2.851,0,0,1-.679-.617,3.178,3.178,0,0,1-.243-3.569,2.809,2.809,0,0,1,.592-.7c.058-.049.119-.094.179-.139s.127-.083.19-.121.134-.069.2-.1.14-.056.212-.078" transform="translate(-497.581 -158.66)" fill="#fff"/>
          <path id="Trazado_879223" data-name="Trazado 879223" d="M267.246,0c-.091.137-.186.269-.279.4s-.177.269-.267.4l-.25.4-.233.409a10.745,10.745,0,0,0-.744,1.687,9.973,9.973,0,0,0-.426,1.753,9.606,9.606,0,0,0-.1,1.784,9.718,9.718,0,0,0,.236,1.772,10.231,10.231,0,0,0,.562,1.717,11.492,11.492,0,0,0,.863,1.632q.25.4.534.781c.048.064.1.127.144.192s.095.13.145.193c.1.128.2.253.3.382-.146-.075-.287-.158-.426-.245-.07-.043-.136-.091-.2-.138s-.134-.1-.2-.143a7.515,7.515,0,0,1-.757-.642,7.876,7.876,0,0,1-1.252-1.57,8.041,8.041,0,0,1-.829-1.86,8.169,8.169,0,0,1-.158-4.065,7.93,7.93,0,0,1,.682-1.92,7.6,7.6,0,0,1,1.139-1.657c.115-.121.229-.242.347-.358s.243-.225.369-.332.258-.205.389-.3.272-.184.41-.27" transform="translate(-257.286 0.002)" fill="#fff"/>
          <path id="Trazado_879224" data-name="Trazado 879224" d="M892.267,78.155c.106.057.208.12.312.184s.2.139.295.212c.05.036.1.075.142.115l.138.12c.023.02.046.04.069.061l.065.065c.044.043.086.087.129.131a5.238,5.238,0,0,1,.86,1.212,5.512,5.512,0,0,1,.5,1.427,5.823,5.823,0,0,1,.105,1.518,6.045,6.045,0,0,1-.922,2.845,5.822,5.822,0,0,1-.938,1.139l-.136.122-.068.06-.034.03-.036.028-.144.112c-.048.037-.1.074-.146.108-.1.069-.2.135-.3.2s-.211.119-.319.172c.061-.105.126-.2.19-.3.032-.05.061-.1.092-.151s.062-.1.092-.148c.059-.1.116-.2.174-.3.03-.048.055-.1.083-.15l.082-.149a10.692,10.692,0,0,0,.556-1.207,8.4,8.4,0,0,0,.56-2.484,7.4,7.4,0,0,0-.275-2.509,8.412,8.412,0,0,0-.463-1.232c-.024-.051-.049-.1-.073-.153l-.036-.077-.039-.075q-.04-.075-.079-.152c-.027-.051-.051-.1-.081-.153s-.058-.1-.085-.152l-.042-.077c-.014-.026-.028-.052-.044-.077-.06-.1-.121-.2-.179-.31" transform="translate(-870.056 -76.246)" fill="#fff"/>
          <path id="Trazado_879225" data-name="Trazado 879225" d="M800.7,162.631c.073.022.142.049.212.078s.135.065.2.1.128.078.19.121.121.09.179.139a2.808,2.808,0,0,1,.592.7,3.178,3.178,0,0,1-.243,3.569,2.85,2.85,0,0,1-.679.617l-.1.06-.049.028-.05.026c-.067.035-.133.069-.2.1a1.96,1.96,0,0,1-.432.126c.07-.135.142-.259.206-.382.033-.061.063-.123.094-.183s.06-.12.089-.179a6.809,6.809,0,0,0,.29-.694,5.132,5.132,0,0,0,.284-1.347,5,5,0,0,0-.1-1.372,6.367,6.367,0,0,0-.195-.724l-.065-.188c-.024-.063-.048-.126-.072-.192s-.051-.13-.077-.2-.056-.133-.081-.206" transform="translate(-780.782 -158.66)" fill="#fff"/>
          <path id="Trazado_879226" data-name="Trazado 879226" d="M972.478,0c.139.086.274.178.41.27s.26.2.389.3.245.22.368.332.232.237.347.358a7.6,7.6,0,0,1,1.139,1.657,7.926,7.926,0,0,1,.682,1.92,8.169,8.169,0,0,1-.158,4.065,8.041,8.041,0,0,1-.829,1.86,7.873,7.873,0,0,1-1.252,1.57,7.5,7.5,0,0,1-.758.642c-.067.048-.133.1-.2.143s-.134.094-.2.138c-.139.087-.28.17-.426.245.1-.129.2-.254.3-.382.05-.063.1-.128.145-.193s.1-.128.144-.192q.282-.386.534-.781a11.483,11.483,0,0,0,.863-1.632,10.225,10.225,0,0,0,.562-1.717,9.718,9.718,0,0,0,.236-1.772,9.611,9.611,0,0,0-.1-1.784A9.973,9.973,0,0,0,974.25,3.3a10.742,10.742,0,0,0-.744-1.687l-.233-.409-.25-.4c-.09-.131-.177-.265-.267-.4s-.188-.262-.279-.4" transform="translate(-948.251 0.002)" fill="#fff"/>
        </g>
      </g>
      <g id="Polígono_19" data-name="Polígono 19" transform="matrix(0.951, -0.309, 0.309, 0.951, -6754.492, -8729.429)" fill="#00ffdf">
        <path d="M 7.731935977935791 6.679196357727051 L 0.8830960988998413 6.679196357727051 L 4.307516098022461 0.9718295931816101 L 7.731935977935791 6.679196357727051 Z" stroke="none"/>
        <path d="M 4.307516098022461 1.943646430969238 L 1.766186237335205 6.179196357727051 L 6.848845958709717 6.179196357727051 L 4.307516098022461 1.943646430969238 M 4.307516098022461 -3.814697265625e-06 L 8.615036010742188 7.179196357727051 L -3.814697265625e-06 7.179196357727051 L 4.307516098022461 -3.814697265625e-06 Z" stroke="none" fill="#00ffdf"/>
      </g>
      <path id="Polígono_20" data-name="Polígono 20" d="M4.308,0,8.615,7.179H0Z" transform="translate(-6689.682 -8729.884) rotate(17)" fill="#00ffdf"/>
      <path id="Polígono_21" data-name="Polígono 21" d="M4.308,0,8.615,7.179H0Z" transform="matrix(0.588, 0.809, -0.809, 0.588, -6640.919, -8704.895)" fill="#00ffdf"/>
      <path id="Polígono_22" data-name="Polígono 22" d="M4.308,0,8.615,7.179H0Z" transform="translate(-6607.549 -8638.683) rotate(90)" fill="#00ffdf"/>
      <path id="Polígono_23" data-name="Polígono 23" d="M4.308,0,8.615,7.179H0Z" transform="translate(-6633.946 -8577.51) rotate(120)" fill="#00ffdf"/>
      <path id="Polígono_24" data-name="Polígono 24" d="M4.308,0,8.615,7.179H0Z" transform="translate(-6680.904 -8540.758) rotate(162)" fill="#00ffdf"/>
      <path id="Polígono_25" data-name="Polígono 25" d="M4.308,0,8.615,7.179H0Z" transform="translate(-6742.145 -8541.471) rotate(-150)" fill="#00ffdf"/>
      <path id="Polígono_26" data-name="Polígono 26" d="M4.308,0,8.615,7.179H0Z" transform="translate(-6815.719 -8630.067) rotate(-90)" fill="#00ffdf"/>
      <path id="Polígono_27" data-name="Polígono 27" d="M4.308,0,8.615,7.179H0Z" transform="translate(-6793.313 -8687.144) rotate(-173)" fill="#00ffdf"/>
      <circle id="Elipse_11693" data-name="Elipse 11693" cx="6.82" cy="6.82" r="6.82" transform="translate(-6844.943 -8649.475)" fill="#f2e5fd"/>
      <text id="A" transform="translate(-6842.604 -8640.552)" fill="#8722e2" font-size="11" font-family="Roboto-Black, Roboto" font-weight="800"><tspan x="0" y="0">A</tspan></text>
      <circle id="Elipse_11694" data-name="Elipse 11694" cx="6.82" cy="6.82" r="6.82" transform="translate(-6825.77 -8725.551)" fill="#f2e5fd"/>
      <text id="B" transform="translate(-6823.431 -8715.627)" fill="#8722e2" font-size="12" font-family="Roboto-Black, Roboto" font-weight="800"><tspan x="0" y="0">B</tspan></text>
      <circle id="Elipse_11695" data-name="Elipse 11695" cx="6.82" cy="6.82" r="6.82" transform="translate(-6762.209 -8767.908)" fill="#f2e5fd"/>
      <text id="C" transform="translate(-6759.871 -8757.985)" fill="#8722e2" font-size="12" font-family="Roboto-Black, Roboto" font-weight="800"><tspan x="0" y="0">C</tspan></text>
      <circle id="Elipse_11696" data-name="Elipse 11696" cx="6.82" cy="6.82" r="6.82" transform="translate(-6686.612 -8766.831)" fill="#f2e5fd"/>
      <text id="D" transform="translate(-6684.273 -8756.908)" fill="#8722e2" font-size="12" font-family="Roboto-Black, Roboto" font-weight="800"><tspan x="0" y="0">D</tspan></text>
      <circle id="Elipse_11697" data-name="Elipse 11697" cx="6.82" cy="6.82" r="6.82" transform="translate(-6627.599 -8733.089)" fill="#f2e5fd"/>
      <text id="E" transform="translate(-6625.261 -8724.166)" fill="#8722e2" font-size="11" font-family="Roboto-Black, Roboto" font-weight="800"><tspan x="0" y="0">E</tspan></text>
      <ellipse id="Elipse_11698" data-name="Elipse 11698" cx="7" cy="6.5" rx="7" ry="6.5" transform="translate(-6589 -8651.458)" fill="#f2e5fd"/>
      <text id="F" transform="translate(-6586.134 -8642.323)" fill="#8722e2" font-size="11" font-family="Roboto-Black, Roboto" font-weight="800"><tspan x="0" y="0">F</tspan></text>
      <circle id="Elipse_11699" data-name="Elipse 11699" cx="6.82" cy="6.82" r="6.82" transform="translate(-6627.599 -8575.942)" fill="#f2e5fd"/>
      <text id="G" transform="translate(-6625.261 -8567.019)" fill="#8722e2" font-size="11" font-family="Roboto-Black, Roboto" font-weight="800"><tspan x="0" y="0">G</tspan></text>
      <circle id="Elipse_11700" data-name="Elipse 11700" cx="6.82" cy="6.82" r="6.82" transform="translate(-6695.083 -8536.738)" fill="#f2e5fd"/>
      <text id="H" transform="translate(-6692.745 -8526.814)" fill="#8722e2" font-size="12" font-family="Roboto-Black, Roboto" font-weight="800"><tspan x="0" y="0">H</tspan></text>
      <circle id="Elipse_11701" data-name="Elipse 11701" cx="6.82" cy="6.82" r="6.82" transform="translate(-6761.311 -8537.097)" fill="#f2e5fd"/>
      <text id="I" transform="translate(-6756.818 -8531.174)" fill="#8722e2" font-size="8" font-family="Roboto-Black, Roboto" font-weight="800"><tspan x="0" y="0">I</tspan></text>
      <circle id="Elipse_11702" data-name="Elipse 11702" cx="6.82" cy="6.82" r="6.82" transform="translate(-6816.458 -8575.583)" fill="#f2e5fd"/>
      <text id="J" transform="translate(-6814.119 -8566.66)" fill="#8722e2" font-size="11" font-family="Roboto-Black, Roboto" font-weight="800"><tspan x="0" y="0">J</tspan></text>
      <path id="Polígono_28" data-name="Polígono 28" d="M4.308,0,8.615,7.179H0Z" transform="matrix(-0.309, 0.951, -0.951, -0.309, -6781.156, -8573.036)" fill="#00ffdf"/>
    </g>
    <g id="Grupo_1101852" data-name="Grupo 1101852">
      <path id="Polígono_33" data-name="Polígono 33" d="M4.308,0,8.615,7.179H0Z" transform="translate(-6514.162 -9300.824) rotate(-173)" fill="#f0c518"/>
      <path id="Trazado_887655" data-name="Trazado 887655" d="M-6478.487-9275.047l-38.323-29.437" fill="none" stroke="#f0c518" stroke-width="2"/>
    </g>
    <g id="Grupo_1101851" data-name="Grupo 1101851">
      <path id="Polígono_34" data-name="Polígono 34" d="M4.308,0,8.615,7.179H0Z" transform="translate(-6497.871 -9259.192) rotate(-30)" fill="#f0c518"/>
      <path id="Trazado_887656" data-name="Trazado 887656" d="M-6535.688-9255.915h43.343" transform="translate(0 -1)" fill="none" stroke="#f0c518" stroke-width="2"/>
    </g>
    <g id="Elipse_11755" data-name="Elipse 11755" transform="translate(-6484 -9280)" fill="none" stroke="#f0c518" stroke-width="2">
      <circle cx="29.5" cy="29.5" r="29.5" stroke="none"/>
      <circle cx="29.5" cy="29.5" r="28.5" fill="none"/>
    </g>
    <g id="Elipse_11756" data-name="Elipse 11756" transform="translate(-6606 -9281)" fill="none" stroke="#f0c518" stroke-width="2">
      <circle cx="29.5" cy="29.5" r="29.5" stroke="none"/>
      <circle cx="29.5" cy="29.5" r="28.5" fill="none"/>
    </g>
    <g id="Elipse_11757" data-name="Elipse 11757" transform="translate(-6586 -9354)" fill="none" stroke="#f0c518" stroke-width="2">
      <circle cx="29.5" cy="29.5" r="29.5" stroke="none"/>
      <circle cx="29.5" cy="29.5" r="28.5" fill="none"/>
    </g>
  </g>
</svg>
