<svg xmlns="http://www.w3.org/2000/svg" width="190" height="123" viewBox="0 0 190 123">
  <g id="Grupo_1101860" data-name="Grupo 1101860" transform="translate(-180 -5034.902)">
    <g id="Grupo_1101809" data-name="Grupo 1101809" transform="translate(0 1824.902)">
      <g id="Grupo_1101799" data-name="Grupo 1101799" transform="translate(0 705)">
        <g id="Grupo_1101792" data-name="Grupo 1101792" transform="translate(0 1023)">
          <g id="Grupo_1101625" data-name="Grupo 1101625" transform="translate(0 -3500)">
            <rect id="Rectángulo_403324" data-name="Rectángulo 403324" width="190" height="123" transform="translate(180 4982)" fill="#f2e5fd"/>
          </g>
        </g>
      </g>
    </g>
    <g id="AdobeStock_703611079" transform="translate(74.982 -23905.258)">
      <g id="Grupo_1101810" data-name="Grupo 1101810" transform="translate(160.018 28959.957)">
        <g id="LINE-BIASA" transform="translate(0 0)">
          <path id="Trazado_887418" data-name="Trazado 887418" d="M22345.418-882.317c0-1.377.906-2.854,2.922-4a18.644,18.644,0,0,1,4.279-1.636v-1.991a5.377,5.377,0,0,1,1.375-3.6,5.377,5.377,0,0,1-1.375-3.6v-18a5.4,5.4,0,0,1,5.4-5.4h61.2a5.4,5.4,0,0,1,5.4,5.4v18a5.377,5.377,0,0,1-1.375,3.6,5.377,5.377,0,0,1,1.375,3.6v18a5.377,5.377,0,0,1-1.375,3.6,5.377,5.377,0,0,1,1.375,3.6v18a5.4,5.4,0,0,1-5.4,5.4h-54c-7.346,0-13.713-1.3-16.879-3.1-2.016-1.144-2.922-2.621-2.922-4Zm9.271-2.455a22.169,22.169,0,0,0-3.326,1,7.176,7.176,0,0,0-2.035,1.132,2.272,2.272,0,0,0-.281.323,2.273,2.273,0,0,0,.281.323,7.176,7.176,0,0,0,2.035,1.132c3.125,1.254,8.172,2.04,13.855,2.04s10.732-.785,13.855-2.04a7.122,7.122,0,0,0,2.035-1.132,2.178,2.178,0,0,0,.283-.323,2.178,2.178,0,0,0-.283-.323,7.122,7.122,0,0,0-2.035-1.132c-3.123-1.254-8.172-2.04-13.855-2.04a49.583,49.583,0,0,0-10.412,1.017C22354.77-884.785,22354.729-884.779,22354.689-884.772Zm3.33-6.969a1.8,1.8,0,0,0-1.8,1.8v1.214a56.716,56.716,0,0,1,9-.684c7.348,0,13.713,1.3,16.879,3.1,2.018,1.144,2.922,2.621,2.922,4v12.177h34.2a1.8,1.8,0,0,0,1.8-1.8v-18a1.8,1.8,0,0,0-1.8-1.8Zm61.2-3.6a1.8,1.8,0,0,0,1.8-1.8v-18a1.8,1.8,0,0,0-1.8-1.8h-61.2a1.8,1.8,0,0,0-1.8,1.8v18a1.8,1.8,0,0,0,1.8,1.8Zm-36.336,50.4h36.336a1.8,1.8,0,0,0,1.8-1.8v-18a1.8,1.8,0,0,0-1.8-1.8h-34.2v18.107A4.438,4.438,0,0,1,22382.887-844.938Zm-33.869-10.437v6.9a2.62,2.62,0,0,0,.311.362,7.176,7.176,0,0,0,2.035,1.132c3.125,1.254,8.172,2.04,13.855,2.04s10.732-.785,13.855-2.04a7.122,7.122,0,0,0,2.035-1.132,2.367,2.367,0,0,0,.311-.362v-6.9c-3.344,1.609-9.346,2.743-16.2,2.743S22352.363-853.766,22349.018-855.376Zm0-11.3v6.906a2.718,2.718,0,0,0,.311.362,7.176,7.176,0,0,0,2.035,1.132c3.125,1.253,8.172,2.04,13.855,2.04s10.732-.787,13.855-2.04a7.122,7.122,0,0,0,2.035-1.132,2.447,2.447,0,0,0,.311-.362v-6.906c-3.344,1.611-9.346,2.743-16.2,2.743S22352.363-865.061,22349.018-866.672Zm0-11.294v6.9a2.569,2.569,0,0,0,.311.363,7.218,7.218,0,0,0,2.035,1.132c3.125,1.253,8.172,2.038,13.855,2.038s10.732-.785,13.855-2.038a7.163,7.163,0,0,0,2.035-1.132,2.363,2.363,0,0,0,.311-.363v-6.9c-3.344,1.611-9.346,2.743-16.2,2.743S22352.363-876.355,22349.018-877.966Zm63.006-8.375a5.4,5.4,0,0,1,5.4,5.4,5.4,5.4,0,0,1-5.4,5.4,5.4,5.4,0,0,1-5.4-5.4A5.4,5.4,0,0,1,22412.023-886.341Zm0,3.6a1.8,1.8,0,0,0-1.8,1.8,1.8,1.8,0,0,0,1.8,1.8,1.8,1.8,0,0,0,1.8-1.8A1.8,1.8,0,0,0,22412.023-882.741Zm-14.4-3.6a5.4,5.4,0,0,1,5.4,5.4,5.4,5.4,0,0,1-5.4,5.4,5.4,5.4,0,0,1-5.4-5.4A5.4,5.4,0,0,1,22397.621-886.341Zm0,3.6a1.8,1.8,0,0,0-1.8,1.8,1.8,1.8,0,0,0,1.8,1.8,1.8,1.8,0,0,0,1.8-1.8A1.8,1.8,0,0,0,22397.621-882.741Zm-36-21.6a1.8,1.8,0,0,1-1.8-1.8,1.8,1.8,0,0,1,1.8-1.8h25.2a1.8,1.8,0,0,1,1.8,1.8,1.8,1.8,0,0,1-1.8,1.8Zm36-7.2a5.4,5.4,0,0,1,5.4,5.4,5.4,5.4,0,0,1-5.4,5.4,5.4,5.4,0,0,1-5.4-5.4A5.4,5.4,0,0,1,22397.621-911.543Zm0,3.6a1.8,1.8,0,0,0-1.8,1.8,1.8,1.8,0,0,0,1.8,1.8,1.8,1.8,0,0,0,1.8-1.8A1.8,1.8,0,0,0,22397.621-907.942Zm14.4-3.6a5.4,5.4,0,0,1,5.4,5.4,5.4,5.4,0,0,1-5.4,5.4,5.4,5.4,0,0,1-5.4-5.4A5.4,5.4,0,0,1,22412.023-911.543Zm0,3.6a1.8,1.8,0,0,0-1.8,1.8,1.8,1.8,0,0,0,1.8,1.8,1.8,1.8,0,0,0,1.8-1.8A1.8,1.8,0,0,0,22412.023-907.942Zm0,46.8a5.4,5.4,0,0,1,5.4,5.4,5.4,5.4,0,0,1-5.4,5.4,5.4,5.4,0,0,1-5.4-5.4A5.4,5.4,0,0,1,22412.023-861.139Zm0,3.6a1.8,1.8,0,0,0-1.8,1.8,1.8,1.8,0,0,0,1.8,1.8,1.8,1.8,0,0,0,1.8-1.8A1.8,1.8,0,0,0,22412.023-857.539Zm-14.4-3.6a5.4,5.4,0,0,1,5.4,5.4,5.4,5.4,0,0,1-5.4,5.4,5.4,5.4,0,0,1-5.4-5.4A5.4,5.4,0,0,1,22397.621-861.139Zm0,3.6a1.8,1.8,0,0,0-1.8,1.8,1.8,1.8,0,0,0,1.8,1.8,1.8,1.8,0,0,0,1.8-1.8A1.8,1.8,0,0,0,22397.621-857.539Z" transform="translate(-22345.418 920.543)" fill="#8722e2" fill-rule="evenodd"/>
        </g>
      </g>
    </g>
  </g>
</svg>
