<svg xmlns="http://www.w3.org/2000/svg" xmlns:xlink="http://www.w3.org/1999/xlink" width="85" height="42" viewBox="0 0 85 42">
  <defs>
    <clipPath id="clip-path">
      <rect width="85" height="42" fill="none"/>
    </clipPath>
  </defs>
  <g id="Cuadrícula_de_repetición_14" data-name="Cuadrícula de repetición 14" clip-path="url(#clip-path)">
    <g transform="translate(-180 -4011)">
      <circle id="Elipse_11522" data-name="Elipse 11522" cx="3" cy="3" r="3" transform="translate(180 4011)" fill="#a854f3"/>
      <circle id="Elipse_11523" data-name="Elipse 11523" cx="3" cy="3" r="3" transform="translate(195 4011)" fill="#a854f3"/>
      <circle id="Elipse_11524" data-name="Elipse 11524" cx="3" cy="3" r="3" transform="translate(212 4011)" fill="#a854f3"/>
      <circle id="Elipse_11525" data-name="Elipse 11525" cx="3" cy="3" r="3" transform="translate(227 4011)" fill="#a854f3"/>
      <circle id="Elipse_11526" data-name="Elipse 11526" cx="3" cy="3" r="3" transform="translate(244 4011)" fill="#a854f3"/>
      <circle id="Elipse_11527" data-name="Elipse 11527" cx="3" cy="3" r="3" transform="translate(259 4011)" fill="#a854f3"/>
    </g>
    <g transform="translate(-180 -3995)">
      <circle id="Elipse_11522-2" data-name="Elipse 11522" cx="3" cy="3" r="3" transform="translate(180 4011)" fill="#a854f3"/>
      <circle id="Elipse_11523-2" data-name="Elipse 11523" cx="3" cy="3" r="3" transform="translate(195 4011)" fill="#a854f3"/>
      <circle id="Elipse_11524-2" data-name="Elipse 11524" cx="3" cy="3" r="3" transform="translate(212 4011)" fill="#a854f3"/>
      <circle id="Elipse_11525-2" data-name="Elipse 11525" cx="3" cy="3" r="3" transform="translate(227 4011)" fill="#a854f3"/>
      <circle id="Elipse_11526-2" data-name="Elipse 11526" cx="3" cy="3" r="3" transform="translate(244 4011)" fill="#a854f3"/>
      <circle id="Elipse_11527-2" data-name="Elipse 11527" cx="3" cy="3" r="3" transform="translate(259 4011)" fill="#a854f3"/>
    </g>
    <g transform="translate(-180 -3979)">
      <circle id="Elipse_11522-3" data-name="Elipse 11522" cx="3" cy="3" r="3" transform="translate(180 4011)" fill="#a854f3"/>
      <circle id="Elipse_11523-3" data-name="Elipse 11523" cx="3" cy="3" r="3" transform="translate(195 4011)" fill="#a854f3"/>
      <circle id="Elipse_11524-3" data-name="Elipse 11524" cx="3" cy="3" r="3" transform="translate(212 4011)" fill="#a854f3"/>
      <circle id="Elipse_11525-3" data-name="Elipse 11525" cx="3" cy="3" r="3" transform="translate(227 4011)" fill="#a854f3"/>
      <circle id="Elipse_11526-3" data-name="Elipse 11526" cx="3" cy="3" r="3" transform="translate(244 4011)" fill="#a854f3"/>
      <circle id="Elipse_11527-3" data-name="Elipse 11527" cx="3" cy="3" r="3" transform="translate(259 4011)" fill="#a854f3"/>
    </g>
  </g>
</svg>
