<svg xmlns="http://www.w3.org/2000/svg" xmlns:xlink="http://www.w3.org/1999/xlink" width="190" height="123" viewBox="0 0 190 123">
  <defs>
    <clipPath id="clip-path">
      <rect id="Rect치ngulo_403478" data-name="Rect치ngulo 403478" width="78" height="78" fill="#8722e2"/>
    </clipPath>
  </defs>
  <g id="Grupo_1101802" data-name="Grupo 1101802" transform="translate(-180 -3210)">
    <g id="Grupo_1101799" data-name="Grupo 1101799" transform="translate(0 705)">
      <g id="Grupo_1101792" data-name="Grupo 1101792" transform="translate(0 1023)">
        <g id="Grupo_1101625" data-name="Grupo 1101625" transform="translate(0 -3500)">
          <rect id="Rect치ngulo_403324" data-name="Rect치ngulo 403324" width="190" height="123" transform="translate(180 4982)" fill="#f2e5fd"/>
        </g>
      </g>
    </g>
    <g id="Grupo_1101801" data-name="Grupo 1101801" transform="translate(236 3233)">
      <g id="Grupo_1101800" data-name="Grupo 1101800" clip-path="url(#clip-path)">
        <path id="Trazado_887403" data-name="Trazado 887403" d="M1.85,20.347H14.8A5.551,5.551,0,0,0,20.347,14.8V1.85a1.85,1.85,0,0,0-3.7,0V14.8a1.85,1.85,0,0,1-1.85,1.85H1.85a1.85,1.85,0,0,0,0,3.7" fill="#8722e2" fill-rule="evenodd"/>
        <path id="Trazado_887404" data-name="Trazado 887404" d="M209.85,67.7H226.5a1.85,1.85,0,1,0,0-3.7H209.85a1.85,1.85,0,1,0,0,3.7" transform="translate(-183.954 -56.601)" fill="#8722e2" fill-rule="evenodd"/>
        <path id="Trazado_887405" data-name="Trazado 887405" d="M177.85,195.7H198.2a1.85,1.85,0,0,0,0-3.7H177.85a1.85,1.85,0,1,0,0,3.7" transform="translate(-155.653 -169.804)" fill="#8722e2" fill-rule="evenodd"/>
        <path id="Trazado_887406" data-name="Trazado 887406" d="M209.85,131.7H226.5a1.85,1.85,0,1,0,0-3.7H209.85a1.85,1.85,0,1,0,0,3.7" transform="translate(-183.954 -113.202)" fill="#8722e2" fill-rule="evenodd"/>
        <path id="Trazado_887407" data-name="Trazado 887407" d="M65.85,259.7h3.7a1.85,1.85,0,0,0,0-3.7h-3.7a1.85,1.85,0,0,0,0,3.7" transform="translate(-56.601 -226.405)" fill="#8722e2" fill-rule="evenodd"/>
        <path id="Trazado_887408" data-name="Trazado 887408" d="M145.85,259.7H169.9a1.85,1.85,0,1,0,0-3.7H145.85a1.85,1.85,0,1,0,0,3.7" transform="translate(-127.353 -226.405)" fill="#8722e2" fill-rule="evenodd"/>
        <path id="Trazado_887409" data-name="Trazado 887409" d="M65.85,387.7H78.8a1.85,1.85,0,0,0,0-3.7H65.85a1.85,1.85,0,0,0,0,3.7" transform="translate(-56.601 -339.607)" fill="#8722e2" fill-rule="evenodd"/>
        <path id="Trazado_887410" data-name="Trazado 887410" d="M65.85,451.7H78.8a1.85,1.85,0,1,0,0-3.7H65.85a1.85,1.85,0,1,0,0,3.7" transform="translate(-56.601 -396.208)" fill="#8722e2" fill-rule="evenodd"/>
        <path id="Trazado_887411" data-name="Trazado 887411" d="M65.85,323.7H99.144a1.85,1.85,0,1,0,0-3.7H65.85a1.85,1.85,0,0,0,0,3.7" transform="translate(-56.601 -283.006)" fill="#8722e2" fill-rule="evenodd"/>
        <path id="Trazado_887412" data-name="Trazado 887412" d="M275.792,421.549A5.551,5.551,0,0,0,270.243,416H229.549A5.551,5.551,0,0,0,224,421.549v18.5a5.551,5.551,0,0,0,5.549,5.549h40.694a5.551,5.551,0,0,0,5.549-5.549Zm-3.7,0v18.5a1.85,1.85,0,0,1-1.85,1.85H229.549a1.85,1.85,0,0,1-1.85-1.85v-18.5a1.85,1.85,0,0,1,1.85-1.85h40.694a1.85,1.85,0,0,1,1.85,1.85" transform="translate(-198.104 -367.908)" fill="#8722e2" fill-rule="evenodd"/>
        <path id="Trazado_887413" data-name="Trazado 887413" d="M473.249,464h-7.4a1.85,1.85,0,0,0-1.85,1.85v7.4a1.85,1.85,0,0,0,1.85,1.85H471.4v3.7H465.85a1.85,1.85,0,1,0,0,3.7h7.4a1.85,1.85,0,0,0,1.85-1.85v-7.4a1.85,1.85,0,0,0-1.85-1.85H467.7v-3.7h5.549a1.85,1.85,0,0,0,0-3.7" transform="translate(-410.359 -410.359)" fill="#8722e2" fill-rule="evenodd"/>
        <path id="Trazado_887414" data-name="Trazado 887414" d="M337.85,467.7H343.4v11.1h-3.7v-1.85a1.85,1.85,0,1,0-3.7,0v3.7a1.85,1.85,0,0,0,1.85,1.85h7.4a1.85,1.85,0,0,0,1.85-1.85v-14.8a1.85,1.85,0,0,0-1.85-1.85h-7.4a1.85,1.85,0,0,0,0,3.7" transform="translate(-297.156 -410.359)" fill="#8722e2" fill-rule="evenodd"/>
        <path id="Trazado_887415" data-name="Trazado 887415" d="M51.792,44.393V5.549A5.551,5.551,0,0,0,46.243,0H18.5a1.845,1.845,0,0,0-1.308.542L.542,17.189A1.845,1.845,0,0,0,0,18.5V61.04a5.551,5.551,0,0,0,5.549,5.549H22.2a1.85,1.85,0,1,0,0-3.7H5.549A1.85,1.85,0,0,1,3.7,61.04V19.263L19.263,3.7h26.98a1.85,1.85,0,0,1,1.85,1.85V44.393a1.85,1.85,0,1,0,3.7,0" transform="translate(0)" fill="#8722e2" fill-rule="evenodd"/>
      </g>
    </g>
  </g>
</svg>
