<svg id="Grupo_1101806" data-name="Grupo 1101806" xmlns="http://www.w3.org/2000/svg" xmlns:xlink="http://www.w3.org/1999/xlink" width="101.72" height="101.72" viewBox="0 0 101.72 101.72">
  <defs>
    <clipPath id="clip-path">
      <rect id="Rect치ngulo_403481" data-name="Rect치ngulo 403481" width="101.72" height="101.72" fill="none"/>
    </clipPath>
  </defs>
  <rect id="Rect치ngulo_403480" data-name="Rect치ngulo 403480" width="101.72" height="101.72" fill="#f7e018"/>
  <g id="Grupo_1101805" data-name="Grupo 1101805">
    <g id="Grupo_1101804" data-name="Grupo 1101804" clip-path="url(#clip-path)">
      <path id="Trazado_887416" data-name="Trazado 887416" d="M67.568,158.56l7.753-4.693c1.5,2.653,2.856,4.9,6.122,4.9,3.129,0,5.1-1.224,5.1-5.985V120.4h9.522v32.51c0,9.862-5.781,14.351-14.214,14.351-7.618,0-12.038-3.945-14.283-8.705" transform="translate(-41.226 -73.465)"/>
      <path id="Trazado_887417" data-name="Trazado 887417" d="M153.919,156.688l7.753-4.489c2.04,3.332,4.693,5.781,9.386,5.781,3.945,0,6.461-1.972,6.461-4.693,0-3.265-2.584-4.421-6.937-6.325l-2.38-1.02c-6.87-2.925-11.427-6.6-11.427-14.351,0-7.141,5.441-12.583,13.943-12.583,6.053,0,10.406,2.109,13.535,7.618l-7.413,4.761c-1.632-2.925-3.4-4.081-6.121-4.081-2.788,0-4.557,1.768-4.557,4.081,0,2.856,1.768,4.013,5.849,5.781l2.38,1.02c8.094,3.469,12.651,7.005,12.651,14.963,0,8.569-6.734,13.262-15.779,13.262-8.841,0-14.554-4.217-17.343-9.726" transform="translate(-93.913 -72.613)"/>
    </g>
  </g>
</svg>
