<svg xmlns="http://www.w3.org/2000/svg" xmlns:xlink="http://www.w3.org/1999/xlink" width="610" height="427" viewBox="0 0 610 427">
  <defs>
    <clipPath id="clip-path">
      <rect id="Rectángulo_403305" data-name="Rectángulo 403305" width="48.81" height="31.685" fill="#8722e2"/>
    </clipPath>
    <clipPath id="clip-path-11">
      <rect id="Rectángulo_403311" data-name="Rectángulo 403311" width="47.619" height="38.549" transform="translate(0 0)" fill="#fff"/>
    </clipPath>
  </defs>
  <g id="Grupo_1101602" data-name="Grupo 1101602" transform="translate(-495 -2865)">
    <rect id="Rectángulo_403312" data-name="Rectángulo 403312" width="610" height="427" transform="translate(495 2865)" fill="#e8eefe"/>
    <ellipse id="Elipse_11686" data-name="Elipse 11686" cx="33.5" cy="33" rx="33.5" ry="33" transform="translate(810 3216)" fill="#debefb"/>
    <circle id="Elipse_11687" data-name="Elipse 11687" cx="33" cy="33" r="33" transform="translate(720 3211)" fill="#debefb"/>
    <ellipse id="Elipse_11688" data-name="Elipse 11688" cx="33" cy="33.5" rx="33" ry="33.5" transform="translate(640 3161)" fill="#debefb"/>
    <circle id="Elipse_11689" data-name="Elipse 11689" cx="33.5" cy="33.5" r="33.5" transform="translate(600 3058)" fill="#debefb"/>
    <g id="Grupo_1101594" data-name="Grupo 1101594" transform="translate(7 13)">
      <circle id="Elipse_11682" data-name="Elipse 11682" cx="33" cy="33" r="33" transform="translate(813 2886)" fill="#debefb"/>
      <g id="Grupo_1101582" data-name="Grupo 1101582" transform="translate(821.381 2903.072)">
        <g id="Grupo_1101573" data-name="Grupo 1101573" transform="translate(0 0)" clip-path="url(#clip-path)">
          <path id="Trazado_879211" data-name="Trazado 879211" d="M152.326,26.349H112.593V2.012A2.013,2.013,0,0,1,114.606,0h35.707a2.013,2.013,0,0,1,2.013,2.013Z" transform="translate(-108.055 0.001)" fill="#8722e2"/>
          <rect id="Rectángulo_403304" data-name="Rectángulo 403304" width="34.351" height="23.823" transform="translate(7.23 2.776)" fill="#fff"/>
          <path id="Trazado_879212" data-name="Trazado 879212" d="M47.144,688.21H1.666a1.646,1.646,0,0,1-1.479-1.595l-.18-1.535a.815.815,0,0,1,.68-.982H48.123a.815.815,0,0,1,.68.982l-.18,1.535a1.646,1.646,0,0,1-1.479,1.595" transform="translate(0 -656.525)" fill="#8722e2"/>
          <path id="Trazado_879213" data-name="Trazado 879213" d="M521.7,723.56h-6.289a.506.506,0,0,1,0-1.012H521.7a.506.506,0,1,1,0,1.012" transform="translate(-494.155 -693.424)" fill="#fff"/>
        </g>
      </g>
    </g>
    <g id="Grupo_1101596" data-name="Grupo 1101596" transform="translate(-11 -14)">
      <ellipse id="Elipse_11683" data-name="Elipse 11683" cx="33" cy="33.5" rx="33" ry="33.5" transform="translate(914 2957)" fill="#debefb"/>
      <g id="Grupo_1101583" data-name="Grupo 1101583" transform="translate(922.778 2974.455)">
        <g id="Grupo_1101573-2" data-name="Grupo 1101573" transform="translate(0 0)" clip-path="url(#clip-path)">
          <path id="Trazado_879211-2" data-name="Trazado 879211" d="M152.326,26.349H112.593V2.012A2.013,2.013,0,0,1,114.606,0h35.707a2.013,2.013,0,0,1,2.013,2.013Z" transform="translate(-108.055 0.001)" fill="#8722e2"/>
          <rect id="Rectángulo_403304-2" data-name="Rectángulo 403304" width="34.351" height="23.823" transform="translate(7.23 2.776)" fill="#fff"/>
          <path id="Trazado_879212-2" data-name="Trazado 879212" d="M47.144,688.21H1.666a1.646,1.646,0,0,1-1.479-1.595l-.18-1.535a.815.815,0,0,1,.68-.982H48.123a.815.815,0,0,1,.68.982l-.18,1.535a1.646,1.646,0,0,1-1.479,1.595" transform="translate(0 -656.525)" fill="#8722e2"/>
          <path id="Trazado_879213-2" data-name="Trazado 879213" d="M521.7,723.56h-6.289a.506.506,0,0,1,0-1.012H521.7a.506.506,0,1,1,0,1.012" transform="translate(-494.155 -693.424)" fill="#fff"/>
        </g>
      </g>
    </g>
    <g id="Grupo_1101597" data-name="Grupo 1101597" transform="translate(0 13)">
      <circle id="Elipse_11684" data-name="Elipse 11684" cx="33.5" cy="33.5" r="33.5" transform="translate(954 3045)" fill="#debefb"/>
      <g id="Grupo_1101584" data-name="Grupo 1101584" transform="translate(964.218 3061.251)">
        <g id="Grupo_1101573-3" data-name="Grupo 1101573" clip-path="url(#clip-path)">
          <path id="Trazado_879211-3" data-name="Trazado 879211" d="M152.326,26.349H112.593V2.012A2.013,2.013,0,0,1,114.606,0h35.707a2.013,2.013,0,0,1,2.013,2.013Z" transform="translate(-108.055 0.001)" fill="#8722e2"/>
          <rect id="Rectángulo_403304-3" data-name="Rectángulo 403304" width="34.351" height="23.823" transform="translate(7.23 2.776)" fill="#fff"/>
          <path id="Trazado_879212-3" data-name="Trazado 879212" d="M47.144,688.21H1.666a1.646,1.646,0,0,1-1.479-1.595l-.18-1.535a.815.815,0,0,1,.68-.982H48.123a.815.815,0,0,1,.68.982l-.18,1.535a1.646,1.646,0,0,1-1.479,1.595" transform="translate(0 -656.525)" fill="#8722e2"/>
          <path id="Trazado_879213-3" data-name="Trazado 879213" d="M521.7,723.56h-6.289a.506.506,0,0,1,0-1.012H521.7a.506.506,0,1,1,0,1.012" transform="translate(-494.155 -693.424)" fill="#fff"/>
        </g>
      </g>
    </g>
    <g id="Grupo_1101598" data-name="Grupo 1101598" transform="translate(0 13)">
      <ellipse id="Elipse_11685" data-name="Elipse 11685" cx="33" cy="33.5" rx="33" ry="33.5" transform="translate(903 3148)" fill="#debefb"/>
      <g id="Grupo_1101585" data-name="Grupo 1101585" transform="translate(911.422 3165.893)">
        <g id="Grupo_1101573-4" data-name="Grupo 1101573" transform="translate(0 0)" clip-path="url(#clip-path)">
          <path id="Trazado_879211-4" data-name="Trazado 879211" d="M152.326,26.349H112.593V2.012A2.013,2.013,0,0,1,114.606,0h35.707a2.013,2.013,0,0,1,2.013,2.013Z" transform="translate(-108.055 0.001)" fill="#8722e2"/>
          <rect id="Rectángulo_403304-4" data-name="Rectángulo 403304" width="34.351" height="23.823" transform="translate(7.23 2.776)" fill="#fff"/>
          <path id="Trazado_879212-4" data-name="Trazado 879212" d="M47.144,688.21H1.666a1.646,1.646,0,0,1-1.479-1.595l-.18-1.535a.815.815,0,0,1,.68-.982H48.123a.815.815,0,0,1,.68.982l-.18,1.535a1.646,1.646,0,0,1-1.479,1.595" transform="translate(0 -656.525)" fill="#8722e2"/>
          <path id="Trazado_879213-4" data-name="Trazado 879213" d="M521.7,723.56h-6.289a.506.506,0,0,1,0-1.012H521.7a.506.506,0,1,1,0,1.012" transform="translate(-494.155 -693.424)" fill="#fff"/>
        </g>
      </g>
    </g>
    <g id="Grupo_1101586" data-name="Grupo 1101586" transform="translate(818.948 3233.241)">
      <g id="Grupo_1101573-5" data-name="Grupo 1101573" transform="translate(0 0)" clip-path="url(#clip-path)">
        <path id="Trazado_879211-5" data-name="Trazado 879211" d="M152.326,26.349H112.593V2.012A2.013,2.013,0,0,1,114.606,0h35.707a2.013,2.013,0,0,1,2.013,2.013Z" transform="translate(-108.055 0.001)" fill="#8722e2"/>
        <rect id="Rectángulo_403304-5" data-name="Rectángulo 403304" width="34.351" height="23.823" transform="translate(7.23 2.776)" fill="#fff"/>
        <path id="Trazado_879212-5" data-name="Trazado 879212" d="M47.144,688.21H1.666a1.646,1.646,0,0,1-1.479-1.595l-.18-1.535a.815.815,0,0,1,.68-.982H48.123a.815.815,0,0,1,.68.982l-.18,1.535a1.646,1.646,0,0,1-1.479,1.595" transform="translate(0 -656.525)" fill="#8722e2"/>
        <path id="Trazado_879213-5" data-name="Trazado 879213" d="M521.7,723.56h-6.289a.506.506,0,0,1,0-1.012H521.7a.506.506,0,1,1,0,1.012" transform="translate(-494.155 -693.424)" fill="#fff"/>
      </g>
    </g>
    <g id="Grupo_1101587" data-name="Grupo 1101587" transform="translate(724.921 3233.241)">
      <g id="Grupo_1101573-6" data-name="Grupo 1101573" clip-path="url(#clip-path)">
        <path id="Trazado_879211-6" data-name="Trazado 879211" d="M152.326,26.349H112.593V2.012A2.013,2.013,0,0,1,114.606,0h35.707a2.013,2.013,0,0,1,2.013,2.013Z" transform="translate(-108.055 0.001)" fill="#8722e2"/>
        <rect id="Rectángulo_403304-6" data-name="Rectángulo 403304" width="34.351" height="23.823" transform="translate(7.23 2.776)" fill="#fff"/>
        <path id="Trazado_879212-6" data-name="Trazado 879212" d="M47.144,688.21H1.666a1.646,1.646,0,0,1-1.479-1.595l-.18-1.535a.815.815,0,0,1,.68-.982H48.123a.815.815,0,0,1,.68.982l-.18,1.535a1.646,1.646,0,0,1-1.479,1.595" transform="translate(0 -656.525)" fill="#8722e2"/>
        <path id="Trazado_879213-6" data-name="Trazado 879213" d="M521.7,723.56h-6.289a.506.506,0,0,1,0-1.012H521.7a.506.506,0,1,1,0,1.012" transform="translate(-494.155 -693.424)" fill="#fff"/>
      </g>
    </g>
    <g id="Grupo_1101588" data-name="Grupo 1101588" transform="translate(648.531 3178.893)">
      <g id="Grupo_1101573-7" data-name="Grupo 1101573" clip-path="url(#clip-path)">
        <path id="Trazado_879211-7" data-name="Trazado 879211" d="M152.326,26.349H112.593V2.012A2.013,2.013,0,0,1,114.606,0h35.707a2.013,2.013,0,0,1,2.013,2.013Z" transform="translate(-108.055 0.001)" fill="#8722e2"/>
        <rect id="Rectángulo_403304-7" data-name="Rectángulo 403304" width="34.351" height="23.823" transform="translate(7.23 2.776)" fill="#fff"/>
        <path id="Trazado_879212-7" data-name="Trazado 879212" d="M47.144,688.21H1.666a1.646,1.646,0,0,1-1.479-1.595l-.18-1.535a.815.815,0,0,1,.68-.982H48.123a.815.815,0,0,1,.68.982l-.18,1.535a1.646,1.646,0,0,1-1.479,1.595" transform="translate(0 -656.525)" fill="#8722e2"/>
        <path id="Trazado_879213-7" data-name="Trazado 879213" d="M521.7,723.56h-6.289a.506.506,0,0,1,0-1.012H521.7a.506.506,0,1,1,0,1.012" transform="translate(-494.155 -693.424)" fill="#fff"/>
      </g>
    </g>
    <g id="Grupo_1101589" data-name="Grupo 1101589" transform="translate(608.854 3074.251)">
      <g id="Grupo_1101573-8" data-name="Grupo 1101573" clip-path="url(#clip-path)">
        <path id="Trazado_879211-8" data-name="Trazado 879211" d="M152.326,26.349H112.593V2.012A2.013,2.013,0,0,1,114.606,0h35.707a2.013,2.013,0,0,1,2.013,2.013Z" transform="translate(-108.055 0.001)" fill="#8722e2"/>
        <rect id="Rectángulo_403304-8" data-name="Rectángulo 403304" width="34.351" height="23.823" transform="translate(7.23 2.776)" fill="#fff"/>
        <path id="Trazado_879212-8" data-name="Trazado 879212" d="M47.144,688.21H1.666a1.646,1.646,0,0,1-1.479-1.595l-.18-1.535a.815.815,0,0,1,.68-.982H48.123a.815.815,0,0,1,.68.982l-.18,1.535a1.646,1.646,0,0,1-1.479,1.595" transform="translate(0 -656.525)" fill="#8722e2"/>
        <path id="Trazado_879213-8" data-name="Trazado 879213" d="M521.7,723.56h-6.289a.506.506,0,0,1,0-1.012H521.7a.506.506,0,1,1,0,1.012" transform="translate(-494.155 -693.424)" fill="#fff"/>
      </g>
    </g>
    <g id="Grupo_1101599" data-name="Grupo 1101599" transform="translate(4 -3)">
      <ellipse id="Elipse_11690" data-name="Elipse 11690" cx="33" cy="33.5" rx="33" ry="33.5" transform="translate(624 2957)" fill="#debefb"/>
      <g id="Grupo_1101590" data-name="Grupo 1101590" transform="translate(632.377 2974.455)">
        <g id="Grupo_1101573-9" data-name="Grupo 1101573" transform="translate(0 0)" clip-path="url(#clip-path)">
          <path id="Trazado_879211-9" data-name="Trazado 879211" d="M152.326,26.349H112.593V2.012A2.013,2.013,0,0,1,114.606,0h35.707a2.013,2.013,0,0,1,2.013,2.013Z" transform="translate(-108.055 0.001)" fill="#8722e2"/>
          <rect id="Rectángulo_403304-9" data-name="Rectángulo 403304" width="34.351" height="23.823" transform="translate(7.23 2.776)" fill="#fff"/>
          <path id="Trazado_879212-9" data-name="Trazado 879212" d="M47.144,688.21H1.666a1.646,1.646,0,0,1-1.479-1.595l-.18-1.535a.815.815,0,0,1,.68-.982H48.123a.815.815,0,0,1,.68.982l-.18,1.535a1.646,1.646,0,0,1-1.479,1.595" transform="translate(0 -656.525)" fill="#8722e2"/>
          <path id="Trazado_879213-9" data-name="Trazado 879213" d="M521.7,723.56h-6.289a.506.506,0,0,1,0-1.012H521.7a.506.506,0,1,1,0,1.012" transform="translate(-494.155 -693.424)" fill="#fff"/>
        </g>
      </g>
    </g>
    <g id="Grupo_1101595" data-name="Grupo 1101595" transform="translate(18 8)">
      <ellipse id="Elipse_11691" data-name="Elipse 11691" cx="33.5" cy="33" rx="33.5" ry="33" transform="translate(697 2886)" fill="#debefb"/>
      <g id="Grupo_1101591" data-name="Grupo 1101591" transform="translate(706.194 2903.072)">
        <g id="Grupo_1101573-10" data-name="Grupo 1101573" clip-path="url(#clip-path)">
          <path id="Trazado_879211-10" data-name="Trazado 879211" d="M152.326,26.349H112.593V2.012A2.013,2.013,0,0,1,114.606,0h35.707a2.013,2.013,0,0,1,2.013,2.013Z" transform="translate(-108.055 0.001)" fill="#8722e2"/>
          <rect id="Rectángulo_403304-10" data-name="Rectángulo 403304" width="34.351" height="23.823" transform="translate(7.23 2.776)" fill="#fff"/>
          <path id="Trazado_879212-10" data-name="Trazado 879212" d="M47.144,688.21H1.666a1.646,1.646,0,0,1-1.479-1.595l-.18-1.535a.815.815,0,0,1,.68-.982H48.123a.815.815,0,0,1,.68.982l-.18,1.535a1.646,1.646,0,0,1-1.479,1.595" transform="translate(0 -656.525)" fill="#8722e2"/>
          <path id="Trazado_879213-10" data-name="Trazado 879213" d="M521.7,723.56h-6.289a.506.506,0,0,1,0-1.012H521.7a.506.506,0,1,1,0,1.012" transform="translate(-494.155 -693.424)" fill="#fff"/>
        </g>
      </g>
    </g>
    <path id="Trazado_879232" data-name="Trazado 879232" d="M-8167-8621.5h277.717" transform="translate(8836.467 11710)" fill="none" stroke="#a854f3" stroke-width="1"/>
    <path id="Trazado_879235" data-name="Trazado 879235" d="M-8093.393-8603.631-8297-8423.6" transform="translate(9000.393 11601.697)" fill="none" stroke="#a854f3" stroke-width="1"/>
    <path id="Trazado_879238" data-name="Trazado 879238" d="M-8312.4-8707.037l218.344,163.434" transform="translate(9002 11713)" fill="none" stroke="#a854f3" stroke-width="1"/>
    <path id="Trazado_879239" data-name="Trazado 879239" d="M-8237.953-8502c3.322-1.662,79.254-247.443,79.254-247.443" transform="translate(9002 11713)" fill="none" stroke="#a854f3" stroke-width="1"/>
    <path id="Trazado_879240" data-name="Trazado 879240" d="M-8263.5-8502.865c3.322-1.662,119.22-242.929,119.22-242.929" transform="translate(-11098.332 2789.672) rotate(135)" fill="none" stroke="#a854f3" stroke-width="1"/>
    <ellipse id="Elipse_11692" data-name="Elipse 11692" cx="33" cy="33.5" rx="33" ry="33.5" transform="translate(769 3058)" fill="#a854f3"/>
    <g id="Grupo_1101593" data-name="Grupo 1101593" transform="translate(778.191 3070.821)">
      <g id="Grupo_1101592" data-name="Grupo 1101592" transform="translate(0 -0.002)" clip-path="url(#clip-path-11)">
        <path id="Trazado_879219" data-name="Trazado 879219" d="M42.413,827.211H5.206a5.206,5.206,0,1,0,0,10.412H42.413a5.206,5.206,0,1,0,0-10.412M17.564,833.4H14.641a.985.985,0,0,1,0-1.97h2.923a.985.985,0,0,1,0,1.97m7.707,0H22.348a.985.985,0,1,1,0-1.97h2.923a.985.985,0,0,1,0,1.97m7.707,0H30.055a.985.985,0,1,1,0-1.97h2.923a.985.985,0,1,1,0,1.97" transform="translate(0 -799.074)" fill="#fff"/>
        <path id="Trazado_879220" data-name="Trazado 879220" d="M605.749,180.754V195.23h1.97V180.754a3.284,3.284,0,1,0-1.97,0" transform="translate(-582.924 -168.407)" fill="#fff"/>
        <path id="Trazado_879221" data-name="Trazado 879221" d="M386.574,78.155c-.08.15-.165.292-.249.432-.022.035-.041.071-.061.107l-.059.108c-.039.072-.08.141-.119.211s-.075.143-.112.213-.073.142-.11.212l-.055.1-.05.108c-.033.072-.068.142-.1.213a11.737,11.737,0,0,0-.645,1.716,10.308,10.308,0,0,0-.383,3.495,11.7,11.7,0,0,0,.78,3.461,14.914,14.914,0,0,0,.774,1.681l.114.207c.038.069.074.141.116.209.082.136.16.277.243.416.042.069.086.136.128.206s.084.141.128.21c.089.138.179.276.264.423-.151-.074-.3-.156-.444-.239s-.283-.181-.422-.277c-.071-.047-.136-.1-.2-.151s-.134-.1-.2-.156l-.05-.039-.048-.042-.1-.084-.19-.17a8.111,8.111,0,0,1-1.307-1.586,8.42,8.42,0,0,1-1.284-3.963,8.111,8.111,0,0,1,.146-2.114,7.676,7.676,0,0,1,.7-1.987,7.3,7.3,0,0,1,1.2-1.689c.06-.061.119-.122.18-.182l.09-.09c.031-.029.064-.057.1-.085q.1-.085.192-.167c.064-.055.128-.11.2-.16.136-.1.271-.2.411-.295s.287-.176.435-.256" transform="translate(-369.893 -75.497)" fill="#fff"/>
        <path id="Trazado_879222" data-name="Trazado 879222" d="M512.558,162.631c-.035.1-.075.2-.113.288s-.071.186-.108.275-.067.18-.1.268l-.09.262a8.81,8.81,0,0,0-.271,1.009,6.953,6.953,0,0,0-.133,1.911,7.15,7.15,0,0,0,.4,1.877,9.492,9.492,0,0,0,.4.967c.04.082.079.167.123.249s.085.17.131.255c.09.172.19.344.287.532a2.729,2.729,0,0,1-.6-.176c-.1-.04-.19-.087-.283-.135l-.07-.037c-.023-.012-.046-.025-.068-.039-.045-.027-.089-.055-.134-.083a3.971,3.971,0,0,1-.946-.859,4.427,4.427,0,0,1-.338-4.971,3.913,3.913,0,0,1,.825-.979c.081-.068.166-.131.25-.193s.176-.115.265-.169.186-.1.279-.142.194-.078.3-.109" transform="translate(-492.688 -157.099)" fill="#fff"/>
        <path id="Trazado_879223" data-name="Trazado 879223" d="M268.629,0c-.127.191-.259.374-.389.556s-.246.375-.371.556l-.348.563-.324.569a14.97,14.97,0,0,0-1.036,2.349,13.892,13.892,0,0,0-.593,2.442,13.372,13.372,0,0,0-.133,2.485,13.532,13.532,0,0,0,.329,2.468,14.252,14.252,0,0,0,.783,2.391,16.007,16.007,0,0,0,1.2,2.273q.349.552.743,1.088c.066.089.134.176.2.267s.132.181.2.269c.137.178.28.353.421.532-.2-.1-.4-.22-.594-.341-.1-.061-.19-.127-.284-.192s-.187-.133-.28-.2a10.462,10.462,0,0,1-1.055-.894,10.971,10.971,0,0,1-1.744-2.187A11.2,11.2,0,0,1,264.2,12.4a11.379,11.379,0,0,1-.22-5.662,11.044,11.044,0,0,1,.951-2.674,10.584,10.584,0,0,1,1.586-2.309c.161-.168.319-.337.483-.5s.339-.313.513-.462.36-.286.542-.423.379-.257.572-.377" transform="translate(-254.755 0.002)" fill="#fff"/>
        <path id="Trazado_879224" data-name="Trazado 879224" d="M892.438,78.155c.148.08.29.167.435.256s.275.193.411.295c.069.05.133.1.2.16s.128.111.192.167c.032.028.065.056.1.085l.09.09c.061.06.12.121.18.182a7.3,7.3,0,0,1,1.2,1.689,7.675,7.675,0,0,1,.7,1.987,8.112,8.112,0,0,1,.146,2.114,8.42,8.42,0,0,1-1.284,3.963,8.108,8.108,0,0,1-1.307,1.586l-.19.17-.1.084-.048.042-.05.039c-.067.053-.133.1-.2.156s-.133.1-.2.151c-.14.1-.28.188-.422.277s-.293.165-.444.239c.085-.147.176-.285.264-.423.044-.069.086-.14.128-.21s.086-.138.128-.206c.083-.139.161-.28.243-.416.042-.067.077-.139.116-.209l.114-.207a14.914,14.914,0,0,0,.774-1.681,11.7,11.7,0,0,0,.78-3.461A10.308,10.308,0,0,0,894,81.579a11.73,11.73,0,0,0-.645-1.716c-.033-.071-.068-.141-.1-.213l-.05-.108-.055-.1q-.055-.1-.11-.212c-.037-.071-.071-.145-.112-.213s-.08-.139-.119-.211l-.059-.108c-.019-.036-.039-.072-.061-.107-.084-.141-.169-.282-.249-.432" transform="translate(-861.499 -75.497)" fill="#fff"/>
        <path id="Trazado_879225" data-name="Trazado 879225" d="M800.852,162.631c.1.03.2.069.3.109s.188.091.279.142.178.109.265.169.169.125.25.193a3.911,3.911,0,0,1,.825.979,4.427,4.427,0,0,1-.338,4.971,3.973,3.973,0,0,1-.946.859c-.045.028-.089.056-.134.083-.022.014-.045.027-.068.039l-.07.037c-.093.049-.185.1-.283.135a2.729,2.729,0,0,1-.6.176c.1-.188.2-.361.287-.532.046-.084.087-.172.131-.255s.083-.167.123-.249a9.492,9.492,0,0,0,.4-.967,7.146,7.146,0,0,0,.4-1.877,6.954,6.954,0,0,0-.133-1.911,8.835,8.835,0,0,0-.271-1.009l-.09-.262c-.033-.087-.067-.176-.1-.268s-.072-.181-.108-.275-.078-.186-.113-.288" transform="translate(-773.103 -157.099)" fill="#fff"/>
        <path id="Trazado_879226" data-name="Trazado 879226" d="M972.671,0c.193.12.382.248.572.377s.362.279.542.423.342.306.513.462.323.33.483.5a10.583,10.583,0,0,1,1.586,2.309,11.041,11.041,0,0,1,.951,2.674,11.38,11.38,0,0,1-.22,5.662,11.2,11.2,0,0,1-1.154,2.59,10.972,10.972,0,0,1-1.744,2.187,10.456,10.456,0,0,1-1.055.894c-.094.067-.186.134-.28.2s-.187.131-.284.192c-.194.121-.39.237-.594.341.141-.18.284-.354.421-.532.07-.087.136-.179.2-.269s.134-.178.2-.267q.393-.537.743-1.088a16,16,0,0,0,1.2-2.273,14.255,14.255,0,0,0,.783-2.391,13.53,13.53,0,0,0,.329-2.468,13.372,13.372,0,0,0-.133-2.485,13.892,13.892,0,0,0-.593-2.442A14.971,14.971,0,0,0,974.1,2.242l-.324-.569-.348-.563c-.125-.182-.246-.369-.371-.556S972.8.189,972.671,0" transform="translate(-938.925 0.002)" fill="#fff"/>
      </g>
    </g>
    <path id="Polígono_19" data-name="Polígono 19" d="M6,0l6,10H0Z" transform="matrix(0.951, -0.309, 0.309, 0.951, 749.749, 2956.099)" fill="#8722e2"/>
    <path id="Polígono_20" data-name="Polígono 20" d="M6,0l6,10H0Z" transform="translate(840.025 2955.464) rotate(17)" fill="#8722e2"/>
    <path id="Polígono_21" data-name="Polígono 21" d="M6,0l6,10H0Z" transform="matrix(0.588, 0.809, -0.809, 0.588, 907.947, 2990.273)" fill="#8722e2"/>
    <path id="Polígono_22" data-name="Polígono 22" d="M6,0l6,10H0Z" transform="translate(954.428 3082.5) rotate(90)" fill="#8722e2"/>
    <path id="Polígono_23" data-name="Polígono 23" d="M6,0l6,10H0Z" transform="translate(917.66 3167.708) rotate(120)" fill="#8722e2"/>
    <path id="Polígono_24" data-name="Polígono 24" d="M6,0l6,10H0Z" transform="translate(852.251 3218.901) rotate(162)" fill="#8722e2"/>
    <path id="Polígono_25" data-name="Polígono 25" d="M6,0l6,10H0Z" transform="translate(766.948 3217.908) rotate(-150)" fill="#8722e2"/>
    <path id="Polígono_26" data-name="Polígono 26" d="M6,0l6,10H0Z" transform="translate(664.466 3094.5) rotate(-90)" fill="#8722e2"/>
    <path id="Polígono_27" data-name="Polígono 27" d="M6,0l6,10H0Z" transform="translate(695.676 3014.998) rotate(-173)" fill="#8722e2"/>
    <circle id="Elipse_11693" data-name="Elipse 11693" cx="9.5" cy="9.5" r="9.5" transform="translate(623.758 3067.467)" fill="#f2e5fd"/>
    <text id="A" transform="translate(627.016 3082.967)" fill="#8722e2" font-size="18" font-family="Roboto-Black, Roboto" font-weight="800"><tspan x="0" y="0">A</tspan></text>
    <circle id="Elipse_11694" data-name="Elipse 11694" cx="9.5" cy="9.5" r="9.5" transform="translate(650.466 2961.5)" fill="#f2e5fd"/>
    <text id="B" transform="translate(653.724 2977)" fill="#8722e2" font-size="18" font-family="Roboto-Black, Roboto" font-weight="800"><tspan x="0" y="0">B</tspan></text>
    <circle id="Elipse_11695" data-name="Elipse 11695" cx="9.5" cy="9.5" r="9.5" transform="translate(739 2902.5)" fill="#f2e5fd"/>
    <text id="C" transform="translate(742.258 2918)" fill="#8722e2" font-size="18" font-family="Roboto-Black, Roboto" font-weight="800"><tspan x="0" y="0">C</tspan></text>
    <circle id="Elipse_11696" data-name="Elipse 11696" cx="9.5" cy="9.5" r="9.5" transform="translate(844.301 2904)" fill="#f2e5fd"/>
    <text id="D" transform="translate(847.559 2919.5)" fill="#8722e2" font-size="18" font-family="Roboto-Black, Roboto" font-weight="800"><tspan x="0" y="0">D</tspan></text>
    <circle id="Elipse_11697" data-name="Elipse 11697" cx="9.5" cy="9.5" r="9.5" transform="translate(926.5 2951)" fill="#f2e5fd"/>
    <text id="E" transform="translate(929.758 2966.5)" fill="#8722e2" font-size="18" font-family="Roboto-Black, Roboto" font-weight="800"><tspan x="0" y="0">E</tspan></text>
    <circle id="Elipse_11698" data-name="Elipse 11698" cx="9.5" cy="9.5" r="9.5" transform="translate(981 3065)" fill="#f2e5fd"/>
    <text id="F" transform="translate(984.258 3080.5)" fill="#8722e2" font-size="18" font-family="Roboto-Black, Roboto" font-weight="800"><tspan x="0" y="0">F</tspan></text>
    <circle id="Elipse_11699" data-name="Elipse 11699" cx="9.5" cy="9.5" r="9.5" transform="translate(926.5 3169.893)" fill="#f2e5fd"/>
    <text id="G" transform="translate(929.758 3185.393)" fill="#8722e2" font-size="18" font-family="Roboto-Black, Roboto" font-weight="800"><tspan x="0" y="0">G</tspan></text>
    <circle id="Elipse_11700" data-name="Elipse 11700" cx="9.5" cy="9.5" r="9.5" transform="translate(832.5 3224.5)" fill="#f2e5fd"/>
    <text id="H" transform="translate(835.758 3240)" fill="#8722e2" font-size="18" font-family="Roboto-Black, Roboto" font-weight="800"><tspan x="0" y="0">H</tspan></text>
    <circle id="Elipse_11701" data-name="Elipse 11701" cx="9.5" cy="9.5" r="9.5" transform="translate(740.251 3224)" fill="#f2e5fd"/>
    <text id="I" transform="translate(746.509 3239.5)" fill="#8722e2" font-size="18" font-family="Roboto-Black, Roboto" font-weight="800"><tspan x="0" y="0">I</tspan></text>
    <circle id="Elipse_11702" data-name="Elipse 11702" cx="9.5" cy="9.5" r="9.5" transform="translate(663.436 3170.393)" fill="#f2e5fd"/>
    <text id="J" transform="translate(666.694 3185.893)" fill="#8722e2" font-size="18" font-family="Roboto-Black, Roboto" font-weight="800"><tspan x="0" y="0">J</tspan></text>
    <path id="Polígono_28" data-name="Polígono 28" d="M6,0l6,10H0Z" transform="matrix(-0.309, 0.951, -0.951, -0.309, 712.609, 3173.939)" fill="#8722e2"/>
  </g>
</svg>
