<svg xmlns="http://www.w3.org/2000/svg" xmlns:xlink="http://www.w3.org/1999/xlink" width="820" height="427" viewBox="0 0 820 427">
  <defs>
    <clipPath id="clip-path">
      <rect id="Rect치ngulo_403311" data-name="Rect치ngulo 403311" width="47.619" height="38.549" transform="translate(0 0)" fill="#fff"/>
    </clipPath>
  </defs>
  <g id="Grupo_1101607" data-name="Grupo 1101607" transform="translate(-390 -3618)">
    <rect id="Rect치ngulo_403312" data-name="Rect치ngulo 403312" width="820" height="427" transform="translate(390 3618)" fill="#e8eefe"/>
    <circle id="Elipse_11689" data-name="Elipse 11689" cx="33.5" cy="33.5" r="33.5" transform="translate(475 3805)" fill="#debefb"/>
    <ellipse id="Elipse_11691" data-name="Elipse 11691" cx="33.5" cy="33" rx="33.5" ry="33" transform="translate(590 3641)" fill="#debefb"/>
    <g id="Grupo_1101604" data-name="Grupo 1101604" transform="translate(-116 -3)">
      <ellipse id="Elipse_11692" data-name="Elipse 11692" cx="33" cy="33.5" rx="33" ry="33.5" transform="translate(769 3811)" fill="#a854f3"/>
      <g id="Grupo_1101593" data-name="Grupo 1101593" transform="translate(778.191 3823.821)">
        <g id="Grupo_1101592" data-name="Grupo 1101592" transform="translate(0 -0.002)" clip-path="url(#clip-path)">
          <path id="Trazado_879219" data-name="Trazado 879219" d="M42.413,827.211H5.206a5.206,5.206,0,1,0,0,10.412H42.413a5.206,5.206,0,1,0,0-10.412M17.564,833.4H14.641a.985.985,0,0,1,0-1.97h2.923a.985.985,0,0,1,0,1.97m7.707,0H22.348a.985.985,0,1,1,0-1.97h2.923a.985.985,0,0,1,0,1.97m7.707,0H30.055a.985.985,0,1,1,0-1.97h2.923a.985.985,0,1,1,0,1.97" transform="translate(0 -799.074)" fill="#fff"/>
          <path id="Trazado_879220" data-name="Trazado 879220" d="M605.749,180.754V195.23h1.97V180.754a3.284,3.284,0,1,0-1.97,0" transform="translate(-582.924 -168.407)" fill="#fff"/>
          <path id="Trazado_879221" data-name="Trazado 879221" d="M386.574,78.155c-.08.15-.165.292-.249.432-.022.035-.041.071-.061.107l-.059.108c-.039.072-.08.141-.119.211s-.075.143-.112.213-.073.142-.11.212l-.055.1-.05.108c-.033.072-.068.142-.1.213a11.737,11.737,0,0,0-.645,1.716,10.308,10.308,0,0,0-.383,3.495,11.7,11.7,0,0,0,.78,3.461,14.914,14.914,0,0,0,.774,1.681l.114.207c.038.069.074.141.116.209.082.136.16.277.243.416.042.069.086.136.128.206s.084.141.128.21c.089.138.179.276.264.423-.151-.074-.3-.156-.444-.239s-.283-.181-.422-.277c-.071-.047-.136-.1-.2-.151s-.134-.1-.2-.156l-.05-.039-.048-.042-.1-.084-.19-.17a8.111,8.111,0,0,1-1.307-1.586,8.42,8.42,0,0,1-1.284-3.963,8.111,8.111,0,0,1,.146-2.114,7.676,7.676,0,0,1,.7-1.987,7.3,7.3,0,0,1,1.2-1.689c.06-.061.119-.122.18-.182l.09-.09c.031-.029.064-.057.1-.085q.1-.085.192-.167c.064-.055.128-.11.2-.16.136-.1.271-.2.411-.295s.287-.176.435-.256" transform="translate(-369.893 -75.497)" fill="#fff"/>
          <path id="Trazado_879222" data-name="Trazado 879222" d="M512.558,162.631c-.035.1-.075.2-.113.288s-.071.186-.108.275-.067.18-.1.268l-.09.262a8.81,8.81,0,0,0-.271,1.009,6.953,6.953,0,0,0-.133,1.911,7.15,7.15,0,0,0,.4,1.877,9.492,9.492,0,0,0,.4.967c.04.082.079.167.123.249s.085.17.131.255c.09.172.19.344.287.532a2.729,2.729,0,0,1-.6-.176c-.1-.04-.19-.087-.283-.135l-.07-.037c-.023-.012-.046-.025-.068-.039-.045-.027-.089-.055-.134-.083a3.971,3.971,0,0,1-.946-.859,4.427,4.427,0,0,1-.338-4.971,3.913,3.913,0,0,1,.825-.979c.081-.068.166-.131.25-.193s.176-.115.265-.169.186-.1.279-.142.194-.078.3-.109" transform="translate(-492.688 -157.099)" fill="#fff"/>
          <path id="Trazado_879223" data-name="Trazado 879223" d="M268.629,0c-.127.191-.259.374-.389.556s-.246.375-.371.556l-.348.563-.324.569a14.97,14.97,0,0,0-1.036,2.349,13.892,13.892,0,0,0-.593,2.442,13.372,13.372,0,0,0-.133,2.485,13.532,13.532,0,0,0,.329,2.468,14.252,14.252,0,0,0,.783,2.391,16.007,16.007,0,0,0,1.2,2.273q.349.552.743,1.088c.066.089.134.176.2.267s.132.181.2.269c.137.178.28.353.421.532-.2-.1-.4-.22-.594-.341-.1-.061-.19-.127-.284-.192s-.187-.133-.28-.2a10.462,10.462,0,0,1-1.055-.894,10.971,10.971,0,0,1-1.744-2.187A11.2,11.2,0,0,1,264.2,12.4a11.379,11.379,0,0,1-.22-5.662,11.044,11.044,0,0,1,.951-2.674,10.584,10.584,0,0,1,1.586-2.309c.161-.168.319-.337.483-.5s.339-.313.513-.462.36-.286.542-.423.379-.257.572-.377" transform="translate(-254.755 0.002)" fill="#fff"/>
          <path id="Trazado_879224" data-name="Trazado 879224" d="M892.438,78.155c.148.08.29.167.435.256s.275.193.411.295c.069.05.133.1.2.16s.128.111.192.167c.032.028.065.056.1.085l.09.09c.061.06.12.121.18.182a7.3,7.3,0,0,1,1.2,1.689,7.675,7.675,0,0,1,.7,1.987,8.112,8.112,0,0,1,.146,2.114,8.42,8.42,0,0,1-1.284,3.963,8.108,8.108,0,0,1-1.307,1.586l-.19.17-.1.084-.048.042-.05.039c-.067.053-.133.1-.2.156s-.133.1-.2.151c-.14.1-.28.188-.422.277s-.293.165-.444.239c.085-.147.176-.285.264-.423.044-.069.086-.14.128-.21s.086-.138.128-.206c.083-.139.161-.28.243-.416.042-.067.077-.139.116-.209l.114-.207a14.914,14.914,0,0,0,.774-1.681,11.7,11.7,0,0,0,.78-3.461A10.308,10.308,0,0,0,894,81.579a11.73,11.73,0,0,0-.645-1.716c-.033-.071-.068-.141-.1-.213l-.05-.108-.055-.1q-.055-.1-.11-.212c-.037-.071-.071-.145-.112-.213s-.08-.139-.119-.211l-.059-.108c-.019-.036-.039-.072-.061-.107-.084-.141-.169-.282-.249-.432" transform="translate(-861.499 -75.497)" fill="#fff"/>
          <path id="Trazado_879225" data-name="Trazado 879225" d="M800.852,162.631c.1.03.2.069.3.109s.188.091.279.142.178.109.265.169.169.125.25.193a3.911,3.911,0,0,1,.825.979,4.427,4.427,0,0,1-.338,4.971,3.973,3.973,0,0,1-.946.859c-.045.028-.089.056-.134.083-.022.014-.045.027-.068.039l-.07.037c-.093.049-.185.1-.283.135a2.729,2.729,0,0,1-.6.176c.1-.188.2-.361.287-.532.046-.084.087-.172.131-.255s.083-.167.123-.249a9.492,9.492,0,0,0,.4-.967,7.146,7.146,0,0,0,.4-1.877,6.954,6.954,0,0,0-.133-1.911,8.835,8.835,0,0,0-.271-1.009l-.09-.262c-.033-.087-.067-.176-.1-.268s-.072-.181-.108-.275-.078-.186-.113-.288" transform="translate(-773.103 -157.099)" fill="#fff"/>
          <path id="Trazado_879226" data-name="Trazado 879226" d="M972.671,0c.193.12.382.248.572.377s.362.279.542.423.342.306.513.462.323.33.483.5a10.583,10.583,0,0,1,1.586,2.309,11.041,11.041,0,0,1,.951,2.674,11.38,11.38,0,0,1-.22,5.662,11.2,11.2,0,0,1-1.154,2.59,10.972,10.972,0,0,1-1.744,2.187,10.456,10.456,0,0,1-1.055.894c-.094.067-.186.134-.28.2s-.187.131-.284.192c-.194.121-.39.237-.594.341.141-.18.284-.354.421-.532.07-.087.136-.179.2-.269s.134-.178.2-.267q.393-.537.743-1.088a16,16,0,0,0,1.2-2.273,14.255,14.255,0,0,0,.783-2.391,13.53,13.53,0,0,0,.329-2.468,13.372,13.372,0,0,0-.133-2.485,13.892,13.892,0,0,0-.593-2.442A14.971,14.971,0,0,0,974.1,2.242l-.324-.569-.348-.563c-.125-.182-.246-.369-.371-.556S972.8.189,972.671,0" transform="translate(-938.925 0.002)" fill="#fff"/>
        </g>
      </g>
    </g>
    <circle id="Elipse_11693" data-name="Elipse 11693" cx="9.5" cy="9.5" r="9.5" transform="translate(499 3827)" fill="#f2e5fd"/>
    <text id="C" transform="translate(502.258 3842.5)" fill="#8722e2" font-size="18" font-family="Roboto-Black, Roboto" font-weight="800"><tspan x="0" y="0">C</tspan></text>
    <ellipse id="Elipse_11690" data-name="Elipse 11690" cx="33" cy="33.5" rx="33" ry="33.5" transform="translate(503 3701)" fill="#debefb"/>
    <circle id="Elipse_11694" data-name="Elipse 11694" cx="9.5" cy="9.5" r="9.5" transform="translate(526.5 3725)" fill="#f2e5fd"/>
    <text id="B" transform="translate(529.758 3740.5)" fill="#8722e2" font-size="18" font-family="Roboto-Black, Roboto" font-weight="800"><tspan x="0" y="0">B</tspan></text>
    <circle id="Elipse_11703" data-name="Elipse 11703" cx="9.5" cy="9.5" r="9.5" transform="translate(615.758 3661.5)" fill="#f2e5fd"/>
    <text id="A" transform="translate(619.016 3677)" fill="#8722e2" font-size="18" font-family="Roboto-Black, Roboto" font-weight="800"><tspan x="0" y="0">A</tspan></text>
    <circle id="Elipse_11706" data-name="Elipse 11706" cx="33.5" cy="33.5" r="33.5" transform="translate(1078 3805)" fill="#debefb"/>
    <ellipse id="Elipse_11707" data-name="Elipse 11707" cx="33.5" cy="33" rx="33.5" ry="33" transform="translate(963 3641)" fill="#debefb"/>
    <ellipse id="Elipse_11709" data-name="Elipse 11709" cx="33" cy="33.5" rx="33" ry="33.5" transform="translate(1051 3701)" fill="#debefb"/>
    <circle id="Elipse_11710" data-name="Elipse 11710" cx="9.5" cy="9.5" r="9.5" transform="translate(1105 3827)" fill="#f2e5fd"/>
    <text id="H" transform="translate(1108.258 3842.5)" fill="#8722e2" font-size="18" font-family="Roboto-Black, Roboto" font-weight="800"><tspan x="0" y="0">H</tspan></text>
    <circle id="Elipse_11711" data-name="Elipse 11711" cx="9.5" cy="9.5" r="9.5" transform="translate(1074.5 3725)" fill="#f2e5fd"/>
    <text id="G" transform="translate(1077.758 3740.5)" fill="#8722e2" font-size="18" font-family="Roboto-Black, Roboto" font-weight="800"><tspan x="0" y="0">G</tspan></text>
    <circle id="Elipse_11714" data-name="Elipse 11714" cx="9.5" cy="9.5" r="9.5" transform="translate(987.758 3661.5)" fill="#f2e5fd"/>
    <text id="F" transform="translate(991.016 3677)" fill="#8722e2" font-size="18" font-family="Roboto-Black, Roboto" font-weight="800"><tspan x="0" y="0">F</tspan></text>
    <g id="Grupo_1101605" data-name="Grupo 1101605" transform="translate(126 -3)">
      <ellipse id="Elipse_11692-2" data-name="Elipse 11692" cx="33" cy="33.5" rx="33" ry="33.5" transform="translate(769 3811)" fill="#a854f3"/>
      <g id="Grupo_1101593-2" data-name="Grupo 1101593" transform="translate(778.191 3823.821)">
        <g id="Grupo_1101592-2" data-name="Grupo 1101592" transform="translate(0 -0.002)" clip-path="url(#clip-path)">
          <path id="Trazado_879219-2" data-name="Trazado 879219" d="M42.413,827.211H5.206a5.206,5.206,0,1,0,0,10.412H42.413a5.206,5.206,0,1,0,0-10.412M17.564,833.4H14.641a.985.985,0,0,1,0-1.97h2.923a.985.985,0,0,1,0,1.97m7.707,0H22.348a.985.985,0,1,1,0-1.97h2.923a.985.985,0,0,1,0,1.97m7.707,0H30.055a.985.985,0,1,1,0-1.97h2.923a.985.985,0,1,1,0,1.97" transform="translate(0 -799.074)" fill="#fff"/>
          <path id="Trazado_879220-2" data-name="Trazado 879220" d="M605.749,180.754V195.23h1.97V180.754a3.284,3.284,0,1,0-1.97,0" transform="translate(-582.924 -168.407)" fill="#fff"/>
          <path id="Trazado_879221-2" data-name="Trazado 879221" d="M386.574,78.155c-.08.15-.165.292-.249.432-.022.035-.041.071-.061.107l-.059.108c-.039.072-.08.141-.119.211s-.075.143-.112.213-.073.142-.11.212l-.055.1-.05.108c-.033.072-.068.142-.1.213a11.737,11.737,0,0,0-.645,1.716,10.308,10.308,0,0,0-.383,3.495,11.7,11.7,0,0,0,.78,3.461,14.914,14.914,0,0,0,.774,1.681l.114.207c.038.069.074.141.116.209.082.136.16.277.243.416.042.069.086.136.128.206s.084.141.128.21c.089.138.179.276.264.423-.151-.074-.3-.156-.444-.239s-.283-.181-.422-.277c-.071-.047-.136-.1-.2-.151s-.134-.1-.2-.156l-.05-.039-.048-.042-.1-.084-.19-.17a8.111,8.111,0,0,1-1.307-1.586,8.42,8.42,0,0,1-1.284-3.963,8.111,8.111,0,0,1,.146-2.114,7.676,7.676,0,0,1,.7-1.987,7.3,7.3,0,0,1,1.2-1.689c.06-.061.119-.122.18-.182l.09-.09c.031-.029.064-.057.1-.085q.1-.085.192-.167c.064-.055.128-.11.2-.16.136-.1.271-.2.411-.295s.287-.176.435-.256" transform="translate(-369.893 -75.497)" fill="#fff"/>
          <path id="Trazado_879222-2" data-name="Trazado 879222" d="M512.558,162.631c-.035.1-.075.2-.113.288s-.071.186-.108.275-.067.18-.1.268l-.09.262a8.81,8.81,0,0,0-.271,1.009,6.953,6.953,0,0,0-.133,1.911,7.15,7.15,0,0,0,.4,1.877,9.492,9.492,0,0,0,.4.967c.04.082.079.167.123.249s.085.17.131.255c.09.172.19.344.287.532a2.729,2.729,0,0,1-.6-.176c-.1-.04-.19-.087-.283-.135l-.07-.037c-.023-.012-.046-.025-.068-.039-.045-.027-.089-.055-.134-.083a3.971,3.971,0,0,1-.946-.859,4.427,4.427,0,0,1-.338-4.971,3.913,3.913,0,0,1,.825-.979c.081-.068.166-.131.25-.193s.176-.115.265-.169.186-.1.279-.142.194-.078.3-.109" transform="translate(-492.688 -157.099)" fill="#fff"/>
          <path id="Trazado_879223-2" data-name="Trazado 879223" d="M268.629,0c-.127.191-.259.374-.389.556s-.246.375-.371.556l-.348.563-.324.569a14.97,14.97,0,0,0-1.036,2.349,13.892,13.892,0,0,0-.593,2.442,13.372,13.372,0,0,0-.133,2.485,13.532,13.532,0,0,0,.329,2.468,14.252,14.252,0,0,0,.783,2.391,16.007,16.007,0,0,0,1.2,2.273q.349.552.743,1.088c.066.089.134.176.2.267s.132.181.2.269c.137.178.28.353.421.532-.2-.1-.4-.22-.594-.341-.1-.061-.19-.127-.284-.192s-.187-.133-.28-.2a10.462,10.462,0,0,1-1.055-.894,10.971,10.971,0,0,1-1.744-2.187A11.2,11.2,0,0,1,264.2,12.4a11.379,11.379,0,0,1-.22-5.662,11.044,11.044,0,0,1,.951-2.674,10.584,10.584,0,0,1,1.586-2.309c.161-.168.319-.337.483-.5s.339-.313.513-.462.36-.286.542-.423.379-.257.572-.377" transform="translate(-254.755 0.002)" fill="#fff"/>
          <path id="Trazado_879224-2" data-name="Trazado 879224" d="M892.438,78.155c.148.08.29.167.435.256s.275.193.411.295c.069.05.133.1.2.16s.128.111.192.167c.032.028.065.056.1.085l.09.09c.061.06.12.121.18.182a7.3,7.3,0,0,1,1.2,1.689,7.675,7.675,0,0,1,.7,1.987,8.112,8.112,0,0,1,.146,2.114,8.42,8.42,0,0,1-1.284,3.963,8.108,8.108,0,0,1-1.307,1.586l-.19.17-.1.084-.048.042-.05.039c-.067.053-.133.1-.2.156s-.133.1-.2.151c-.14.1-.28.188-.422.277s-.293.165-.444.239c.085-.147.176-.285.264-.423.044-.069.086-.14.128-.21s.086-.138.128-.206c.083-.139.161-.28.243-.416.042-.067.077-.139.116-.209l.114-.207a14.914,14.914,0,0,0,.774-1.681,11.7,11.7,0,0,0,.78-3.461A10.308,10.308,0,0,0,894,81.579a11.73,11.73,0,0,0-.645-1.716c-.033-.071-.068-.141-.1-.213l-.05-.108-.055-.1q-.055-.1-.11-.212c-.037-.071-.071-.145-.112-.213s-.08-.139-.119-.211l-.059-.108c-.019-.036-.039-.072-.061-.107-.084-.141-.169-.282-.249-.432" transform="translate(-861.499 -75.497)" fill="#fff"/>
          <path id="Trazado_879225-2" data-name="Trazado 879225" d="M800.852,162.631c.1.03.2.069.3.109s.188.091.279.142.178.109.265.169.169.125.25.193a3.911,3.911,0,0,1,.825.979,4.427,4.427,0,0,1-.338,4.971,3.973,3.973,0,0,1-.946.859c-.045.028-.089.056-.134.083-.022.014-.045.027-.068.039l-.07.037c-.093.049-.185.1-.283.135a2.729,2.729,0,0,1-.6.176c.1-.188.2-.361.287-.532.046-.084.087-.172.131-.255s.083-.167.123-.249a9.492,9.492,0,0,0,.4-.967,7.146,7.146,0,0,0,.4-1.877,6.954,6.954,0,0,0-.133-1.911,8.835,8.835,0,0,0-.271-1.009l-.09-.262c-.033-.087-.067-.176-.1-.268s-.072-.181-.108-.275-.078-.186-.113-.288" transform="translate(-773.103 -157.099)" fill="#fff"/>
          <path id="Trazado_879226-2" data-name="Trazado 879226" d="M972.671,0c.193.12.382.248.572.377s.362.279.542.423.342.306.513.462.323.33.483.5a10.583,10.583,0,0,1,1.586,2.309,11.041,11.041,0,0,1,.951,2.674,11.38,11.38,0,0,1-.22,5.662,11.2,11.2,0,0,1-1.154,2.59,10.972,10.972,0,0,1-1.744,2.187,10.456,10.456,0,0,1-1.055.894c-.094.067-.186.134-.28.2s-.187.131-.284.192c-.194.121-.39.237-.594.341.141-.18.284-.354.421-.532.07-.087.136-.179.2-.269s.134-.178.2-.267q.393-.537.743-1.088a16,16,0,0,0,1.2-2.273,14.255,14.255,0,0,0,.783-2.391,13.53,13.53,0,0,0,.329-2.468,13.372,13.372,0,0,0-.133-2.485,13.892,13.892,0,0,0-.593-2.442A14.971,14.971,0,0,0,974.1,2.242l-.324-.569-.348-.563c-.125-.182-.246-.369-.371-.556S972.8.189,972.671,0" transform="translate(-938.925 0.002)" fill="#fff"/>
        </g>
      </g>
    </g>
    <path id="Trazado_879241" data-name="Trazado 879241" d="M-8460-7861.5h110.787" transform="translate(9002 11700)" fill="none" stroke="#a854f3" stroke-width="1"/>
    <path id="Trazado_879242" data-name="Trazado 879242" d="M-8366.727-7993l41.678,100.8" transform="translate(9002 11700)" fill="none" stroke="#a854f3" stroke-width="1"/>
    <path id="Trazado_879243" data-name="Trazado 879243" d="M-8325.049-7993l-41.678,100.8" transform="translate(9002 11867.201)" fill="none" stroke="#a854f3" stroke-width="1"/>
    <circle id="Elipse_11687" data-name="Elipse 11687" cx="33" cy="33" r="33" transform="translate(595 3958)" fill="#debefb"/>
    <circle id="Elipse_11701" data-name="Elipse 11701" cx="9.5" cy="9.5" r="9.5" transform="translate(619.016 3981.742)" fill="#f2e5fd"/>
    <text id="E" transform="translate(625.273 3997.242)" fill="#8722e2" font-size="18" font-family="Roboto-Black, Roboto" font-weight="800"><tspan x="0" y="0">E</tspan></text>
    <path id="Trazado_879244" data-name="Trazado 879244" d="M-8435.952-7948.925-8341-7878.7" transform="translate(9001.999 11699.999)" fill="none" stroke="#a854f3" stroke-width="1"/>
    <path id="Trazado_879245" data-name="Trazado 879245" d="M-8435.953-7880.723l92.223-68.2" transform="translate(9002 11806.648)" fill="none" stroke="#a854f3" stroke-width="1"/>
    <ellipse id="Elipse_11688" data-name="Elipse 11688" cx="33" cy="33.5" rx="33" ry="33.5" transform="translate(515 3908)" fill="#debefb"/>
    <circle id="Elipse_11702" data-name="Elipse 11702" cx="9.5" cy="9.5" r="9.5" transform="translate(538.5 3932.5)" fill="#f2e5fd"/>
    <text id="D" transform="translate(541.758 3948)" fill="#8722e2" font-size="18" font-family="Roboto-Black, Roboto" font-weight="800"><tspan x="0" y="0">D</tspan></text>
    <circle id="Elipse_11715" data-name="Elipse 11715" cx="4" cy="4" r="4" transform="translate(632 3705)" fill="#debefb"/>
    <circle id="Elipse_11716" data-name="Elipse 11716" cx="4" cy="4" r="4" transform="translate(673 3804)" fill="#debefb"/>
    <circle id="Elipse_11717" data-name="Elipse 11717" cx="4" cy="4" r="4" transform="translate(565 3749)" fill="#debefb"/>
    <circle id="Elipse_11718" data-name="Elipse 11718" cx="4" cy="4" r="4" transform="translate(656 3816)" fill="#debefb"/>
    <circle id="Elipse_11719" data-name="Elipse 11719" cx="4" cy="4" r="4" transform="translate(652 3834)" fill="#debefb"/>
    <circle id="Elipse_11720" data-name="Elipse 11720" cx="4" cy="4" r="4" transform="translate(542 3834)" fill="#debefb"/>
    <circle id="Elipse_11721" data-name="Elipse 11721" cx="4" cy="4" r="4" transform="translate(572 3914)" fill="#debefb"/>
    <circle id="Elipse_11722" data-name="Elipse 11722" cx="4" cy="4" r="4" transform="translate(653 3855)" fill="#debefb"/>
    <circle id="Elipse_11723" data-name="Elipse 11723" cx="4" cy="4" r="4" transform="translate(673 3870)" fill="#debefb"/>
    <circle id="Elipse_11724" data-name="Elipse 11724" cx="4" cy="4" r="4" transform="translate(638 3954)" fill="#debefb"/>
    <path id="Trazado_879246" data-name="Trazado 879246" d="M-8280.742-7861.5H-8107" transform="translate(9002 11700)" fill="none" stroke="#a854f3" stroke-width="1"/>
    <circle id="Elipse_11725" data-name="Elipse 11725" cx="4" cy="4" r="4" transform="translate(719 3834)" fill="#debefb"/>
    <circle id="Elipse_11726" data-name="Elipse 11726" cx="4" cy="4" r="4" transform="translate(887 3834)" fill="#debefb"/>
    <path id="Trazado_879247" data-name="Trazado 879247" d="M-8352.713-7861.5H-8460" transform="translate(9426.971 11700)" fill="none" stroke="#a854f3" stroke-width="1"/>
    <path id="Trazado_879248" data-name="Trazado 879248" d="M-8325.049-7993l-41.678,100.8" transform="translate(9309.533 11700)" fill="none" stroke="#a854f3" stroke-width="1"/>
    <path id="Trazado_879249" data-name="Trazado 879249" d="M-8366.727-7993l34.193,81.8" transform="translate(9309.533 11867.201)" fill="none" stroke="#a854f3" stroke-width="1"/>
    <path id="Trazado_879250" data-name="Trazado 879250" d="M-8341-7948.925l-94.954,70.224" transform="translate(9394.708 11699.999)" fill="none" stroke="#a854f3" stroke-width="1"/>
    <path id="Trazado_879251" data-name="Trazado 879251" d="M-8353.212-7886.894l-82.741-62.032" transform="translate(9397.441 11806.648)" fill="none" stroke="#a854f3" stroke-width="1"/>
    <circle id="Elipse_11704" data-name="Elipse 11704" cx="33" cy="33" r="33" transform="translate(959 3958)" fill="#debefb"/>
    <circle id="Elipse_11712" data-name="Elipse 11712" cx="9.5" cy="9.5" r="9.5" transform="translate(981 3981.742)" fill="#f2e5fd"/>
    <text id="J" transform="translate(985.5 3997.242)" fill="#8722e2" font-size="18" font-family="Roboto-Black, Roboto" font-weight="800"><tspan x="0" y="0">J</tspan></text>
    <ellipse id="Elipse_11705" data-name="Elipse 11705" cx="33" cy="33.5" rx="33" ry="33.5" transform="translate(1039 3908)" fill="#debefb"/>
    <circle id="Elipse_11713" data-name="Elipse 11713" cx="9.5" cy="9.5" r="9.5" transform="translate(1064.758 3932.5)" fill="#f2e5fd"/>
    <text id="I" transform="translate(1069.016 3948)" fill="#8722e2" font-size="18" font-family="Roboto-Black, Roboto" font-weight="800"><tspan x="0" y="0">I</tspan></text>
    <circle id="Elipse_11727" data-name="Elipse 11727" cx="4" cy="4" r="4" transform="translate(980 3705)" fill="#debefb"/>
    <circle id="Elipse_11728" data-name="Elipse 11728" cx="4" cy="4" r="4" transform="translate(939 3805)" fill="#debefb"/>
    <circle id="Elipse_11729" data-name="Elipse 11729" cx="4" cy="4" r="4" transform="translate(953 3817)" fill="#debefb"/>
    <circle id="Elipse_11730" data-name="Elipse 11730" cx="4" cy="4" r="4" transform="translate(1047 3749)" fill="#debefb"/>
    <circle id="Elipse_11731" data-name="Elipse 11731" cx="4" cy="4" r="4" transform="translate(1069 3834)" fill="#debefb"/>
    <circle id="Elipse_11732" data-name="Elipse 11732" cx="4" cy="4" r="4" transform="translate(959 3835)" fill="#debefb"/>
    <circle id="Elipse_11733" data-name="Elipse 11733" cx="4" cy="4" r="4" transform="translate(956 3853)" fill="#debefb"/>
    <circle id="Elipse_11734" data-name="Elipse 11734" cx="4" cy="4" r="4" transform="translate(1038 3913)" fill="#debefb"/>
    <circle id="Elipse_11735" data-name="Elipse 11735" cx="4" cy="4" r="4" transform="translate(973 3952)" fill="#debefb"/>
    <circle id="Elipse_11736" data-name="Elipse 11736" cx="4" cy="4" r="4" transform="translate(939 3870)" fill="#debefb"/>
  </g>
</svg>
