<svg xmlns="http://www.w3.org/2000/svg" xmlns:xlink="http://www.w3.org/1999/xlink" width="190" height="109" viewBox="0 0 190 109">
  <defs>
    <clipPath id="clip-path">
      <rect id="Rectángulo_403305" data-name="Rectángulo 403305" width="48.81" height="31.685" fill="#8722e2"/>
    </clipPath>
    <clipPath id="clip-path-2">
      <rect id="Rectángulo_403317" data-name="Rectángulo 403317" width="63.646" height="38.304" fill="#a854f3"/>
    </clipPath>
  </defs>
  <g id="Grupo_1101624" data-name="Grupo 1101624" transform="translate(-1230 -5120)">
    <rect id="Rectángulo_403325" data-name="Rectángulo 403325" width="190" height="109" transform="translate(1230 5120)" fill="#f2e5fd"/>
    <g id="Grupo_1101622" data-name="Grupo 1101622" transform="translate(1254.191 5161.031)">
      <g id="Grupo_1101573" data-name="Grupo 1101573" transform="translate(0 0)" clip-path="url(#clip-path)">
        <path id="Trazado_879211" data-name="Trazado 879211" d="M152.326,26.349H112.593V2.012A2.013,2.013,0,0,1,114.606,0h35.707a2.013,2.013,0,0,1,2.013,2.013Z" transform="translate(-108.055 0.001)" fill="#8722e2"/>
        <rect id="Rectángulo_403304" data-name="Rectángulo 403304" width="34.351" height="23.823" transform="translate(7.23 2.776)" fill="#fff"/>
        <path id="Trazado_879212" data-name="Trazado 879212" d="M47.144,688.21H1.666a1.646,1.646,0,0,1-1.479-1.595l-.18-1.535a.815.815,0,0,1,.68-.982H48.123a.815.815,0,0,1,.68.982l-.18,1.535a1.646,1.646,0,0,1-1.479,1.595" transform="translate(0 -656.525)" fill="#8722e2"/>
        <path id="Trazado_879213" data-name="Trazado 879213" d="M521.7,723.56h-6.289a.506.506,0,0,1,0-1.012H521.7a.506.506,0,1,1,0,1.012" transform="translate(-494.155 -693.424)" fill="#fff"/>
      </g>
    </g>
    <g id="Grupo_1101623" data-name="Grupo 1101623" transform="translate(443 577.531)">
      <g id="Grupo_1101613" data-name="Grupo 1101613" transform="translate(895 4577.817)">
        <g id="Grupo_1101612" data-name="Grupo 1101612" clip-path="url(#clip-path-2)">
          <path id="Trazado_879256" data-name="Trazado 879256" d="M42.41,0H1.774A1.774,1.774,0,0,0,0,1.774V30.866a1.774,1.774,0,0,0,1.774,1.774H42.41a1.774,1.774,0,0,0,1.774-1.774V1.774A1.774,1.774,0,0,0,42.41,0m-.662,30.021H2.436V2.619H41.748Z" fill="#a854f3"/>
          <path id="Trazado_879257" data-name="Trazado 879257" d="M68.829,148.24v-.018H58.279v.018a1.814,1.814,0,0,1-1.814,1.814H53.478v2H73.63v-2H70.643a1.814,1.814,0,0,1-1.814-1.814" transform="translate(-41.093 -113.895)" fill="#a854f3"/>
          <path id="Trazado_879258" data-name="Trazado 879258" d="M213.777,13.059H199.465a1.775,1.775,0,0,0-1.775,1.775V46.564a1.775,1.775,0,0,0,1.775,1.775h14.312a1.775,1.775,0,0,0,1.775-1.775V14.834a1.775,1.775,0,0,0-1.775-1.775m-7.156,26.615a1.326,1.326,0,1,1,1.326-1.326,1.326,1.326,0,0,1-1.326,1.326m5.408-15.741a1.153,1.153,0,0,1-1.153,1.153h-8.511a1.153,1.153,0,0,1-1.153-1.153V23.91a1.153,1.153,0,0,1,1.153-1.153h8.511a1.153,1.153,0,0,1,1.153,1.153Zm0-5.648a1.153,1.153,0,0,1-1.153,1.153h-8.511a1.153,1.153,0,0,1-1.153-1.153v-.023a1.153,1.153,0,0,1,1.153-1.153h8.511a1.153,1.153,0,0,1,1.153,1.153Z" transform="translate(-151.906 -10.035)" fill="#a854f3"/>
        </g>
      </g>
      <rect id="Rectángulo_403318" data-name="Rectángulo 403318" width="40" height="28" transform="translate(897 4580)" fill="#fff"/>
    </g>
    <path id="Trazado_879273" data-name="Trazado 879273" d="M-7702.77-6530.706h39.232" transform="translate(9002 11700)" fill="none" stroke="#a854f3" stroke-width="1"/>
  </g>
</svg>
