<svg id="Grupo_1101627" data-name="Grupo 1101627" xmlns="http://www.w3.org/2000/svg" xmlns:xlink="http://www.w3.org/1999/xlink" width="94.224" height="100.533" viewBox="0 0 94.224 100.533">
  <defs>
    <clipPath id="clip-path">
      <rect id="Rectángulo_403307" data-name="Rectángulo 403307" width="94.224" height="100.533" fill="#f0c518"/>
    </clipPath>
  </defs>
  <g id="Grupo_1101577" data-name="Grupo 1101577" clip-path="url(#clip-path)">
    <path id="Trazado_879215" data-name="Trazado 879215" d="M93.875,43.407A42.907,42.907,0,1,1,50.969.5,42.907,42.907,0,0,1,93.875,43.407" transform="translate(-3.709 -0.23)" fill="#8722e2"/>
    <ellipse id="Elipse_11680" data-name="Elipse 11680" cx="46.842" cy="42.907" rx="46.842" ry="42.907" transform="translate(0.27 0.27)" fill="none" stroke="#a854f3" stroke-miterlimit="10" stroke-width="1"/>
    <path id="Trazado_879216" data-name="Trazado 879216" d="M56.686,146.312,67.423,167l.3-22.534Z" transform="translate(-26.08 -66.464)" fill="#8722e2"/>
    <path id="Trazado_879217" data-name="Trazado 879217" d="M69.176,67.9l-.722-4.249a19.579,19.579,0,0,1-.136-6.866A16.474,16.474,0,0,1,70.1,51.743a36.948,36.948,0,0,1,2.581-3.986,48.6,48.6,0,0,0,3.174-4.623,7.776,7.776,0,0,0,.805-5.458,4.956,4.956,0,0,0-1.386-2.817,6.6,6.6,0,0,0-2.445-1.523,5.15,5.15,0,0,0-2.562-.266,6.765,6.765,0,0,0-3.7,1.743,8.9,8.9,0,0,0-2.1,3.2,24.258,24.258,0,0,0-1.125,3.821l-2.183.371-7.773-3.134A25.4,25.4,0,0,1,54.444,35.1a20.226,20.226,0,0,1,2.645-5.069,18.644,18.644,0,0,1,4.892-4.709A19.342,19.342,0,0,1,69.7,22.442a20.976,20.976,0,0,1,8.484.167,13.156,13.156,0,0,1,6.63,3.823A15.36,15.36,0,0,1,88.43,34.6a18.116,18.116,0,0,1,.01,7.34,16.54,16.54,0,0,1-2.183,5.115q-1.444,2.184-2.895,4.327a29.245,29.245,0,0,0-2.094,3.45,13.311,13.311,0,0,0-1.317,4.142,16.813,16.813,0,0,0,.164,5.334L80.4,66Zm8.488,15.964a7.161,7.161,0,0,1-5-.759,5.217,5.217,0,0,1-2.546-3.816A5.446,5.446,0,0,1,71.3,74.8a6.873,6.873,0,0,1,4.4-2.481,6.583,6.583,0,0,1,4.9.9,5.555,5.555,0,0,1,2.512,3.863,5.327,5.327,0,0,1-1.062,4.429,6.85,6.85,0,0,1-4.385,2.354" transform="translate(-24.562 -10.164)" fill="#3a1d71"/>
    <path id="Trazado_879218" data-name="Trazado 879218" d="M65.131,68.591l-.722-4.249a19.567,19.567,0,0,1-.136-6.866,16.474,16.474,0,0,1,1.782-5.046,36.947,36.947,0,0,1,2.581-3.986,48.53,48.53,0,0,0,3.174-4.623,7.776,7.776,0,0,0,.805-5.458,4.953,4.953,0,0,0-1.387-2.817,6.591,6.591,0,0,0-2.445-1.523,5.148,5.148,0,0,0-2.561-.266,6.765,6.765,0,0,0-3.7,1.743,8.9,8.9,0,0,0-2.1,3.2,24.268,24.268,0,0,0-1.125,3.82l-9.956-2.762A25.4,25.4,0,0,1,50.4,35.787a20.226,20.226,0,0,1,2.645-5.069,18.653,18.653,0,0,1,4.892-4.709,19.339,19.339,0,0,1,7.719-2.879,20.979,20.979,0,0,1,8.484.167,13.163,13.163,0,0,1,6.63,3.823,15.36,15.36,0,0,1,3.616,8.171,18.117,18.117,0,0,1,.01,7.34,16.54,16.54,0,0,1-2.183,5.115q-1.444,2.184-2.895,4.327a29.364,29.364,0,0,0-2.095,3.45,13.315,13.315,0,0,0-1.317,4.142A16.817,16.817,0,0,0,76.07,65l.286,1.683Zm8.488,15.964a7.161,7.161,0,0,1-5-.759,5.217,5.217,0,0,1-2.546-3.816,5.446,5.446,0,0,1,1.176-4.489,6.873,6.873,0,0,1,4.4-2.481,6.583,6.583,0,0,1,4.9.9,5.555,5.555,0,0,1,2.512,3.863A5.327,5.327,0,0,1,78,82.2a6.85,6.85,0,0,1-4.385,2.354" transform="translate(-22.701 -10.48)" fill="#fff"/>
  </g>
</svg>
