<svg id="Grupo_1101652" data-name="Grupo 1101652" xmlns="http://www.w3.org/2000/svg" xmlns:xlink="http://www.w3.org/1999/xlink" width="310.514" height="207.249" viewBox="0 0 310.514 207.249">
  <defs>
    <clipPath id="clip-path">
      <rect id="Rectángulo_401256" data-name="Rectángulo 401256" width="310.514" height="207.249" fill="none"/>
    </clipPath>
  </defs>
  <g id="Grupo_1099392" data-name="Grupo 1099392" clip-path="url(#clip-path)">
    <path id="Trazado_874651" data-name="Trazado 874651" d="M158.7,52.13a.249.249,0,0,1-.249-.249V.249A.249.249,0,0,1,158.7,0H386.465a.249.249,0,0,1,.249.249V26.468a.249.249,0,1,1-.5,0V.5H158.952V51.881a.249.249,0,0,1-.249.249" transform="translate(-118.998)" fill="#5479f7"/>
    <path id="Trazado_874652" data-name="Trazado 874652" d="M397.77,62.366H181.223a.249.249,0,1,1,0-.5H397.77a.249.249,0,0,1,0,.5" transform="translate(-135.911 -46.463)" fill="#5479f7"/>
    <path id="Trazado_874653" data-name="Trazado 874653" d="M456.434,164.737a.249.249,0,0,1-.249-.249V13.585a.249.249,0,1,1,.5,0v150.9a.249.249,0,0,1-.249.249" transform="translate(-342.593 -10.015)" fill="#5479f7"/>
    <path id="Trazado_874654" data-name="Trazado 874654" d="M775.668,190.185a.249.249,0,0,1-.249-.249V13.585a.249.249,0,1,1,.5,0V189.936a.249.249,0,0,1-.249.249" transform="translate(-582.337 -10.015)" fill="#5479f7"/>
    <path id="Trazado_874655" data-name="Trazado 874655" d="M463.37,734H301.482a.249.249,0,0,1,0-.5H463.37a.249.249,0,1,1,0,.5" transform="translate(-226.225 -550.856)" fill="#5479f7"/>
    <rect id="Rectángulo_401251" data-name="Rectángulo 401251" width="45.832" height="21.33" transform="translate(53.492 7.006)" fill="#fff"/>
    <path id="Trazado_874656" data-name="Trazado 874656" d="M259.9,48.965H214.073a.249.249,0,0,1-.249-.249V27.386a.249.249,0,0,1,.249-.249H259.9a.249.249,0,0,1,.249.249v21.33a.249.249,0,0,1-.249.249m-45.582-.5h45.334V27.635H214.322Z" transform="translate(-160.581 -20.38)"/>
    <path id="Trazado_874657" data-name="Trazado 874657" d="M271.072,60.41H236.32a.249.249,0,0,1,0-.5h34.752a.249.249,0,1,1,0,.5" transform="translate(-177.289 -44.994)"/>
    <path id="Trazado_874658" data-name="Trazado 874658" d="M271.072,79.692H236.32a.249.249,0,0,1,0-.5h34.752a.249.249,0,1,1,0,.5" transform="translate(-177.289 -59.474)"/>
    <rect id="Rectángulo_401252" data-name="Rectángulo 401252" width="49.817" height="40.719" transform="translate(120.795 101.45)" fill="#e2eaff"/>
    <rect id="Rectángulo_401253" data-name="Rectángulo 401253" width="40.719" height="40.719" transform="translate(143.136 113.37)" fill="#a854f3"/>
    <path id="Trazado_874659" data-name="Trazado 874659" d="M627.972,500.691H600.315a.249.249,0,0,1,0-.5h27.657a.249.249,0,1,1,0,.5" transform="translate(-450.648 -375.643)" fill="#fff"/>
    <path id="Trazado_874660" data-name="Trazado 874660" d="M627.972,524.7H600.315a.249.249,0,0,1,0-.5h27.657a.249.249,0,1,1,0,.5" transform="translate(-450.648 -393.676)" fill="#fff"/>
    <path id="Trazado_874661" data-name="Trazado 874661" d="M627.972,548.715H600.315a.249.249,0,0,1,0-.5h27.657a.249.249,0,0,1,0,.5" transform="translate(-450.648 -411.709)" fill="#fff"/>
    <path id="Trazado_874662" data-name="Trazado 874662" d="M614.144,572.727H600.315a.249.249,0,0,1,0-.5h13.829a.249.249,0,1,1,0,.5" transform="translate(-450.648 -429.742)" fill="#fff"/>
    <path id="Trazado_874663" data-name="Trazado 874663" d="M503.889,604.136H493.374a.249.249,0,1,1,0-.5H503.64V588.285a.249.249,0,1,1,.5,0v15.6a.249.249,0,0,1-.249.249" transform="translate(-370.335 -441.613)"/>
    <path id="Trazado_874664" data-name="Trazado 874664" d="M461.962,641.577a3.353,3.353,0,1,1,3.353,3.354,3.354,3.354,0,0,1-3.353-3.354" transform="translate(-346.932 -479.303)" fill="#5479f7"/>
    <path id="Trazado_874665" data-name="Trazado 874665" d="M359.494,651.161H329.045a.249.249,0,1,1,0-.5h30.449a.249.249,0,1,1,0,.5" transform="translate(-246.925 -488.646)"/>
    <path id="Trazado_874666" data-name="Trazado 874666" d="M359.494,669.576H329.045a.249.249,0,0,1,0-.5h30.449a.249.249,0,0,1,0,.5" transform="translate(-246.925 -502.475)"/>
    <path id="Trazado_874667" data-name="Trazado 874667" d="M359.494,687.991H329.045a.249.249,0,1,1,0-.5h30.449a.249.249,0,1,1,0,.5" transform="translate(-246.925 -516.305)"/>
    <rect id="Rectángulo_401254" data-name="Rectángulo 401254" width="112.326" height="18.606" transform="translate(123.246 22.4)" fill="#e2eaff"/>
    <path id="Trazado_874668" data-name="Trazado 874668" d="M530.161,116.32H519.272a.249.249,0,0,1-.249-.251l.1-10.889a.249.249,0,0,1,.249-.247h10.265a.249.249,0,1,1,0,.5H519.62l-.1,10.391h10.391l.072-7.717a.249.249,0,0,1,.249-.247h0a.249.249,0,0,1,.247.252l-.074,7.963a.249.249,0,0,1-.249.247" transform="translate(-389.785 -78.804)" fill="#fff"/>
    <path id="Trazado_874669" data-name="Trazado 874669" d="M844.726,105.792H819.088a.249.249,0,1,1,0-.5h25.638a.249.249,0,1,1,0,.5" transform="translate(-614.945 -79.075)" fill="#fff"/>
    <path id="Trazado_874670" data-name="Trazado 874670" d="M642.418,105.792H592.109a.249.249,0,1,1,0-.5h50.309a.249.249,0,0,1,0,.5" transform="translate(-444.485 -79.075)" fill="#fff"/>
    <path id="Trazado_874671" data-name="Trazado 874671" d="M813.949,127.3H778.106a.249.249,0,1,1,0-.5h35.843a.249.249,0,1,1,0,.5" transform="translate(-584.168 -95.225)" fill="#fff"/>
    <path id="Trazado_874672" data-name="Trazado 874672" d="M631.863,127.3h-40.22a.249.249,0,0,1,0-.5h40.22a.249.249,0,1,1,0,.5" transform="translate(-444.135 -95.225)" fill="#fff"/>
    <path id="Trazado_874673" data-name="Trazado 874673" d="M673.564,148.8h-82.39a.249.249,0,1,1,0-.5h82.39a.249.249,0,1,1,0,.5" transform="translate(-443.783 -111.374)" fill="#fff"/>
    <path id="Trazado_874674" data-name="Trazado 874674" d="M529.258,222.528H518.369a.249.249,0,0,1-.249-.251l.1-10.889a.249.249,0,0,1,.249-.247h10.265a.249.249,0,1,1,0,.5H518.717l-.1,10.391h10.391l.072-7.717a.249.249,0,0,1,.249-.247h0a.249.249,0,0,1,.247.251l-.074,7.963a.249.249,0,0,1-.249.247" transform="translate(-389.106 -158.566)"/>
    <path id="Trazado_874675" data-name="Trazado 874675" d="M697,212H686.205a.249.249,0,1,1,0-.5H697a.249.249,0,0,1,0,.5" transform="translate(-515.151 -158.837)"/>
    <path id="Trazado_874676" data-name="Trazado 874676" d="M611.842,212H590.666a.249.249,0,1,1,0-.5h21.176a.249.249,0,1,1,0,.5" transform="translate(-443.401 -158.837)"/>
    <path id="Trazado_874677" data-name="Trazado 874677" d="M684.042,233.5H668.955a.249.249,0,1,1,0-.5h15.087a.249.249,0,0,1,0,.5" transform="translate(-502.196 -174.987)"/>
    <path id="Trazado_874678" data-name="Trazado 874678" d="M607.4,233.5H590.469a.249.249,0,1,1,0-.5H607.4a.249.249,0,1,1,0,.5" transform="translate(-443.253 -174.987)"/>
    <path id="Trazado_874679" data-name="Trazado 874679" d="M624.951,255.007H590.272a.249.249,0,0,1,0-.5h34.679a.249.249,0,0,1,0,.5" transform="translate(-443.105 -191.135)"/>
    <path id="Trazado_874680" data-name="Trazado 874680" d="M822.49,443.3H809.484a.249.249,0,0,1-.249-.251l.121-13.006a.249.249,0,0,1,.249-.247h12.261a.249.249,0,0,1,0,.5H809.852l-.117,12.508h12.508l.086-9.265a.249.249,0,0,1,.249-.247h0a.249.249,0,0,1,.247.251l-.089,9.512a.249.249,0,0,1-.249.247" transform="translate(-607.733 -322.777)"/>
    <path id="Trazado_874681" data-name="Trazado 874681" d="M820.516,436.24h0a.248.248,0,0,1-.2-.106L815.283,429a.249.249,0,0,1,.407-.287l4.829,6.85,8.792-12.094a.249.249,0,0,1,.4.293l-9,12.375a.249.249,0,0,1-.2.1" transform="translate(-612.241 -317.947)" fill="#5479f7"/>
    <path id="Trazado_874682" data-name="Trazado 874682" d="M1011.952,439.815h-9.785a.249.249,0,0,1,0-.5h9.785a.249.249,0,1,1,0,.5" transform="translate(-752.437 -329.926)"/>
    <path id="Trazado_874683" data-name="Trazado 874683" d="M909.011,439.815H885.182a.249.249,0,1,1,0-.5h23.829a.249.249,0,1,1,0,.5" transform="translate(-664.582 -329.926)"/>
    <path id="Trazado_874684" data-name="Trazado 874684" d="M990.26,457.219H973.282a.249.249,0,0,1,0-.5H990.26a.249.249,0,0,1,0,.5" transform="translate(-730.745 -342.996)"/>
    <path id="Trazado_874685" data-name="Trazado 874685" d="M901.653,457.219H884.961a.249.249,0,0,1,0-.5h16.692a.249.249,0,0,1,0,.5" transform="translate(-664.416 -342.996)"/>
    <path id="Trazado_874686" data-name="Trazado 874686" d="M923.764,474.623H884.739a.249.249,0,1,1,0-.5h39.025a.249.249,0,1,1,0,.5" transform="translate(-664.249 -356.066)"/>
    <path id="Trazado_874687" data-name="Trazado 874687" d="M822.49,560.554H809.484a.249.249,0,0,1-.249-.251l.121-13.006a.249.249,0,0,1,.249-.247h12.261a.249.249,0,0,1,0,.5H809.852l-.117,12.508h12.508l.086-9.265a.249.249,0,0,1,.249-.247h0a.249.249,0,0,1,.247.251l-.089,9.512a.249.249,0,0,1-.249.247" transform="translate(-607.733 -410.833)"/>
    <path id="Trazado_874688" data-name="Trazado 874688" d="M1016.775,557.068h-10.156a.249.249,0,1,1,0-.5h10.156a.249.249,0,1,1,0,.5" transform="translate(-755.781 -417.982)"/>
    <path id="Trazado_874689" data-name="Trazado 874689" d="M909.932,557.068H885.2a.249.249,0,1,1,0-.5h24.733a.249.249,0,1,1,0,.5" transform="translate(-664.595 -417.982)"/>
    <path id="Trazado_874690" data-name="Trazado 874690" d="M994.26,574.472H976.639a.249.249,0,1,1,0-.5H994.26a.249.249,0,1,1,0,.5" transform="translate(-733.266 -431.053)"/>
    <path id="Trazado_874691" data-name="Trazado 874691" d="M902.294,574.472H884.969a.249.249,0,1,1,0-.5h17.325a.249.249,0,1,1,0,.5" transform="translate(-664.422 -431.053)"/>
    <path id="Trazado_874692" data-name="Trazado 874692" d="M925.244,591.875h-40.5a.249.249,0,0,1,0-.5h40.5a.249.249,0,1,1,0,.5" transform="translate(-664.25 -444.122)"/>
    <rect id="Rectángulo_401255" data-name="Rectángulo 401255" width="112.326" height="18.606" transform="translate(48.199 73.899)" fill="#e2eaff"/>
    <path id="Trazado_874693" data-name="Trazado 874693" d="M228.769,323.141H217.88a.249.249,0,0,1-.249-.251l.1-10.889a.249.249,0,0,1,.249-.247h10.265a.249.249,0,1,1,0,.5H218.228l-.1,10.391h10.391l.072-7.717a.249.249,0,0,1,.249-.247h0a.249.249,0,0,1,.247.251l-.074,7.963a.249.249,0,0,1-.249.247" transform="translate(-163.44 -234.126)" fill="#fff"/>
    <path id="Trazado_874694" data-name="Trazado 874694" d="M543.336,312.613H517.7a.249.249,0,1,1,0-.5h25.638a.249.249,0,1,1,0,.5" transform="translate(-388.603 -234.397)" fill="#fff"/>
    <path id="Trazado_874695" data-name="Trazado 874695" d="M341.027,312.613H290.718a.249.249,0,1,1,0-.5h50.309a.249.249,0,1,1,0,.5" transform="translate(-218.141 -234.397)" fill="#fff"/>
    <path id="Trazado_874696" data-name="Trazado 874696" d="M512.559,334.117H476.716a.249.249,0,1,1,0-.5h35.843a.249.249,0,0,1,0,.5" transform="translate(-357.825 -250.547)" fill="#fff"/>
    <path id="Trazado_874697" data-name="Trazado 874697" d="M330.472,334.117h-40.22a.249.249,0,1,1,0-.5h40.22a.249.249,0,1,1,0,.5" transform="translate(-217.791 -250.547)" fill="#fff"/>
    <path id="Trazado_874698" data-name="Trazado 874698" d="M372.174,355.62h-82.39a.249.249,0,1,1,0-.5h82.39a.249.249,0,0,1,0,.5" transform="translate(-217.44 -266.695)" fill="#fff"/>
    <path id="Trazado_874699" data-name="Trazado 874699" d="M377.993,171.167c-3.986-1.02-6.095-2.91-7.207-4.551.422-1.344.843-2.687,1.3-4.01,1.781-5.1,4.49-10.285,9.239-12.864a4.729,4.729,0,0,1,2.749-.72,2.114,2.114,0,0,1,1.929,1.821c.084,2.154-3.66,2.557-4.064,4.674a2.682,2.682,0,0,1,4.128,1.319,2.358,2.358,0,0,1,1.864,2.935,2.681,2.681,0,0,1-1.765,4.683q-.221,3.013-.683,6a11,11,0,0,1-7.494.71" transform="translate(-278.459 -111.9)" fill="#fff"/>
    <path id="Trazado_874700" data-name="Trazado 874700" d="M380.026,171.023a11.446,11.446,0,0,1-2.847-.365c-4.2-1.074-6.314-3.122-7.352-4.652a.248.248,0,0,1-.031-.214c.419-1.335.846-2.7,1.307-4.018,2.3-6.576,5.356-10.829,9.355-13a5.039,5.039,0,0,1,2.9-.748,2.361,2.361,0,0,1,2.149,2.058c.05,1.266-1.038,1.971-2.09,2.652a5.734,5.734,0,0,0-1.712,1.438,2.913,2.913,0,0,1,1.964-.033,2.771,2.771,0,0,1,1.849,1.726,2.629,2.629,0,0,1,1.949,3.078,2.928,2.928,0,0,1-1.814,5c-.147,1.925-.372,3.876-.668,5.8a.249.249,0,0,1-.14.187,11.3,11.3,0,0,1-4.815,1.09m-9.719-5.2c1.013,1.446,3.04,3.339,7,4.35a10.732,10.732,0,0,0,7.206-.638c.3-1.943.518-3.911.66-5.851a.249.249,0,0,1,.247-.231,2.431,2.431,0,0,0,1.6-4.248.249.249,0,0,1-.071-.263,2.111,2.111,0,0,0-1.658-2.611.25.25,0,0,1-.211-.187,2.435,2.435,0,0,0-3.725-1.19.249.249,0,0,1-.406-.236c.213-1.117,1.222-1.77,2.2-2.4s1.9-1.233,1.863-2.215a1.883,1.883,0,0,0-1.71-1.584,4.587,4.587,0,0,0-2.6.691c-3.885,2.11-6.87,6.273-9.122,12.727-.447,1.28-.863,2.6-1.266,3.886" transform="translate(-277.707 -111.15)"/>
    <path id="Trazado_874701" data-name="Trazado 874701" d="M257.953,212.709c.48-.277,2.434,1.172,2.913,1.438l6.243,3.467,14.169,7.869c2.162-3.369,3.368-7.21,4.573-11.049,1.113,1.641,3.221,3.531,7.207,4.551a10.993,10.993,0,0,0,7.494-.71,76.632,76.632,0,0,1-4.951,17.7c-1.1,2.652-2.435,5.348-4.733,7.07a11.214,11.214,0,0,1-8.185,1.866,20.637,20.637,0,0,1-7.958-3.12A36.387,36.387,0,0,1,260.762,225.6a35.936,35.936,0,0,1-2.861-10.415c-.057-.492-.477-2.176.052-2.481" transform="translate(-193.524 -159.717)" fill="#fff"/>
    <path id="Trazado_874702" data-name="Trazado 874702" d="M283.682,244.522a13.314,13.314,0,0,1-1.785-.121,20.7,20.7,0,0,1-8.055-3.155,36.746,36.746,0,0,1-14.059-16.293,36.088,36.088,0,0,1-2.88-10.488c-.01-.085-.031-.208-.057-.354-.186-1.072-.308-2.06.232-2.371.428-.247,1.235.186,2.669,1.126.21.137.39.256.489.311L280.441,224.4a45.935,45.935,0,0,0,4.42-10.792.249.249,0,0,1,.444-.065c.989,1.458,3.017,3.414,7.063,4.449a10.736,10.736,0,0,0,7.325-.693.249.249,0,0,1,.352.263,76.854,76.854,0,0,1-4.967,17.754c-1.116,2.689-2.471,5.419-4.814,7.174a10.986,10.986,0,0,1-6.583,2.034m-26.359-32.348c-.28.168-.06,1.436.012,1.853.027.157.05.29.06.382a35.6,35.6,0,0,0,2.841,10.343A36.242,36.242,0,0,0,274.1,240.823a20.213,20.213,0,0,0,7.86,3.085,10.965,10.965,0,0,0,8-1.818c2.247-1.683,3.564-4.342,4.653-6.966a76.366,76.366,0,0,0,4.864-17.186,11.213,11.213,0,0,1-7.238.536,12.382,12.382,0,0,1-7.057-4.243,43.583,43.583,0,0,1-4.452,10.635.249.249,0,0,1-.33.083l-20.412-11.336c-.114-.063-.293-.181-.52-.329-.458-.3-1.856-1.213-2.15-1.109m-.122-.217h0Z" transform="translate(-192.771 -158.965)"/>
    <path id="Trazado_874703" data-name="Trazado 874703" d="M392.619,189.3a1.356,1.356,0,0,1-.528-.105.249.249,0,0,1,.193-.459,1.332,1.332,0,0,0,1.445-.541,4.6,4.6,0,0,0,.651-1.474c.028-.089.056-.179.084-.267a3.446,3.446,0,0,1,1.1-1.8,3.8,3.8,0,0,1,1.047-.487c.173-.06.336-.116.494-.184.407-.175.846-.515.859-.945.016-.507-.544-.887-.879-1.069a5.934,5.934,0,0,0-7.569,1.647.249.249,0,1,1-.4-.3,6.431,6.431,0,0,1,8.2-1.786,1.8,1.8,0,0,1,1.14,1.522,1.681,1.681,0,0,1-1.16,1.387c-.175.075-.354.137-.528.2a3.361,3.361,0,0,0-.914.418,3.014,3.014,0,0,0-.92,1.548c-.028.087-.056.175-.083.263a5.042,5.042,0,0,1-.732,1.629,2,2,0,0,1-1.5.8" transform="translate(-292.188 -135.75)"/>
    <path id="Trazado_874704" data-name="Trazado 874704" d="M414.362,186.341a1.712,1.712,0,0,1-1.374-.616.249.249,0,0,1,.391-.309,1.424,1.424,0,0,0,1.636.295,3.151,3.151,0,0,0,1.372-1.354,7.452,7.452,0,0,0,1.055-3.336.249.249,0,0,1,.5.034,7.953,7.953,0,0,1-1.126,3.56,3.619,3.619,0,0,1-1.6,1.553,2.178,2.178,0,0,1-.85.172" transform="translate(-310.113 -135.772)"/>
    <path id="Trazado_874705" data-name="Trazado 874705" d="M419.734,195.892a2.131,2.131,0,0,1-2.035-1.364.249.249,0,0,1,.475-.151,1.644,1.644,0,0,0,1.742,1.007,2.826,2.826,0,0,0,1.89-1.217,8.457,8.457,0,0,0,1.048-2.2.249.249,0,1,1,.468.17,9.152,9.152,0,0,1-1.115,2.329,3.32,3.32,0,0,1-2.238,1.417,2.2,2.2,0,0,1-.236.013" transform="translate(-313.682 -144.04)"/>
    <path id="Trazado_874706" data-name="Trazado 874706" d="M427.013,208.134h0a2.14,2.14,0,0,1-1.8-.918.249.249,0,1,1,.419-.27,1.645,1.645,0,0,0,1.387.69.249.249,0,0,1,0,.5" transform="translate(-319.303 -155.33)"/>
    <path id="Trazado_874707" data-name="Trazado 874707" d="M340.6,269.053a.249.249,0,0,1-.172-.429,16.454,16.454,0,0,0,2.066-2.4.249.249,0,1,1,.407.287,16.881,16.881,0,0,1-2.129,2.476.247.247,0,0,1-.172.069" transform="translate(-255.606 -199.852)"/>
    <path id="Trazado_874708" data-name="Trazado 874708" d="M200.183,198.4a2.311,2.311,0,0,1,1.648,1.637c3.174,11.774,10.531,22.194,13.247,34.1a12.546,12.546,0,0,1,.194,6.3,9.69,9.69,0,0,1-3.338,4.645,28.887,28.887,0,0,1-4.957,3.007c-2.381-5.385-4.29-10.964-6.2-16.535a138.333,138.333,0,0,1-4.863-16.4c-.817-3.911-13.759-3.563-13.646-7.563.032-1.135-4.034-7.254-3.275-8.183,1.817-2.225,19.623-1.424,21.186-1.015" transform="translate(-134.355 -148.638)" fill="#fff"/>
    <path id="Trazado_874709" data-name="Trazado 874709" d="M206.23,247.629a.249.249,0,0,1-.228-.148c-2.386-5.4-4.326-11.07-6.2-16.555a139.026,139.026,0,0,1-4.871-16.426c-.368-1.763-3.624-2.646-6.773-3.5-3.57-.968-6.942-1.882-6.878-4.122a14.359,14.359,0,0,0-1.409-3.134c-1.467-2.817-2.321-4.573-1.809-5.2,1.93-2.362,20.013-1.472,21.441-1.1a2.568,2.568,0,0,1,1.826,1.813,102.372,102.372,0,0,0,6.383,16.1c2.67,5.763,5.432,11.723,6.865,18.009a12.847,12.847,0,0,1,.19,6.427,9.9,9.9,0,0,1-3.421,4.768,29.132,29.132,0,0,1-5,3.034.247.247,0,0,1-.115.028m-16.681-50.161c-5.015,0-10.227.316-11.105,1.391-.341.417,1.041,3.069,1.866,4.654a11.546,11.546,0,0,1,1.465,3.379c-.053,1.848,3.284,2.752,6.511,3.627,3.293.893,6.7,1.816,7.13,3.878a138.7,138.7,0,0,0,4.855,16.367c1.845,5.393,3.751,10.967,6.08,16.273a27.5,27.5,0,0,0,4.68-2.857,9.416,9.416,0,0,0,3.255-4.522,12.41,12.41,0,0,0-.2-6.175c-1.422-6.235-4.172-12.171-6.832-17.911a102.817,102.817,0,0,1-6.412-16.183,2.067,2.067,0,0,0-1.471-1.461,79.219,79.219,0,0,0-9.825-.459" transform="translate(-133.609 -147.922)"/>
    <path id="Trazado_874710" data-name="Trazado 874710" d="M73.5,362.056s8.468,61.621-5.679,107.781l6.587,6.684a1.34,1.34,0,0,1-.954,2.28H44.89a4.985,4.985,0,0,1-4.9-5.912c2.426-12.807,8.063-42.735,9.605-52.362L31,471.615l4.531,4.967a1.34,1.34,0,0,1-.99,2.243H6a4.985,4.985,0,0,1-4.7-6.643c7.9-22.395,33.576-94.951,41.594-109.2Z" transform="translate(-0.758 -271.903)" fill="#fff"/>
    <path id="Trazado_874711" data-name="Trazado 874711" d="M33.781,478.322H5.241A5.234,5.234,0,0,1,.3,471.347c21.829-61.879,36.218-99.653,41.612-109.238a.249.249,0,0,1,.209-.127l30.61-.926a.249.249,0,0,1,.254.215,342.21,342.21,0,0,1,2.468,36.61c.318,19.3-.833,47.29-8.112,71.135l6.482,6.579a1.589,1.589,0,0,1-1.132,2.7H44.132a5.234,5.234,0,0,1-5.144-6.208c2.186-11.543,7.183-38.062,9.164-49.7l-17.627,48.42,4.43,4.856a1.589,1.589,0,0,1-1.174,2.66m8.5-115.847C36.849,372.233,22.5,409.921.774,471.513a4.736,4.736,0,0,0,4.467,6.311H33.781A1.091,1.091,0,0,0,34.587,476l-4.531-4.967a.249.249,0,0,1-.05-.253L48.6,419.69a.249.249,0,0,1,.48.125c-1.543,9.637-7.232,39.834-9.606,52.369a4.736,4.736,0,0,0,4.654,5.617H72.7a1.091,1.091,0,0,0,.777-1.856l-6.587-6.684a.25.25,0,0,1-.061-.248c7.3-23.814,8.451-51.821,8.133-71.123a346.161,346.161,0,0,0-2.434-36.329Z" transform="translate(0 -271.152)"/>
    <path id="Trazado_874712" data-name="Trazado 874712" d="M19.231,802.247a108.974,108.974,0,0,1-10.891-.472.249.249,0,1,1,.052-.5c11.323,1.173,27.758-.22,27.922-.234a.249.249,0,1,1,.043.5c-.116.01-8.316.705-17.126.705" transform="translate(-6.096 -601.583)"/>
    <path id="Trazado_874713" data-name="Trazado 874713" d="M170.693,796.222c-2.023,0-4.22-.039-6.6-.127a.249.249,0,1,1,.018-.5c18.611.691,25.857-1.657,25.928-1.681a.249.249,0,0,1,.158.472c-.063.021-5.654,1.833-19.5,1.833" transform="translate(-123.05 -596.219)"/>
    <path id="Trazado_874714" data-name="Trazado 874714" d="M195.385,468.809a.249.249,0,0,1-.237-.327l12.765-38.865a4.659,4.659,0,0,1,3.36-3.069l2.281-.526a.249.249,0,1,1,.112.485l-2.281.526a4.157,4.157,0,0,0-3,2.739l-12.766,38.865a.249.249,0,0,1-.237.171" transform="translate(-146.546 -319.937)"/>
    <path id="Trazado_874715" data-name="Trazado 874715" d="M181.264,234.718h25.8a1.989,1.989,0,0,0,1.918-2.519c-.805-2.913-2.279-8.233-4.257-15.345-3.066-11.022-5.046-18.783-6.116-21.36s-1.259-3.97-5.624-4.164c-4.025-.179-8.86-.8-9.336,3.751a3.178,3.178,0,0,1-1.286,2.206L179.5,199.4Z" transform="translate(-134.805 -143.589)" fill="#0b47db"/>
    <path id="Trazado_874716" data-name="Trazado 874716" d="M223.037,237.137a.249.249,0,0,1-.218-.369,15.213,15.213,0,0,0,.742-12.884.249.249,0,1,1,.461-.187,15.717,15.717,0,0,1-.766,13.31.249.249,0,0,1-.219.13" transform="translate(-167.313 -167.879)"/>
    <path id="Trazado_874717" data-name="Trazado 874717" d="M217.4,279.258a1.013,1.013,0,0,1-.781-.4,1,1,0,0,1,1.518-1.3.511.511,0,0,0,.069.085,1.054,1.054,0,0,1-.685,1.6.859.859,0,0,1-.121.008m.013-1.5a.648.648,0,0,0-.122.012.46.46,0,1,0,.511.172.262.262,0,0,1-.015-.023.219.219,0,0,1-.02-.02.472.472,0,0,0-.354-.141" transform="translate(-162.5 -208.22)"/>
    <path id="Trazado_874718" data-name="Trazado 874718" d="M246.18,233.982a.256.256,0,0,1-.067-.009.249.249,0,0,1-.174-.307,13.116,13.116,0,0,0-1.348-10.024.249.249,0,0,1,.428-.255,13.624,13.624,0,0,1,1.4,10.411.25.25,0,0,1-.24.183" transform="translate(-183.662 -167.673)"/>
    <path id="Trazado_874719" data-name="Trazado 874719" d="M246.505,269.565a.938.938,0,1,1,.723-1.559.25.25,0,0,1,.042.072.247.247,0,0,1,.053.065.986.986,0,0,1-.773,1.421h-.046m.014-1.375a.6.6,0,0,0-.081.006.4.4,0,1,0,.453.194.238.238,0,0,1-.017-.036.259.259,0,0,1-.028-.029.421.421,0,0,0-.326-.135" transform="translate(-184.413 -201.036)"/>
    <path id="Trazado_874720" data-name="Trazado 874720" d="M91.386,266.107a109,109,0,0,1,.717-24.594c1.866-11.426,6.81-22.74,15.711-30.144,1.461-1.215,3.118-2.467,3.559-4.315.3-1.243.359-3.031,1.631-3.143a4.761,4.761,0,0,1,4.323,2.666,12.9,12.9,0,0,1,1.376,4.947c1.512,11.1,1.839,22.331,2.164,33.532a9.263,9.263,0,0,1-.575,4.354c-1.1,2.251-3.811,3.226-6.309,3.4s-7.509.068-7.509.068q.081,5.69-.11,11.379a17.446,17.446,0,0,1-14.976,1.853" transform="translate(-68.362 -153.13)" fill="#fff"/>
    <path id="Trazado_874721" data-name="Trazado 874721" d="M96.234,266.508a18.107,18.107,0,0,1-5.674-.919.249.249,0,0,1-.17-.22c-.646-10.047-.424-17.649.719-24.65,2.091-12.8,7.7-23.56,15.8-30.3l.32-.265c1.36-1.123,2.766-2.283,3.156-3.917.053-.22.1-.455.144-.7.224-1.182.477-2.52,1.707-2.629a4.7,4.7,0,0,1,3.771,1.71.249.249,0,1,1-.37.333,4.252,4.252,0,0,0-3.352-1.548c-.8.07-1.029.967-1.267,2.226-.048.255-.094.5-.149.728-.429,1.8-1.9,3.01-3.323,4.185l-.319.264c-8,6.658-13.553,17.31-15.624,29.993-1.131,6.923-1.355,14.445-.725,24.37a17.192,17.192,0,0,0,14.494-1.809c.124-3.739.159-7.519.106-11.236a.249.249,0,0,1,.254-.252c.05,0,5.028.1,7.487-.067,2.926-.2,5.207-1.42,6.1-3.258a9.094,9.094,0,0,0,.55-4.237.249.249,0,0,1,.5-.014,9.476,9.476,0,0,1-.6,4.47c-1.4,2.884-5.025,3.435-6.517,3.538-2.155.149-6.214.091-7.274.073.048,3.686.01,7.43-.114,11.134a.249.249,0,0,1-.115.2,17.912,17.912,0,0,1-8.076,2.739q-.715.06-1.438.06" transform="translate(-67.614 -152.376)"/>
    <path id="Trazado_874722" data-name="Trazado 874722" d="M152.165,315.121h0a.249.249,0,0,1-.245-.253,81.022,81.022,0,0,1,5.176-27.177.249.249,0,0,1,.466.175,80.515,80.515,0,0,0-5.144,27.01.249.249,0,0,1-.249.245" transform="translate(-114.088 -215.934)"/>
    <path id="Trazado_874723" data-name="Trazado 874723" d="M90.983,458.17c-.329-3.444-.645-6.89-.806-10.042a17.446,17.446,0,0,0,14.976-1.853q-.11,3.274-.309,6.545c-.166,2.719-.481,5.674-2.374,7.632a6.057,6.057,0,0,1-6.167,1.489,2.921,2.921,0,0,1-3.755-.352,1.939,1.939,0,1,1-1.566-3.418" transform="translate(-67.153 -335.151)" fill="#fff"/>
    <path id="Trazado_874724" data-name="Trazado 874724" d="M93.9,461.959a3.158,3.158,0,0,1-2.13-.8,2.229,2.229,0,0,1-1.679.244,2.059,2.059,0,0,1-1.4-3.064,2.23,2.23,0,0,1,1.276-1.111c-.312-3.269-.626-6.709-.786-9.84a.249.249,0,0,1,.327-.249,17.2,17.2,0,0,0,14.764-1.827.249.249,0,0,1,.382.219c-.073,2.193-.177,4.4-.309,6.551-.174,2.842-.505,5.785-2.443,7.79a6.279,6.279,0,0,1-6.3,1.591,3.047,3.047,0,0,1-1.693.494m-2.1-1.37a.248.248,0,0,1,.183.08,2.667,2.667,0,0,0,3.424.321.249.249,0,0,1,.229-.036,5.847,5.847,0,0,0,5.908-1.426c1.82-1.883,2.136-4.725,2.3-7.475.122-2,.22-4.038.292-6.073A17.68,17.68,0,0,1,89.7,447.725c.168,3.093.48,6.469.786,9.671a.249.249,0,0,1-.2.268,1.676,1.676,0,1,0,1.365,2.98.248.248,0,0,1,.156-.055" transform="translate(-66.406 -334.4)"/>
    <path id="Trazado_874725" data-name="Trazado 874725" d="M101.647,490.117a.249.249,0,0,1-.148-.45,5.491,5.491,0,0,0,2.118-5.263.249.249,0,0,1,.491-.086,6,6,0,0,1-2.313,5.75.248.248,0,0,1-.147.048" transform="translate(-76.149 -363.566)"/>
    <path id="Trazado_874726" data-name="Trazado 874726" d="M116.084,491.84a.249.249,0,0,1-.172-.429,6.682,6.682,0,0,0,2.017-5.261.249.249,0,1,1,.5-.037,7.185,7.185,0,0,1-2.169,5.657.248.248,0,0,1-.172.069" transform="translate(-86.992 -364.896)"/>
    <path id="Trazado_874727" data-name="Trazado 874727" d="M131.75,490.3a.249.249,0,0,1-.18-.421,7.275,7.275,0,0,0,1.959-5.714.249.249,0,1,1,.5-.051,7.781,7.781,0,0,1-2.094,6.11.249.249,0,0,1-.18.077" transform="translate(-98.757 -363.397)"/>
    <path id="Trazado_874728" data-name="Trazado 874728" d="M201.869,108.961a5.39,5.39,0,0,1,1.676-2.827,2.533,2.533,0,0,1,3.086-.132,7.6,7.6,0,0,1,6.979-.915,6.18,6.18,0,0,1,3.9,5.677,5.223,5.223,0,0,1-4.487,4.979,5.374,5.374,0,0,1-4.506,4.054c-1.924.3-5.652-.346-6.417-2.434a13.855,13.855,0,0,1-.226-8.4" transform="translate(-151.195 -78.563)"/>
    <path id="Trazado_874729" data-name="Trazado 874729" d="M217.208,168.54l-1.593,10.08s-7.322-4.557-7.376-4.629,1.247-8.649,1.247-8.649,1.693-2.835,7.721,3.2" transform="translate(-156.386 -123.672)" fill="#fff"/>
    <path id="Trazado_874730" data-name="Trazado 874730" d="M216.883,171.287l-.039,0a.249.249,0,0,1-.207-.285l.493-3.121c-3.276-3.254-5.187-3.8-6.216-3.687a1.436,1.436,0,0,0-1,.5c-.073.483-.588,3.888-.929,6.247a.249.249,0,1,1-.493-.071c.366-2.533.932-6.27.938-6.308a.243.243,0,0,1,.032-.09,1.856,1.856,0,0,1,1.371-.767c1.145-.142,3.249.421,6.741,3.916a.248.248,0,0,1,.07.215l-.513,3.247a.249.249,0,0,1-.246.21" transform="translate(-156.574 -122.923)"/>
    <path id="Trazado_874731" data-name="Trazado 874731" d="M216.011,134.239s2.733,7.205,0,9.525c-1.622,1.376-6.748,2.1-10.025-2.856a2.759,2.759,0,0,1-2.787-2.21c-.518-2.321.641-3.2,2.517-1.563,0,0,2.269,1.155,1.523-2.062-.325-1.4.872-2.679,3.491-3.435,4.739-1.368,4.3-.172,5.281,2.6" transform="translate(-152.508 -98.434)" fill="#fff"/>
    <path id="Trazado_874732" data-name="Trazado 874732" d="M211.881,144.292a7.494,7.494,0,0,1-1.056-.075,8.236,8.236,0,0,1-5.721-3.8,2.988,2.988,0,0,1-2.9-2.4c-.282-1.262-.1-2.193.509-2.553.342-.2,1.107-.379,2.389.726.214.1.749.278,1.034.054s.331-.887.108-1.851c-.369-1.592.966-2.952,3.665-3.731,4.122-1.19,4.568-.485,5.251,1.729.095.307.2.656.333,1.025.127.336,2.755,7.4-.073,9.8a5.7,5.7,0,0,1-3.543,1.076m-6.643-4.371a.249.249,0,0,1,.208.112,7.784,7.784,0,0,0,5.45,3.691,5.7,5.7,0,0,0,4.206-.888c2.569-2.18-.044-9.177-.071-9.247l0-.005c-.135-.38-.244-.735-.341-1.048-.6-1.929-.774-2.512-4.637-1.4-2.41.7-3.619,1.84-3.317,3.139.281,1.214.188,1.985-.287,2.356-.609.476-1.552,0-1.592-.016a.254.254,0,0,1-.05-.034c-.763-.664-1.448-.925-1.833-.7s-.5,1.008-.278,2.016a2.483,2.483,0,0,0,2.532,2.015h.012" transform="translate(-151.761 -97.696)"/>
    <path id="Trazado_874733" data-name="Trazado 874733" d="M209.2,161.065a.249.249,0,0,1-.216-.125,1.7,1.7,0,0,0-1.433-.831h-.007a.249.249,0,0,1,0-.5,2.2,2.2,0,0,1,1.873,1.081.249.249,0,0,1-.216.373" transform="translate(-155.681 -119.867)"/>
    <path id="Trazado_874734" data-name="Trazado 874734" d="M1023.662,804.414a4.108,4.108,0,0,1-4.065,4.673H997.029a1.312,1.312,0,0,1-1.018-2.139l4.16-5.131-.011-.1h23.129Z" transform="translate(-747.78 -602.088)" fill="#fff"/>
    <path id="Trazado_874735" data-name="Trazado 874735" d="M1018.847,808.585H996.279a1.561,1.561,0,0,1-1.211-2.545l4.159-5.132a.249.249,0,1,1,.387.314l-4.159,5.131a1.063,1.063,0,0,0,.824,1.733h22.568a3.859,3.859,0,0,0,3.819-4.39l-.373-2.7a.249.249,0,1,1,.493-.068l.373,2.7a4.356,4.356,0,0,1-4.312,4.956" transform="translate(-747.03 -601.336)"/>
    <path id="Trazado_874736" data-name="Trazado 874736" d="M1167.7,730.135c2.911-3.676,5.719-8.337,6.65-13.208.463.352.931.7,1.412,1.05a6.826,6.826,0,0,1,2.478,7.712,65.044,65.044,0,0,1-6.027,13.263,13.916,13.916,0,0,1-11.774,6.457h-3.35a.841.841,0,0,1-.666-1.353s3.039-6.158,3-6.195a68.271,68.271,0,0,0,8.275-7.726" transform="translate(-868.337 -538.41)" fill="#fff"/>
    <path id="Trazado_874737" data-name="Trazado 874737" d="M1159.687,748.075h-3.35a1.09,1.09,0,0,1-.88-1.732l2.993-6.174a.249.249,0,1,1,.448.217l-3,6.195a.257.257,0,0,1-.026.043.592.592,0,0,0,.469.953h3.35a13.592,13.592,0,0,0,11.563-6.341,64.971,64.971,0,0,0,6-13.21,6.547,6.547,0,0,0-2.388-7.431.249.249,0,1,1,.292-.4,7.043,7.043,0,0,1,2.567,7.994,65.471,65.471,0,0,1-6.053,13.316,14.088,14.088,0,0,1-11.985,6.573" transform="translate(-867.587 -540.827)"/>
    <path id="Trazado_874738" data-name="Trazado 874738" d="M1029.625,601.992H991.589l5.472,49.733h23.129l-4.151-26.034c7.995,11.845,19.05,25.125,19.874,25.977a66.268,66.268,0,0,0,8.129-7.848c2.911-3.676,5.719-8.337,6.65-13.208-11.613-8.827-17.662-18.687-21.068-28.619" transform="translate(-744.68 -452.094)" fill="#fff"/>
    <path id="Trazado_874739" data-name="Trazado 874739" d="M997.151,657.929a.249.249,0,0,1-.247-.218c-1.913-15.3-3.66-30.877-5.341-47.608a.249.249,0,1,1,.5-.05c1.673,16.647,3.411,32.148,5.313,47.378,7.634,0,14.861,0,22.509-.068-.148-.956-.64-4.006-1.243-7.742-1.114-6.909-2.64-16.371-2.867-18.012a.249.249,0,0,1,.452-.174c5.325,7.785,12.6,18.427,19.557,25.672a36.5,36.5,0,0,0,14.622-20.5c-9.813-7.46-16.617-16.35-20.225-26.428a.249.249,0,0,1,.469-.168c3.592,10.031,10.385,18.879,20.192,26.3a.249.249,0,0,1,.09.263,37,37,0,0,1-15.041,21.058.249.249,0,0,1-.319-.033c-6.764-7.005-13.833-17.234-19.144-24.994.473,3.08,1.743,10.96,2.706,16.933.691,4.285,1.237,7.67,1.287,8.033a.249.249,0,0,1-.245.283c-7.83.07-15.209.07-23.02.07" transform="translate(-744.66 -457.979)"/>
    <path id="Trazado_874740" data-name="Trazado 874740" d="M992.809,415.715c-2.076,8.216-3.957,17.151-5.456,26.753a295.23,295.23,0,0,0-3.527,45.616,67.027,67.027,0,0,0,17.606,2.392,70.017,70.017,0,0,0,36.24-10.387,68.536,68.536,0,0,1-8.7-20.927c-1.379-6.106-2.465-15.152-4.7-24.689-.355-1.512-.963-3.994-1.929-7.1-1.076-3.461-2.159-6.29-2.978-8.291l-1.182-3.181-25.372-.188" transform="translate(-738.85 -312.201)" fill="#0b47db"/>
    <path id="Trazado_874741" data-name="Trazado 874741" d="M1064.708,553.469a.25.25,0,0,1-.223-.137,65.607,65.607,0,0,1-4.914-45.951.249.249,0,0,1,.483.124,65.1,65.1,0,0,0,4.877,45.6.249.249,0,0,1-.222.361" transform="translate(-794.161 -380.901)" fill="#e2eaff"/>
    <path id="Trazado_874742" data-name="Trazado 874742" d="M885.723,317.181a27.913,27.913,0,0,1-12.851-6.895l6.069-29.108s-9.28,9.265-16.15,8.071-11.019-14.749-12.574-25.425c0,0-9.851.983-12.963-2.95,0,0-.809-1.245,0-1.685,0,0-1.537-1.968-.374-2.883a2.034,2.034,0,0,1,2.771,0s.54-1.054,2.964-.549,6.967,1.268,9.9-.137,2.01-4.629,2.171-6.111,1.93-2.222,2.573,1.307,9.89,17.862,9.89,17.862,8.838-11.276,13.418-16.706a8.654,8.654,0,0,1,5.268-3.02l4.429-.075Z" transform="translate(-628.167 -186.456)" fill="#fff"/>
    <path id="Trazado_874743" data-name="Trazado 874743" d="M876.426,313.161a.248.248,0,0,1-.13-.037,24.146,24.146,0,0,1-4.362-3.413.248.248,0,0,1-.068-.227l5.9-28.322c-2.006,1.871-8.708,7.691-14.459,7.691a7.712,7.712,0,0,1-1.326-.111c-6.8-1.181-11.029-13.85-12.744-25.4-1.564.127-10.021.633-12.946-3.064a2.189,2.189,0,0,1-.381-1.481.883.883,0,0,1,.232-.412c-.384-.566-1.3-2.151-.184-3.027a2.209,2.209,0,0,1,2.872-.137c.321-.326,1.163-.857,3.067-.46,4.39.915,7.669.875,9.744-.118,2.165-1.037,2.088-3.086,2.027-4.733a8.629,8.629,0,0,1,0-1.18,1.469,1.469,0,0,1,1.225-1.453c.4-.016,1.381.223,1.84,2.742.577,3.163,8.348,15.416,9.666,17.478,1.387-1.765,9.075-11.538,13.207-16.437a8.927,8.927,0,0,1,5.42-3.105l.034,0,4.429-.075h0a.249.249,0,0,1,.249.265l-2.334,35.092a.249.249,0,0,1-.5-.033l2.316-34.822-4.141.07a8.428,8.428,0,0,0-5.1,2.932c-4.524,5.365-13.324,16.586-13.412,16.7a.249.249,0,0,1-.405-.018c-.379-.587-9.282-14.416-9.926-17.953-.318-1.745-.893-2.349-1.332-2.334-.36.013-.688.456-.748,1.009a8.362,8.362,0,0,0,0,1.107c.06,1.6.151,4.023-2.309,5.2-2.176,1.042-5.56,1.094-10.06.156-2.172-.453-2.688.414-2.693.423a.254.254,0,0,1-.162.123.252.252,0,0,1-.2-.035,1.79,1.79,0,0,0-2.476-.01c-.954.751.4,2.517.417,2.534a.249.249,0,0,1-.077.372.4.4,0,0,0-.212.262,1.717,1.717,0,0,0,.3,1.069c2.979,3.763,12.632,2.847,12.729,2.837a.248.248,0,0,1,.271.212c1.591,10.917,5.785,24.071,12.371,25.216,6.664,1.158,15.839-7.91,15.931-8a.249.249,0,0,1,.42.227l-6.041,28.976a23.719,23.719,0,0,0,4.176,3.247.249.249,0,0,1-.131.461" transform="translate(-627.405 -185.705)"/>
    <path id="Trazado_874744" data-name="Trazado 874744" d="M901.116,326.053a11.04,11.04,0,0,1-2.051-.19.249.249,0,1,1,.092-.489,12.273,12.273,0,0,0,12.327-5.677.249.249,0,1,1,.422.264,13,13,0,0,1-10.791,6.093" transform="translate(-675.043 -240.003)"/>
    <path id="Trazado_874745" data-name="Trazado 874745" d="M963.161,337.541a.25.25,0,0,1-.221-.134l-3.832-7.381a.249.249,0,1,1,.442-.229l3.832,7.381a.249.249,0,0,1-.221.364" transform="translate(-720.266 -247.575)"/>
    <path id="Trazado_874746" data-name="Trazado 874746" d="M852.642,297.663a13.15,13.15,0,0,1-2.891-.32l-.27-.063a3.507,3.507,0,0,0-2.128-.073.249.249,0,1,1-.194-.459,3.863,3.863,0,0,1,2.436.047l.266.061a12.72,12.72,0,0,0,5.9-.08.249.249,0,1,1,.123.483,13.19,13.19,0,0,1-3.245.4" transform="translate(-636.099 -222.719)"/>
    <path id="Trazado_874747" data-name="Trazado 874747" d="M856.949,282.847a21.2,21.2,0,0,1-6.159-.914.249.249,0,0,1,.145-.476,20.643,20.643,0,0,0,8.365.755.249.249,0,0,1,.058.495,20.7,20.7,0,0,1-2.409.14" transform="translate(-638.808 -211.365)"/>
    <path id="Trazado_874748" data-name="Trazado 874748" d="M848.536,291.015a12.014,12.014,0,0,1-2.623-.288c-.275-.062-.548-.133-.821-.2-.442-.116-.9-.235-1.35-.306a3.609,3.609,0,0,0-2.064.183.249.249,0,1,1-.2-.455,4.083,4.083,0,0,1,2.344-.22c.476.075.945.2,1.4.316.267.07.535.14.8.2a11.575,11.575,0,0,0,5.008,0,.249.249,0,1,1,.108.486,12.007,12.007,0,0,1-2.6.284" transform="translate(-631.834 -217.528)"/>
    <path id="Trazado_874749" data-name="Trazado 874749" d="M1007.791,350.648a.249.249,0,0,1-.244-.3l1.808-8.556a.249.249,0,1,1,.487.1l-1.808,8.556a.249.249,0,0,1-.243.2" transform="translate(-756.661 -256.536)"/>
    <path id="Trazado_874750" data-name="Trazado 874750" d="M1045.245,253.477l-3.94-5.224s-5.964-.1-12.923.386a2.138,2.138,0,0,0-1.823,1.317l-4.068,9.809a21.728,21.728,0,0,0-1.506,10.873l1.14,9.655,24.445,1.209Z" transform="translate(-766.643 -186.431)" fill="#0b47db"/>
    <path id="Trazado_874751" data-name="Trazado 874751" d="M1098.312,316.536v-68.26a17.347,17.347,0,0,1,13.667,8.71c4.519,7.782,4.562,23.331,4.562,23.331l-4.006,2.422,6.711,28.975s-5.809,3.5-20.933,4.822" transform="translate(-824.829 -186.455)" fill="#fff"/>
    <path id="Trazado_874752" data-name="Trazado 874752" d="M1110.831,313.93a.249.249,0,0,1-.06-.491,33.609,33.609,0,0,0,7.439-2.6l-6.668-28.792a.248.248,0,0,1,.114-.269l3.885-2.348c-.02-1.571-.32-15.823-4.527-23.067a17.237,17.237,0,0,0-13.457-8.586.249.249,0,0,1,.006-.5h.006a17.747,17.747,0,0,1,13.877,8.834c4.5,7.75,4.595,23.3,4.6,23.456a.25.25,0,0,1-.12.214l-3.852,2.328,6.67,28.8a.25.25,0,0,1-.114.269,30.836,30.836,0,0,1-7.732,2.745.254.254,0,0,1-.06.007" transform="translate(-824.078 -185.705)"/>
    <path id="Trazado_874753" data-name="Trazado 874753" d="M1019.042,140.965c.148,1.647,1.7,2.268,2.253,3.334s-.112,2.038,1.123,3.672c1.21,1.6,2.52.849,3.511,1.539.961.668,1.7,1.9,2.8,2.357,1.064.44,2.352.055,3.511.277,1.115.214,2.235,1.072,3.406,1.066,1.122-.007,2.174-1.127,3.318-1.353s2.042.708,3.081.307c2.086-.805,1.562-1.8,2.494-2.424.969-.644,2.81-.479,3.916-1.583,1.272-1.27.321-2.336.92-3.313.618-1.008,2.055-.972,2.526-2.91.439-1.807-.5-2.645-.438-3.848.057-1.187,1.21-2.319.776-3.482-.667-1.787-1.813-1.871-2.367-2.936s-.3-2.685-1.035-3.652c-.965-1.277-2.506-.751-3.5-1.44-.961-.668-1.115-1.927-2.439-2.724-1.194-.719-2.7.294-3.856.071-1.115-.214-1.462-1.454-3.061-1.414-1.363.034-2.219,1.269-3.363,1.5s-2-.7-3.434-.148c-1.605.62-1.474,1.926-2.405,2.546-.969.644-2.149.212-3.367,1.312-1.328,1.2-.546,2.446-1.145,3.424-.618,1.008-2.184,1.532-2.539,2.648-.361,1.134.536,2.532.4,3.73-.17,1.545-1.251,1.672-1.091,3.45" transform="translate(-765.286 -92.003)"/>
    <path id="Trazado_874754" data-name="Trazado 874754" d="M1056.847,207.721l3.914,10.4-11.069,12.255,1.079-11.152,2.039-1.153-1.411-6.743Z" transform="translate(-788.315 -155.997)" fill="#fff"/>
    <path id="Trazado_874755" data-name="Trazado 874755" d="M1056.278,218.089a.249.249,0,0,1-.123-.466l.769-.435-1.374-6.565a.249.249,0,0,1,.106-.259l5.449-3.6a.249.249,0,0,1,.37.12l3.914,10.4a.249.249,0,1,1-.466.175l-3.8-10.1-5.048,3.338,1.377,6.577a.249.249,0,0,1-.121.268l-.927.524a.248.248,0,0,1-.122.032" transform="translate(-792.711 -155.247)"/>
    <path id="Trazado_874756" data-name="Trazado 874756" d="M1057.386,182.39a1.412,1.412,0,0,1,1.78-.17,1.793,1.793,0,0,1,.714,1.708,2.479,2.479,0,0,1-1.007,1.61,4.07,4.07,0,0,1-1.8.7,8.705,8.705,0,0,1-2.841,3.59,3.639,3.639,0,0,1-5.906-2.249,9.53,9.53,0,0,1-.108-2.942,31.121,31.121,0,0,1,1.606-7.609,6.538,6.538,0,0,0,3.107,1.323c1.244.158,1.782-.185,2.319.272.956.813.763,3.178.731,3.487-.039.379-.254,1.644.442,1.6.468-.032.686-1.014.962-1.32" transform="translate(-787.163 -132.95)" fill="#fff"/>
    <path id="Trazado_874757" data-name="Trazado 874757" d="M1051.008,190.086a3.55,3.55,0,0,1-2.033-.606,4.248,4.248,0,0,1-1.643-2.592,9.757,9.757,0,0,1-.114-3.018,31.373,31.373,0,0,1,1.619-7.67.249.249,0,0,1,.385-.117,5.9,5.9,0,0,0,4.144,1.3,1.642,1.642,0,0,1,1.294.3c1.072.912.847,3.419.818,3.7l-.014.12c-.028.241-.115.972.07,1.167a.135.135,0,0,0,.121.036c.158-.011.355-.428.472-.677a2.4,2.4,0,0,1,.322-.561h0a1.666,1.666,0,0,1,2.1-.209,2.045,2.045,0,0,1,.821,1.948,2.719,2.719,0,0,1-1.1,1.776,4.217,4.217,0,0,1-1.78.728,8.928,8.928,0,0,1-2.872,3.574,4.893,4.893,0,0,1-2.609.8m-1.808-13.4a30.867,30.867,0,0,0-1.485,7.23,9.307,9.307,0,0,0,.1,2.865,3.392,3.392,0,0,0,5.527,2.1,8.621,8.621,0,0,0,2.754-3.491.25.25,0,0,1,.184-.136,3.807,3.807,0,0,0,1.689-.658,2.22,2.22,0,0,0,.909-1.443,1.537,1.537,0,0,0-.606-1.468,1.168,1.168,0,0,0-1.456.13,2.228,2.228,0,0,0-.241.439c-.205.436-.439.931-.888.961a.628.628,0,0,1-.516-.189,2.06,2.06,0,0,1-.2-1.568l.013-.112c.089-.866.069-2.664-.645-3.271-.238-.2-.462-.2-.949-.18a6.8,6.8,0,0,1-1.24-.034,6.634,6.634,0,0,1-2.949-1.171" transform="translate(-786.41 -132.2)"/>
    <path id="Trazado_874758" data-name="Trazado 874758" d="M1081.5,206.9a.249.249,0,0,1-.205-.389,2.523,2.523,0,0,1,1.749-1.065.249.249,0,0,1,.061.495,2.016,2.016,0,0,0-1.4.852.248.248,0,0,1-.206.108" transform="translate(-812.015 -154.286)"/>
    <path id="Trazado_874759" data-name="Trazado 874759" d="M1047.456,375.385l-19.334,4.225a2.131,2.131,0,0,1-2.395-1.209l-12.38-27.309a2.183,2.183,0,0,1,1.51-3.037l18.836-4.116a2.16,2.16,0,0,1,2.427,1.225l12.572,27.733a1.789,1.789,0,0,1-1.237,2.488" transform="translate(-760.873 -258.26)"/>
    <path id="Trazado_874760" data-name="Trazado 874760" d="M1055.331,279.438s6.071-13.82,6.27-13.639,12.542,12.049,14.643,24.7-6.159,17.222-19.289,22.032-16.361,5.364-15.915,3.307a2.178,2.178,0,0,1-1.846-1.575,2.921,2.921,0,0,1-1.719-2.02s-3.365-1.46-.25-4.819l.762,1.681s4.071-.662,5.6-2.057.525-2.405-.286-2.79-3.2-2.117-2.769-3.079,4.249.529,5.634.481,13.416-5.919,16.52-8.185c0,0-4.058-9.657-7.353-14.038" transform="translate(-777.959 -199.613)" fill="#fff"/>
    <path id="Trazado_874761" data-name="Trazado 874761" d="M1035.849,352.268a.247.247,0,0,1-.175-.072c-.7-.695-1.552-2.209.619-4.55a.249.249,0,0,1,.41.066l.682,1.5c.808-.149,4.011-.8,5.285-1.962a1.629,1.629,0,0,0,.7-1.354c-.088-.586-.733-.934-.93-1.027-.642-.3-3.445-2.163-2.89-3.405.354-.793,1.969-.426,3.679-.036a10.847,10.847,0,0,0,2.174.37c1.279-.045,12.881-5.676,16.221-8.022-.578-1.352-4.255-9.826-7.244-13.8a.249.249,0,1,1,.4-.3c3.275,4.355,7.343,13.994,7.384,14.091a.249.249,0,0,1-.083.3c-2.983,2.178-15.126,8.179-16.658,8.232a10.777,10.777,0,0,1-2.3-.382c-1.094-.249-2.927-.667-3.114-.247-.313.7,1.721,2.312,2.649,2.752a1.757,1.757,0,0,1,.347,3.2c-1.565,1.429-5.558,2.091-5.728,2.119a.248.248,0,0,1-.267-.143l-.6-1.331c-1.189,1.41-1.323,2.642-.382,3.575a.249.249,0,0,1-.175.426" transform="translate(-777.21 -240.004)"/>
    <path id="Trazado_874762" data-name="Trazado 874762" d="M1140.252,309.432a.249.249,0,0,1-.1-.477c8.823-3.926,14.343-8.687,12.6-19.161-2.076-12.5-14.441-24.445-14.565-24.558a.249.249,0,1,1,.335-.368c.125.114,12.58,11.952,14.721,24.845,1.792,10.789-3.859,15.677-12.893,19.7a.246.246,0,0,1-.1.022" transform="translate(-854.716 -198.867)"/>
    <path id="Trazado_874763" data-name="Trazado 874763" d="M1105.763,413.574h-.005a.249.249,0,0,1-.244-.254,17.708,17.708,0,0,0-4.288-11.873.249.249,0,0,1,.376-.327,18.215,18.215,0,0,1,4.41,12.211.249.249,0,0,1-.249.244" transform="translate(-826.971 -301.176)"/>
    <path id="Trazado_874764" data-name="Trazado 874764" d="M1142.786,370.156a.249.249,0,0,1-.144-.452,19.525,19.525,0,0,0,2.481-2.078.249.249,0,1,1,.35.354,19.986,19.986,0,0,1-2.544,2.131.247.247,0,0,1-.143.046" transform="translate(-858.042 -276.032)"/>
    <path id="Trazado_874765" data-name="Trazado 874765" d="M1057.2,462.55l-.2,0a.249.249,0,1,1,.011-.5,8.541,8.541,0,0,0,4.571-1.214.249.249,0,1,1,.257.426,9.067,9.067,0,0,1-4.637,1.288" transform="translate(-793.617 -346.059)"/>
    <path id="Trazado_874766" data-name="Trazado 874766" d="M1050.124,456.1c-.091,0-.182,0-.273,0a.249.249,0,0,1-.241-.256.253.253,0,0,1,.256-.241,9.1,9.1,0,0,0,4.83-1.238.249.249,0,0,1,.253.429,9.612,9.612,0,0,1-4.825,1.311" transform="translate(-788.253 -341.2)"/>
    <path id="Trazado_874767" data-name="Trazado 874767" d="M1044.374,449.281a7.6,7.6,0,0,1-1.8-.213.249.249,0,0,1,.118-.484,7.352,7.352,0,0,0,5.8-1.056.249.249,0,0,1,.281.411,7.853,7.853,0,0,1-4.4,1.342" transform="translate(-782.829 -336.059)"/>
    <path id="Trazado_874768" data-name="Trazado 874768" d="M412.63,63.848a.249.249,0,0,1-.249-.249V42.812h-6.125a.249.249,0,1,1,0-.5h6.374a.249.249,0,0,1,.249.249V63.6a.249.249,0,0,1-.249.249" transform="translate(-304.91 -31.778)"/>
    <path id="Trazado_874769" data-name="Trazado 874769" d="M418.663,137.132a3.472,3.472,0,1,0,3.472-3.472,3.472,3.472,0,0,0-3.472,3.472" transform="translate(-314.415 -100.378)" fill="#00ffdf"/>
  </g>
</svg>
