<svg xmlns="http://www.w3.org/2000/svg" xmlns:xlink="http://www.w3.org/1999/xlink" width="305" height="204" viewBox="0 0 305 204">
  <defs>
    <clipPath id="clip-path">
      <rect id="Rectángulo_401260" data-name="Rectángulo 401260" width="305" height="204" transform="translate(0 0)" fill="none"/>
    </clipPath>
  </defs>
  <g id="Grupo_1101651" data-name="Grupo 1101651" transform="translate(0 0.031)">
    <g id="Grupo_1099394" data-name="Grupo 1099394" transform="translate(0 -0.031)" clip-path="url(#clip-path)">
      <path id="Trazado_874770" data-name="Trazado 874770" d="M188.768,101.413a3.774,3.774,0,0,0,5.59-1,15.476,15.476,0,0,0,4.439,1.265,3.792,3.792,0,1,0,7.474-.864,15.493,15.493,0,0,0,4.035-2.245,3.793,3.793,0,1,0,4.676-5.9,15.477,15.477,0,0,0,1.267-4.44,3.793,3.793,0,1,0-.862-7.475,15.471,15.471,0,0,0-2.244-4.034,3.835,3.835,0,0,0,.31-.342,3.792,3.792,0,1,0-5.943-4.712,3.839,3.839,0,0,0-.262.38,15.482,15.482,0,0,0-4.439-1.265,3.793,3.793,0,1,0-7.475.865A15.477,15.477,0,0,0,191.3,73.9a3.794,3.794,0,1,0-4.676,5.9,15.487,15.487,0,0,0-1.267,4.44,3.793,3.793,0,1,0,.862,7.475,15.463,15.463,0,0,0,2.244,4.034,3.773,3.773,0,0,0,.3,5.67m7.659-9.658a7.045,7.045,0,1,1,9.9-1.144,7.044,7.044,0,0,1-9.9,1.144" transform="translate(-137.075 -50.535)" fill="#fff"/>
      <path id="Trazado_874771" data-name="Trazado 874771" d="M201.823,104.99a4.037,4.037,0,0,1-4-3.575c-.01-.087-.017-.178-.021-.274a15.712,15.712,0,0,1-4.105-1.17c-.054.08-.107.153-.162.222a4.037,4.037,0,1,1-6.327-5.017c.054-.069.114-.138.18-.209a15.711,15.711,0,0,1-2.075-3.731c-.095.018-.185.032-.272.042a4.038,4.038,0,1,1-.925-8.022c.087-.01.178-.017.275-.021a15.716,15.716,0,0,1,1.171-4.106c-.08-.054-.154-.108-.222-.162a4.038,4.038,0,0,1,5.018-6.329c.069.054.138.114.209.18a15.718,15.718,0,0,1,3.731-2.077c-.018-.095-.032-.185-.042-.272a4.038,4.038,0,1,1,8.022-.928c.01.087.017.178.021.274a15.713,15.713,0,0,1,4.105,1.17c.054-.08.108-.154.162-.222a4.037,4.037,0,1,1,6.326,5.017c-.054.069-.114.138-.18.209a15.7,15.7,0,0,1,2.075,3.731c.1-.018.185-.033.272-.043a4.038,4.038,0,0,1,.925,8.022c-.087.01-.178.017-.274.021a15.726,15.726,0,0,1-1.171,4.106c.08.054.154.108.222.162a4.038,4.038,0,0,1-5.018,6.329c-.069-.055-.137-.114-.209-.18a15.727,15.727,0,0,1-3.731,2.077c.019.1.032.185.042.272a4.045,4.045,0,0,1-4.02,4.5m-8.22-5.573a.243.243,0,0,1,.1.022,15.223,15.223,0,0,0,4.369,1.245.245.245,0,0,1,.214.244,3.575,3.575,0,0,0,.021.431,3.548,3.548,0,1,0,7.049-.816,3.579,3.579,0,0,0-.078-.425.245.245,0,0,1,.152-.286,15.234,15.234,0,0,0,3.971-2.21.245.245,0,0,1,.324.022,3.548,3.548,0,1,0,4.373-5.516.245.245,0,0,1-.1-.31,15.223,15.223,0,0,0,1.247-4.37.249.249,0,0,1,.244-.214,3.514,3.514,0,0,0,.431-.021,3.548,3.548,0,1,0-1.237-6.971.245.245,0,0,1-.287-.152,15.223,15.223,0,0,0-2.208-3.97.245.245,0,0,1,.022-.324,3.583,3.583,0,0,0,.29-.319,3.547,3.547,0,1,0-5.8-4.053.245.245,0,0,1-.31.1,15.23,15.23,0,0,0-4.369-1.245.245.245,0,0,1-.213-.244,3.584,3.584,0,0,0-.021-.431,3.548,3.548,0,1,0-7.048.815,3.576,3.576,0,0,0,.077.424.245.245,0,0,1-.152.287,15.238,15.238,0,0,0-3.971,2.21.245.245,0,0,1-.324-.022A3.549,3.549,0,1,0,186,78.829a.245.245,0,0,1,.1.31,15.219,15.219,0,0,0-1.247,4.37.238.238,0,0,1-.244.214,3.607,3.607,0,0,0-.431.021,3.548,3.548,0,1,0,.812,7.049,3.607,3.607,0,0,0,.424-.078.245.245,0,0,1,.287.152,15.214,15.214,0,0,0,2.208,3.97.245.245,0,0,1-.022.324,3.473,3.473,0,0,0-.29.32,3.547,3.547,0,1,0,5.559,4.408,3.505,3.505,0,0,0,.245-.356.245.245,0,0,1,.209-.117m6.435-6.651a7.288,7.288,0,1,1,5.72-2.758,7.25,7.25,0,0,1-5.72,2.758m.019-14.082a6.794,6.794,0,1,0,4.216,1.468,6.792,6.792,0,0,0-4.216-1.468" transform="translate(-136.319 -49.779)"/>
      <path id="Trazado_874772" data-name="Trazado 874772" d="M112.817,34.45a2.282,2.282,0,0,0,2.835-1.939,9.362,9.362,0,0,0,2.762-.407,2.264,2.264,0,0,0,.127.249A2.294,2.294,0,0,0,122.479,30a2.351,2.351,0,0,0-.159-.23,9.353,9.353,0,0,0,1.666-2.241,2.294,2.294,0,1,0,1.111-4.414,9.364,9.364,0,0,0-.406-2.763,2.328,2.328,0,0,0,.248-.127,2.294,2.294,0,1,0-2.353-3.938,2.239,2.239,0,0,0-.229.159,9.366,9.366,0,0,0-2.24-1.666,2.294,2.294,0,1,0-4.412-1.111,9.362,9.362,0,0,0-2.762.407,2.266,2.266,0,0,0-.127-.249,2.294,2.294,0,1,0-3.938,2.355,2.322,2.322,0,0,0,.158.23,9.365,9.365,0,0,0-1.666,2.241,2.294,2.294,0,1,0-1.112,4.414,9.364,9.364,0,0,0,.406,2.763,2.293,2.293,0,1,0,2.1,4.066,2.347,2.347,0,0,0,.229-.159,9.357,9.357,0,0,0,2.24,1.666,2.27,2.27,0,0,0-.086.266,2.294,2.294,0,0,0,1.664,2.785m1.821-7.23a4.261,4.261,0,1,1,5.171-3.092,4.26,4.26,0,0,1-5.171,3.092" transform="translate(-78.716 -8.77)" fill="#e2eaff"/>
      <path id="Trazado_874773" data-name="Trazado 874773" d="M.245,194.655A.245.245,0,0,1,0,194.41V131.725a.245.245,0,0,1,.245-.245H36.881a.245.245,0,1,1,0,.49H.49V194.41a.245.245,0,0,1-.245.245" transform="translate(0 -99.245)"/>
      <path id="Trazado_874774" data-name="Trazado 874774" d="M1194.41,82.749a1.83,1.83,0,1,1,1.83,1.83,1.83,1.83,0,0,1-1.83-1.83" transform="translate(-901.861 -61.068)" fill="#5479f7"/>
      <path id="Trazado_874775" data-name="Trazado 874775" d="M1172.607,82.749a1.83,1.83,0,1,1,1.83,1.83,1.83,1.83,0,0,1-1.83-1.83" transform="translate(-885.399 -61.068)" fill="#5479f7"/>
      <path id="Trazado_874776" data-name="Trazado 874776" d="M1150.8,82.749a1.83,1.83,0,1,1,1.83,1.83,1.83,1.83,0,0,1-1.83-1.83" transform="translate(-868.935 -61.068)" fill="#fff"/>
      <path id="Trazado_874777" data-name="Trazado 874777" d="M1151.878,84.069a2.075,2.075,0,1,1,2.075-2.075,2.078,2.078,0,0,1-2.075,2.075m0-3.66a1.585,1.585,0,1,0,1.585,1.585,1.587,1.587,0,0,0-1.585-1.585" transform="translate(-868.18 -60.313)"/>
      <path id="Trazado_874778" data-name="Trazado 874778" d="M1224.326,121.818a.245.245,0,0,1-.245-.245V87.88h-6.218a.245.245,0,0,1,0-.49h6.463a.245.245,0,0,1,.245.245v33.938a.245.245,0,0,1-.245.245" transform="translate(-919.385 -65.954)"/>
      <path id="Trazado_874779" data-name="Trazado 874779" d="M1223.258,204.35a.245.245,0,0,1-.245-.245V178.517a.245.245,0,1,1,.49,0V204.1a.245.245,0,0,1-.245.245" transform="translate(-923.458 -134.576)"/>
      <path id="Trazado_874780" data-name="Trazado 874780" d="M1031.209,88.042h-20.763a.245.245,0,0,1,0-.49h20.763a.245.245,0,1,1,0,.49" transform="translate(-762.771 -66.076)"/>
      <path id="Trazado_874781" data-name="Trazado 874781" d="M1112.46,88.042h-6.573a.245.245,0,0,1,0-.49h6.573a.245.245,0,0,1,0,.49" transform="translate(-834.835 -66.076)"/>
      <path id="Trazado_874782" data-name="Trazado 874782" d="M1050.659,73.421h-7.014a.245.245,0,1,1,0-.49h7.014a.245.245,0,1,1,0,.49" transform="translate(-787.838 -55.036)"/>
      <path id="Trazado_874783" data-name="Trazado 874783" d="M1095.262,73.421H1083.11a.245.245,0,0,1,0-.49h12.152a.245.245,0,1,1,0,.49" transform="translate(-817.637 -55.036)"/>
      <path id="Trazado_874784" data-name="Trazado 874784" d="M521.549,470.887h53.462a4.626,4.626,0,0,0,4.626-4.626V454.226H516.923v12.035a4.626,4.626,0,0,0,4.626,4.626" transform="translate(-390.312 -342.94)" fill="#fff"/>
      <path id="Trazado_874785" data-name="Trazado 874785" d="M574.255,470.377H520.793a4.876,4.876,0,0,1-4.871-4.87V453.471a.245.245,0,0,1,.245-.245H578.88a.245.245,0,0,1,.245.245v12.035a4.876,4.876,0,0,1-4.87,4.87m-57.843-16.661v11.791a4.386,4.386,0,0,0,4.381,4.381h53.462a4.386,4.386,0,0,0,4.381-4.381V453.716Z" transform="translate(-389.556 -342.185)"/>
      <path id="Trazado_874786" data-name="Trazado 874786" d="M583.747,479.353H525.706a.245.245,0,0,1,0-.49h58.041a.245.245,0,0,1,0,.49" transform="translate(-396.759 -361.543)"/>
      <path id="Trazado_874787" data-name="Trazado 874787" d="M459.36,114.994H303.084a7.754,7.754,0,0,1-7.755-7.755V8.754A7.754,7.754,0,0,1,303.084,1H459.36a7.754,7.754,0,0,1,7.754,7.754v98.485a7.754,7.754,0,0,1-7.754,7.755" transform="translate(-222.994 -0.723)" fill="#fff"/>
      <path id="Trazado_874788" data-name="Trazado 874788" d="M458.605,114.483H302.328a8.008,8.008,0,0,1-8-8V8a8.008,8.008,0,0,1,8-8H458.605a8.008,8.008,0,0,1,8,8v98.485a8.008,8.008,0,0,1-8,8M302.328.49A7.518,7.518,0,0,0,294.819,8v98.485a7.518,7.518,0,0,0,7.51,7.509H458.605a7.518,7.518,0,0,0,7.51-7.509V8A7.518,7.518,0,0,0,458.605.49Z" transform="translate(-222.239 0.032)"/>
      <path id="Trazado_874789" data-name="Trazado 874789" d="M470.261,57.882H302.471a.245.245,0,1,1,0-.49h167.79a.245.245,0,1,1,0,.49" transform="translate(-228.201 -43.303)"/>
      <path id="Trazado_874790" data-name="Trazado 874790" d="M341.773,22.178a2.513,2.513,0,1,1-2.513-2.513,2.513,2.513,0,0,1,2.513,2.513" transform="translate(-254.267 -14.817)" fill="#5479f7"/>
      <path id="Trazado_874791" data-name="Trazado 874791" d="M375.687,22.178a2.513,2.513,0,1,1-2.513-2.513,2.513,2.513,0,0,1,2.513,2.513" transform="translate(-279.874 -14.817)" fill="#e2eaff"/>
      <path id="Trazado_874792" data-name="Trazado 874792" d="M406.333,24.18a2.758,2.758,0,1,1,2.758-2.758,2.761,2.761,0,0,1-2.758,2.758m0-5.026a2.268,2.268,0,1,0,2.268,2.268,2.271,2.271,0,0,0-2.268-2.268" transform="translate(-304.727 -14.061)"/>
      <path id="Trazado_874793" data-name="Trazado 874793" d="M724.666,154.431H649.678a.245.245,0,0,1,0-.49h74.988a.245.245,0,1,1,0,.49" transform="translate(-490.366 -116.204)"/>
      <path id="Trazado_874794" data-name="Trazado 874794" d="M499.952,154.431H456.993a.245.245,0,1,1,0-.49h42.959a.245.245,0,1,1,0,.49" transform="translate(-344.876 -116.204)"/>
      <path id="Trazado_874795" data-name="Trazado 874795" d="M411.106,154.431H400.388a.245.245,0,1,1,0-.49h10.718a.245.245,0,1,1,0,.49" transform="translate(-302.135 -116.204)"/>
      <path id="Trazado_874796" data-name="Trazado 874796" d="M343.007,152.042H331.843a.245.245,0,0,1-.245-.245v-2.271a.245.245,0,0,1,.245-.245h11.164a.245.245,0,0,1,.245.245V151.8a.245.245,0,0,1-.245.245m-10.919-.49h10.674v-1.781H332.088Z" transform="translate(-250.379 -112.686)"/>
      <path id="Trazado_874797" data-name="Trazado 874797" d="M669.082,179.988H576.063a.245.245,0,0,1,0-.49h93.019a.245.245,0,0,1,0,.49" transform="translate(-434.782 -135.502)"/>
      <path id="Trazado_874798" data-name="Trazado 874798" d="M440.391,179.988h-40a.245.245,0,1,1,0-.49h40a.245.245,0,1,1,0,.49" transform="translate(-302.135 -135.502)"/>
      <path id="Trazado_874799" data-name="Trazado 874799" d="M343.007,177.6H331.843a.245.245,0,0,1-.245-.245v-2.271a.245.245,0,0,1,.245-.245h11.164a.245.245,0,0,1,.245.245v2.271a.245.245,0,0,1-.245.245m-10.919-.49h10.674v-1.781H332.088Z" transform="translate(-250.379 -131.984)"/>
      <path id="Trazado_874800" data-name="Trazado 874800" d="M912.32,205.545H898.2a.245.245,0,1,1,0-.49H912.32a.245.245,0,1,1,0,.49" transform="translate(-678.02 -154.799)"/>
      <path id="Trazado_874801" data-name="Trazado 874801" d="M719.745,205.545H672.4a.245.245,0,0,1,0-.49h47.34a.245.245,0,0,1,0,.49" transform="translate(-507.527 -154.799)"/>
      <path id="Trazado_874802" data-name="Trazado 874802" d="M528.275,205.545H487.131a.245.245,0,1,1,0-.49h41.144a.245.245,0,0,1,0,.49" transform="translate(-367.632 -154.799)"/>
      <path id="Trazado_874803" data-name="Trazado 874803" d="M417.641,205.545H400.388a.245.245,0,1,1,0-.49h17.253a.245.245,0,0,1,0,.49" transform="translate(-302.135 -154.799)"/>
      <path id="Trazado_874804" data-name="Trazado 874804" d="M343.007,203.157H331.843a.245.245,0,0,1-.245-.245v-2.271a.245.245,0,0,1,.245-.245h11.164a.245.245,0,0,1,.245.245v2.271a.245.245,0,0,1-.245.245m-10.919-.49h10.674v-1.781H332.088Z" transform="translate(-250.379 -151.281)"/>
      <path id="Trazado_874805" data-name="Trazado 874805" d="M843.927,231.1h-36.3a.245.245,0,0,1,0-.49h36.3a.245.245,0,0,1,0,.49" transform="translate(-609.627 -174.097)"/>
      <path id="Trazado_874806" data-name="Trazado 874806" d="M735.684,231.1h-17.3a.245.245,0,1,1,0-.49h17.3a.245.245,0,0,1,0,.49" transform="translate(-542.247 -174.097)"/>
      <path id="Trazado_874807" data-name="Trazado 874807" d="M612.325,231.1H585.944a.245.245,0,0,1,0-.49h26.381a.245.245,0,0,1,0,.49" transform="translate(-442.243 -174.097)"/>
      <path id="Trazado_874808" data-name="Trazado 874808" d="M441,231.1H400.389a.245.245,0,0,1,0-.49H441a.245.245,0,0,1,0,.49" transform="translate(-302.136 -174.097)"/>
      <path id="Trazado_874809" data-name="Trazado 874809" d="M343.007,228.714H331.843a.245.245,0,0,1-.245-.245V226.2a.245.245,0,0,1,.245-.245h11.164a.245.245,0,0,1,.245.245v2.271a.245.245,0,0,1-.245.245m-10.919-.49h10.674v-1.781H332.088Z" transform="translate(-250.379 -170.578)"/>
      <rect id="Rectángulo_401257" data-name="Rectángulo 401257" width="153.324" height="8.895" transform="translate(81.305 21.838)" fill="#e2eaff"/>
      <rect id="Rectángulo_401258" data-name="Rectángulo 401258" width="153.623" height="8.895" transform="translate(81.305 64.009)" fill="#a854f3"/>
      <path id="Trazado_874810" data-name="Trazado 874810" d="M482.2,324.984H333.86a2.746,2.746,0,0,1,0-5.491H482.2a2.746,2.746,0,0,1,0,5.491" transform="translate(-250.014 -241.207)" fill="#e2eaff"/>
      <path id="Trazado_874811" data-name="Trazado 874811" d="M482.2,368.925H333.86a2.746,2.746,0,0,1,0-5.491H482.2a2.746,2.746,0,0,1,0,5.491" transform="translate(-250.014 -274.386)" fill="#e2eaff"/>
      <path id="Trazado_874812" data-name="Trazado 874812" d="M482.2,412.865H333.86a2.746,2.746,0,0,1,0-5.491H482.2a2.746,2.746,0,0,1,0,5.491" transform="translate(-250.014 -307.564)" fill="#e2eaff"/>
      <path id="Trazado_874813" data-name="Trazado 874813" d="M830.681,428.468H728.892a6.459,6.459,0,0,1-6.459-6.458V361.916a6.459,6.459,0,0,1,6.459-6.458H830.681a6.458,6.458,0,0,1,6.459,6.458V422.01a6.458,6.458,0,0,1-6.459,6.458" transform="translate(-545.486 -268.363)" fill="#fff"/>
      <path id="Trazado_874814" data-name="Trazado 874814" d="M829.926,427.958H728.136a6.711,6.711,0,0,1-6.7-6.7V361.161a6.711,6.711,0,0,1,6.7-6.7h101.79a6.711,6.711,0,0,1,6.7,6.7v60.094a6.711,6.711,0,0,1-6.7,6.7m-101.79-73.01a6.22,6.22,0,0,0-6.214,6.213v60.094a6.22,6.22,0,0,0,6.214,6.213h101.79a6.22,6.22,0,0,0,6.213-6.213V361.161a6.22,6.22,0,0,0-6.213-6.213Z" transform="translate(-544.731 -267.608)"/>
      <path id="Trazado_874815" data-name="Trazado 874815" d="M796.879,406.738H778.357a1.99,1.99,0,0,1-1.988-1.988V404.5a1.99,1.99,0,0,1,1.988-1.988h18.522a1.99,1.99,0,0,1,1.988,1.988v.254a1.99,1.99,0,0,1-1.988,1.988M778.357,403a1.5,1.5,0,0,0-1.5,1.5v.254a1.5,1.5,0,0,0,1.5,1.5h18.522a1.5,1.5,0,0,0,1.5-1.5V404.5a1.5,1.5,0,0,0-1.5-1.5Z" transform="translate(-586.212 -303.889)" fill="#5479f7"/>
      <path id="Trazado_874816" data-name="Trazado 874816" d="M807.063,439.314h-9.4a1.99,1.99,0,0,1-1.988-1.988v-.253a1.99,1.99,0,0,1,1.988-1.988h9.4a1.99,1.99,0,0,1,1.988,1.988v.253a1.99,1.99,0,0,1-1.988,1.988m-9.4-3.74a1.5,1.5,0,0,0-1.5,1.5v.253a1.5,1.5,0,0,0,1.5,1.5h9.4a1.5,1.5,0,0,0,1.5-1.5v-.253a1.5,1.5,0,0,0-1.5-1.5Z" transform="translate(-600.791 -328.487)" fill="#5479f7"/>
      <path id="Trazado_874817" data-name="Trazado 874817" d="M792.484,471.89H778.357a1.99,1.99,0,0,1-1.988-1.988v-.254a1.99,1.99,0,0,1,1.988-1.988h14.126a1.99,1.99,0,0,1,1.988,1.988v.254a1.99,1.99,0,0,1-1.988,1.988m-14.126-3.74a1.5,1.5,0,0,0-1.5,1.5v.254a1.5,1.5,0,0,0,1.5,1.5h14.126a1.5,1.5,0,0,0,1.5-1.5v-.254a1.5,1.5,0,0,0-1.5-1.5Z" transform="translate(-586.212 -353.084)" fill="#5479f7"/>
      <path id="Trazado_874818" data-name="Trazado 874818" d="M809.015,504.466h-8.764a1.99,1.99,0,0,1-1.988-1.988v-.254a1.99,1.99,0,0,1,1.988-1.988h8.764A1.99,1.99,0,0,1,811,502.224v.254a1.99,1.99,0,0,1-1.988,1.988m-8.764-3.74a1.5,1.5,0,0,0-1.5,1.5v.254a1.5,1.5,0,0,0,1.5,1.5h8.764a1.5,1.5,0,0,0,1.5-1.5v-.254a1.5,1.5,0,0,0-1.5-1.5Z" transform="translate(-602.743 -377.681)" fill="#5479f7"/>
      <path id="Trazado_874819" data-name="Trazado 874819" d="M803.519,556.587H792.972a1.99,1.99,0,0,1-1.988-1.988v-.253a1.99,1.99,0,0,1,1.988-1.988h10.547a1.991,1.991,0,0,1,1.988,1.988v.253a1.99,1.99,0,0,1-1.988,1.988m-10.547-3.74a1.5,1.5,0,0,0-1.5,1.5v.253a1.5,1.5,0,0,0,1.5,1.5h10.547a1.5,1.5,0,0,0,1.5-1.5v-.253a1.5,1.5,0,0,0-1.5-1.5Z" transform="translate(-597.247 -417.036)" fill="#5479f7"/>
      <path id="Trazado_874820" data-name="Trazado 874820" d="M803.519,589.163H792.972a1.99,1.99,0,0,1-1.988-1.988v-.253a1.99,1.99,0,0,1,1.988-1.988h10.547a1.99,1.99,0,0,1,1.988,1.988v.253a1.991,1.991,0,0,1-1.988,1.988m-10.547-3.74a1.5,1.5,0,0,0-1.5,1.5v.253a1.5,1.5,0,0,0,1.5,1.5h10.547a1.5,1.5,0,0,0,1.5-1.5v-.253a1.5,1.5,0,0,0-1.5-1.5Z" transform="translate(-597.247 -441.633)" fill="#5479f7"/>
      <path id="Trazado_874821" data-name="Trazado 874821" d="M880.8,407.249h14.126a1.743,1.743,0,0,0,1.743-1.743v-.253a1.743,1.743,0,0,0-1.743-1.743H880.8a1.743,1.743,0,0,0-1.743,1.743v.253a1.743,1.743,0,0,0,1.743,1.743" transform="translate(-663.749 -304.645)" fill="#e2eaff"/>
      <path id="Trazado_874822" data-name="Trazado 874822" d="M862.856,439.824h14.126a1.743,1.743,0,0,0,1.743-1.743v-.254a1.743,1.743,0,0,0-1.743-1.743H862.856a1.743,1.743,0,0,0-1.743,1.743v.254a1.743,1.743,0,0,0,1.743,1.743" transform="translate(-650.199 -329.242)" fill="#fff"/>
      <path id="Trazado_874823" data-name="Trazado 874823" d="M876.227,439.314H862.1a1.99,1.99,0,0,1-1.988-1.988v-.253a1.99,1.99,0,0,1,1.988-1.988h14.126a1.99,1.99,0,0,1,1.988,1.988v.253a1.99,1.99,0,0,1-1.988,1.988m-14.126-3.74a1.5,1.5,0,0,0-1.5,1.5v.253a1.5,1.5,0,0,0,1.5,1.5h14.126a1.5,1.5,0,0,0,1.5-1.5v-.253a1.5,1.5,0,0,0-1.5-1.5Z" transform="translate(-649.443 -328.487)"/>
      <path id="Trazado_874824" data-name="Trazado 874824" d="M862.856,472.4h34.638a1.743,1.743,0,0,0,1.743-1.743V470.4a1.743,1.743,0,0,0-1.743-1.743H862.856a1.743,1.743,0,0,0-1.743,1.743v.254a1.743,1.743,0,0,0,1.743,1.743" transform="translate(-650.199 -353.839)" fill="#fff"/>
      <path id="Trazado_874825" data-name="Trazado 874825" d="M896.738,471.89H862.1a1.99,1.99,0,0,1-1.988-1.988v-.254a1.99,1.99,0,0,1,1.988-1.988h34.638a1.99,1.99,0,0,1,1.989,1.988v.254a1.99,1.99,0,0,1-1.989,1.988M862.1,468.15a1.5,1.5,0,0,0-1.5,1.5v.254a1.5,1.5,0,0,0,1.5,1.5h34.638a1.5,1.5,0,0,0,1.5-1.5v-.254a1.5,1.5,0,0,0-1.5-1.5Z" transform="translate(-649.443 -353.084)"/>
      <path id="Trazado_874826" data-name="Trazado 874826" d="M862.856,504.976h14.126a1.743,1.743,0,0,0,1.743-1.743v-.253a1.743,1.743,0,0,0-1.743-1.743H862.856a1.743,1.743,0,0,0-1.743,1.743v.253a1.743,1.743,0,0,0,1.743,1.743" transform="translate(-650.199 -378.436)" fill="#fff"/>
      <path id="Trazado_874827" data-name="Trazado 874827" d="M876.227,504.466H862.1a1.99,1.99,0,0,1-1.988-1.988v-.254a1.99,1.99,0,0,1,1.988-1.988h14.126a1.99,1.99,0,0,1,1.988,1.988v.254a1.99,1.99,0,0,1-1.988,1.988m-14.126-3.74a1.5,1.5,0,0,0-1.5,1.5v.254a1.5,1.5,0,0,0,1.5,1.5h14.126a1.5,1.5,0,0,0,1.5-1.5v-.254a1.5,1.5,0,0,0-1.5-1.5Z" transform="translate(-649.443 -377.681)"/>
      <path id="Trazado_874828" data-name="Trazado 874828" d="M862.856,557.1h8.266a1.743,1.743,0,0,0,1.743-1.743V555.1a1.743,1.743,0,0,0-1.743-1.743h-8.266a1.743,1.743,0,0,0-1.743,1.743v.253a1.743,1.743,0,0,0,1.743,1.743" transform="translate(-650.199 -417.792)" fill="#fff"/>
      <path id="Trazado_874829" data-name="Trazado 874829" d="M870.367,556.587H862.1a1.99,1.99,0,0,1-1.988-1.988v-.253a1.99,1.99,0,0,1,1.988-1.988h8.266a1.991,1.991,0,0,1,1.988,1.988v.253a1.991,1.991,0,0,1-1.988,1.988m-8.266-3.74a1.5,1.5,0,0,0-1.5,1.5v.253a1.5,1.5,0,0,0,1.5,1.5h8.266a1.5,1.5,0,0,0,1.5-1.5v-.253a1.5,1.5,0,0,0-1.5-1.5Z" transform="translate(-649.443 -417.036)"/>
      <path id="Trazado_874830" data-name="Trazado 874830" d="M862.856,589.673h14.126a1.743,1.743,0,0,0,1.743-1.743v-.253a1.743,1.743,0,0,0-1.743-1.743H862.856a1.743,1.743,0,0,0-1.743,1.743v.253a1.743,1.743,0,0,0,1.743,1.743" transform="translate(-650.199 -442.388)" fill="#fff"/>
      <path id="Trazado_874831" data-name="Trazado 874831" d="M876.227,589.163H862.1a1.99,1.99,0,0,1-1.988-1.988v-.253a1.99,1.99,0,0,1,1.988-1.988h14.126a1.99,1.99,0,0,1,1.988,1.988v.253a1.99,1.99,0,0,1-1.988,1.988m-14.126-3.74a1.5,1.5,0,0,0-1.5,1.5v.253a1.5,1.5,0,0,0,1.5,1.5h14.126a1.5,1.5,0,0,0,1.5-1.5v-.253a1.5,1.5,0,0,0-1.5-1.5Z" transform="translate(-649.443 -441.633)"/>
      <path id="Trazado_874832" data-name="Trazado 874832" d="M964.544,407.249h14.126a1.743,1.743,0,0,0,1.743-1.743v-.253a1.743,1.743,0,0,0-1.743-1.743H964.544a1.743,1.743,0,0,0-1.743,1.743v.253a1.743,1.743,0,0,0,1.743,1.743" transform="translate(-726.981 -304.645)" fill="#fff"/>
      <path id="Trazado_874833" data-name="Trazado 874833" d="M977.915,406.738H963.788a1.99,1.99,0,0,1-1.988-1.988V404.5a1.991,1.991,0,0,1,1.988-1.988h14.126A1.99,1.99,0,0,1,979.9,404.5v.254a1.99,1.99,0,0,1-1.988,1.988M963.788,403a1.5,1.5,0,0,0-1.5,1.5v.254a1.5,1.5,0,0,0,1.5,1.5h14.126a1.5,1.5,0,0,0,1.5-1.5V404.5a1.5,1.5,0,0,0-1.5-1.5Z" transform="translate(-726.225 -303.889)"/>
      <path id="Trazado_874834" data-name="Trazado 874834" d="M946.6,439.824h9.047a1.743,1.743,0,0,0,1.743-1.743v-.254a1.743,1.743,0,0,0-1.743-1.743H946.6a1.743,1.743,0,0,0-1.743,1.743v.254a1.743,1.743,0,0,0,1.743,1.743" transform="translate(-713.431 -329.242)" fill="#e2eaff"/>
      <path id="Trazado_874835" data-name="Trazado 874835" d="M1030.342,472.4h19.36a1.743,1.743,0,0,0,1.743-1.743V470.4a1.743,1.743,0,0,0-1.743-1.743h-19.36a1.743,1.743,0,0,0-1.743,1.743v.254a1.743,1.743,0,0,0,1.743,1.743" transform="translate(-776.663 -353.839)" fill="#fff"/>
      <path id="Trazado_874836" data-name="Trazado 874836" d="M1048.947,471.89h-19.36a1.99,1.99,0,0,1-1.988-1.988v-.254a1.99,1.99,0,0,1,1.988-1.988h19.36a1.99,1.99,0,0,1,1.988,1.988v.254a1.99,1.99,0,0,1-1.988,1.988m-19.36-3.74a1.5,1.5,0,0,0-1.5,1.5v.254a1.5,1.5,0,0,0,1.5,1.5h19.36a1.5,1.5,0,0,0,1.5-1.5v-.254a1.5,1.5,0,0,0-1.5-1.5Z" transform="translate(-775.908 -353.084)"/>
      <path id="Trazado_874837" data-name="Trazado 874837" d="M946.6,504.976h20.24a1.743,1.743,0,0,0,1.743-1.743v-.253a1.743,1.743,0,0,0-1.743-1.743H946.6a1.743,1.743,0,0,0-1.743,1.743v.253a1.743,1.743,0,0,0,1.743,1.743" transform="translate(-713.431 -378.436)" fill="#fff"/>
      <path id="Trazado_874838" data-name="Trazado 874838" d="M966.084,504.466h-20.24a1.99,1.99,0,0,1-1.988-1.988v-.254a1.99,1.99,0,0,1,1.988-1.988h20.24a1.99,1.99,0,0,1,1.988,1.988v.254a1.99,1.99,0,0,1-1.988,1.988m-20.24-3.74a1.5,1.5,0,0,0-1.5,1.5v.254a1.5,1.5,0,0,0,1.5,1.5h20.24a1.5,1.5,0,0,0,1.5-1.5v-.254a1.5,1.5,0,0,0-1.5-1.5Z" transform="translate(-712.676 -377.681)"/>
      <path id="Trazado_874839" data-name="Trazado 874839" d="M922.672,557.1h19.987a1.743,1.743,0,0,0,1.743-1.743V555.1a1.743,1.743,0,0,0-1.743-1.743H922.672a1.743,1.743,0,0,0-1.743,1.743v.254a1.743,1.743,0,0,0,1.743,1.743" transform="translate(-695.364 -417.791)" fill="#fff"/>
      <path id="Trazado_874840" data-name="Trazado 874840" d="M941.9,556.587H921.916a1.99,1.99,0,0,1-1.988-1.988v-.253a1.991,1.991,0,0,1,1.988-1.988H941.9a1.99,1.99,0,0,1,1.988,1.988v.253a1.99,1.99,0,0,1-1.988,1.988m-19.987-3.74a1.5,1.5,0,0,0-1.5,1.5v.253a1.5,1.5,0,0,0,1.5,1.5H941.9a1.5,1.5,0,0,0,1.5-1.5v-.253a1.5,1.5,0,0,0-1.5-1.5Z" transform="translate(-694.609 -417.036)"/>
      <path id="Trazado_874841" data-name="Trazado 874841" d="M946.6,589.673h30.242a1.743,1.743,0,0,0,1.743-1.743v-.253a1.743,1.743,0,0,0-1.743-1.743H946.6a1.743,1.743,0,0,0-1.743,1.743v.253a1.743,1.743,0,0,0,1.743,1.743" transform="translate(-713.431 -442.388)" fill="#e2eaff"/>
      <rect id="Rectángulo_401259" data-name="Rectángulo 401259" width="49.788" height="18.29" transform="translate(255.151 74.641)" fill="#00ffdf"/>
      <path id="Trazado_874842" data-name="Trazado 874842" d="M1160.8,333.477a.245.245,0,0,1-.173-.418l3.651-3.65-3.651-3.651a.245.245,0,1,1,.346-.346l3.824,3.824a.245.245,0,0,1,0,.346l-3.824,3.824a.245.245,0,0,1-.173.072" transform="translate(-876.297 -245.622)" fill="#fff"/>
      <path id="Trazado_874843" data-name="Trazado 874843" d="M1116.43,333.477a.244.244,0,0,1-.173-.072l-3.824-3.824a.245.245,0,0,1,0-.346l3.824-3.824a.245.245,0,1,1,.346.346l-3.651,3.651,3.651,3.65a.245.245,0,0,1-.173.418" transform="translate(-839.909 -245.622)" fill="#fff"/>
      <path id="Trazado_874844" data-name="Trazado 874844" d="M1136.193,333.283a.245.245,0,0,1-.218-.356l3.986-7.834a.245.245,0,1,1,.436.222l-3.986,7.834a.244.244,0,0,1-.218.134" transform="translate(-857.718 -245.334)" fill="#fff"/>
      <path id="Trazado_874845" data-name="Trazado 874845" d="M891.813,771H842.154a.245.245,0,0,1,0-.49h49.414V751.461a.245.245,0,0,1,.245-.245h48.826a.245.245,0,1,1,0,.49H892.057v19.052a.245.245,0,0,1-.245.245" transform="translate(-635.699 -567.188)"/>
      <path id="Trazado_874846" data-name="Trazado 874846" d="M1115.131,591.24a65.3,65.3,0,0,1-3.126-36.9s11.363,9.522,7.267,36.9Z" transform="translate(-838.657 -418.529)" fill="#fff"/>
      <path id="Trazado_874847" data-name="Trazado 874847" d="M1118.553,590.73h-4.141a.245.245,0,0,1-.223-.143,66.15,66.15,0,0,1-3.143-37.055.245.245,0,0,1,.4-.139c.118.1,2.915,2.487,5.24,8.28,2.136,5.323,4.237,14.649,2.112,28.849a.245.245,0,0,1-.242.209m-3.98-.49h3.769c2.054-13.949,0-23.109-2.1-28.347a23.506,23.506,0,0,0-4.8-7.831,65.919,65.919,0,0,0,3.132,36.178" transform="translate(-837.938 -417.774)"/>
      <path id="Trazado_874848" data-name="Trazado 874848" d="M1122.638,597.521h-.014a.245.245,0,0,1-.231-.258c.561-10.271-4.071-32.2-4.117-32.418a.245.245,0,0,1,.479-.1c.047.221,4.692,22.211,4.128,32.547a.245.245,0,0,1-.245.231" transform="translate(-844.37 -426.241)"/>
      <path id="Trazado_874849" data-name="Trazado 874849" d="M1147.114,586.869a26.987,26.987,0,0,0-4.432,6.13c-4.655,8.854-2.959,17.83-2.155,21.131h3.04a61.474,61.474,0,0,0,2.368-8.06,62.4,62.4,0,0,0,1.178-19.2" transform="translate(-860.442 -443.095)" fill="#fff"/>
      <path id="Trazado_874850" data-name="Trazado 874850" d="M1142.833,613.619h-3.04a.245.245,0,0,1-.238-.187c-1.067-4.381-2.2-12.974,2.176-21.3a27.27,27.27,0,0,1,4.471-6.186.245.245,0,0,1,.421.147,61.991,61.991,0,0,1-3.561,27.368.245.245,0,0,1-.23.16m-2.847-.49h2.676a61.485,61.485,0,0,0,3.522-26.45,26.723,26.723,0,0,0-4.019,5.678c-4.242,8.069-3.215,16.4-2.179,20.772" transform="translate(-859.707 -442.34)"/>
      <path id="Trazado_874851" data-name="Trazado 874851" d="M1148.287,639.739a.245.245,0,0,1-.245-.232,62.943,62.943,0,0,1,2.991-22.844.245.245,0,0,1,.466.151,62.43,62.43,0,0,0-2.968,22.666.245.245,0,0,1-.231.258h-.013" transform="translate(-866.782 -465.464)"/>
      <path id="Trazado_874852" data-name="Trazado 874852" d="M1085.262,624.31s8.047,2.745,10.961,19h-3.165s-6.605-8.927-7.8-19" transform="translate(-819.447 -471.365)" fill="#fff"/>
      <path id="Trazado_874853" data-name="Trazado 874853" d="M1095.468,642.8H1092.3a.245.245,0,0,1-.2-.1c-.066-.09-6.658-9.1-7.842-19.117a.245.245,0,0,1,.322-.261c.334.114,8.217,2.978,11.123,19.189a.245.245,0,0,1-.241.288m-3.04-.49h2.746c-2.525-13.657-8.772-17.565-10.37-18.356,1.227,9.16,6.917,17.366,7.624,18.356" transform="translate(-818.692 -470.61)"/>
      <path id="Trazado_874854" data-name="Trazado 874854" d="M1102.248,654.215a.245.245,0,0,1-.241-.205c-1.2-7.232-6.375-14.515-6.428-14.588a.245.245,0,1,1,.4-.286c.053.074,5.3,7.45,6.513,14.793a.245.245,0,0,1-.2.282.249.249,0,0,1-.04,0" transform="translate(-827.203 -482.483)"/>
      <path id="Trazado_874855" data-name="Trazado 874855" d="M1097.912,696.616h19.853l.445,9.391a4.038,4.038,0,0,1-4.033,4.229h-11.339a4.935,4.935,0,0,1-4.935-4.939Z" transform="translate(-828.993 -525.961)" fill="#fff"/>
      <path id="Trazado_874856" data-name="Trazado 874856" d="M1113.422,709.725h-11.339a5.18,5.18,0,0,1-5.18-5.185l.008-8.68a.245.245,0,0,1,.245-.245h19.853a.245.245,0,0,1,.245.233l.445,9.391a4.282,4.282,0,0,1-4.278,4.485M1097.4,696.106l-.008,8.435a4.69,4.69,0,0,0,4.69,4.694h11.339a3.793,3.793,0,0,0,3.788-3.972l-.434-9.158Z" transform="translate(-828.238 -525.206)"/>
      <path id="Trazado_874857" data-name="Trazado 874857" d="M7.623,545.313a.249.249,0,0,1-.048,0,.245.245,0,0,1-.192-.289l18.123-89.951a.245.245,0,0,1,.48.1L7.863,545.116a.245.245,0,0,1-.24.2" transform="translate(-5.571 -343.428)"/>
      <path id="Trazado_874858" data-name="Trazado 874858" d="M.5,817.174a1.93,1.93,0,1,0,1.93-1.93,1.93,1.93,0,0,0-1.93,1.93" transform="translate(-0.378 -615.533)"/>
      <path id="Trazado_874859" data-name="Trazado 874859" d="M139.328,545.313a.245.245,0,0,1-.24-.2l-18.124-89.951a.245.245,0,0,1,.48-.1l18.124,89.951a.245.245,0,0,1-.192.289.251.251,0,0,1-.049,0" transform="translate(-91.332 -343.428)"/>
      <path id="Trazado_874860" data-name="Trazado 874860" d="M191.934,817.174a1.93,1.93,0,1,1-1.93-1.93,1.93,1.93,0,0,1,1.93,1.93" transform="translate(-142.01 -615.533)"/>
      <path id="Trazado_874861" data-name="Trazado 874861" d="M53.94,705.409H34.792a.245.245,0,0,1,0-.49H53.94a.245.245,0,0,1,0,.49" transform="translate(-26.085 -532.23)"/>
      <path id="Trazado_874862" data-name="Trazado 874862" d="M59.174,722.465H41.423a.245.245,0,1,1,0-.49H59.174a.245.245,0,0,1,0,.49" transform="translate(-31.092 -545.109)"/>
      <path id="Trazado_874863" data-name="Trazado 874863" d="M82.974,484.643l47.041,77.606a4.833,4.833,0,0,0,4.133,2.328H160.5a.854.854,0,0,0,.475-1.563l-10.352-6.939S117.389,501,106,478.153Z" transform="translate(-62.651 -361.007)" fill="#fff"/>
      <path id="Trazado_874864" data-name="Trazado 874864" d="M159.741,564.066H133.392a5.105,5.105,0,0,1-4.342-2.446L82.009,484.014a.245.245,0,0,1,.143-.363l23.022-6.49a.245.245,0,0,1,.286.126c11.116,22.3,43.451,75.975,44.587,77.858l10.307,6.909a1.1,1.1,0,0,1-.612,2.011m-77.147-80.03,46.874,77.33a4.614,4.614,0,0,0,3.924,2.21h26.349a.609.609,0,0,0,.339-1.114l-10.352-6.939a.241.241,0,0,1-.073-.077c-.332-.549-33.191-55.048-44.543-77.757Z" transform="translate(-61.895 -360.251)"/>
      <path id="Trazado_874865" data-name="Trazado 874865" d="M276.254,802.021a.245.245,0,0,1-.04-.487l19-3.159a.245.245,0,1,1,.08.483l-19,3.159a.263.263,0,0,1-.04,0" transform="translate(-208.406 -602.795)"/>
      <path id="Trazado_874866" data-name="Trazado 874866" d="M125.876,480.141c-9.977-10.382-24.45-25.012-27.011-27.6C95.35,454.486,77.3,462.885,77.3,462.885l30.782,28.762L89.6,515.807a4.127,4.127,0,0,0,.351,5.417l14.189,14.271a1.324,1.324,0,0,0,2.262-.988l-.417-10.131c3.69-3.333,13.949-16.663,20.989-26.009a14.077,14.077,0,0,0-1.093-18.226" transform="translate(-58.365 -341.669)" fill="#fff"/>
      <path id="Trazado_874867" data-name="Trazado 874867" d="M104.309,535.38a1.544,1.544,0,0,1-1.1-.468L89.019,520.641a4.387,4.387,0,0,1-.372-5.738l18.348-23.983L76.375,462.309a.245.245,0,0,1,.064-.4c.181-.084,18.086-8.418,21.554-10.335a.245.245,0,0,1,.292.042c2.775,2.8,17.119,17.305,27.013,27.6a14.265,14.265,0,0,1,1.112,18.543c-7.53,10-17.244,22.573-20.935,25.965l.412,10.017a1.54,1.54,0,0,1-.94,1.5,1.6,1.6,0,0,1-.64.136M76.974,462.2l30.517,28.514a.245.245,0,0,1,.027.328L89.036,515.2a3.9,3.9,0,0,0,.33,5.095l14.189,14.272a1.079,1.079,0,0,0,1.844-.805l-.417-10.131a.245.245,0,0,1,.081-.192c3.6-3.248,13.382-15.918,20.957-25.974a13.777,13.777,0,0,0-1.075-17.909c-9.746-10.142-23.813-24.368-26.878-27.465-3.549,1.921-18.662,8.976-21.092,10.108" transform="translate(-57.61 -340.913)"/>
      <path id="Trazado_874868" data-name="Trazado 874868" d="M150.646,711.393a.251.251,0,0,1-.082-.014,21.385,21.385,0,0,1-12.022-10.755.245.245,0,1,1,.441-.214,20.891,20.891,0,0,0,11.745,10.507.245.245,0,0,1-.082.476" transform="translate(-104.59 -528.722)"/>
      <path id="Trazado_874869" data-name="Trazado 874869" d="M132.026,335.832c.215,4.129-.609,6.634-1.819,11.355a53.989,53.989,0,0,0-2.1,11.313l-14.051,5.28a67.481,67.481,0,0,1,2.9-21.048c1.7-5.327,3.162-6.223,5.515-11.621a28.746,28.746,0,0,1,3-4.469c.472-.627.834-1.076,1.382-1.135,1.328-.143,2.56,2.14,3.109,3.158a17.75,17.75,0,0,1,2.063,7.166" transform="translate(-86.118 -245.744)" fill="#fff"/>
      <path id="Trazado_874870" data-name="Trazado 874870" d="M113.3,363.271a.245.245,0,0,1-.245-.243A67.74,67.74,0,0,1,115.97,341.9a30.453,30.453,0,0,1,2.948-6.568,50.231,50.231,0,0,0,2.575-5.076,28.7,28.7,0,0,1,3.028-4.518c.448-.6.872-1.158,1.551-1.231,1.491-.158,2.747,2.167,3.35,3.285a18.062,18.062,0,0,1,2.092,7.27c.192,3.686-.45,6.145-1.421,9.866-.129.5-.265,1.014-.405,1.563l-.139.54a51.257,51.257,0,0,0-1.955,10.721.245.245,0,0,1-.159.22l-14.051,5.281a.244.244,0,0,1-.086.016m12.921-38.279a.887.887,0,0,0-.1.005c-.436.047-.749.423-1.212,1.039a29.4,29.4,0,0,0-2.971,4.42,50.717,50.717,0,0,1-2.6,5.121,30.031,30.031,0,0,0-2.909,6.476,66.99,66.99,0,0,0-2.894,20.621l13.57-5.1a52.422,52.422,0,0,1,1.963-10.662l.138-.54c.141-.55.277-1.069.406-1.565.994-3.808,1.594-6.106,1.406-9.716a17.545,17.545,0,0,0-2.034-7.063c-.5-.919-1.639-3.036-2.772-3.036" transform="translate(-85.363 -244.989)"/>
      <path id="Trazado_874871" data-name="Trazado 874871" d="M56.642,311.984s4.948,2.08,6.062,6.126-14.678,63.682-14.678,63.682L30.195,366.974a9.936,9.936,0,0,1-2.743-11.646l17.082-38.794s7.459-6.216,12.11-4.55" transform="translate(-20.091 -235.323)" fill="#0b47db"/>
      <path id="Trazado_874872" data-name="Trazado 874872" d="M159.422,333.353c-6.7.242-13.81.4-14.756-.237-1.809-1.209-7.661-5.343-10.323-11.214s-9.517-9.045-9.517-9.045l-7.916,15.225s17.624,16.767,27.756,16.556c4.879-.1,10.146-.559,14.421-1.035a21.425,21.425,0,0,1,.335-10.251" transform="translate(-88.275 -236.198)" fill="#0b47db"/>
      <path id="Trazado_874873" data-name="Trazado 874873" d="M305.925,398.65a5.746,5.746,0,0,0-1.079-1.9c-1.256-1.67-2.639-3.433-4.631-4.063a10.168,10.168,0,0,0-4.057-.15c-1.617.158-8.686.959-10.093,1.107-1.222.129-1.822,6.54-1.155,8.894a2.172,2.172,0,0,0,.57,1.081,2.283,2.283,0,0,0,2.139.144,17.921,17.921,0,0,0,7.08-4.02,2.9,2.9,0,0,1,1.691-1c.859-.037,1.511.722,2.06,1.384a4.691,4.691,0,0,0,1.707,1.446,1.831,1.831,0,0,0,2.078-.364,1.231,1.231,0,0,0,.2-1.118,3.917,3.917,0,0,0,.946.671,1.734,1.734,0,0,0,2.547-2.116" transform="translate(-214.917 -296.263)" fill="#fff"/>
      <path id="Trazado_874874" data-name="Trazado 874874" d="M292.032,403.763a17.92,17.92,0,0,0,7.08-4.02,2.9,2.9,0,0,1,1.692-1c.859-.037,1.511.722,2.06,1.384a4.691,4.691,0,0,0,1.707,1.446,1.83,1.83,0,0,0,2.078-.364,1.231,1.231,0,0,0,.2-1.118,3.908,3.908,0,0,0,.946.671,1.734,1.734,0,0,0,2.547-2.116,5.74,5.74,0,0,0-1.079-1.9c-1.256-1.67-2.639-3.433-4.631-4.063a10.168,10.168,0,0,0-4.057-.15c-1.617.158-8.686.959-10.093,1.107Z" transform="translate(-219.331 -296.263)" fill="#fff"/>
      <path id="Trazado_874875" data-name="Trazado 874875" d="M291.277,403.253a.245.245,0,0,1-.069-.48,17.693,17.693,0,0,0,6.983-3.964l.047-.044a2.992,2.992,0,0,1,1.8-1.017c1-.045,1.729.832,2.259,1.472a4.5,4.5,0,0,0,1.612,1.376,1.594,1.594,0,0,0,1.8-.294.988.988,0,0,0,.15-.892.245.245,0,0,1,.4-.249,3.631,3.631,0,0,0,.886.63,1.492,1.492,0,0,0,2.2-1.832,5.519,5.519,0,0,0-1.039-1.816c-1.377-1.831-2.666-3.394-4.509-3.977a10.06,10.06,0,0,0-3.959-.139c-1,.1-4.124.446-6.634.725-1.564.174-2.921.325-3.457.382a.245.245,0,0,1-.051-.487c.536-.057,1.892-.207,3.455-.382,2.512-.279,5.638-.628,6.64-.726a10.427,10.427,0,0,1,4.155.16c1.981.627,3.324,2.25,4.753,4.15a5.979,5.979,0,0,1,1.12,1.984,2.212,2.212,0,0,1-.6,2.268,2.176,2.176,0,0,1-2.289.132,3.5,3.5,0,0,1-.551-.334,1.366,1.366,0,0,1-.3.717,2.067,2.067,0,0,1-2.361.433,4.915,4.915,0,0,1-1.8-1.515c-.6-.727-1.152-1.325-1.86-1.3a2.6,2.6,0,0,0-1.488.887l-.047.044a18.187,18.187,0,0,1-7.177,4.075.243.243,0,0,1-.069.01" transform="translate(-218.576 -295.508)"/>
      <path id="Trazado_874876" data-name="Trazado 874876" d="M336.764,406.551a.245.245,0,0,1-.213-.123,10.928,10.928,0,0,0-3.421-4.181,2.479,2.479,0,0,0-2.264-.313.245.245,0,1,1-.223-.436,2.948,2.948,0,0,1,2.741.33,11.463,11.463,0,0,1,3.592,4.356.245.245,0,0,1-.212.366" transform="translate(-249.558 -302.957)"/>
      <path id="Trazado_874877" data-name="Trazado 874877" d="M80.3,308.651a8.144,8.144,0,0,0-2.345,3.891,4.03,4.03,0,0,0,1.4,4.116,4.24,4.24,0,0,0,3.21.522,12.963,12.963,0,0,0,3.11-1.194,44.9,44.9,0,0,1,8.184-3.263,16.875,16.875,0,0,1,8.722-.158,2.4,2.4,0,0,0,1.389.129,1.439,1.439,0,0,0,.875-1.335,3.336,3.336,0,0,0-.466-1.613c-3.426-6.6-12.742-7.414-18.89-4.671a16.981,16.981,0,0,0-5.187,3.576" transform="translate(-58.784 -229.205)" fill="#fff"/>
      <path id="Trazado_874878" data-name="Trazado 874878" d="M79.516,316.585a.241.241,0,0,1-.072-.011,3.585,3.585,0,0,1-1-.479,4.24,4.24,0,0,1-1.5-4.367,8.268,8.268,0,0,1,2.411-4.013,17.112,17.112,0,0,1,5.262-3.628c6.559-2.926,15.842-1.7,19.207,4.782a3.61,3.61,0,0,1,.493,1.734,1.682,1.682,0,0,1-1.041,1.558,1.479,1.479,0,0,1-.365.072.245.245,0,0,1-.034-.489.961.961,0,0,0,.243-.047,1.2,1.2,0,0,0,.708-1.111,3.119,3.119,0,0,0-.438-1.492c-3.237-6.239-12.217-7.395-18.572-4.56a16.617,16.617,0,0,0-5.112,3.524,7.8,7.8,0,0,0-2.281,3.77,3.8,3.8,0,0,0,1.3,3.864,3.092,3.092,0,0,0,.865.413.245.245,0,0,1-.071.479" transform="translate(-58.019 -228.441)"/>
      <path id="Trazado_874879" data-name="Trazado 874879" d="M154.837,271.3l-5.605,9.632a14.386,14.386,0,0,1,5.667,3.9l4.718-8.656c-.109-.613-2.23-7.879-4.779-4.878" transform="translate(-112.68 -204.274)" fill="#fff"/>
      <path id="Trazado_874880" data-name="Trazado 874880" d="M154.142,284.324a.245.245,0,0,1-.2-.1c-.988-1.331-2.81-2.583-5.571-3.825a.245.245,0,0,1-.111-.347l5.606-9.632a.222.222,0,0,1,.025-.035,1.743,1.743,0,0,1,1.814-.759c1.951.529,3.3,5.236,3.392,5.753a.245.245,0,0,1-.026.16l-4.718,8.656a.244.244,0,0,1-.2.127h-.017m-5.319-4.258a14.984,14.984,0,0,1,5.281,3.571l4.5-8.253c-.2-.9-1.486-4.868-3.022-5.284-.434-.118-.858.075-1.3.587Z" transform="translate(-111.924 -203.516)"/>
      <path id="Trazado_874881" data-name="Trazado 874881" d="M149.16,314.993a.245.245,0,0,1-.193-.094,15.851,15.851,0,0,0-7.91-5.112.245.245,0,0,1,.113-.477,16.049,16.049,0,0,1,8.184,5.286.245.245,0,0,1-.193.4" transform="translate(-106.365 -233.515)"/>
      <path id="Trazado_874882" data-name="Trazado 874882" d="M165.98,230.731a6.306,6.306,0,0,0-7-3.64c-4.13.94-6.43,5.847-10.559,6.792a1.821,1.821,0,0,0,1.4,1.143,2.821,2.821,0,0,0-1.312,3.132,3.676,3.676,0,0,0,2.468,2.493,5.334,5.334,0,0,0,3.583-.23l8.985-2.186a6.306,6.306,0,0,0,2.443-7.5" transform="translate(-112.066 -171.334)"/>
      <path id="Trazado_874883" data-name="Trazado 874883" d="M169.143,271.511h-.018a.245.245,0,0,1-.227-.262.955.955,0,0,0-.844-.973.245.245,0,1,1,.034-.489,1.444,1.444,0,0,1,1.3,1.5.245.245,0,0,1-.244.227" transform="translate(-126.721 -203.676)"/>
      <path id="Trazado_874884" data-name="Trazado 874884" d="M165.932,262.991a3.7,3.7,0,0,0-.346-1.339,2.036,2.036,0,0,0-1.71-1.052,2.269,2.269,0,0,0-2.026,1.3,2.65,2.65,0,0,0,.149,2.439,3.193,3.193,0,0,0,2.018,1.434c0,.051.012.1.017.153a4.529,4.529,0,0,0,.98-1.081,10.558,10.558,0,0,0,.919-1.852" transform="translate(-122.034 -196.74)" fill="#fff"/>
      <path id="Trazado_874885" data-name="Trazado 874885" d="M163.276,265.415a.245.245,0,0,1-.241-.2,3.4,3.4,0,0,1-2-1.5,2.885,2.885,0,0,1-.16-2.669,2.492,2.492,0,0,1,2.252-1.438,2.281,2.281,0,0,1,1.919,1.176,3.382,3.382,0,0,1,.351,1.252l.025.171a.245.245,0,0,1-.015.129,10.785,10.785,0,0,1-.941,1.894,4.757,4.757,0,0,1-1.034,1.14.244.244,0,0,1-.15.051m-.193-5.325a2.034,2.034,0,0,0-1.77,1.158,2.39,2.39,0,0,0,.139,2.21,2.966,2.966,0,0,0,1.862,1.32.211.211,0,0,1,.034.011,4.486,4.486,0,0,0,.7-.836,10.123,10.123,0,0,0,.871-1.748l-.015-.108a2.967,2.967,0,0,0-.292-1.079,1.79,1.79,0,0,0-1.5-.928h-.03" transform="translate(-121.276 -195.985)"/>
      <path id="Trazado_874886" data-name="Trazado 874886" d="M192.064,263.521c-.108-.713-4.969-.3-4.717,1.212.3,1.782-1.434,1.681-1.407,1.788.447,1.8-.361,4.332,1.258,5.239.926.519,3.908-.1,4.951-.256.068-.439.114-.883.151-1.325a32.028,32.028,0,0,0-.236-6.658" transform="translate(-140.397 -198.688)" fill="#fff"/>
      <path id="Trazado_874887" data-name="Trazado 874887" d="M190.833,263.671a2.869,2.869,0,0,1,.77.079,31.807,31.807,0,0,1,.21,6.389c-.029.352-.061.659-.1.94l-.216.036a20.806,20.806,0,0,1-3.1.36,2.114,2.114,0,0,1-.962-.141c-.764-.428-.828-1.349-.842-2.815a12.3,12.3,0,0,0-.09-1.65,1.782,1.782,0,0,0,1.324-2.216c-.005-.031-.015-.089.07-.189a4.784,4.784,0,0,1,2.933-.793m0-.49c-1.455,0-3.657.519-3.485,1.552.3,1.782-1.434,1.681-1.407,1.788.447,1.8-.36,4.332,1.258,5.239a2.648,2.648,0,0,0,1.2.2,27.026,27.026,0,0,0,3.749-.46c.068-.439.114-.883.151-1.325a32.025,32.025,0,0,0-.236-6.658c-.035-.227-.551-.34-1.231-.34" transform="translate(-140.397 -198.688)"/>
      <path id="Trazado_874888" data-name="Trazado 874888" d="M176.991,275.9c-1.618-.907-1.526-2.153-1.973-3.953-.027-.107-.045-.216-.068-.324a.673.673,0,0,1-.211.156c-.476.223-1.026-.219-1.2-.714a3.6,3.6,0,0,1-.16-.7,10.55,10.55,0,0,1-.919,1.852,4.528,4.528,0,0,1-.98,1.081,15.174,15.174,0,0,0,1.1,4.294,7.764,7.764,0,0,0,1.97,2.938,3.967,3.967,0,0,0,3.3.992c1.21-.25,2.495-.331,3.036-1.442.347-.713.353-3.409.475-4.195-1.261-.282-3.435.532-4.361.014" transform="translate(-129.475 -204.11)"/>
      <path id="Trazado_874889" data-name="Trazado 874889" d="M169.054,270.4a.245.245,0,0,1-.241-.2,1.7,1.7,0,0,0-.772-1.126.245.245,0,0,1,.256-.418,2.2,2.2,0,0,1,1,1.455.245.245,0,0,1-.2.285.232.232,0,0,1-.045,0" transform="translate(-126.795 -202.791)"/>
      <path id="Trazado_874890" data-name="Trazado 874890" d="M217.633,438.66h35.872v3.211H157.09V438.66h60.543Z" transform="translate(-118.614 -331.187)" fill="#fff"/>
      <path id="Trazado_874891" data-name="Trazado 874891" d="M252.75,441.362H156.334a.245.245,0,0,1-.245-.245v-3.211a.245.245,0,0,1,.245-.245h11.415a.245.245,0,0,1,0,.49h-11.17v2.721H252.5v-2.721H216.877a.245.245,0,1,1,0-.49H252.75a.245.245,0,0,1,.245.245v3.211a.245.245,0,0,1-.245.245" transform="translate(-117.858 -330.432)"/>
      <path id="Trazado_874892" data-name="Trazado 874892" d="M108.039,760.468a.258.258,0,0,1-.049,0,.245.245,0,0,1-.192-.289l4.061-20.158a.245.245,0,0,1,.48.1l-4.062,20.158a.245.245,0,0,1-.24.2" transform="translate(-81.392 -558.583)"/>
      <path id="Trazado_874893" data-name="Trazado 874893" d="M135.183,509.219a.253.253,0,0,1-.049,0,.245.245,0,0,1-.192-.289l11.677-57.957a.245.245,0,0,1,.48.1l-11.677,57.957a.245.245,0,0,1-.24.2" transform="translate(-101.888 -340.332)"/>
      <path id="Trazado_874894" data-name="Trazado 874894" d="M100.916,817.174a1.93,1.93,0,1,0,1.93-1.93,1.93,1.93,0,0,0-1.93,1.93" transform="translate(-76.198 -615.533)"/>
      <path id="Trazado_874895" data-name="Trazado 874895" d="M508.179,542.328a.245.245,0,0,1-.24-.2L489.62,451.213a.245.245,0,1,1,.48-.1l18.319,90.919a.245.245,0,0,1-.192.289.252.252,0,0,1-.048,0" transform="translate(-369.693 -340.443)"/>
      <path id="Trazado_874896" data-name="Trazado 874896" d="M561.387,817.174a1.93,1.93,0,1,1-1.93-1.93,1.929,1.929,0,0,1,1.93,1.93" transform="translate(-420.972 -615.533)"/>
      <path id="Trazado_874897" data-name="Trazado 874897" d="M318.469,431.869H294.876a2.239,2.239,0,0,1,2.239-2.239h23.593a2.239,2.239,0,0,1-2.239,2.239" transform="translate(-222.652 -324.368)"/>
      <path id="Trazado_874898" data-name="Trazado 874898" d="M389.45,361.115l10.826-23.454a2.239,2.239,0,0,1,1.094,2.971l-9.455,20.483Z" transform="translate(-294.061 -254.926)"/>
    </g>
  </g>
</svg>
