<svg id="Grupo_1101649" data-name="Grupo 1101649" xmlns="http://www.w3.org/2000/svg" xmlns:xlink="http://www.w3.org/1999/xlink" width="309.5" height="206.706" viewBox="0 0 309.5 206.706">
  <defs>
    <clipPath id="clip-path">
      <rect id="Rect치ngulo_401262" data-name="Rect치ngulo 401262" width="309.5" height="206.706" fill="none"/>
    </clipPath>
  </defs>
  <g id="Grupo_1099396" data-name="Grupo 1099396" clip-path="url(#clip-path)">
    <path id="Trazado_874899" data-name="Trazado 874899" d="M910.76,25.04a4.446,4.446,0,1,1-4.447-4.446,4.447,4.447,0,0,1,4.447,4.446" transform="translate(-677.668 -15.474)" fill="#fff"/>
    <path id="Trazado_874900" data-name="Trazado 874900" d="M905.562,28.983a4.7,4.7,0,1,1,4.7-4.695,4.7,4.7,0,0,1-4.7,4.695m0-8.893a4.2,4.2,0,1,0,4.2,4.2,4.2,4.2,0,0,0-4.2-4.2" transform="translate(-676.917 -14.722)"/>
    <path id="Trazado_874901" data-name="Trazado 874901" d="M982.577,25.04a4.447,4.447,0,1,1-4.446-4.446,4.447,4.447,0,0,1,4.446,4.446" transform="translate(-731.632 -15.474)" fill="#fff"/>
    <path id="Trazado_874902" data-name="Trazado 874902" d="M977.379,28.983a4.7,4.7,0,1,1,4.7-4.695,4.7,4.7,0,0,1-4.7,4.695m0-8.893a4.2,4.2,0,1,0,4.2,4.2,4.2,4.2,0,0,0-4.2-4.2" transform="translate(-730.88 -14.722)"/>
    <path id="Trazado_874903" data-name="Trazado 874903" d="M1054.394,25.04a4.447,4.447,0,1,1-4.447-4.446,4.447,4.447,0,0,1,4.447,4.446" transform="translate(-785.595 -15.474)" fill="#fff"/>
    <path id="Trazado_874904" data-name="Trazado 874904" d="M1049.2,28.983a4.7,4.7,0,1,1,4.695-4.695,4.7,4.7,0,0,1-4.695,4.695m0-8.893a4.2,4.2,0,1,0,4.2,4.2,4.2,4.2,0,0,0-4.2-4.2" transform="translate(-784.843 -14.722)"/>
    <path id="Trazado_874905" data-name="Trazado 874905" d="M1126.21,25.04a4.446,4.446,0,1,1-4.446-4.446,4.447,4.447,0,0,1,4.446,4.446" transform="translate(-839.558 -15.474)" fill="#fff"/>
    <path id="Trazado_874906" data-name="Trazado 874906" d="M1121.012,28.983a4.7,4.7,0,1,1,4.695-4.695,4.7,4.7,0,0,1-4.695,4.695m0-8.893a4.2,4.2,0,1,0,4.2,4.2,4.2,4.2,0,0,0-4.2-4.2" transform="translate(-838.807 -14.722)"/>
    <path id="Trazado_874907" data-name="Trazado 874907" d="M1198.027,25.04a4.446,4.446,0,1,1-4.446-4.446,4.447,4.447,0,0,1,4.446,4.446" transform="translate(-893.522 -15.474)" fill="#fff"/>
    <path id="Trazado_874908" data-name="Trazado 874908" d="M1192.828,28.983a4.7,4.7,0,1,1,4.7-4.695,4.7,4.7,0,0,1-4.7,4.695m0-8.893a4.2,4.2,0,1,0,4.2,4.2,4.2,4.2,0,0,0-4.2-4.2" transform="translate(-892.77 -14.722)"/>
    <path id="Trazado_874909" data-name="Trazado 874909" d="M910.76,97.287a4.446,4.446,0,1,1-4.447-4.447,4.446,4.446,0,0,1,4.447,4.447" transform="translate(-677.668 -69.76)" fill="#fff"/>
    <path id="Trazado_874910" data-name="Trazado 874910" d="M905.562,101.231a4.7,4.7,0,1,1,4.7-4.695,4.7,4.7,0,0,1-4.7,4.695m0-8.893a4.2,4.2,0,1,0,4.2,4.2,4.2,4.2,0,0,0-4.2-4.2" transform="translate(-676.917 -69.01)"/>
    <path id="Trazado_874911" data-name="Trazado 874911" d="M982.577,97.287a4.447,4.447,0,1,1-4.446-4.447,4.446,4.446,0,0,1,4.446,4.447" transform="translate(-731.632 -69.76)" fill="#fff"/>
    <path id="Trazado_874912" data-name="Trazado 874912" d="M977.379,101.231a4.7,4.7,0,1,1,4.7-4.695,4.7,4.7,0,0,1-4.7,4.695m0-8.893a4.2,4.2,0,1,0,4.2,4.2,4.2,4.2,0,0,0-4.2-4.2" transform="translate(-730.88 -69.01)"/>
    <path id="Trazado_874913" data-name="Trazado 874913" d="M1054.394,97.287a4.447,4.447,0,1,1-4.447-4.447,4.446,4.446,0,0,1,4.447,4.447" transform="translate(-785.595 -69.76)" fill="#fff"/>
    <path id="Trazado_874914" data-name="Trazado 874914" d="M1049.2,101.231a4.7,4.7,0,1,1,4.695-4.695,4.7,4.7,0,0,1-4.695,4.695m0-8.893a4.2,4.2,0,1,0,4.2,4.2,4.2,4.2,0,0,0-4.2-4.2" transform="translate(-784.843 -69.01)"/>
    <path id="Trazado_874915" data-name="Trazado 874915" d="M1126.21,97.287a4.446,4.446,0,1,1-4.446-4.447,4.446,4.446,0,0,1,4.446,4.447" transform="translate(-839.558 -69.76)" fill="#fff"/>
    <path id="Trazado_874916" data-name="Trazado 874916" d="M1121.012,101.231a4.7,4.7,0,1,1,4.695-4.695,4.7,4.7,0,0,1-4.695,4.695m0-8.893a4.2,4.2,0,1,0,4.2,4.2,4.2,4.2,0,0,0-4.2-4.2" transform="translate(-838.807 -69.01)"/>
    <path id="Trazado_874917" data-name="Trazado 874917" d="M1198.027,97.287a4.446,4.446,0,1,1-4.446-4.447,4.446,4.446,0,0,1,4.446,4.447" transform="translate(-893.522 -69.76)" fill="#fff"/>
    <path id="Trazado_874918" data-name="Trazado 874918" d="M1192.828,101.231a4.7,4.7,0,1,1,4.7-4.695,4.7,4.7,0,0,1-4.7,4.695m0-8.893a4.2,4.2,0,1,0,4.2,4.2,4.2,4.2,0,0,0-4.2-4.2" transform="translate(-892.77 -69.01)"/>
    <path id="Trazado_874919" data-name="Trazado 874919" d="M910.76,169.535a4.446,4.446,0,1,1-4.447-4.446,4.447,4.447,0,0,1,4.447,4.446" transform="translate(-677.668 -124.049)" fill="#fff"/>
    <path id="Trazado_874920" data-name="Trazado 874920" d="M905.562,173.478a4.7,4.7,0,1,1,4.7-4.695,4.7,4.7,0,0,1-4.7,4.695m0-8.893a4.2,4.2,0,1,0,4.2,4.2,4.2,4.2,0,0,0-4.2-4.2" transform="translate(-676.917 -123.297)"/>
    <path id="Trazado_874921" data-name="Trazado 874921" d="M982.577,169.535a4.447,4.447,0,1,1-4.446-4.446,4.447,4.447,0,0,1,4.446,4.446" transform="translate(-731.632 -124.049)" fill="#fff"/>
    <path id="Trazado_874922" data-name="Trazado 874922" d="M977.379,173.478a4.7,4.7,0,1,1,4.7-4.695,4.7,4.7,0,0,1-4.7,4.695m0-8.893a4.2,4.2,0,1,0,4.2,4.2,4.2,4.2,0,0,0-4.2-4.2" transform="translate(-730.88 -123.297)"/>
    <path id="Trazado_874923" data-name="Trazado 874923" d="M1054.394,169.535a4.447,4.447,0,1,1-4.447-4.446,4.447,4.447,0,0,1,4.447,4.446" transform="translate(-785.595 -124.049)" fill="#fff"/>
    <path id="Trazado_874924" data-name="Trazado 874924" d="M1049.2,173.478a4.7,4.7,0,1,1,4.695-4.695,4.7,4.7,0,0,1-4.695,4.695m0-8.893a4.2,4.2,0,1,0,4.2,4.2,4.2,4.2,0,0,0-4.2-4.2" transform="translate(-784.843 -123.297)"/>
    <path id="Trazado_874925" data-name="Trazado 874925" d="M1126.21,169.535a4.446,4.446,0,1,1-4.446-4.446,4.447,4.447,0,0,1,4.446,4.446" transform="translate(-839.558 -124.049)" fill="#fff"/>
    <path id="Trazado_874926" data-name="Trazado 874926" d="M1121.012,173.478a4.7,4.7,0,1,1,4.695-4.695,4.7,4.7,0,0,1-4.695,4.695m0-8.893a4.2,4.2,0,1,0,4.2,4.2,4.2,4.2,0,0,0-4.2-4.2" transform="translate(-838.807 -123.297)"/>
    <path id="Trazado_874927" data-name="Trazado 874927" d="M1198.027,169.535a4.446,4.446,0,1,1-4.446-4.446,4.447,4.447,0,0,1,4.446,4.446" transform="translate(-893.522 -124.049)" fill="#fff"/>
    <path id="Trazado_874928" data-name="Trazado 874928" d="M1192.828,173.478a4.7,4.7,0,1,1,4.7-4.695,4.7,4.7,0,0,1-4.7,4.695m0-8.893a4.2,4.2,0,1,0,4.2,4.2,4.2,4.2,0,0,0-4.2-4.2" transform="translate(-892.77 -123.297)"/>
    <path id="Trazado_874929" data-name="Trazado 874929" d="M910.76,241.782a4.446,4.446,0,1,1-4.447-4.447,4.447,4.447,0,0,1,4.447,4.447" transform="translate(-677.668 -178.335)" fill="#fff"/>
    <path id="Trazado_874930" data-name="Trazado 874930" d="M905.562,245.725a4.7,4.7,0,1,1,4.7-4.695,4.7,4.7,0,0,1-4.7,4.695m0-8.893a4.2,4.2,0,1,0,4.2,4.2,4.2,4.2,0,0,0-4.2-4.2" transform="translate(-676.917 -177.583)"/>
    <path id="Trazado_874931" data-name="Trazado 874931" d="M982.577,241.782a4.447,4.447,0,1,1-4.446-4.447,4.446,4.446,0,0,1,4.446,4.447" transform="translate(-731.632 -178.335)" fill="#fff"/>
    <path id="Trazado_874932" data-name="Trazado 874932" d="M977.379,245.725a4.7,4.7,0,1,1,4.7-4.695,4.7,4.7,0,0,1-4.7,4.695m0-8.893a4.2,4.2,0,1,0,4.2,4.2,4.2,4.2,0,0,0-4.2-4.2" transform="translate(-730.88 -177.583)"/>
    <path id="Trazado_874933" data-name="Trazado 874933" d="M1054.394,241.782a4.447,4.447,0,1,1-4.447-4.447,4.446,4.446,0,0,1,4.447,4.447" transform="translate(-785.595 -178.335)" fill="#fff"/>
    <path id="Trazado_874934" data-name="Trazado 874934" d="M1049.2,245.725a4.7,4.7,0,1,1,4.695-4.695,4.7,4.7,0,0,1-4.695,4.695m0-8.893a4.2,4.2,0,1,0,4.2,4.2,4.2,4.2,0,0,0-4.2-4.2" transform="translate(-784.843 -177.583)"/>
    <path id="Trazado_874935" data-name="Trazado 874935" d="M1126.21,241.782a4.446,4.446,0,1,1-4.446-4.447,4.446,4.446,0,0,1,4.446,4.447" transform="translate(-839.558 -178.335)" fill="#fff"/>
    <path id="Trazado_874936" data-name="Trazado 874936" d="M1121.012,245.725a4.7,4.7,0,1,1,4.695-4.695,4.7,4.7,0,0,1-4.695,4.695m0-8.893a4.2,4.2,0,1,0,4.2,4.2,4.2,4.2,0,0,0-4.2-4.2" transform="translate(-838.807 -177.583)"/>
    <path id="Trazado_874937" data-name="Trazado 874937" d="M1198.027,241.782a4.446,4.446,0,1,1-4.446-4.447,4.446,4.446,0,0,1,4.446,4.447" transform="translate(-893.522 -178.335)" fill="#fff"/>
    <path id="Trazado_874938" data-name="Trazado 874938" d="M1192.828,245.725a4.7,4.7,0,1,1,4.7-4.695,4.7,4.7,0,0,1-4.7,4.695m0-8.893a4.2,4.2,0,1,0,4.2,4.2,4.2,4.2,0,0,0-4.2-4.2" transform="translate(-892.77 -177.583)"/>
    <path id="Trazado_874939" data-name="Trazado 874939" d="M910.76,314.029a4.446,4.446,0,1,1-4.447-4.446,4.447,4.447,0,0,1,4.447,4.446" transform="translate(-677.668 -232.622)" fill="#fff"/>
    <path id="Trazado_874940" data-name="Trazado 874940" d="M905.562,317.973a4.7,4.7,0,1,1,4.7-4.7,4.7,4.7,0,0,1-4.7,4.7m0-8.893a4.2,4.2,0,1,0,4.2,4.2,4.2,4.2,0,0,0-4.2-4.2" transform="translate(-676.917 -231.871)"/>
    <path id="Trazado_874941" data-name="Trazado 874941" d="M982.577,314.029a4.447,4.447,0,1,1-4.446-4.446,4.447,4.447,0,0,1,4.446,4.446" transform="translate(-731.632 -232.622)" fill="#fff"/>
    <path id="Trazado_874942" data-name="Trazado 874942" d="M977.379,317.973a4.7,4.7,0,1,1,4.7-4.7,4.7,4.7,0,0,1-4.7,4.7m0-8.893a4.2,4.2,0,1,0,4.2,4.2,4.2,4.2,0,0,0-4.2-4.2" transform="translate(-730.88 -231.871)"/>
    <path id="Trazado_874943" data-name="Trazado 874943" d="M1054.394,314.029a4.447,4.447,0,1,1-4.447-4.446,4.447,4.447,0,0,1,4.447,4.446" transform="translate(-785.595 -232.622)" fill="#fff"/>
    <path id="Trazado_874944" data-name="Trazado 874944" d="M1049.2,317.973a4.7,4.7,0,1,1,4.695-4.7,4.7,4.7,0,0,1-4.695,4.7m0-8.893a4.2,4.2,0,1,0,4.2,4.2,4.2,4.2,0,0,0-4.2-4.2" transform="translate(-784.843 -231.871)"/>
    <path id="Trazado_874945" data-name="Trazado 874945" d="M1126.21,314.029a4.446,4.446,0,1,1-4.446-4.446,4.447,4.447,0,0,1,4.446,4.446" transform="translate(-839.558 -232.622)" fill="#fff"/>
    <path id="Trazado_874946" data-name="Trazado 874946" d="M1121.012,317.973a4.7,4.7,0,1,1,4.695-4.7,4.7,4.7,0,0,1-4.695,4.7m0-8.893a4.2,4.2,0,1,0,4.2,4.2,4.2,4.2,0,0,0-4.2-4.2" transform="translate(-838.807 -231.871)"/>
    <path id="Trazado_874947" data-name="Trazado 874947" d="M1198.027,314.029a4.446,4.446,0,1,1-4.446-4.446,4.447,4.447,0,0,1,4.446,4.446" transform="translate(-893.522 -232.622)" fill="#fff"/>
    <path id="Trazado_874948" data-name="Trazado 874948" d="M1192.828,317.973a4.7,4.7,0,1,1,4.7-4.7,4.7,4.7,0,0,1-4.7,4.7m0-8.893a4.2,4.2,0,1,0,4.2,4.2,4.2,4.2,0,0,0-4.2-4.2" transform="translate(-892.77 -231.871)"/>
    <rect id="Rect치ngulo_401261" data-name="Rect치ngulo 401261" width="184.324" height="105.639" transform="translate(21.983 0.249)" fill="#fff"/>
    <path id="Trazado_874949" data-name="Trazado 874949" d="M272,106.136H87.679a.248.248,0,0,1-.249-.249V.249A.249.249,0,0,1,87.679,0H272a.249.249,0,0,1,.249.249V105.888a.249.249,0,0,1-.249.249m-184.075-.5H271.754V.5H87.927Z" transform="translate(-65.695)"/>
    <path id="Trazado_874950" data-name="Trazado 874950" d="M493.265,75.17a12.01,12.01,0,0,0-1.455.089,28.668,28.668,0,1,0-56.669-8.609A16.349,16.349,0,1,0,431.4,98.915h61.861a11.872,11.872,0,1,0,0-23.745" transform="translate(-311.876 -31.247)" fill="#e2eaff"/>
    <path id="Trazado_874951" data-name="Trazado 874951" d="M624.983,268.07V250.06H613.542v18.01h-6.832l12.553,13.606,12.553-13.606Z" transform="translate(-455.885 -187.897)" fill="#e2eaff"/>
    <path id="Trazado_874952" data-name="Trazado 874952" d="M526.522,166.5v18.01H515.081V166.5h-6.832L520.8,152.893,533.354,166.5Z" transform="translate(-381.901 -114.885)" fill="#fff"/>
    <path id="Trazado_874953" data-name="Trazado 874953" d="M930.854,4.946A4.446,4.446,0,1,1,926.407.5a4.446,4.446,0,0,1,4.447,4.447" transform="translate(-692.767 -0.375)" fill="#5479f7"/>
    <path id="Trazado_874954" data-name="Trazado 874954" d="M1002.67,4.946A4.447,4.447,0,1,1,998.224.5a4.446,4.446,0,0,1,4.446,4.447" transform="translate(-746.73 -0.375)" fill="#5479f7"/>
    <path id="Trazado_874955" data-name="Trazado 874955" d="M1074.487,4.946A4.446,4.446,0,1,1,1070.04.5a4.447,4.447,0,0,1,4.447,4.447" transform="translate(-800.693 -0.375)" fill="#5479f7"/>
    <path id="Trazado_874956" data-name="Trazado 874956" d="M1146.3,4.946A4.446,4.446,0,1,1,1141.857.5a4.446,4.446,0,0,1,4.446,4.447" transform="translate(-854.657 -0.375)" fill="#5479f7"/>
    <path id="Trazado_874957" data-name="Trazado 874957" d="M1218.12,4.946A4.447,4.447,0,1,1,1213.674.5a4.447,4.447,0,0,1,4.446,4.447" transform="translate(-908.62 -0.375)" fill="#5479f7"/>
    <path id="Trazado_874958" data-name="Trazado 874958" d="M930.854,77.194a4.446,4.446,0,1,1-4.447-4.447,4.446,4.446,0,0,1,4.447,4.447" transform="translate(-692.767 -54.663)" fill="#5479f7"/>
    <path id="Trazado_874959" data-name="Trazado 874959" d="M1002.67,77.194a4.447,4.447,0,1,1-4.446-4.447,4.446,4.446,0,0,1,4.446,4.447" transform="translate(-746.73 -54.663)" fill="#5479f7"/>
    <path id="Trazado_874960" data-name="Trazado 874960" d="M1074.487,77.194a4.446,4.446,0,1,1-4.447-4.447,4.447,4.447,0,0,1,4.447,4.447" transform="translate(-800.693 -54.663)" fill="#5479f7"/>
    <path id="Trazado_874961" data-name="Trazado 874961" d="M1146.3,77.194a4.446,4.446,0,1,1-4.446-4.447,4.446,4.446,0,0,1,4.446,4.447" transform="translate(-854.657 -54.663)" fill="#5479f7"/>
    <path id="Trazado_874962" data-name="Trazado 874962" d="M1218.12,77.194a4.447,4.447,0,1,1-4.446-4.447,4.447,4.447,0,0,1,4.446,4.447" transform="translate(-908.62 -54.663)" fill="#5479f7"/>
    <path id="Trazado_874963" data-name="Trazado 874963" d="M930.854,149.441A4.446,4.446,0,1,1,926.407,145a4.447,4.447,0,0,1,4.447,4.446" transform="translate(-692.767 -108.95)" fill="#5479f7"/>
    <path id="Trazado_874964" data-name="Trazado 874964" d="M1002.67,149.441A4.447,4.447,0,1,1,998.224,145a4.447,4.447,0,0,1,4.446,4.446" transform="translate(-746.73 -108.95)" fill="#5479f7"/>
    <path id="Trazado_874965" data-name="Trazado 874965" d="M1074.487,149.441A4.446,4.446,0,1,1,1070.04,145a4.447,4.447,0,0,1,4.447,4.446" transform="translate(-800.693 -108.95)" fill="#5479f7"/>
    <path id="Trazado_874966" data-name="Trazado 874966" d="M1146.3,149.441a4.446,4.446,0,1,1-4.446-4.446,4.447,4.447,0,0,1,4.446,4.446" transform="translate(-854.657 -108.95)" fill="#5479f7"/>
    <path id="Trazado_874967" data-name="Trazado 874967" d="M1218.12,149.441a4.447,4.447,0,1,1-4.446-4.446,4.447,4.447,0,0,1,4.446,4.446" transform="translate(-908.62 -108.95)" fill="#5479f7"/>
    <path id="Trazado_874968" data-name="Trazado 874968" d="M930.854,221.688a4.446,4.446,0,1,1-4.447-4.447,4.446,4.446,0,0,1,4.447,4.447" transform="translate(-692.767 -163.236)" fill="#5479f7"/>
    <path id="Trazado_874969" data-name="Trazado 874969" d="M1002.67,221.688a4.447,4.447,0,1,1-4.446-4.447,4.446,4.446,0,0,1,4.446,4.447" transform="translate(-746.73 -163.236)" fill="#5479f7"/>
    <path id="Trazado_874970" data-name="Trazado 874970" d="M1074.487,221.688a4.446,4.446,0,1,1-4.447-4.447,4.446,4.446,0,0,1,4.447,4.447" transform="translate(-800.693 -163.236)" fill="#5479f7"/>
    <path id="Trazado_874971" data-name="Trazado 874971" d="M1146.3,221.688a4.446,4.446,0,1,1-4.446-4.447,4.446,4.446,0,0,1,4.446,4.447" transform="translate(-854.657 -163.236)" fill="#5479f7"/>
    <path id="Trazado_874972" data-name="Trazado 874972" d="M1218.12,221.688a4.447,4.447,0,1,1-4.446-4.447,4.447,4.447,0,0,1,4.446,4.447" transform="translate(-908.62 -163.236)" fill="#5479f7"/>
    <path id="Trazado_874973" data-name="Trazado 874973" d="M930.854,293.936a4.446,4.446,0,1,1-4.447-4.446,4.447,4.447,0,0,1,4.447,4.446" transform="translate(-692.767 -217.524)" fill="#5479f7"/>
    <path id="Trazado_874974" data-name="Trazado 874974" d="M1002.67,293.936a4.447,4.447,0,1,1-4.446-4.446,4.447,4.447,0,0,1,4.446,4.446" transform="translate(-746.73 -217.524)" fill="#5479f7"/>
    <path id="Trazado_874975" data-name="Trazado 874975" d="M1074.487,293.936a4.446,4.446,0,1,1-4.447-4.446,4.447,4.447,0,0,1,4.447,4.446" transform="translate(-800.693 -217.524)" fill="#5479f7"/>
    <path id="Trazado_874976" data-name="Trazado 874976" d="M1146.3,293.936a4.446,4.446,0,1,1-4.446-4.446,4.447,4.447,0,0,1,4.446,4.446" transform="translate(-854.657 -217.524)" fill="#5479f7"/>
    <path id="Trazado_874977" data-name="Trazado 874977" d="M1218.12,293.936a4.447,4.447,0,1,1-4.446-4.446,4.447,4.447,0,0,1,4.446,4.446" transform="translate(-908.62 -217.524)" fill="#5479f7"/>
    <path id="Trazado_874978" data-name="Trazado 874978" d="M137.359,536.847l-10.532-50.824-59.669-4.213-2.993,19.857-3.254,35.179Z" transform="translate(-45.769 -362.035)" fill="#fff"/>
    <path id="Trazado_874979" data-name="Trazado 874979" d="M136.607,536.063a.249.249,0,0,1-.24-.186c-1.212-4.631-2.436-11.584-3.732-18.946-1.544-8.772-3.14-17.844-4.82-23.462-.246-.987-.45-2.025-.648-3.03a36.6,36.6,0,0,0-1.346-5.392c-13.193-.687-26.6-1.692-39.572-2.664-6.436-.483-13.089-.981-19.636-1.435-1.672,10.156-3.242,25.815-4.628,39.643-.568,5.67-1.105,11.025-1.579,15.251a.249.249,0,0,1-.494-.055c.473-4.223,1.01-9.577,1.578-15.245,1.4-13.936,2.98-29.732,4.669-39.9a.248.248,0,0,1,.262-.207c6.622.458,13.354.963,19.864,1.451,13.02.976,26.484,1.985,39.725,2.672a.248.248,0,0,1,.22.161,35.847,35.847,0,0,1,1.424,5.622c.205,1.045.4,2.031.639,2.995,1.685,5.635,3.284,14.721,4.831,23.507,1.294,7.351,2.516,14.295,3.723,18.906a.248.248,0,0,1-.177.3.252.252,0,0,1-.063.008" transform="translate(-45.017 -361.003)"/>
    <path id="Trazado_874980" data-name="Trazado 874980" d="M218.828,635.711a.249.249,0,0,1-.246-.215c-.071-.515-.151-1.267-.284-2.515l-.066-.615c-.493-4.605-.338-14.61,1.4-17.139a8.353,8.353,0,0,1,2.207-2.169.249.249,0,0,1,.28.411,7.857,7.857,0,0,0-2.077,2.039c-1.642,2.4-1.785,12.383-1.311,16.805l.066.615c.133,1.243.213,1.993.282,2.5a.248.248,0,0,1-.213.28l-.034,0" transform="translate(-163.797 -460.623)"/>
    <path id="Trazado_874981" data-name="Trazado 874981" d="M123.128,247.618c-3.414-6-12.148-11.609-20.561-19.595-11.08-10.517-26.426-20.507-43.489-18.4l-22.865-1.395c-3.559,1.174-29.2,6.963-34,20.437-8.821,24.779,10.59,68.617,25.354,68.981,7.423.183,19.425-7.673,19.425-7.673,11.729,1.567,34.239,1.109,36.13-1.837,1.26-1.964,2.659-21.25,2.829-23.12,0,0,21.141,6.944,28.008,8.556,3.685.865,16.44,2.449,19.7-3.5,3.2-5.842,3.348-15.514-10.53-22.452" transform="translate(0 -156.464)" fill="#0b47db"/>
    <path id="Trazado_874982" data-name="Trazado 874982" d="M348.236,344.366h31.513l19.215-47.653H367.452Z" transform="translate(-261.667 -222.952)"/>
    <path id="Trazado_874983" data-name="Trazado 874983" d="M468.8,365l-1.41,4.222s4.253-.028,6.638-5.294c1.584-3.5,4.461-10.6,6.214-14.968a6.09,6.09,0,0,0-1.46-6.692c-2.476-2.342-5.972-5.275-8.3-5.647-3.94-.63-.826,3.964,1.395,6.376,0,0-4.5-3.918-6.092-1.7-2.391,3.329,6.122,5.611,6.537,10.817,0,0-7.7-8.5-9-5.387-1.249,3.013,4.578,6.082,5.865,9.969,0,0-4.573-6.111-6.973-3.808-2.232,2.142,5.884,8.413,6.579,12.109" transform="translate(-347.028 -252.896)" fill="#fff"/>
    <path id="Trazado_874984" data-name="Trazado 874984" d="M499.338,349.983a.244.244,0,0,1-.093-.018.249.249,0,0,1-.138-.323c.215-.534.42-1.044.611-1.521a5.81,5.81,0,0,0-1.4-6.419c-2.481-2.348-5.912-5.221-8.165-5.582-.571-.091-1.3-.114-1.516.295-.481.9,1.216,3.585,3.134,5.668a.249.249,0,0,1-.366.337c-.169-.183-4.13-4.517-3.206-6.239.288-.535.972-.72,2.033-.551,2.378.381,5.9,3.316,8.428,5.712a6.3,6.3,0,0,1,1.521,6.966c-.191.478-.4.988-.612,1.522a.249.249,0,0,1-.231.156" transform="translate(-366.73 -252.147)"/>
    <path id="Trazado_874985" data-name="Trazado 874985" d="M505.95,365.892a.247.247,0,0,1-.165-.063l-4.45-3.944a.249.249,0,0,1,.33-.372l4.45,3.944a.249.249,0,0,1-.165.435" transform="translate(-376.643 -271.596)"/>
    <path id="Trazado_874986" data-name="Trazado 874986" d="M345.244,400.314h-.028a.373.373,0,0,1-.344-.4c.286-3.8.514-7.661.676-11.472a.373.373,0,0,1,.745.032c-.163,3.819-.391,7.687-.677,11.5a.373.373,0,0,1-.371.345" transform="translate(-259.138 -291.608)" fill="#fff"/>
    <path id="Trazado_874987" data-name="Trazado 874987" d="M143.3,197.413l.508-3.495h27.676l.644,5.373a4.893,4.893,0,0,1-1.5,4.143l-5.04,4.751-19.761-6.661a3.767,3.767,0,0,1-2.524-4.111" transform="translate(-107.649 -145.711)" fill="#fff"/>
    <path id="Trazado_874988" data-name="Trazado 874988" d="M171.5,198.788a.248.248,0,0,1-.246-.219l-.618-5.154h-27.24l-.477,3.282a.249.249,0,1,1-.492-.071l.508-3.5a.249.249,0,0,1,.246-.213h27.676a.249.249,0,0,1,.247.219l.644,5.373a.249.249,0,0,1-.217.276l-.03,0" transform="translate(-107.016 -144.96)"/>
    <path id="Trazado_874989" data-name="Trazado 874989" d="M74.753,428.865a.373.373,0,0,1-.14-.718l18.607-7.562a.373.373,0,0,1,.281.691l-18.607,7.562a.375.375,0,0,1-.14.028" transform="translate(-55.89 -316.009)" fill="#fff"/>
    <path id="Trazado_874990" data-name="Trazado 874990" d="M162.164,396.764s12.8-10.954,16.118-15.421c0,0,10.427-1.989,13.592-3.038,0,0,3.708,2.206,4.912-.255s-.411-3.53-.411-3.53,2.685-3.215-.905-4.988c0,0,3.395-2.546-.659-3.972a14.559,14.559,0,0,1,4.567-2.016c3.3-.837,7.682-1.189,8.164-2.781.309-1.021-.55-2.16-3.937-2.611-5.27-.7-14.144.26-18.6,1.361-5.153,1.274-34.551,14.345-34.551,14.345s-1.9,12.568,11.707,22.9" transform="translate(-112.986 -268.938)" fill="#fff"/>
    <path id="Trazado_874991" data-name="Trazado 874991" d="M249.8,447.422h-.014a6.5,6.5,0,0,1-3.865-1.565.248.248,0,1,1,.325-.376,6,6,0,0,0,3.568,1.445.249.249,0,0,1-.014.5" transform="translate(-184.718 -334.691)"/>
    <path id="Trazado_874992" data-name="Trazado 874992" d="M313.684,437.474a.249.249,0,0,1-.078-.485l2.467-.815a.249.249,0,0,1,.156.472l-2.468.815a.245.245,0,0,1-.078.013" transform="translate(-235.517 -327.734)"/>
    <path id="Trazado_874993" data-name="Trazado 874993" d="M326.775,422.487a.247.247,0,0,1-.138-.042,3.661,3.661,0,0,0-2.5-.571.249.249,0,0,1-.069-.492,4.162,4.162,0,0,1,2.85.65.249.249,0,0,1-.138.455" transform="translate(-243.342 -316.6)"/>
    <path id="Trazado_874994" data-name="Trazado 874994" d="M323.712,404.069a.255.255,0,0,1-.063-.008,7.9,7.9,0,0,0-2.608-.238.249.249,0,1,1-.037-.5,8.4,8.4,0,0,1,2.772.253.249.249,0,0,1-.063.489" transform="translate(-241.031 -303.044)"/>
    <path id="Trazado_874995" data-name="Trazado 874995" d="M321.385,387.683l-.032,0-2.959-.384a.249.249,0,1,1,.064-.493l2.959.384a.249.249,0,0,1-.032.5" transform="translate(-239.08 -290.646)"/>
    <path id="Trazado_874996" data-name="Trazado 874996" d="M173.85,153.166V165.16l13.71,3.679V158.805s-10.7-6.434-13.71-5.639" transform="translate(-130.632 -115.039)" fill="#fff"/>
    <path id="Trazado_874997" data-name="Trazado 874997" d="M186.809,168.346a.249.249,0,0,1-.064-.008l-13.71-3.679a.249.249,0,0,1-.184-.24V152.425a.249.249,0,0,1,.185-.24c3.078-.812,13.461,5.4,13.9,5.666a.249.249,0,0,1,.12.213V168.1a.248.248,0,0,1-.249.249m-13.462-4.118,13.213,3.546V158.2c-1.158-.686-10.282-6.016-13.213-5.578Z" transform="translate(-129.88 -114.297)"/>
    <path id="Trazado_874998" data-name="Trazado 874998" d="M137.318,57.244a7.644,7.644,0,0,1-1.46-7.692,17.823,17.823,0,0,1,2.877-3.914,56.211,56.211,0,0,0,4.545-7.318,19.429,19.429,0,0,1,5.521-6.531,11.564,11.564,0,0,1,17.165,5.126,7.762,7.762,0,0,1-.127,6.865c-1.367,2.286-4.076,3.3-6.349,4.69-3.128,1.91-5.585,4.679-8.139,7.26a39.429,39.429,0,0,1-3.97,3.611,20.282,20.282,0,0,1-2.266,1.517c-.978.56-1.361.431-2.411.022a13.048,13.048,0,0,1-5.385-3.637" transform="translate(-101.71 -22.4)"/>
    <path id="Trazado_874999" data-name="Trazado 874999" d="M164.985,95.856a9.864,9.864,0,0,0-1.436-3.616,98.615,98.615,0,0,1,10.733-5.769,3.569,3.569,0,0,1,4.975,2.391,36.779,36.779,0,0,0,1.317,4.229c1,2.766,2.1,5.561,2.238,8.5s-.89,6.118-3.336,7.753a8.919,8.919,0,0,1-4.848,1.31,10.722,10.722,0,0,1-8.682-3.737c-.42-.546-2.276-2.3-2.276-2.3s-1.855.363-4.309-1.417c-1.535-1.114-2.108-2.733-1.2-4.358a2.914,2.914,0,0,1,1.818-1.393c1.585-.4,2.207.817,3.534,1.146s1.573-1.8,1.467-2.736" transform="translate(-118.519 -64.726)" fill="#fff"/>
    <path id="Trazado_875000" data-name="Trazado 875000" d="M173.7,110.15a10.852,10.852,0,0,1-8.684-3.835c-.353-.458-1.794-1.84-2.163-2.192a6.5,6.5,0,0,1-4.371-1.479,3.453,3.453,0,0,1-1.268-4.681,3.166,3.166,0,0,1,1.974-1.512,2.85,2.85,0,0,1,2.444.563,4.2,4.2,0,0,0,1.211.582.643.643,0,0,0,.618-.129,3.224,3.224,0,0,0,.542-2.338,9.763,9.763,0,0,0-1.406-3.523.249.249,0,0,1,.086-.333,99.2,99.2,0,0,1,10.76-5.784,3.842,3.842,0,0,1,3.312.043,3.737,3.737,0,0,1,2.009,2.519,36.76,36.76,0,0,0,1.309,4.2l.234.642a27.071,27.071,0,0,1,2.019,7.931c.122,2.658-.719,6.148-3.446,7.971a9.073,9.073,0,0,1-4.982,1.352h-.2m-10.764-6.539a.25.25,0,0,1,.172.068c.077.072,1.875,1.778,2.3,2.333a10.4,10.4,0,0,0,8.482,3.64,8.588,8.588,0,0,0,4.713-1.269c2.555-1.708,3.341-5.013,3.225-7.535a26.7,26.7,0,0,0-1.989-7.783l-.234-.643a37.119,37.119,0,0,1-1.326-4.258,3.243,3.243,0,0,0-1.744-2.184,3.348,3.348,0,0,0-2.885-.037,98.773,98.773,0,0,0-10.5,5.63,9.567,9.567,0,0,1,1.35,3.5,3.645,3.645,0,0,1-.708,2.767,1.137,1.137,0,0,1-1.066.238,4.6,4.6,0,0,1-1.354-.643,2.387,2.387,0,0,0-2.059-.5,2.668,2.668,0,0,0-1.663,1.273c-.8,1.432-.382,2.941,1.126,4.035a5.855,5.855,0,0,0,4.116,1.374.266.266,0,0,1,.046,0" transform="translate(-117.787 -63.972)"/>
    <path id="Trazado_875001" data-name="Trazado 875001" d="M171.59,148.442a.249.249,0,0,1-.238-.177,2.366,2.366,0,0,0-2.6-1.581.249.249,0,1,1-.091-.489,2.88,2.88,0,0,1,3.166,1.926.248.248,0,0,1-.166.31.251.251,0,0,1-.072.011" transform="translate(-126.581 -109.821)"/>
    <path id="Trazado_875002" data-name="Trazado 875002" d="M201.434,121.27a4.251,4.251,0,0,1-3.844-3.219c-.679-2.279.343-4.6,2.279-5.179a3.387,3.387,0,0,1,2.861.483,4.879,4.879,0,0,1,1.732,5.815,3.387,3.387,0,0,1-2.131,1.969,3.135,3.135,0,0,1-.9.131m-.66-8.032a2.666,2.666,0,0,0-.763.111c-1.673.5-2.545,2.544-1.944,4.561s2.452,3.251,4.123,2.753a2.9,2.9,0,0,0,1.816-1.691,4.382,4.382,0,0,0-1.55-5.2,3.059,3.059,0,0,0-1.683-.532" transform="translate(-148.313 -84.713)"/>
    <path id="Trazado_875003" data-name="Trazado 875003" d="M238.533,102.786c.641,2.151-.3,4.332-2.111,4.87s-3.791-.769-4.432-2.921.3-4.332,2.112-4.87,3.791.769,4.432,2.92" transform="translate(-174.168 -74.949)" fill="#fff"/>
    <path id="Trazado_875004" data-name="Trazado 875004" d="M234.832,107.272a3.551,3.551,0,0,1-1.954-.615,4.879,4.879,0,0,1-1.732-5.815,3.291,3.291,0,0,1,4.992-1.487,4.879,4.879,0,0,1,1.732,5.815,3.387,3.387,0,0,1-2.131,1.969,3.17,3.17,0,0,1-.907.132m-.651-8.034a2.666,2.666,0,0,0-.763.111,2.9,2.9,0,0,0-1.816,1.691,4.383,4.383,0,0,0,1.549,5.2,2.8,2.8,0,0,0,4.262-1.27,4.383,4.383,0,0,0-1.55-5.2,3.06,3.06,0,0,0-1.683-.532" transform="translate(-173.414 -74.194)"/>
    <path id="Trazado_875005" data-name="Trazado 875005" d="M225.256,122a.249.249,0,0,1-.239-.318,1.756,1.756,0,0,1,1.106-1.11,1.209,1.209,0,0,1,1.141.154.249.249,0,1,1-.3.4.742.742,0,0,0-.684-.079,1.257,1.257,0,0,0-.785.777.249.249,0,0,1-.239.179" transform="translate(-169.072 -90.539)"/>
    <path id="Trazado_875006" data-name="Trazado 875006" d="M181.214,132.824a.249.249,0,0,1-.053-.491l4.078-.888a.249.249,0,0,1,.106.486l-4.077.888a.262.262,0,0,1-.053.006" transform="translate(-135.979 -98.764)"/>
    <path id="Trazado_875007" data-name="Trazado 875007" d="M197.073,119.7l-2.135-7.449c-3.31-.274-7.479,1.523-12.128,4.473a1.759,1.759,0,0,1-2.206-.913l-5.244-12.553-1.51,4.982,1.935,9.238,5.047,8a5.248,5.248,0,0,0,5.647,2.308l6.8-1.608a5.191,5.191,0,0,0,3.8-6.482" transform="translate(-130.632 -77.586)"/>
    <path id="Trazado_875008" data-name="Trazado 875008" d="M112.737,546.04H13.3a.249.249,0,0,1-.249-.249V493.857a.249.249,0,1,1,.5,0v51.686h99.191a.249.249,0,1,1,0,.5" transform="translate(-9.804 -370.9)"/>
    <path id="Trazado_875009" data-name="Trazado 875009" d="M373.479,734.752l.008,10.777c0,3.266-3.772,6.54-11.36,9.073-15.176,5.065-39.942,5.279-55.807.543-.261-.078-.518-.157-.773-.237-8.038-2.53-12.076-5.894-12.08-9.267l-.008-10.777c0,3.373,4.042,6.737,12.08,9.267.256.081.513.159.774.237,15.864,4.737,40.63,4.523,55.806-.542,7.588-2.533,11.365-5.807,11.36-9.073" transform="translate(-220.506 -552.097)" fill="#fff"/>
    <path id="Trazado_875010" data-name="Trazado 875010" d="M332.546,758.052c-10.069,0-19.634-1.206-27.049-3.42-.262-.078-.52-.157-.777-.238-7.9-2.486-12.249-5.861-12.254-9.5l-.008-10.777h0a.249.249,0,0,1,.248-.249h0a.249.249,0,0,1,.249.248c0,3.358,4.344,6.65,11.906,9.03.255.08.51.159.77.236,15.728,4.7,40.7,4.454,55.657-.54,7.217-2.409,11.191-5.546,11.19-8.832v0a.249.249,0,0,1,.248-.249h0a.248.248,0,0,1,.249.248v.005l.008,10.772c0,3.519-4.09,6.825-11.53,9.309-7.354,2.455-17.2,3.861-27.722,3.96q-.594.005-1.186.005m-39.589-21.831.007,8.668c0,3.358,4.344,6.65,11.906,9.03.255.08.51.159.77.236,15.728,4.7,40.7,4.454,55.657-.54,7.221-2.411,11.195-5.549,11.19-8.837l-.007-8.67c-1.3,2.717-5.1,5.221-11.035,7.2-7.354,2.455-17.2,3.861-27.721,3.96-10.5.1-20.529-1.114-28.235-3.415-.262-.078-.52-.157-.777-.238-6.348-2-10.405-4.571-11.756-7.4" transform="translate(-219.755 -551.346)"/>
    <path id="Trazado_875011" data-name="Trazado 875011" d="M360.62,686.214c.262.078.519.157.776.238,15.824,4.98,16.146,13.191.722,18.34-15.176,5.065-39.942,5.279-55.807.543-.261-.078-.518-.157-.773-.237-15.822-4.98-16.144-13.191-.72-18.34,15.174-5.065,39.938-5.279,55.8-.543" transform="translate(-220.505 -513.063)" fill="#fff"/>
    <path id="Trazado_875012" data-name="Trazado 875012" d="M332.538,708.241c-10.069,0-19.633-1.207-27.049-3.42-.262-.078-.52-.157-.777-.238-7.871-2.477-12.223-5.841-12.254-9.471-.031-3.532,4.064-6.849,11.53-9.342,7.354-2.454,17.2-3.861,27.719-3.96,10.5-.1,20.528,1.114,28.234,3.414.263.078.521.158.779.239,7.872,2.477,12.225,5.841,12.256,9.471.031,3.532-4.064,6.849-11.53,9.341-7.354,2.455-17.2,3.861-27.721,3.96q-.594.006-1.186.006m.369-25.909c-10.49,0-20.978,1.312-28.761,3.909-7.245,2.418-11.219,5.567-11.19,8.866.029,3.348,4.369,6.629,11.906,9,.255.08.51.158.77.236,15.728,4.7,40.7,4.454,55.657-.54,7.245-2.419,11.219-5.567,11.19-8.866-.029-3.348-4.369-6.629-11.908-9-.256-.08-.511-.159-.772-.237-7.545-2.252-17.219-3.368-26.892-3.368" transform="translate(-219.755 -512.311)"/>
    <path id="Trazado_875013" data-name="Trazado 875013" d="M373.1,677.962l.008,10.777c0,3.266-3.772,6.539-11.36,9.073-15.176,5.065-39.942,5.279-55.807.542-.261-.078-.518-.156-.773-.237-8.038-2.53-12.076-5.894-12.08-9.267l-.008-10.777c0,3.373,4.042,6.737,12.08,9.267.256.08.513.159.774.237,15.865,4.737,40.631,4.523,55.806-.543,7.588-2.533,11.365-5.807,11.36-9.073" transform="translate(-220.219 -509.424)" fill="#fff"/>
    <path id="Trazado_875014" data-name="Trazado 875014" d="M332.163,701.262c-10.069,0-19.633-1.206-27.049-3.42-.262-.078-.52-.157-.777-.238-7.9-2.486-12.249-5.861-12.254-9.5l-.008-10.777h0a.249.249,0,0,1,.248-.249h0a.249.249,0,0,1,.249.248c.005,3.359,4.345,6.65,11.906,9.03.255.08.51.158.77.236,15.728,4.7,40.7,4.454,55.657-.54,7.217-2.409,11.191-5.546,11.19-8.832v0a.249.249,0,0,1,.248-.249h0a.249.249,0,0,1,.249.248v.006l.008,10.771c.005,3.519-4.09,6.825-11.53,9.309-7.355,2.455-17.2,3.861-27.721,3.96q-.594.006-1.187.006m-39.589-21.831.007,8.668c0,3.358,4.344,6.649,11.906,9.03.255.08.51.158.77.236,15.728,4.7,40.695,4.454,55.657-.54,7.221-2.41,11.195-5.549,11.19-8.837l-.007-8.67c-1.3,2.718-5.1,5.221-11.034,7.2-7.355,2.455-17.2,3.861-27.721,3.96-10.5.1-20.529-1.114-28.235-3.415-.262-.078-.52-.157-.777-.238-6.348-2-10.405-4.571-11.756-7.4" transform="translate(-219.467 -508.673)"/>
    <path id="Trazado_875015" data-name="Trazado 875015" d="M360.239,629.424c.262.078.519.157.776.238,15.824,4.98,16.146,13.191.722,18.34-15.176,5.065-39.942,5.279-55.806.543-.261-.078-.518-.157-.774-.237-15.821-4.98-16.144-13.191-.72-18.34,15.174-5.065,39.938-5.279,55.8-.543" transform="translate(-220.219 -470.391)" fill="#fff"/>
    <path id="Trazado_875016" data-name="Trazado 875016" d="M332.155,651.45c-10.069,0-19.634-1.206-27.049-3.42-.262-.078-.52-.157-.777-.238-7.871-2.477-12.223-5.841-12.254-9.471-.031-3.532,4.064-6.849,11.53-9.342,7.354-2.454,17.2-3.861,27.719-3.96,10.505-.1,20.528,1.114,28.234,3.414.263.078.521.158.779.239,7.872,2.478,12.225,5.841,12.256,9.471.031,3.532-4.064,6.85-11.53,9.342-7.355,2.455-17.2,3.861-27.722,3.96q-.594.005-1.186.006m.368-25.909c-10.49,0-20.978,1.312-28.761,3.909-7.245,2.418-11.219,5.567-11.19,8.866.029,3.348,4.369,6.629,11.906,9,.255.08.51.158.77.236,15.728,4.7,40.7,4.454,55.657-.54,7.245-2.419,11.219-5.567,11.19-8.866-.029-3.348-4.369-6.629-11.908-9-.256-.08-.511-.159-.772-.236-7.545-2.252-17.219-3.369-26.892-3.369" transform="translate(-219.467 -469.638)"/>
    <path id="Trazado_875017" data-name="Trazado 875017" d="M373.1,620.058l.008,10.777c0,3.266-3.772,6.54-11.36,9.073-15.176,5.065-39.942,5.279-55.807.543-.261-.078-.518-.157-.773-.237-8.038-2.53-12.076-5.894-12.08-9.267l-.008-10.777c0,3.373,4.042,6.737,12.08,9.267.256.08.513.159.774.237,15.865,4.737,40.631,4.523,55.806-.542,7.588-2.533,11.365-5.807,11.36-9.073" transform="translate(-220.219 -465.915)" fill="#fff"/>
    <path id="Trazado_875018" data-name="Trazado 875018" d="M332.163,643.358c-10.069,0-19.633-1.206-27.049-3.42-.262-.078-.52-.157-.777-.238-7.9-2.486-12.249-5.861-12.254-9.5l-.008-10.777h0a.249.249,0,0,1,.248-.249.244.244,0,0,1,.249.248c.005,3.358,4.345,6.65,11.906,9.03.255.08.51.159.77.236,15.728,4.7,40.7,4.454,55.657-.54,7.217-2.409,11.191-5.546,11.19-8.832v0a.249.249,0,0,1,.248-.249h0a.249.249,0,0,1,.249.248v.006l.008,10.771c.005,3.519-4.09,6.825-11.53,9.309-7.355,2.455-17.2,3.861-27.721,3.96q-.594.006-1.187.006m-39.589-21.831.007,8.668c0,3.358,4.344,6.649,11.906,9.03.255.08.51.158.77.236,15.728,4.7,40.695,4.454,55.657-.54,7.221-2.41,11.195-5.549,11.19-8.837l-.007-8.67c-1.3,2.717-5.1,5.221-11.034,7.2-7.355,2.455-17.2,3.861-27.721,3.96-10.5.1-20.529-1.114-28.235-3.415-.262-.078-.52-.157-.777-.238-6.348-2-10.405-4.571-11.756-7.4" transform="translate(-219.467 -465.164)"/>
    <path id="Trazado_875019" data-name="Trazado 875019" d="M360.239,571.52c.262.078.519.157.776.238,15.824,4.98,16.146,13.191.722,18.34-15.176,5.065-39.942,5.279-55.806.543-.261-.078-.518-.157-.774-.237-15.821-4.98-16.144-13.191-.72-18.34,15.174-5.065,39.938-5.279,55.8-.543" transform="translate(-220.219 -426.881)" fill="#fff"/>
    <path id="Trazado_875020" data-name="Trazado 875020" d="M332.155,593.547c-10.069,0-19.633-1.206-27.049-3.42-.262-.078-.52-.157-.777-.238-7.871-2.477-12.223-5.841-12.254-9.471-.031-3.532,4.064-6.85,11.53-9.342,7.354-2.454,17.2-3.861,27.719-3.96,10.505-.1,20.528,1.114,28.234,3.414.263.079.521.158.779.239,7.872,2.477,12.225,5.841,12.256,9.471.031,3.532-4.064,6.849-11.53,9.341-7.355,2.455-17.2,3.861-27.722,3.96q-.594.006-1.187.006m.369-25.909c-10.49,0-20.978,1.312-28.761,3.909-7.245,2.418-11.219,5.567-11.19,8.866.029,3.348,4.369,6.629,11.906,9,.255.08.51.158.77.236,15.728,4.7,40.7,4.454,55.657-.54,7.245-2.418,11.219-5.567,11.19-8.866-.029-3.348-4.369-6.629-11.908-9-.256-.08-.511-.159-.772-.237-7.545-2.252-17.219-3.368-26.892-3.368" transform="translate(-219.467 -426.129)"/>
    <path id="Trazado_875021" data-name="Trazado 875021" d="M717.125,734.752l.008,10.777c0,3.266-3.772,6.54-11.36,9.073-15.176,5.065-39.942,5.279-55.807.543-.261-.078-.518-.157-.773-.237-8.038-2.53-12.076-5.894-12.08-9.267l-.008-10.777c.005,3.373,4.042,6.737,12.081,9.267.256.081.513.159.773.237,15.865,4.737,40.631,4.523,55.807-.542,7.588-2.533,11.365-5.807,11.36-9.073" transform="translate(-478.724 -552.097)" fill="#fff"/>
    <path id="Trazado_875022" data-name="Trazado 875022" d="M676.193,758.052c-10.069,0-19.633-1.206-27.049-3.42-.262-.078-.52-.157-.777-.238-7.9-2.486-12.249-5.861-12.254-9.5l-.008-10.777h0a.249.249,0,0,1,.248-.249h0a.249.249,0,0,1,.249.248c0,3.358,4.344,6.65,11.906,9.03.255.08.51.159.77.236,15.728,4.7,40.7,4.453,55.657-.54,7.217-2.409,11.191-5.546,11.19-8.832v0a.249.249,0,0,1,.248-.249h0a.249.249,0,0,1,.249.248v.005l.008,10.772c.005,3.519-4.09,6.825-11.53,9.309-7.355,2.455-17.2,3.861-27.721,3.96q-.594.005-1.187.005M636.6,736.222l.007,8.668c0,3.358,4.344,6.65,11.906,9.03.255.08.51.159.77.236,15.728,4.7,40.695,4.453,55.657-.54,7.221-2.411,11.195-5.549,11.19-8.837l-.007-8.67c-1.3,2.717-5.1,5.221-11.034,7.2-7.355,2.455-17.2,3.861-27.721,3.96-10.5.1-20.529-1.114-28.235-3.415-.262-.078-.52-.157-.777-.238-6.348-2-10.405-4.571-11.755-7.4" transform="translate(-477.973 -551.346)"/>
    <path id="Trazado_875023" data-name="Trazado 875023" d="M704.267,686.214c.262.078.519.157.776.238,15.824,4.98,16.146,13.191.722,18.34-15.176,5.065-39.942,5.279-55.807.543-.261-.078-.518-.157-.773-.237-15.821-4.98-16.144-13.191-.72-18.34,15.174-5.065,39.938-5.279,55.8-.543" transform="translate(-478.724 -513.063)" fill="#fff"/>
    <path id="Trazado_875024" data-name="Trazado 875024" d="M676.184,708.241c-10.069,0-19.634-1.206-27.049-3.42-.262-.078-.52-.157-.777-.238-7.871-2.477-12.223-5.841-12.254-9.471-.031-3.532,4.064-6.849,11.53-9.342,7.354-2.454,17.2-3.861,27.719-3.96,10.5-.1,20.528,1.114,28.234,3.414.264.079.521.158.779.239,7.872,2.478,12.225,5.841,12.256,9.471.031,3.532-4.064,6.849-11.53,9.341-7.354,2.455-17.2,3.861-27.721,3.96q-.594.005-1.186.005m.368-25.909c-10.49,0-20.978,1.312-28.761,3.909-7.245,2.419-11.219,5.567-11.19,8.866.029,3.348,4.368,6.629,11.906,9,.255.08.511.159.77.236,15.728,4.7,40.7,4.454,55.657-.54,7.245-2.418,11.219-5.567,11.19-8.865-.029-3.348-4.37-6.629-11.908-9-.256-.081-.511-.159-.772-.237-7.545-2.253-17.219-3.369-26.892-3.369" transform="translate(-477.972 -512.311)"/>
    <path id="Trazado_875025" data-name="Trazado 875025" d="M716.743,677.962l.008,10.777c0,3.266-3.772,6.539-11.36,9.073-15.176,5.065-39.942,5.279-55.807.542-.261-.078-.518-.156-.773-.237-8.038-2.53-12.076-5.894-12.08-9.267l-.008-10.777c0,3.373,4.042,6.737,12.08,9.267.256.08.513.159.774.237,15.864,4.737,40.63,4.523,55.806-.543,7.588-2.533,11.365-5.807,11.36-9.073" transform="translate(-478.436 -509.424)" fill="#fff"/>
    <path id="Trazado_875026" data-name="Trazado 875026" d="M675.81,701.262c-10.069,0-19.634-1.207-27.049-3.421-.262-.078-.52-.157-.777-.238-7.9-2.486-12.249-5.861-12.254-9.5l-.008-10.777h0a.249.249,0,0,1,.248-.249h0a.249.249,0,0,1,.249.248c0,3.358,4.344,6.65,11.906,9.03.255.08.511.159.77.236,15.728,4.7,40.7,4.454,55.657-.54,7.217-2.409,11.191-5.546,11.19-8.832v0a.249.249,0,0,1,.248-.249h0a.248.248,0,0,1,.249.248v.005l.008,10.772c0,3.519-4.09,6.825-11.53,9.309-7.354,2.455-17.2,3.861-27.722,3.96q-.594.006-1.186.006m-39.59-21.831.007,8.668c0,3.358,4.344,6.65,11.906,9.03.255.08.511.159.77.236,15.728,4.7,40.7,4.454,55.657-.54,7.221-2.411,11.195-5.549,11.19-8.837l-.007-8.67c-1.3,2.717-5.1,5.221-11.035,7.2-7.354,2.455-17.2,3.861-27.721,3.96-10.5.1-20.529-1.114-28.235-3.415-.262-.078-.52-.157-.777-.238-6.348-2-10.405-4.571-11.756-7.4" transform="translate(-477.685 -508.673)"/>
    <path id="Trazado_875027" data-name="Trazado 875027" d="M703.884,629.424c.262.078.519.157.776.238,15.824,4.98,16.146,13.191.722,18.34-15.176,5.065-39.942,5.279-55.806.543-.261-.078-.518-.157-.774-.237-15.822-4.98-16.144-13.191-.72-18.34,15.174-5.065,39.938-5.279,55.8-.543" transform="translate(-478.436 -470.391)" fill="#fff"/>
    <path id="Trazado_875028" data-name="Trazado 875028" d="M675.8,651.45c-10.069,0-19.633-1.206-27.049-3.42-.262-.078-.52-.157-.777-.238-7.871-2.477-12.223-5.841-12.254-9.471-.031-3.532,4.064-6.849,11.53-9.342,7.354-2.454,17.2-3.861,27.719-3.96,10.5-.1,20.528,1.114,28.233,3.414.263.078.521.158.779.239,7.872,2.478,12.225,5.841,12.256,9.471.03,3.532-4.064,6.85-11.53,9.342-7.354,2.455-17.2,3.861-27.721,3.96q-.594.006-1.186.006m.369-25.909c-10.49,0-20.978,1.312-28.761,3.909-7.245,2.418-11.219,5.567-11.19,8.866.029,3.348,4.368,6.628,11.906,9,.255.08.511.158.77.236,15.728,4.7,40.7,4.454,55.657-.54,7.245-2.419,11.219-5.567,11.19-8.865-.029-3.348-4.369-6.629-11.908-9-.256-.08-.511-.159-.772-.236h0c-7.545-2.252-17.219-3.369-26.892-3.369" transform="translate(-477.685 -469.639)"/>
    <path id="Trazado_875029" data-name="Trazado 875029" d="M716.743,620.058l.008,10.777c0,3.266-3.772,6.54-11.36,9.073-15.176,5.065-39.942,5.279-55.807.543-.261-.078-.518-.157-.773-.237-8.038-2.53-12.076-5.894-12.08-9.267l-.008-10.777c0,3.373,4.042,6.737,12.08,9.267.256.08.513.159.774.237,15.864,4.737,40.63,4.523,55.806-.542,7.588-2.533,11.365-5.807,11.36-9.073" transform="translate(-478.436 -465.915)" fill="#fff"/>
    <path id="Trazado_875030" data-name="Trazado 875030" d="M675.81,643.359c-10.069,0-19.634-1.207-27.049-3.421-.262-.078-.52-.157-.777-.238-7.9-2.486-12.249-5.861-12.254-9.5l-.008-10.777h0a.248.248,0,0,1,.248-.249h0a.249.249,0,0,1,.249.248c0,3.358,4.344,6.65,11.906,9.029.255.08.511.159.77.236,15.728,4.7,40.7,4.454,55.657-.54,7.217-2.409,11.191-5.546,11.19-8.832h0v0a.249.249,0,0,1,.248-.249h0a.249.249,0,0,1,.249.248v.005l.008,10.772c0,3.519-4.09,6.825-11.53,9.309-7.354,2.455-17.2,3.861-27.722,3.96q-.594.005-1.186.006m-39.59-21.831.007,8.668c0,3.359,4.344,6.65,11.906,9.03.255.08.511.159.77.236,15.728,4.7,40.7,4.454,55.657-.54,7.221-2.411,11.195-5.549,11.19-8.837l-.007-8.67c-1.3,2.717-5.1,5.22-11.035,7.2-7.355,2.455-17.2,3.861-27.721,3.96-10.5.1-20.529-1.114-28.235-3.415-.262-.078-.52-.157-.777-.238-6.348-2-10.405-4.571-11.756-7.4" transform="translate(-477.685 -465.164)"/>
    <path id="Trazado_875031" data-name="Trazado 875031" d="M703.884,571.52c.262.078.519.157.776.238,15.824,4.98,16.146,13.191.722,18.34-15.176,5.065-39.942,5.279-55.806.543-.261-.078-.518-.157-.774-.237-15.822-4.98-16.144-13.191-.72-18.34,15.174-5.065,39.938-5.279,55.8-.543" transform="translate(-478.436 -426.881)" fill="#fff"/>
    <path id="Trazado_875032" data-name="Trazado 875032" d="M675.8,593.547c-10.069,0-19.633-1.206-27.049-3.42-.262-.078-.52-.157-.777-.238-7.871-2.477-12.223-5.841-12.254-9.471-.031-3.532,4.064-6.849,11.53-9.342,7.354-2.454,17.2-3.861,27.719-3.96,10.5-.1,20.528,1.114,28.233,3.414.263.079.521.158.779.239,7.872,2.477,12.225,5.841,12.256,9.471.03,3.532-4.064,6.849-11.53,9.341-7.354,2.455-17.2,3.861-27.721,3.96q-.594.006-1.186.006m.369-25.909c-10.49,0-20.978,1.312-28.761,3.909-7.245,2.418-11.219,5.567-11.19,8.866.029,3.348,4.368,6.629,11.906,9,.255.08.511.158.77.236,15.728,4.7,40.7,4.454,55.657-.54,7.245-2.418,11.219-5.567,11.19-8.865-.029-3.348-4.369-6.629-11.908-9-.256-.08-.511-.159-.772-.237-7.545-2.252-17.219-3.368-26.892-3.368" transform="translate(-477.685 -426.13)"/>
    <path id="Trazado_875033" data-name="Trazado 875033" d="M1019.993,445.088H982.152a.249.249,0,0,1,0-.5h37.592V418.453a.248.248,0,0,1,.073-.176l15.66-15.661V357.164a.249.249,0,1,1,.5,0V402.72a.248.248,0,0,1-.073.176l-15.66,15.66v26.283a.249.249,0,0,1-.249.249" transform="translate(-737.807 -268.188)"/>
    <path id="Trazado_875034" data-name="Trazado 875034" d="M1033.183,665.2H982.152a.249.249,0,0,1,0-.5h50.783V639.491a.249.249,0,1,1,.5,0v25.457a.248.248,0,0,1-.249.249" transform="translate(-737.807 -480.33)"/>
    <path id="Trazado_875035" data-name="Trazado 875035" d="M1011.369,435.009H982.152a.249.249,0,0,1,0-.5h28.969V354.42a.249.249,0,0,1,.5,0v80.341a.249.249,0,0,1-.249.249" transform="translate(-737.807 -266.126)"/>
    <path id="Trazado_875036" data-name="Trazado 875036" d="M1002.6,426.857H982.152a.249.249,0,0,1,0-.5h20.2V354.419a.249.249,0,0,1,.5,0v72.19a.249.249,0,0,1-.249.249" transform="translate(-737.807 -266.125)"/>
    <path id="Trazado_875037" data-name="Trazado 875037" d="M845.142,403.162a.249.249,0,0,1-.249-.249V389.083a.249.249,0,0,1,.249-.249H890.08V354.42a.249.249,0,1,1,.5,0v34.663a.249.249,0,0,1-.249.249H845.39v13.582a.249.249,0,0,1-.249.249" transform="translate(-634.857 -266.126)"/>
    <path id="Trazado_875038" data-name="Trazado 875038" d="M803.837,403.162a.249.249,0,0,1-.249-.249V379.827a.249.249,0,0,1,.249-.249H841.19V354.42a.249.249,0,1,1,.5,0v25.407a.249.249,0,0,1-.249.249H804.085v22.838a.249.249,0,0,1-.249.249" transform="translate(-603.821 -266.126)"/>
    <path id="Trazado_875039" data-name="Trazado 875039" d="M1182.507,620.893a2.807,2.807,0,1,1-2.807-2.807,2.807,2.807,0,0,1,2.807,2.807" transform="translate(-884.325 -464.433)" fill="#5479f7"/>
    <path id="Trazado_875040" data-name="Trazado 875040" d="M1094.757,558.952a2.807,2.807,0,1,1-2.807-2.807,2.807,2.807,0,0,1,2.807,2.807" transform="translate(-818.389 -417.89)" fill="#5479f7"/>
    <path id="Trazado_875041" data-name="Trazado 875041" d="M1192.735,414.138a2.807,2.807,0,1,1-2.807-2.807,2.807,2.807,0,0,1,2.807,2.807" transform="translate(-892.01 -309.076)" fill="#fff"/>
    <path id="Trazado_875042" data-name="Trazado 875042" d="M1189.177,416.441a3.055,3.055,0,1,1,3.055-3.055,3.058,3.058,0,0,1-3.055,3.055m0-5.613a2.558,2.558,0,1,0,2.558,2.558,2.561,2.561,0,0,0-2.558-2.558" transform="translate(-891.259 -308.325)"/>
    <path id="Trazado_875043" data-name="Trazado 875043" d="M1021.987,486.125a2.807,2.807,0,1,1-2.807-2.807,2.807,2.807,0,0,1,2.807,2.807" transform="translate(-763.709 -363.168)" fill="#fff"/>
    <path id="Trazado_875044" data-name="Trazado 875044" d="M1018.429,488.428a3.055,3.055,0,1,1,3.055-3.055,3.059,3.059,0,0,1-3.055,3.055m0-5.613a2.558,2.558,0,1,0,2.558,2.558,2.561,2.561,0,0,0-2.558-2.558" transform="translate(-762.958 -362.416)"/>
    <path id="Trazado_875045" data-name="Trazado 875045" d="M950.17,399.114a2.807,2.807,0,1,1-2.807-2.807,2.807,2.807,0,0,1,2.807,2.807" transform="translate(-709.746 -297.787)" fill="#5479f7"/>
    <path id="Trazado_875046" data-name="Trazado 875046" d="M851.506,449.227a2.807,2.807,0,1,1-2.807-2.807,2.807,2.807,0,0,1,2.807,2.807" transform="translate(-635.609 -335.443)" fill="#fff"/>
    <path id="Trazado_875047" data-name="Trazado 875047" d="M847.948,451.53A3.055,3.055,0,1,1,851,448.475a3.059,3.059,0,0,1-3.055,3.055m0-5.613a2.558,2.558,0,1,0,2.558,2.558,2.561,2.561,0,0,0-2.558-2.558" transform="translate(-634.857 -334.691)"/>
  </g>
</svg>
