<svg id="Grupo_1101653" data-name="Grupo 1101653" xmlns="http://www.w3.org/2000/svg" xmlns:xlink="http://www.w3.org/1999/xlink" width="283.422" height="188.932" viewBox="0 0 283.422 188.932">
  <defs>
    <clipPath id="clip-path">
      <rect id="Rectángulo_401214" data-name="Rectángulo 401214" width="283.422" height="188.932" fill="none"/>
    </clipPath>
  </defs>
  <g id="Grupo_1099384" data-name="Grupo 1099384" clip-path="url(#clip-path)">
    <path id="Trazado_874348" data-name="Trazado 874348" d="M96.541,465.074s21.436-.951,38.854,7.135c23.621,10.966,61.63,45.186,52.252,64.688-11.819,24.576-67.882.476-67.882.476l-46.446.951s-57.4,18.291-69.806-1.533c-12.5-19.977,24.325-50.147,48.369-62.679,20.99-10.94,44.659-9.037,44.659-9.037" transform="translate(-0.765 -359.239)" fill="#fff"/>
    <path id="Trazado_874349" data-name="Trazado 874349" d="M163.633,547.435a81.877,81.877,0,0,1-15.168-1.6,162.987,162.987,0,0,1-29.511-8.973l-46.364.95a200,200,0,0,1-30.257,6.666c-9.253,1.219-17.152,1.354-23.478.4-7.949-1.2-13.434-4.127-16.3-8.707C-.1,531.937-.689,527.011.8,521.535c2.806-10.317,12.387-20.547,19.931-27.313a154.141,154.141,0,0,1,30.28-21.049c20.6-10.736,44.071-9.115,44.769-9.064.657-.026,21.861-.775,38.945,7.156,9.4,4.364,20.8,12.265,30.5,21.136,10.961,10.029,18.694,20.288,21.774,28.889,2.065,5.765,2.1,10.8.091,14.969-2.73,5.676-8.032,9.231-15.759,10.568a45.29,45.29,0,0,1-7.694.608M119,536.409a.225.225,0,0,1,.09.018,162.46,162.46,0,0,0,29.468,8.965c8.967,1.708,16.6,2.04,22.7.986,7.573-1.311,12.762-4.782,15.424-10.316,1.95-4.054,1.913-8.972-.11-14.618-3.056-8.532-10.746-18.727-21.653-28.706-9.663-8.841-21.019-16.713-30.38-21.059-17.169-7.971-38.533-7.124-38.748-7.114h-.028c-.236-.018-23.848-1.77-44.536,9.012a153.639,153.639,0,0,0-30.186,20.984c-7.5,6.725-17.019,16.884-19.8,27.094-1.455,5.349-.883,10.153,1.7,14.279,2.794,4.462,8.17,7.322,15.981,8.5,6.283.946,14.138.811,23.348-.4a199.311,199.311,0,0,0,30.216-6.659.232.232,0,0,1,.064-.01l46.446-.951Z" transform="translate(0 -358.502)"/>
    <path id="Trazado_874350" data-name="Trazado 874350" d="M493.853,689.839c-8.7,0-18.036-2.283-27.9-6.838a.227.227,0,1,1,.191-.413c15.33,7.081,29.361,8.638,41.7,4.628.625-.2,1.253-.423,1.872-.657l-5.4-3.019a.227.227,0,1,1,.222-.4l5.828,3.256a.227.227,0,0,1-.028.41c-.773.3-1.564.583-2.35.839a45.49,45.49,0,0,1-14.135,2.191" transform="translate(-359.915 -527.382)"/>
    <path id="Trazado_874351" data-name="Trazado 874351" d="M152.983,698.348a45.456,45.456,0,0,1-14.135-2.191c-.787-.256-1.578-.538-2.35-.839a.227.227,0,0,1-.028-.41l5.828-3.256a.227.227,0,0,1,.222.4l-5.4,3.019c.619.233,1.247.454,1.873.657,12.341,4.01,26.372,2.453,41.7-4.627a.227.227,0,1,1,.191.413c-9.862,4.555-19.2,6.838-27.9,6.838" transform="translate(-105.352 -533.956)"/>
    <path id="Trazado_874352" data-name="Trazado 874352" d="M276.7,642.79H199.6a3.108,3.108,0,0,1-3.028-2.412L186.343,595.9a3.108,3.108,0,0,1,3.027-3.806h97.566a3.108,3.108,0,0,1,3.027,3.806l-10.232,44.475a3.107,3.107,0,0,1-3.028,2.412" transform="translate(-143.915 -457.48)" fill="#0b47db"/>
    <path id="Trazado_874353" data-name="Trazado 874353" d="M402.373,656.545a2.124,2.124,0,1,0,2.124-2.124,2.124,2.124,0,0,0-2.124,2.124" transform="translate(-310.891 -505.635)" fill="#e2eaff"/>
    <path id="Trazado_874354" data-name="Trazado 874354" d="M346.252,277.1s8.883-25.542-2.147-24.223a18.626,18.626,0,0,0-4.882-3.895,19.364,19.364,0,0,0-17.368-.589,19,19,0,0,0-7.131,5.949s-6.247-1.319-7.028,8.058,4.783,17.631,4.783,17.631Z" transform="translate(-237.681 -190.544)"/>
    <path id="Trazado_874355" data-name="Trazado 874355" d="M372.591,417.449a9.66,9.66,0,0,1-9.619-10.508l.875-18.512h17.489l.875,18.512a9.66,9.66,0,0,1-9.619,10.508" transform="translate(-280.419 -300.117)" fill="#fff"/>
    <path id="Trazado_874356" data-name="Trazado 874356" d="M371.821,416.9a9.888,9.888,0,0,1-9.846-10.756l.875-18.5a.227.227,0,0,1,.227-.217h17.489a.228.228,0,0,1,.227.217l.875,18.511a9.888,9.888,0,0,1-9.847,10.747m-8.527-29.02-.865,18.295a9.43,9.43,0,1,0,18.785.009l-.866-18.3Z" transform="translate(-279.649 -299.346)"/>
    <path id="Trazado_874357" data-name="Trazado 874357" d="M342.722,342.327c-5.819.147-4.528-8.682-4.528-8.682-5.491,6.886-12.08,1.172-12.08,1.172-9.608,9.084-14.67-1.685-14,1.172,1,4.283-.8,6.634-1.512,7.366-2.461-1.568-6.442-3.217-5.9,3,.6,6.943,5.007,4.306,6.925,2.8,1.907,6.218,5.864,13.01,15.153,12.719,8.973-.281,13.477-6.836,15.242-13.226,2.1,1.486,5.846,3.174,6.4-3.192.525-6.045-3.225-4.651-5.7-3.128" transform="translate(-235.385 -257.789)" fill="#fff"/>
    <path id="Trazado_874358" data-name="Trazado 874358" d="M325.437,361.337c-7.112,0-12.055-4.228-14.7-12.577-1.22.91-3.255,2.1-4.85,1.408-1.23-.534-1.964-2.071-2.181-4.567-.2-2.3.2-3.777,1.2-4.381,1.315-.8,3.354.115,4.892,1.07.8-.885,2.244-3.116,1.328-7.022-.077-.329-.124-.612.085-.737.228-.136.435.046.936.487,1.677,1.477,6.128,5.4,13.046-1.139a.227.227,0,0,1,.3-.007,9.508,9.508,0,0,0,6.306,2.141,7.914,7.914,0,0,0,5.447-3.283.227.227,0,0,1,.4.175c-.007.049-.694,4.945,1.345,7.243a3.616,3.616,0,0,0,2.891,1.18c2.14-1.308,3.755-1.644,4.8-1,.987.609,1.387,2.08,1.188,4.373-.214,2.459-.93,3.988-2.128,4.543-1.38.64-3.089-.148-4.366-1a20.2,20.2,0,0,1-4.889,8.7,14.967,14.967,0,0,1-10.478,4.389c-.193.006-.386.009-.577.009m-14.583-13.183a.228.228,0,0,1,.217.161c2.625,8.562,7.652,12.787,14.928,12.558,10.4-.326,13.976-9.242,15.03-13.06a.227.227,0,0,1,.351-.125c1.2.849,2.9,1.735,4.176,1.143,1.039-.482,1.667-1.885,1.866-4.17.183-2.108-.144-3.435-.973-3.947-1.117-.688-3,.18-4.377,1.032a.229.229,0,0,1-.113.034,4.08,4.08,0,0,1-3.3-1.332c-1.7-1.919-1.651-5.353-1.533-6.866a8.041,8.041,0,0,1-5.283,2.883,9.7,9.7,0,0,1-6.483-2.12c-7.138,6.63-11.93,2.407-13.513,1.013-.1-.086-.2-.177-.29-.252l.013.057c1.016,4.339-.76,6.744-1.571,7.577a.229.229,0,0,1-.285.033c-1.444-.92-3.41-1.869-4.571-1.165-.836.507-1.166,1.837-.982,3.953.2,2.317.844,3.727,1.909,4.189,1.5.65,3.556-.691,4.649-1.549a.226.226,0,0,1,.14-.048m31.1-6.6h0Z" transform="translate(-234.616 -257.016)"/>
    <path id="Trazado_874359" data-name="Trazado 874359" d="M476.336,378.688a.227.227,0,0,1-.169-.379l2.538-2.833a.227.227,0,0,1,.339.3l-2.538,2.833a.227.227,0,0,1-.169.076" transform="translate(-367.863 -290.051)"/>
    <path id="Trazado_874360" data-name="Trazado 874360" d="M316.782,382.644a.226.226,0,0,1-.169-.076l-2.538-2.833a.227.227,0,1,1,.339-.3l2.538,2.833a.227.227,0,0,1-.169.379" transform="translate(-242.623 -293.108)"/>
    <path id="Trazado_874361" data-name="Trazado 874361" d="M266.4,45.449a22.079,22.079,0,0,1-15.715-6.509l-9.1-9.059-9.344,9.313-.062.061a22.224,22.224,0,1,1,1.173-30.847l8.228,8.188,9.484-9.453.093-.09a22.225,22.225,0,1,1,15.246,38.4M248.246,23.236l9.083,9.039a12.812,12.812,0,1,0,.324-18.415ZM216.78,10.413a12.812,12.812,0,1,0,8.844,22.082l9.283-9.253-8.3-8.263q-.109-.108-.21-.223a12.823,12.823,0,0,0-9.614-4.343" transform="translate(-150.323 -0.773)" fill="#0b47db"/>
    <path id="Trazado_874362" data-name="Trazado 874362" d="M265.624,44.9a22.305,22.305,0,0,1-15.876-6.576l-8.941-8.9-9.249,9.217a22.452,22.452,0,1,1,1.185-31.163L240.8,15.5l9.323-9.293c.032-.032.064-.063.1-.095a22.452,22.452,0,1,1,15.4,38.788M240.807,28.881a.226.226,0,0,1,.16.066l9.1,9.058A22,22,0,1,0,265.624.455a21.91,21.91,0,0,0-15.089,5.991l-.089.086-9.484,9.453a.227.227,0,0,1-.321,0L232.413,7.8a22,22,0,1,0-1.17,30.522l.059-.058,9.344-9.313a.226.226,0,0,1,.16-.066m24.817,6.61a12.967,12.967,0,0,1-9.228-3.827l-9.083-9.039a.227.227,0,0,1,0-.322l9.407-9.376a13.039,13.039,0,1,1,8.9,22.564M247.8,22.463l8.922,8.878a12.584,12.584,0,1,0,.318-18.088ZM216.008,35.491a13.039,13.039,0,1,1,9.784-21.659q.1.109.2.212l8.3,8.263a.228.228,0,0,1,0,.322l-9.283,9.253a12.982,12.982,0,0,1-9,3.608m0-25.623a12.584,12.584,0,1,0,8.687,21.689l9.118-9.088-8.141-8.1c-.076-.075-.149-.153-.22-.234a12.6,12.6,0,0,0-9.443-4.266" transform="translate(-149.55 0)" fill="#5479f7"/>
    <path id="Trazado_874363" data-name="Trazado 874363" d="M346.472,70.087a4.706,4.706,0,0,1-3.322-8.04l16.6-16.543a4.706,4.706,0,0,1,6.645,6.667l-16.6,16.543a4.692,4.692,0,0,1-3.322,1.373" transform="translate(-264.063 -34.098)" fill="#fff"/>
    <path id="Trazado_874364" data-name="Trazado 874364" d="M345.708,69.549a4.934,4.934,0,0,1-3.483-8.428l16.6-16.543a4.934,4.934,0,0,1,6.966,6.989l-16.6,16.543a4.9,4.9,0,0,1-3.483,1.439m16.6-25.954a4.464,4.464,0,0,0-3.162,1.3l-16.6,16.543a4.479,4.479,0,0,0,6.324,6.345l16.6-16.543a4.477,4.477,0,0,0-3.162-7.649" transform="translate(-263.299 -33.332)" fill="#5479f7"/>
    <path id="Trazado_874365" data-name="Trazado 874365" d="M527.442,49.457a4.707,4.707,0,0,1-2.015-8.962,12.819,12.819,0,0,0,0-23.182A4.706,4.706,0,0,1,529.451,8.8a22.231,22.231,0,0,1,0,40.2,4.689,4.689,0,0,1-2.008.453" transform="translate(-403.886 -6.452)" fill="#fff"/>
    <path id="Trazado_874366" data-name="Trazado 874366" d="M526.665,48.907a4.96,4.96,0,0,1-4.464-2.826,4.934,4.934,0,0,1,2.352-6.569,12.592,12.592,0,0,0,0-22.771,4.934,4.934,0,1,1,4.218-8.92,22.458,22.458,0,0,1,0,40.612,4.894,4.894,0,0,1-2.106.474m0-41.108a4.48,4.48,0,0,0-1.917,8.53,13.047,13.047,0,0,1,0,23.594,4.48,4.48,0,0,0,1.918,8.529,4.436,4.436,0,0,0,1.911-.431,22,22,0,0,0,0-39.79,4.465,4.465,0,0,0-1.912-.432" transform="translate(-403.108 -5.674)" fill="#5479f7"/>
    <path id="Trazado_874367" data-name="Trazado 874367" d="M201.784,36.984a4.7,4.7,0,0,1-4.031-2.272,22.226,22.226,0,0,1,35.7-26.183,4.706,4.706,0,0,1-7.06,6.226,12.814,12.814,0,0,0-20.587,15.086,4.708,4.708,0,0,1-4.023,7.143" transform="translate(-150.323 -0.773)" fill="#fff"/>
    <path id="Trazado_874368" data-name="Trazado 874368" d="M201.012,36.439a4.9,4.9,0,0,1-4.226-2.381A22.453,22.453,0,0,1,232.852,7.607a4.934,4.934,0,1,1-7.4,6.526,12.586,12.586,0,0,0-20.222,14.818,4.935,4.935,0,0,1-4.217,7.488m15-35.984a22,22,0,0,0-18.833,33.368,4.479,4.479,0,0,0,7.665-4.636,13.041,13.041,0,0,1,20.952-15.354,4.479,4.479,0,0,0,6.719-5.925,22.013,22.013,0,0,0-16.5-7.453" transform="translate(-149.55)" fill="#5479f7"/>
    <path id="Trazado_874369" data-name="Trazado 874369" d="M837.813,328.1H736.792a8.27,8.27,0,0,1-8.27-8.271V267.41a8.27,8.27,0,0,1,8.27-8.271h101.02a8.271,8.271,0,0,1,8.271,8.271v52.417a8.27,8.27,0,0,1-8.271,8.271" transform="translate(-562.888 -200.222)" fill="#fff"/>
    <path id="Trazado_874370" data-name="Trazado 874370" d="M837.039,327.552H736.019a8.508,8.508,0,0,1-8.5-8.5V266.638a8.508,8.508,0,0,1,8.5-8.5h101.02a8.508,8.508,0,0,1,8.5,8.5v52.417a8.508,8.508,0,0,1-8.5,8.5m-101.02-68.958a8.052,8.052,0,0,0-8.043,8.043v52.417a8.052,8.052,0,0,0,8.043,8.043h101.02a8.052,8.052,0,0,0,8.043-8.043V266.638a8.052,8.052,0,0,0-8.043-8.043Z" transform="translate(-562.115 -199.45)"/>
    <path id="Trazado_874371" data-name="Trazado 874371" d="M790.856,321.564h19.2a1.679,1.679,0,0,0,1.679-1.679v-.174a1.679,1.679,0,0,0-1.679-1.679h-19.2a1.679,1.679,0,0,0-1.679,1.679v.174a1.679,1.679,0,0,0,1.679,1.679" transform="translate(-609.753 -245.726)" fill="#e2eaff"/>
    <path id="Trazado_874372" data-name="Trazado 874372" d="M812.175,354.709h9.846a1.679,1.679,0,0,0,1.679-1.679v-.174a1.679,1.679,0,0,0-1.679-1.679h-9.846a1.679,1.679,0,0,0-1.679,1.679v.174a1.679,1.679,0,0,0,1.679,1.679" transform="translate(-626.225 -271.335)" fill="#e2eaff"/>
    <path id="Trazado_874373" data-name="Trazado 874373" d="M790.856,387.855h14.693a1.679,1.679,0,0,0,1.679-1.679V386a1.679,1.679,0,0,0-1.679-1.679H790.856A1.679,1.679,0,0,0,789.177,386v.174a1.679,1.679,0,0,0,1.679,1.679" transform="translate(-609.753 -296.945)" fill="#e2eaff"/>
    <path id="Trazado_874374" data-name="Trazado 874374" d="M815.029,421h9.2a1.679,1.679,0,0,0,1.679-1.679v-.174a1.679,1.679,0,0,0-1.679-1.679h-9.2a1.679,1.679,0,0,0-1.679,1.679v.174A1.679,1.679,0,0,0,815.029,421" transform="translate(-628.43 -322.555)" fill="#e2eaff"/>
    <path id="Trazado_874375" data-name="Trazado 874375" d="M806.993,474.035h11.024a1.679,1.679,0,0,0,1.679-1.679v-.174a1.679,1.679,0,0,0-1.679-1.679H806.993a1.679,1.679,0,0,0-1.679,1.679v.174a1.679,1.679,0,0,0,1.679,1.679" transform="translate(-622.221 -363.531)" fill="#e2eaff"/>
    <path id="Trazado_874376" data-name="Trazado 874376" d="M806.993,507.181h11.024A1.679,1.679,0,0,0,819.7,505.5v-.174a1.679,1.679,0,0,0-1.679-1.679H806.993a1.679,1.679,0,0,0-1.679,1.679v.174a1.679,1.679,0,0,0,1.679,1.679" transform="translate(-622.221 -389.142)" fill="#e2eaff"/>
    <path id="Trazado_874377" data-name="Trazado 874377" d="M903.131,321.564h14.694a1.679,1.679,0,0,0,1.679-1.679v-.174a1.679,1.679,0,0,0-1.679-1.679H903.131a1.679,1.679,0,0,0-1.679,1.679v.174a1.679,1.679,0,0,0,1.679,1.679" transform="translate(-696.502 -245.726)" fill="#e2eaff"/>
    <path id="Trazado_874378" data-name="Trazado 874378" d="M883.318,354.709h14.694a1.679,1.679,0,0,0,1.679-1.679v-.174a1.679,1.679,0,0,0-1.679-1.679H883.318a1.679,1.679,0,0,0-1.679,1.679v.174a1.679,1.679,0,0,0,1.679,1.679" transform="translate(-681.193 -271.335)" fill="#e2eaff"/>
    <path id="Trazado_874379" data-name="Trazado 874379" d="M883.318,387.855h35.715a1.679,1.679,0,0,0,1.679-1.679V386a1.679,1.679,0,0,0-1.679-1.679H883.318A1.679,1.679,0,0,0,881.639,386v.174a1.679,1.679,0,0,0,1.679,1.679" transform="translate(-681.193 -296.945)" fill="#e2eaff"/>
    <path id="Trazado_874380" data-name="Trazado 874380" d="M883.318,421h14.694a1.679,1.679,0,0,0,1.679-1.679v-.174a1.679,1.679,0,0,0-1.679-1.679H883.318a1.679,1.679,0,0,0-1.679,1.679v.174A1.679,1.679,0,0,0,883.318,421" transform="translate(-681.193 -322.555)" fill="#e2eaff"/>
    <path id="Trazado_874381" data-name="Trazado 874381" d="M883.318,474.035h8.687a1.679,1.679,0,0,0,1.679-1.679v-.174a1.679,1.679,0,0,0-1.679-1.679h-8.687a1.679,1.679,0,0,0-1.679,1.679v.174a1.679,1.679,0,0,0,1.679,1.679" transform="translate(-681.193 -363.531)" fill="#e2eaff"/>
    <path id="Trazado_874382" data-name="Trazado 874382" d="M883.318,507.181h14.694a1.679,1.679,0,0,0,1.679-1.679v-.174a1.679,1.679,0,0,0-1.679-1.679H883.318a1.679,1.679,0,0,0-1.679,1.679v.174a1.679,1.679,0,0,0,1.679,1.679" transform="translate(-681.193 -389.142)" fill="#e2eaff"/>
    <path id="Trazado_874383" data-name="Trazado 874383" d="M995.593,321.564h14.693a1.679,1.679,0,0,0,1.679-1.679v-.174a1.679,1.679,0,0,0-1.679-1.679H995.593a1.679,1.679,0,0,0-1.679,1.679v.174a1.679,1.679,0,0,0,1.679,1.679" transform="translate(-767.942 -245.726)" fill="#e2eaff"/>
    <path id="Trazado_874384" data-name="Trazado 874384" d="M975.78,354.709h9.488a1.679,1.679,0,0,0,1.679-1.679v-.174a1.679,1.679,0,0,0-1.679-1.679H975.78a1.679,1.679,0,0,0-1.679,1.679v.174a1.679,1.679,0,0,0,1.679,1.679" transform="translate(-752.634 -271.335)" fill="#fff"/>
    <path id="Trazado_874385" data-name="Trazado 874385" d="M1068.242,387.855H1088.3a1.679,1.679,0,0,0,1.679-1.679V386a1.679,1.679,0,0,0-1.679-1.679h-20.057a1.679,1.679,0,0,0-1.679,1.679v.174a1.679,1.679,0,0,0,1.679,1.679" transform="translate(-824.074 -296.945)" fill="#e2eaff"/>
    <path id="Trazado_874386" data-name="Trazado 874386" d="M975.78,421h20.959a1.679,1.679,0,0,0,1.679-1.679v-.174a1.679,1.679,0,0,0-1.679-1.679H975.78a1.679,1.679,0,0,0-1.679,1.679v.174A1.679,1.679,0,0,0,975.78,421" transform="translate(-752.634 -322.555)" fill="#e2eaff"/>
    <path id="Trazado_874387" data-name="Trazado 874387" d="M949.362,474.035h20.7a1.679,1.679,0,0,0,1.679-1.679v-.174a1.679,1.679,0,0,0-1.679-1.679h-20.7a1.679,1.679,0,0,0-1.679,1.679v.174a1.679,1.679,0,0,0,1.679,1.679" transform="translate(-732.222 -363.531)" fill="#e2eaff"/>
    <path id="Trazado_874388" data-name="Trazado 874388" d="M975.78,507.181h31.211a1.679,1.679,0,0,0,1.679-1.679v-.174a1.679,1.679,0,0,0-1.679-1.679H975.78a1.679,1.679,0,0,0-1.679,1.679v.174a1.679,1.679,0,0,0,1.679,1.679" transform="translate(-752.634 -389.142)" fill="#e2eaff"/>
    <path id="Trazado_874389" data-name="Trazado 874389" d="M1130.865,278.161a2.4,2.4,0,1,1-2.4-2.4,2.4,2.4,0,0,1,2.4,2.4" transform="translate(-870.041 -213.061)" fill="#e2eaff"/>
    <path id="Trazado_874390" data-name="Trazado 874390" d="M1161.731,278.161a2.4,2.4,0,1,1-2.4-2.4,2.4,2.4,0,0,1,2.4,2.4" transform="translate(-893.889 -213.061)" fill="#e2eaff"/>
    <path id="Trazado_874391" data-name="Trazado 874391" d="M1192.6,278.161a2.4,2.4,0,1,1-2.4-2.4,2.4,2.4,0,0,1,2.4,2.4" transform="translate(-917.737 -213.061)" fill="#e2eaff"/>
    <path id="Trazado_874392" data-name="Trazado 874392" d="M655.042,238.453H616.781a8.489,8.489,0,0,1-8.489-8.489v-.882a8.489,8.489,0,0,1,8.489-8.489h38.261a8.489,8.489,0,0,1,8.489,8.489v.882a8.489,8.489,0,0,1-8.489,8.489" transform="translate(-469.994 -170.441)" fill="#00ffdf"/>
    <path id="Trazado_874393" data-name="Trazado 874393" d="M746.135,250.371a.227.227,0,0,1-.161-.388l3.573-3.573-3.573-3.573a.227.227,0,0,1,.321-.321l3.734,3.734a.227.227,0,0,1,0,.321L746.3,250.3a.227.227,0,0,1-.161.067" transform="translate(-576.321 -187.326)"/>
    <path id="Trazado_874394" data-name="Trazado 874394" d="M699.174,250.371a.227.227,0,0,1-.161-.067l-3.734-3.734a.227.227,0,0,1,0-.321l3.734-3.734a.227.227,0,0,1,.322.321l-3.573,3.573,3.573,3.573a.227.227,0,0,1-.161.388" transform="translate(-537.153 -187.326)"/>
    <path id="Trazado_874395" data-name="Trazado 874395" d="M720.251,250.151a.227.227,0,0,1-.2-.33l3.893-7.65a.227.227,0,0,1,.406.206l-3.893,7.65a.228.228,0,0,1-.2.124" transform="translate(-556.322 -187.016)"/>
    <path id="Trazado_874396" data-name="Trazado 874396" d="M690.689,134.672a.227.227,0,0,1-.227-.227V98.207H607.52a.227.227,0,1,1,0-.455h83.169a.227.227,0,0,1,.227.227v36.465a.227.227,0,0,1-.227.227" transform="translate(-469.222 -75.528)"/>
    <rect id="Rectángulo_401202" data-name="Rectángulo 401202" width="13.536" height="46.652" transform="translate(201.98 142.053)" fill="#fff"/>
    <path id="Trazado_874397" data-name="Trazado 874397" d="M901.15,670.911H887.614a.227.227,0,0,1-.227-.227V624.031a.227.227,0,0,1,.227-.227H901.15a.227.227,0,0,1,.227.227v46.652a.227.227,0,0,1-.227.227m-13.309-.455h13.081v-46.2H887.842Z" transform="translate(-685.635 -481.979)"/>
    <path id="Trazado_874398" data-name="Trazado 874398" d="M908.826,646.572a3.89,3.89,0,1,1-3.89-3.889,3.89,3.89,0,0,1,3.89,3.889" transform="translate(-696.189 -496.565)" fill="#fff"/>
    <path id="Trazado_874399" data-name="Trazado 874399" d="M904.165,649.917a4.117,4.117,0,1,1,4.117-4.117,4.122,4.122,0,0,1-4.117,4.117m0-7.779a3.662,3.662,0,1,0,3.662,3.662,3.666,3.666,0,0,0-3.662-3.662" transform="translate(-695.417 -495.793)"/>
    <rect id="Rectángulo_401203" data-name="Rectángulo 401203" width="4.501" height="10.792" transform="translate(206.497 172.606)" fill="#e2eaff"/>
    <rect id="Rectángulo_401204" data-name="Rectángulo 401204" width="13.536" height="46.652" transform="translate(215.515 142.053)" fill="#fff"/>
    <path id="Trazado_874400" data-name="Trazado 874400" d="M960.686,670.911H947.15a.227.227,0,0,1-.227-.227V624.031a.227.227,0,0,1,.227-.227h13.536a.227.227,0,0,1,.227.227v46.652a.227.227,0,0,1-.227.227m-13.308-.455h13.081v-46.2H947.378Z" transform="translate(-731.635 -481.979)"/>
    <path id="Trazado_874401" data-name="Trazado 874401" d="M968.362,646.572a3.889,3.889,0,1,1-3.889-3.889,3.89,3.89,0,0,1,3.889,3.889" transform="translate(-742.189 -496.565)" fill="#fff"/>
    <path id="Trazado_874402" data-name="Trazado 874402" d="M963.7,649.917a4.117,4.117,0,1,1,4.117-4.117,4.121,4.121,0,0,1-4.117,4.117m0-7.779a3.662,3.662,0,1,0,3.662,3.662,3.666,3.666,0,0,0-3.662-3.662" transform="translate(-741.417 -495.793)"/>
    <rect id="Rectángulo_401205" data-name="Rectángulo 401205" width="4.501" height="10.792" transform="translate(220.033 172.606)" fill="#e2eaff"/>
    <rect id="Rectángulo_401206" data-name="Rectángulo 401206" width="13.536" height="46.652" transform="translate(229.051 142.053)" fill="#fff"/>
    <path id="Trazado_874403" data-name="Trazado 874403" d="M1020.222,670.911h-13.536a.227.227,0,0,1-.227-.227V624.031a.227.227,0,0,1,.227-.227h13.536a.227.227,0,0,1,.227.227v46.652a.227.227,0,0,1-.227.227m-13.308-.455h13.081v-46.2h-13.081Z" transform="translate(-777.635 -481.979)"/>
    <path id="Trazado_874404" data-name="Trazado 874404" d="M1027.9,646.572a3.889,3.889,0,1,1-3.89-3.889,3.89,3.89,0,0,1,3.89,3.889" transform="translate(-788.189 -496.565)" fill="#fff"/>
    <path id="Trazado_874405" data-name="Trazado 874405" d="M1023.237,649.917a4.117,4.117,0,1,1,4.117-4.117,4.121,4.121,0,0,1-4.117,4.117m0-7.779a3.662,3.662,0,1,0,3.662,3.662,3.666,3.666,0,0,0-3.662-3.662" transform="translate(-787.417 -495.793)"/>
    <rect id="Rectángulo_401207" data-name="Rectángulo 401207" width="4.501" height="10.792" transform="translate(233.569 172.606)" fill="#5479f7"/>
    <rect id="Rectángulo_401208" data-name="Rectángulo 401208" width="13.536" height="46.652" transform="translate(242.587 142.053)" fill="#fff"/>
    <path id="Trazado_874406" data-name="Trazado 874406" d="M1079.757,670.911h-13.536a.227.227,0,0,1-.227-.227V624.031a.227.227,0,0,1,.227-.227h13.536a.227.227,0,0,1,.227.227v46.652a.227.227,0,0,1-.227.227m-13.308-.455h13.081v-46.2h-13.081Z" transform="translate(-823.634 -481.979)"/>
    <path id="Trazado_874407" data-name="Trazado 874407" d="M1087.434,646.572a3.889,3.889,0,1,1-3.89-3.889,3.89,3.89,0,0,1,3.89,3.889" transform="translate(-834.19 -496.565)" fill="#fff"/>
    <path id="Trazado_874408" data-name="Trazado 874408" d="M1082.771,649.917a4.117,4.117,0,1,1,4.117-4.117,4.122,4.122,0,0,1-4.117,4.117m0-7.779a3.662,3.662,0,1,0,3.662,3.662,3.667,3.667,0,0,0-3.662-3.662" transform="translate(-833.416 -495.793)"/>
    <rect id="Rectángulo_401209" data-name="Rectángulo 401209" width="4.501" height="10.792" transform="translate(247.105 172.606)" fill="#e2eaff"/>
    <rect id="Rectángulo_401210" data-name="Rectángulo 401210" width="13.536" height="46.652" transform="translate(256.123 142.053)" fill="#fff"/>
    <path id="Trazado_874409" data-name="Trazado 874409" d="M1139.293,670.911h-13.536a.227.227,0,0,1-.227-.227V624.031a.227.227,0,0,1,.227-.227h13.536a.227.227,0,0,1,.227.227v46.652a.227.227,0,0,1-.227.227m-13.308-.455h13.081v-46.2h-13.081Z" transform="translate(-869.635 -481.979)"/>
    <path id="Trazado_874410" data-name="Trazado 874410" d="M1146.969,646.572a3.89,3.89,0,1,1-3.89-3.889,3.89,3.89,0,0,1,3.89,3.889" transform="translate(-880.189 -496.565)" fill="#fff"/>
    <path id="Trazado_874411" data-name="Trazado 874411" d="M1142.308,649.917a4.117,4.117,0,1,1,4.117-4.117,4.121,4.121,0,0,1-4.117,4.117m0-7.779a3.662,3.662,0,1,0,3.662,3.662,3.666,3.666,0,0,0-3.662-3.662" transform="translate(-879.417 -495.793)"/>
    <rect id="Rectángulo_401211" data-name="Rectángulo 401211" width="4.501" height="10.792" transform="translate(260.64 172.606)" fill="#e2eaff"/>
    <rect id="Rectángulo_401212" data-name="Rectángulo 401212" width="13.536" height="46.652" transform="translate(269.659 142.053)" fill="#fff"/>
    <path id="Trazado_874412" data-name="Trazado 874412" d="M1198.828,670.911h-13.536a.227.227,0,0,1-.227-.227V624.031a.227.227,0,0,1,.227-.227h13.536a.227.227,0,0,1,.227.227v46.652a.227.227,0,0,1-.227.227m-13.309-.455H1198.6v-46.2H1185.52Z" transform="translate(-915.634 -481.979)"/>
    <path id="Trazado_874413" data-name="Trazado 874413" d="M1206.5,646.572a3.889,3.889,0,1,1-3.889-3.889,3.89,3.89,0,0,1,3.889,3.889" transform="translate(-926.189 -496.565)" fill="#fff"/>
    <path id="Trazado_874414" data-name="Trazado 874414" d="M1201.844,649.917a4.117,4.117,0,1,1,4.117-4.117,4.122,4.122,0,0,1-4.117,4.117m0-7.779a3.662,3.662,0,1,0,3.662,3.662,3.666,3.666,0,0,0-3.662-3.662" transform="translate(-925.417 -495.793)"/>
    <rect id="Rectángulo_401213" data-name="Rectángulo 401213" width="4.501" height="10.792" transform="translate(274.176 172.606)" fill="#e2eaff"/>
    <path id="Trazado_874415" data-name="Trazado 874415" d="M758.3,829.455H720.252a.227.227,0,0,1,0-.455H758.3a.227.227,0,1,1,0,.455" transform="translate(-556.323 -640.522)"/>
    <path id="Trazado_874416" data-name="Trazado 874416" d="M1071.3,142.591s-3.468-9.4-3.233-15.291,7.656-9.07,13.074-6.007,4.005,9.541,4.005,9.541,3.18-2.238,5.536.118.236,6.125-3.3,6.243l-1.477,5.349Z" transform="translate(-825.23 -92.801)" fill="#fff"/>
    <path id="Trazado_874417" data-name="Trazado 874417" d="M1070.531,142.021a.228.228,0,0,1-.214-.149c-.035-.095-3.481-9.512-3.246-15.379a7.406,7.406,0,0,1,4.01-6.2,9.667,9.667,0,0,1,9.4,0c4.623,2.613,4.392,7.7,4.192,9.3.983-.53,3.46-1.539,5.4.4a3.444,3.444,0,0,1,.8,3.793,4.646,4.646,0,0,1-4.086,2.829l-1.434,5.191a.227.227,0,0,1-.218.167l-14.607.048Zm5.264-22.491a9.24,9.24,0,0,0-4.492,1.162,6.96,6.96,0,0,0-3.777,5.82c-.215,5.374,2.727,13.829,3.165,15.054l14.275-.047,1.432-5.183a.227.227,0,0,1,.212-.167,4.267,4.267,0,0,0,3.846-2.55,2.965,2.965,0,0,0-.7-3.3c-2.2-2.2-5.214-.114-5.245-.093a.227.227,0,0,1-.353-.234c.014-.063,1.311-6.352-3.894-9.295a9.08,9.08,0,0,0-4.467-1.163" transform="translate(-824.458 -92.003)"/>
    <path id="Trazado_874418" data-name="Trazado 874418" d="M1064.16,218.946l2.633,9.138h17.657l2.633-9.138Z" transform="translate(-822.218 -169.167)" fill="#fff"/>
    <path id="Trazado_874419" data-name="Trazado 874419" d="M1083.677,227.539h-17.656a.228.228,0,0,1-.219-.164l-2.633-9.138a.227.227,0,0,1,.219-.29h22.923a.227.227,0,0,1,.219.29l-2.633,9.138a.227.227,0,0,1-.219.164m-17.485-.455h17.314l2.5-8.684h-22.319Z" transform="translate(-821.445 -168.395)"/>
    <path id="Trazado_874420" data-name="Trazado 874420" d="M1087.134,117.272a.228.228,0,0,1-.207-.134l-1.271-2.81a.227.227,0,0,1,.414-.187l1.271,2.81a.227.227,0,0,1-.114.3.224.224,0,0,1-.093.02" transform="translate(-838.81 -88.087)"/>
    <path id="Trazado_874421" data-name="Trazado 874421" d="M1116.312,147.738a.225.225,0,0,1-.146-.054.227.227,0,0,1-.027-.321l1.93-2.275a.227.227,0,1,1,.347.294l-1.929,2.275a.227.227,0,0,1-.174.081" transform="translate(-862.337 -112.039)"/>
    <path id="Trazado_874422" data-name="Trazado 874422" d="M1125.8,120.888a.227.227,0,0,1-.174-.374l1.081-1.281a.227.227,0,0,1,.348.293l-1.081,1.281a.228.228,0,0,1-.174.081" transform="translate(-869.668 -92.062)"/>
    <path id="Trazado_874423" data-name="Trazado 874423" d="M1164.213,159.745a.227.227,0,0,1-.161-.388l1.3-1.295a.227.227,0,0,1,.322.321l-1.3,1.3a.227.227,0,0,1-.161.067" transform="translate(-899.347 -122.074)"/>
    <path id="Trazado_874424" data-name="Trazado 874424" d="M1068.1,171.746a.236.236,0,0,1-.079-.014l-2.978-1.109a.227.227,0,0,1,.159-.426l2.978,1.109a.227.227,0,0,1-.079.44" transform="translate(-822.787 -131.491)"/>
    <path id="Trazado_874425" data-name="Trazado 874425" d="M1109.81,195.684a.227.227,0,0,1-.143-.4l2.477-2a.227.227,0,1,1,.285.354l-2.477,2a.226.226,0,0,1-.142.05" transform="translate(-857.312 -149.299)"/>
    <path id="Trazado_874426" data-name="Trazado 874426" d="M1070.4,198.884a.226.226,0,0,1-.07-.011l-1.524-.494a.227.227,0,0,1,.141-.432l1.523.494a.227.227,0,0,1-.07.444" transform="translate(-825.685 -152.933)"/>
    <path id="Trazado_874427" data-name="Trazado 874427" d="M1162.474,186.97a.224.224,0,0,1-.111-.029l-1.885-1.06a.227.227,0,1,1,.223-.4l1.885,1.06a.227.227,0,0,1-.112.425" transform="translate(-896.548 -143.29)"/>
    <path id="Trazado_874428" data-name="Trazado 874428" d="M1086.111,150.8a.228.228,0,0,1-.174-.081l-1.78-2.109a.228.228,0,0,1,.348-.293l1.78,2.109a.227.227,0,0,1-.174.374" transform="translate(-837.627 -114.537)"/>
  </g>
</svg>
