<svg xmlns="http://www.w3.org/2000/svg" xmlns:xlink="http://www.w3.org/1999/xlink" width="190" height="140" viewBox="0 0 190 140">
  <defs>
    <clipPath id="clip-path">
      <rect id="Rect치ngulo_403351" data-name="Rect치ngulo 403351" width="69.771" height="76.302" fill="#8722e2"/>
    </clipPath>
  </defs>
  <g id="Grupo_1101656" data-name="Grupo 1101656" transform="translate(-180 -4982)">
    <rect id="Rect치ngulo_403324" data-name="Rect치ngulo 403324" width="190" height="140" transform="translate(180 4982)" fill="#f2e5fd"/>
    <g id="Grupo_1101658" data-name="Grupo 1101658" transform="translate(240.114 5016.349)">
      <g id="Grupo_1101657" data-name="Grupo 1101657" clip-path="url(#clip-path)">
        <path id="Trazado_886696" data-name="Trazado 886696" d="M110.838,60.8l1.889.59a52.227,52.227,0,0,0,13.183,1.968V44.431c-4.683.511-8.933,4.171-12.12,9.8a37.3,37.3,0,0,0-2.951,6.572" transform="translate(-92.579 -37.112)" fill="#8722e2"/>
        <path id="Trazado_886697" data-name="Trazado 886697" d="M51.6,61.944A41.665,41.665,0,0,0,59.192,65.8,44.869,44.869,0,0,1,62.3,58.874a26.821,26.821,0,0,1,6.1-7.516,34.3,34.3,0,0,0-15.19,8.893C52.659,60.8,52.109,61.353,51.6,61.944Z" transform="translate(-43.097 -42.898)" fill="#8722e2"/>
        <path id="Trazado_886698" data-name="Trazado 886698" d="M15.426,130.853a44,44,0,0,1-8.382-4.25A34.323,34.323,0,0,0,0,146.4H13.143a58.29,58.29,0,0,1,2.282-15.544" transform="translate(0 -105.747)" fill="#8722e2"/>
        <path id="Trazado_886699" data-name="Trazado 886699" d="M111.543,159.856a55.43,55.43,0,0,1-13.812-2.086c-.669-.2-1.3-.394-1.928-.59a57.5,57.5,0,0,0-2.164,14.757h17.9Z" transform="translate(-78.213 -131.287)" fill="#8722e2"/>
        <path id="Trazado_886700" data-name="Trazado 886700" d="M325.826,276.117a43.041,43.041,0,0,1,8.382,4.289,34.386,34.386,0,0,0,7-19.794h-13.1a59.615,59.615,0,0,1-2.282,15.5" transform="translate(-272.151 -217.681)" fill="#8722e2"/>
        <path id="Trazado_886701" data-name="Trazado 886701" d="M216.182,272.694a54.943,54.943,0,0,1,14.009,2.086c.63.2,1.259.354,1.889.59a57.53,57.53,0,0,0,2.125-14.757H216.182Z" transform="translate(-180.569 -217.681)" fill="#8722e2"/>
        <path id="Trazado_886702" data-name="Trazado 886702" d="M95.8,275.371c.63-.2,1.259-.394,1.928-.59a53.676,53.676,0,0,1,13.812-2.046v-12.12h-17.9A57.485,57.485,0,0,0,95.8,275.371Z" transform="translate(-78.213 -217.682)" fill="#8722e2"/>
        <path id="Trazado_886703" data-name="Trazado 886703" d="M7.044,280.447a43.03,43.03,0,0,1,8.382-4.289,58.29,58.29,0,0,1-2.282-15.544H0a34.544,34.544,0,0,0,7.044,19.833" transform="translate(0 -217.682)" fill="#8722e2"/>
        <path id="Trazado_886704" data-name="Trazado 886704" d="M59.192,368.346A41.663,41.663,0,0,0,51.6,372.2c.512.59,1.063,1.141,1.613,1.692a34.3,34.3,0,0,0,15.19,8.893,26.825,26.825,0,0,1-6.1-7.516A44.871,44.871,0,0,1,59.192,368.346Z" transform="translate(-43.097 -307.667)" fill="#8722e2"/>
        <path id="Trazado_886705" data-name="Trazado 886705" d="M125.909,348.042a52.23,52.23,0,0,0-13.183,1.968l-1.889.59a37.293,37.293,0,0,0,2.951,6.572c3.187,5.627,7.437,9.287,12.12,9.8Z" transform="translate(-92.579 -290.707)" fill="#8722e2"/>
        <path id="Trazado_886706" data-name="Trazado 886706" d="M231.372,350.56c-.59-.2-1.18-.354-1.81-.551a52.035,52.035,0,0,0-13.379-1.968v18.967c4.722-.512,9.051-4.171,12.238-9.838a36.457,36.457,0,0,0,2.951-6.611" transform="translate(-180.569 -290.707)" fill="#8722e2"/>
        <path id="Trazado_886707" data-name="Trazado 886707" d="M282.472,371.963a42.038,42.038,0,0,0-7.634-3.856,40.458,40.458,0,0,1-3.109,6.965,26.16,26.16,0,0,1-6.1,7.516,34.43,34.43,0,0,0,15.229-8.893C281.41,373.144,281.921,372.554,282.472,371.963Z" transform="translate(-221.872 -307.467)" fill="#8722e2"/>
        <path id="Trazado_886708" data-name="Trazado 886708" d="M351.625,186.3h11.136a33.022,33.022,0,0,0-.826-6.611,36.236,36.236,0,0,0-1.692-5.312,81.2,81.2,0,0,1-5.037,7.555c-1.338,1.771-2.558,3.266-3.581,4.368" transform="translate(-293.7 -145.653)" fill="#8722e2"/>
        <path id="Trazado_886709" data-name="Trazado 886709" d="M256.411,40.65h.63a5.09,5.09,0,0,1,.866-1.3,55.688,55.688,0,0,0,3.66-4.447c4.6-6.1,10.231-15.386,10.113-21.6v-.512a11.873,11.873,0,0,0-4.447-9.484A16.28,16.28,0,0,0,257.276,0h-1.141a16.28,16.28,0,0,0-9.956,3.306,11.99,11.99,0,0,0-4.447,9.484V13.3c-.118,6.375,5.549,15.622,10.153,21.643a47.984,47.984,0,0,0,3.66,4.407A5.091,5.091,0,0,1,256.411,40.65ZM259.48,8.5a3.943,3.943,0,1,0,1.141,2.755A3.9,3.9,0,0,0,259.48,8.5m-2.755-3.424a6.059,6.059,0,0,1,4.368,1.81,6.129,6.129,0,0,1,0,8.775,6.059,6.059,0,0,1-4.368,1.81,6.151,6.151,0,0,1-4.407-1.81,6.084,6.084,0,0,1-1.81-4.407,6.059,6.059,0,0,1,1.81-4.368,6.151,6.151,0,0,1,4.407-1.81" transform="translate(-201.91)" fill="#f0c518"/>
        <path id="Trazado_886710" data-name="Trazado 886710" d="M223.147,169.84c-1.18.2-2.4.315-3.581.394-1.1.118-2.243.157-3.384.2v12.081h16.095c-1.023-1.1-2.243-2.6-3.581-4.329A82.886,82.886,0,0,1,223.147,169.84Z" transform="translate(-180.569 -141.861)" fill="#8722e2"/>
        <path id="Trazado_886711" data-name="Trazado 886711" d="M218.9,44.822a9.041,9.041,0,0,0-1.377-.394,7.318,7.318,0,0,0-1.338-.236V63.159c1.1,0,2.164-.079,3.227-.157.866-.079,1.731-.157,2.558-.275-2.282-4.329-3.935-8.815-3.856-12.553v-.512a14.519,14.519,0,0,1,.787-4.84" transform="translate(-180.57 -36.912)" fill="#8722e2"/>
      </g>
    </g>
  </g>
</svg>
