<svg xmlns="http://www.w3.org/2000/svg" xmlns:xlink="http://www.w3.org/1999/xlink" width="190" height="132" viewBox="0 0 190 132">
  <defs>
    <clipPath id="clip-path">
      <rect id="Rect치ngulo_403357" data-name="Rect치ngulo 403357" width="80" height="77.886" fill="none"/>
    </clipPath>
  </defs>
  <g id="Grupo_1101855" data-name="Grupo 1101855" transform="translate(-180 -8343)">
    <g id="Grupo_1101667" data-name="Grupo 1101667" transform="translate(0 3361)">
      <rect id="Rect치ngulo_403324" data-name="Rect치ngulo 403324" width="190" height="132" transform="translate(180 4982)" fill="#f2e5fd"/>
    </g>
    <g id="Grupo_1101669" data-name="Grupo 1101669" transform="translate(235 8370.057)">
      <g id="Grupo_1101668" data-name="Grupo 1101668" clip-path="url(#clip-path)">
        <path id="Trazado_886715" data-name="Trazado 886715" d="M9.35,79.366A1.269,1.269,0,0,1,10.8,77.951q1.535,0,1.535,1.415v4.993a2.933,2.933,0,0,1,1.065-.6,4.8,4.8,0,0,1,1.543-.226,5.1,5.1,0,0,1,2.022.387,4.471,4.471,0,0,1,1.569,1.122,5.05,5.05,0,0,1,1.025,1.789,7.386,7.386,0,0,1,.359,2.39v4.539q0,1.468-1.521,1.468a1.3,1.3,0,0,1-1.469-1.468V88.817a2.155,2.155,0,0,0-.186-.894,2.451,2.451,0,0,0-.5-.734,2.385,2.385,0,0,0-.743-.507,2.218,2.218,0,0,0-.9-.186,2.125,2.125,0,0,0-.89.186,2.275,2.275,0,0,0-.717.507,2.393,2.393,0,0,0-.478.734,2.3,2.3,0,0,0-.173.894v4.941q0,1.468-1.535,1.468A1.292,1.292,0,0,1,9.35,93.757Zm11.867,4.886a1.314,1.314,0,0,1,1.029-.374h.587v-1.6a1.31,1.31,0,0,1,1.469-1.5,1.333,1.333,0,0,1,1.522,1.5v1.6h.694a1.479,1.479,0,0,1,1.108.374,1.17,1.17,0,0,1,.36.827,1.127,1.127,0,0,1-.36.815,1.513,1.513,0,0,1-1.108.36h-.694v7.529q0,1.442-1.522,1.442a1.287,1.287,0,0,1-1.469-1.442V86.254h-.587a1.341,1.341,0,0,1-1.029-.36,1.169,1.169,0,0,1-.333-.815,1.215,1.215,0,0,1,.333-.827m7.315,0a1.313,1.313,0,0,1,1.029-.374h.588v-1.6a1.309,1.309,0,0,1,1.468-1.5,1.334,1.334,0,0,1,1.522,1.5v1.6h.694a1.48,1.48,0,0,1,1.108.374,1.171,1.171,0,0,1,.36.827,1.128,1.128,0,0,1-.36.815,1.514,1.514,0,0,1-1.108.36h-.694v7.529q0,1.442-1.522,1.442a1.286,1.286,0,0,1-1.468-1.442V86.254h-.588a1.34,1.34,0,0,1-1.029-.36,1.169,1.169,0,0,1-.333-.815,1.215,1.215,0,0,1,.333-.827M36.4,85.414a1.321,1.321,0,0,1,1.468-1.52,1.27,1.27,0,0,1,.895.307,1.921,1.921,0,0,1,.493.707,2.96,2.96,0,0,1,1.332-.926,5.232,5.232,0,0,1,1.836-.318,5.035,5.035,0,0,1,2.129.467,5.469,5.469,0,0,1,1.756,1.278,6.261,6.261,0,0,1,1.624,4.223,6.069,6.069,0,0,1-.439,2.3,6.269,6.269,0,0,1-1.185,1.892,5.563,5.563,0,0,1-1.729,1.278,4.8,4.8,0,0,1-2.076.466,5.924,5.924,0,0,1-1.837-.269,2.717,2.717,0,0,1-1.277-.807v5.32a1.37,1.37,0,0,1-1.522,1.576q-1.468,0-1.468-1.573Zm13.562,6.353a2.08,2.08,0,0,1,2.869,0A2.008,2.008,0,0,1,53.4,93.25a2.048,2.048,0,0,1-3.444,1.482,2.028,2.028,0,0,1-.534-1.482,2.09,2.09,0,0,1,.534-1.482m0-8.115a2.076,2.076,0,0,1,2.869,0A2.037,2.037,0,0,1,53.4,85.16a1.939,1.939,0,0,1-.574,1.429,2.08,2.08,0,0,1-2.869,0,2.015,2.015,0,0,1-.534-1.429,2.122,2.122,0,0,1,.534-1.508M54.39,96.4l6.035-17.7a1.019,1.019,0,0,1,.481-.615,1.465,1.465,0,0,1,.667-.16,1.508,1.508,0,0,1,.881.281.988.988,0,0,1,.4.868,1.226,1.226,0,0,1-.08.48l-6.007,17.6a1.218,1.218,0,0,1-.52.695,1.389,1.389,0,0,1-.708.213,1.159,1.159,0,0,1-.841-.36,1.357,1.357,0,0,1-.36-1,1.447,1.447,0,0,1,.053-.295m8.7,0,6.033-17.7a1.023,1.023,0,0,1,.481-.615,1.474,1.474,0,0,1,.667-.16,1.507,1.507,0,0,1,.881.281.988.988,0,0,1,.4.868,1.224,1.224,0,0,1-.081.48l-6.006,17.6a1.214,1.214,0,0,1-.522.695,1.387,1.387,0,0,1-.707.213,1.152,1.152,0,0,1-.841-.36,1.35,1.35,0,0,1-.361-1,1.456,1.456,0,0,1,.054-.295M0,118.882a.129.129,0,0,0,.129.128H79.871a.129.129,0,0,0,.129-.128V63.658H0Z" transform="translate(0 -41.124)" fill="#8722e2"/>
        <path id="Trazado_886716" data-name="Trazado 886716" d="M112.054,133.641a2.617,2.617,0,0,0,.867.651,2.541,2.541,0,0,0,1.1.239,2.634,2.634,0,0,0,1.108-.239,2.719,2.719,0,0,0,.893-.651,3.07,3.07,0,0,0,.588-.958,3.231,3.231,0,0,0,0-2.311,2.909,2.909,0,0,0-.588-.944,2.813,2.813,0,0,0-.893-.637,2.614,2.614,0,0,0-1.108-.24,2.521,2.521,0,0,0-1.1.24,2.7,2.7,0,0,0-.867.637,3.021,3.021,0,0,0-.574.944,3.231,3.231,0,0,0,0,2.311,3.2,3.2,0,0,0,.574.958" transform="translate(-71.88 -83.046)" fill="#8722e2"/>
        <path id="Trazado_886717" data-name="Trazado 886717" d="M8.075,13.476A3.727,3.727,0,1,1,11.8,9.749a3.726,3.726,0,0,1-3.727,3.727M80,.127A.129.129,0,0,0,79.871,0H.129A.129.129,0,0,0,0,.127v19.18a.129.129,0,0,0,.129.128H79.871A.129.129,0,0,0,80,19.307Z" transform="translate(0 0.001)" fill="#f0c518"/>
        <path id="Trazado_886718" data-name="Trazado 886718" d="M18.956,21.579a2.112,2.112,0,1,0,2.112,2.112,2.112,2.112,0,0,0-2.112-2.112" transform="translate(-10.882 -13.94)" fill="#f0c518"/>
      </g>
    </g>
  </g>
</svg>
