<svg xmlns="http://www.w3.org/2000/svg" xmlns:xlink="http://www.w3.org/1999/xlink" width="400" height="170.475" viewBox="0 0 400 170.475">
  <defs>
    <clipPath id="clip-path">
      <rect id="Rectángulo_403514" data-name="Rectángulo 403514" width="261.716" height="156.106" fill="none"/>
    </clipPath>
    <clipPath id="clip-path-2">
      <path id="Trazado_887486" data-name="Trazado 887486" d="M354.256,81.964a4.9,4.9,0,0,0,1.123,3.128h-13.05V98.224a4.917,4.917,0,1,1,0,7.373v13.132h13.462a4.917,4.917,0,1,1,6.763,0h11.5V105.943a4.917,4.917,0,1,0,0-8.065V85.092H362.966a4.917,4.917,0,1,0-8.71-3.128" transform="translate(-342.329 -77.047)" fill="none"/>
    </clipPath>
  </defs>
  <g id="Grupo_1101842" data-name="Grupo 1101842" transform="translate(-1020 -1276)">
    <rect id="Rectángulo_403528" data-name="Rectángulo 403528" width="400" height="170" transform="translate(1020 1276)" fill="#f2e5fd"/>
    <g id="Grupo_1101828" data-name="Grupo 1101828" transform="translate(1114 1290.369)">
      <g id="Grupo_1101823" data-name="Grupo 1101823">
        <g id="Grupo_1101822" data-name="Grupo 1101822" clip-path="url(#clip-path)">
          <path id="Trazado_887423" data-name="Trazado 887423" d="M100.467,91.422a43.261,43.261,0,0,1,16.311,8.624l-.437,11.578Z" transform="translate(-61.84 -56.273)" fill="#00ffdf"/>
          <rect id="Rectángulo_403511" data-name="Rectángulo 403511" width="148.303" height="138.025" transform="translate(54.213 17.964)" fill="#fff"/>
          <path id="Trazado_887424" data-name="Trazado 887424" d="M289.239,184.678H140.7V46.419H289.239Zm-148.3-.235H289V46.654H140.937Z" transform="translate(-86.606 -28.572)" fill="#0d0f44"/>
          <path id="Trazado_887425" data-name="Trazado 887425" d="M106.878,264.916,103.5,319.053H79.851l-.993-23.241-.917-21.464Z" transform="translate(-47.975 -163.063)" fill="#475aea"/>
          <path id="Trazado_887426" data-name="Trazado 887426" d="M88.24,325.2,86.826,356.16H81.318l-.993-23.241Z" transform="translate(-49.442 -200.171)" fill="#0d0f44"/>
          <path id="Trazado_887427" data-name="Trazado 887427" d="M5.3,279.9v48.377H33.863L39.1,302.811s3.736-1.387,5.883-21.513Z" transform="translate(-3.265 -172.284)" fill="#475aea"/>
          <path id="Trazado_887428" data-name="Trazado 887428" d="M92.984,315.589l-.232-.033c.58-4.127,1.75-18.391,1.762-18.534l.234.019c-.012.144-1.182,14.414-1.764,18.548" transform="translate(-57.091 -182.825)" fill="#0d0f44"/>
          <path id="Trazado_887429" data-name="Trazado 887429" d="M5.3,275.832s29.958,17.95,56.427.39l.225-2.609L5.3,271.915Z" transform="translate(-3.265 -167.371)" fill="#0d0f44"/>
          <path id="Trazado_887430" data-name="Trazado 887430" d="M94.024,311.205l-.162-.169c4.2-4.032,4.24-17.5,4.24-17.64h.235c0,.558-.044,13.709-4.312,17.809" transform="translate(-57.775 -180.594)" fill="#0d0f44"/>
          <path id="Trazado_887431" data-name="Trazado 887431" d="M9.49,97.872C5.711,107.581,3.317,126.187,0,159.7c0,0,30.6,19.656,59.932.2L55.61,116.747c-.518-15.423-9.619-29.246-25.025-30.16q-.574-.034-1.16-.048C21.217,86.346,12.468,90.22,9.49,97.872" transform="translate(0 -53.263)" fill="#00ffdf"/>
          <rect id="Rectángulo_403512" data-name="Rectángulo 403512" width="148.303" height="13.304" transform="translate(54.213 17.964)" fill="#00ffdf"/>
          <path id="Trazado_887432" data-name="Trazado 887432" d="M100.307,175.787l-.233-.025c3.115-29.372.891-47.9-1.523-58.271-2.615-11.235-6.01-15.58-6.044-15.623l.183-.146c.034.043,3.454,4.414,6.083,15.688,2.422,10.391,4.655,28.953,1.534,58.377" transform="translate(-56.941 -62.613)" fill="#0d0f44"/>
          <path id="Trazado_887433" data-name="Trazado 887433" d="M80.092,50.425l-.007-.191a2.949,2.949,0,0,0,2.379-1.051.775.775,0,0,0,0-.8c-.545-.994-2.855-4.545-2.878-4.581l.161-.1c.023.036,2.336,3.593,2.885,4.593a.968.968,0,0,1,0,.986,3.136,3.136,0,0,1-2.538,1.148" transform="translate(-48.987 -26.897)" fill="#0d0f44"/>
          <path id="Trazado_887434" data-name="Trazado 887434" d="M79.994,58.412c0,.1-.372.185-.83.185s-.83-.083-.83-.185.371-.185.83-.185.83.083.83.185" transform="translate(-48.217 -35.84)" fill="#0d0f44"/>
          <path id="Trazado_887435" data-name="Trazado 887435" d="M82.826,30.905l.137.8a.382.382,0,0,0,.46.309,6.292,6.292,0,0,1,2.05-.172.383.383,0,0,0,.225-.72,5.783,5.783,0,0,0-2.5-.665.385.385,0,0,0-.374.449" transform="translate(-50.978 -18.746)" fill="#0d0f44"/>
          <path id="Trazado_887436" data-name="Trazado 887436" d="M68.754,74.143c-3.587,2.834-9.782,1.077-13.287-.29A2.691,2.691,0,0,1,53.9,70.52c1.556-4.92-.053-12.314-.053-12.314.931-2.677,15.024-1.561,14.243,3.57a16.656,16.656,0,0,0,.7,7.048c.25.846.523,1.592.76,2.185l.011.028a2.678,2.678,0,0,1-.8,3.107" transform="translate(-33.096 -34.961)" fill="#f3abaa"/>
          <path id="Trazado_887437" data-name="Trazado 887437" d="M47.463,8.451s-6.991,2.9-5.875,12.569a26.458,26.458,0,0,0,2.529,5.8A32.573,32.573,0,0,1,47,34.333h5.89s4.983,5.206,10.784,2.677S68.586,20.8,65.983,13.88,53.711,3.616,47.463,8.451" transform="translate(-25.524 -3.799)" fill="#f3abaa"/>
          <path id="Trazado_887438" data-name="Trazado 887438" d="M80.213,82.914A10.511,10.511,0,0,1,71.1,76.14c.063.1,2.122,3.326,8.355,4.589.25.846.523,1.592.76,2.185" transform="translate(-43.763 -46.866)" fill="#0d0f44"/>
          <path id="Trazado_887439" data-name="Trazado 887439" d="M44.008,53.479s1.488,1.937.843,3.375,2.38,3.272,3.025,3.272-.313-5.965-1.537-6.446a4.189,4.189,0,0,0-2.33-.2" transform="translate(-27.088 -32.868)" fill="#0d0f44"/>
          <path id="Trazado_887440" data-name="Trazado 887440" d="M89.811,47.948c0,.676-.338,1.225-.755,1.225s-.755-.548-.755-1.225.338-1.224.755-1.224.755.548.755,1.224" transform="translate(-54.352 -28.76)" fill="#0d0f44"/>
          <path id="Trazado_887441" data-name="Trazado 887441" d="M107.762,47.012c0,.676-.27,1.224-.6,1.224s-.6-.548-.6-1.224.27-1.225.6-1.225.6.548.6,1.225" transform="translate(-65.588 -28.183)" fill="#0d0f44"/>
          <path id="Trazado_887442" data-name="Trazado 887442" d="M82.06,40.105a9.186,9.186,0,0,1,3.6-.489.355.355,0,0,0,.4-.351v-.6a.354.354,0,0,0-.388-.353,10.479,10.479,0,0,0-3.9,1.143.355.355,0,0,0,.286.645" transform="translate(-50.225 -23.584)" fill="#0d0f44"/>
          <path id="Trazado_887443" data-name="Trazado 887443" d="M105.348,39.235a4.312,4.312,0,0,0-2.409-.489c-.142.023-.266-.138-.266-.351v-.6c0-.209.12-.373.259-.353a5.384,5.384,0,0,1,2.608,1.143.408.408,0,0,1,.119.308c0,.241-.157.413-.311.337" transform="translate(-63.198 -23.049)" fill="#0d0f44"/>
          <path id="Trazado_887444" data-name="Trazado 887444" d="M39.14,22.44s-3.13-.42-3.814-2.884-.833-3.715-2.841-5.506-.595-4.99.893-6.4.943-4.314,3.855-4.76a14.3,14.3,0,0,0,6.78-2.38c2.826-1.711,6.194,1.488,8.973,1.042s5.307-.956,6.423.824,2.157,1.408,3.2,3.416-2.372,5.432-2.372,5.432-1.672-2.234-3.741-.6-1.773,1.488-3.818,1.19-3.16.744-3.457,1.488-2.975.75-2.975.75a8.929,8.929,0,0,1,.474,2.746c-.027,1.339-1.044,2.719-1.193,4.363a3.6,3.6,0,0,1-.612,2.1L42,22.4Z" transform="translate(-19.383 0)" fill="#0d0f44"/>
          <path id="Trazado_887445" data-name="Trazado 887445" d="M52.862,46.873a4.343,4.343,0,0,0-1.147-2.809,2.891,2.891,0,0,0-2.463-1.025c-4.506.561-2.138,10.272,1.674,9.088,1.936-.6,2.018-3.717,1.936-5.253" transform="translate(-28.803 -26.479)" fill="#f3abaa"/>
          <path id="Trazado_887446" data-name="Trazado 887446" d="M102.2,54.732a2.994,2.994,0,0,1-1.286-.333l.075-.156c1.215.583,2,.262,2.3-.19a1.2,1.2,0,0,0-.358-1.581c-1.3-1.149-1.651-3.9-1.665-4.021l.172-.021c0,.028.358,2.807,1.608,3.912a1.367,1.367,0,0,1,.387,1.807,1.424,1.424,0,0,1-1.23.583" transform="translate(-62.114 -29.809)" fill="#0d0f44"/>
          <path id="Trazado_887447" data-name="Trazado 887447" d="M93.2,69.081s3.262,1.487,5.586-.248a8.121,8.121,0,0,1-2.237,2.281c-1.041.5-3.349-2.033-3.349-2.033" transform="translate(-57.368 -42.369)" fill="#fff"/>
          <path id="Trazado_887448" data-name="Trazado 887448" d="M51.354,52.214a6.069,6.069,0,0,1-1.935-4.24,2.106,2.106,0,0,1,.7-1.647,1.492,1.492,0,0,1,1.263-.4,1.833,1.833,0,0,1,1.09.917l-.155.078a1.686,1.686,0,0,0-.972-.825,1.332,1.332,0,0,0-1.117.362,1.94,1.94,0,0,0-.637,1.517,5.97,5.97,0,0,0,1.878,4.107Z" transform="translate(-30.418 -28.255)" fill="#0d0f44"/>
          <path id="Trazado_887449" data-name="Trazado 887449" d="M115.905,142.615s-2.278,4.473-13.942,14.173-22.228,18.48-29.291,16.363c-4.285-1.284-8.466-6.25-11.093-9.96-1.442-2.035-2.414-3.692-2.68-4.154-.049-.083-.074-.128-.074-.128S62.1,134.027,63.1,135.614c.3.474,9.6,10.007,10.41,11.3,1.206,1.919,6.772,5.389,6.772,5.389,2.7-1.052,30.9-14.7,30.9-14.7Z" transform="translate(-36.209 -83.429)" fill="#f3abaa"/>
          <path id="Trazado_887450" data-name="Trazado 887450" d="M102.36,187.138l-.16-.058A39.29,39.29,0,0,1,106.912,179l.136.1a39.153,39.153,0,0,0-4.687,8.032" transform="translate(-62.907 -110.182)" fill="#0d0f44"/>
          <path id="Trazado_887451" data-name="Trazado 887451" d="M112.66,188.722l-.169-.022c.368-2.849.849-7.643.854-7.691l.17.017c0,.048-.486,4.844-.854,7.7" transform="translate(-69.241 -111.417)" fill="#0d0f44"/>
          <path id="Trazado_887452" data-name="Trazado 887452" d="M39.754,122.073a7,7,0,0,0-5.7-1.2,7.094,7.094,0,0,0-4.707,3.881c-3.113,5.884-2.378,14.192,10.989,30.456l14.091-17.434s-6.327-9.628-14.668-15.7" transform="translate(-17.122 -74.291)" fill="#00ffdf"/>
          <path id="Trazado_887453" data-name="Trazado 887453" d="M70.8,159.055A214.152,214.152,0,0,0,56.9,177l1.625,2.266L72.7,161.564Z" transform="translate(-35.026 -97.903)" fill="#c0cfff"/>
          <path id="Trazado_887454" data-name="Trazado 887454" d="M199.762,126.673s4.017-3.846,4.311-4.105a5.722,5.722,0,0,1,2.835-1.045c1.727-.366,2.584-.653,2.714,0s-2.742,1.242-3.264,2.024a20.5,20.5,0,0,0-1.24,2.481s-6.075,3.25-5.355.646" transform="translate(-122.923 -74.561)" fill="#f3abaa"/>
          <path id="Trazado_887455" data-name="Trazado 887455" d="M248.488,68.375a4.894,4.894,0,0,0-2.811.884V56.474H234.585a4.917,4.917,0,1,0-7.587,0h-13.05V69.606a4.916,4.916,0,1,1,0,7.372V90.11H227.41a4.916,4.916,0,1,1,6.763,0h11.5V77.325a4.916,4.916,0,1,0,2.811-8.949" transform="translate(-131.691 -29.809)" fill="#8722e2"/>
          <path id="Trazado_887456" data-name="Trazado 887456" d="M194.885,133.2s4.607-5.543,6.053-4.729,5.784-.17,6.587,0,3.053,4.669,2.41,7.4l-.486,2.065s-6.534,2.9-10.977,2.346-3.587-7.082-3.587-7.082" transform="translate(-119.917 -79.025)" fill="#f3abaa"/>
          <path id="Trazado_887457" data-name="Trazado 887457" d="M215.591,125.462l4.667-.8,3.786-.914s3.134-1.306,3.526-.784-.979,1.463-3.134,2.494a57.735,57.735,0,0,1-6.267,2.264s-3.261-.031-2.578-2.264" transform="translate(-132.644 -75.614)" fill="#f3abaa"/>
          <path id="Trazado_887458" data-name="Trazado 887458" d="M222,131l4.667-.8,3.786-.914s3.134-1.306,3.526-.784S233,129.971,230.848,131a57.827,57.827,0,0,1-6.267,2.264s-2.81-1.5-2.577-2.264" transform="translate(-136.641 -79.025)" fill="#f3abaa"/>
          <path id="Trazado_887459" data-name="Trazado 887459" d="M225.6,137.66l4.279-.73,3.473-.838s2.874-1.2,3.233-.719-.9,1.341-2.874,2.287a53,53,0,0,1-5.747,2.077s-2.991-.029-2.363-2.077" transform="translate(-138.81 -83.256)" fill="#f3abaa"/>
          <path id="Trazado_887460" data-name="Trazado 887460" d="M226.387,145.955l3.544-.605,2.876-.694s2.38-.992,2.678-.6-.744,1.111-2.38,1.894a43.856,43.856,0,0,1-4.76,1.72s-2.478-.024-1.958-1.72" transform="translate(-139.304 -88.616)" fill="#f3abaa"/>
          <path id="Trazado_887461" data-name="Trazado 887461" d="M38.236,161.924c-9.015-12.135-12.3-19.945-13.46-24.36-1.27-4.814-.4-6.725-.36-6.8l.212.1c-.009.019-.875,1.942.389,6.695,1.167,4.391,4.44,12.158,13.408,24.228Z" transform="translate(-14.828 -80.486)"/>
          <path id="Trazado_887462" data-name="Trazado 887462" d="M66.28,134.719c-.073-.12-7.4-12.121-19.637-19.172l.117-.2c12.293,7.082,19.648,19.133,19.72,19.254Z" transform="translate(-28.71 -70.998)"/>
          <path id="Trazado_887463" data-name="Trazado 887463" d="M14.045,303.6a7.523,7.523,0,0,1-2.083-.267l.072-.223a8.105,8.105,0,0,0,5.8-.678c2.561-1.365,4.448-4.12,5.611-8.187l.226.064c-1.181,4.133-3.109,6.936-5.73,8.331a8.266,8.266,0,0,1-3.9.959" transform="translate(-7.363 -181.117)" fill="#0d0f44"/>
          <path id="Trazado_887464" data-name="Trazado 887464" d="M53.769,95.741s.545,5.321,7.466,6.431,7.94.261,8.312-.522-.99-4.113-.99-4.113a15.222,15.222,0,0,1-14.787-1.8" transform="translate(-33.096 -58.931)" fill="#0d0f44"/>
          <path id="Trazado_887465" data-name="Trazado 887465" d="M92.6,88.919s1.529,3.047-.374,4.418c0,0,3.455,4.439,4.693,2.481s-4.319-6.9-4.319-6.9" transform="translate(-56.77 -54.732)" fill="#0d0f44"/>
          <rect id="Rectángulo_403513" data-name="Rectángulo 403513" width="29.415" height="0.235" transform="translate(5.917 153.731) rotate(-87.184)" fill="#c0cfff"/>
          <path id="Trazado_887466" data-name="Trazado 887466" d="M100.793,305.327c0,.541-.26.979-.579.979s-.579-.438-.579-.979.26-.979.579-.979.579.438.579.979" transform="translate(-61.328 -187.335)" fill="#c0cfff"/>
          <path id="Trazado_887467" data-name="Trazado 887467" d="M104.75,117.2c.141.418.027.834-.255.929s-.625-.166-.766-.584-.027-.834.255-.928.625.166.766.584" transform="translate(-63.811 -71.771)" fill="#ffd550"/>
          <path id="Trazado_887468" data-name="Trazado 887468" d="M115.169,148.047c.141.418.027.834-.255.929s-.625-.166-.766-.584-.027-.834.255-.929.625.166.766.584" transform="translate(-70.224 -90.756)" fill="#ffd550"/>
          <path id="Trazado_887469" data-name="Trazado 887469" d="M121.353,234.9c.025.44-.195.811-.492.828s-.559-.326-.584-.766.195-.811.492-.828.559.326.584.766" transform="translate(-74.033 -144.116)" fill="#ffd550"/>
          <path id="Trazado_887470" data-name="Trazado 887470" d="M121.353,276.514c.025.44-.195.811-.492.828s-.559-.326-.584-.766.195-.811.492-.828.559.326.584.766" transform="translate(-74.033 -169.73)" fill="#ffd550"/>
          <path id="Trazado_887471" data-name="Trazado 887471" d="M133.61,125.309a26.056,26.056,0,0,0-4.434-9.744l.185-.145a26.323,26.323,0,0,1,4.479,9.844Z" transform="translate(-79.511 -71.044)" fill="#0d0f44"/>
          <path id="Trazado_887472" data-name="Trazado 887472" d="M354.77,160.021l-.21-.105c2.677-5.322,6.253-9.194,10.626-11.508,4.421-2.34,8.094-2.256,12.744-2.151a61.389,61.389,0,0,0,14.9-1.092c7.754-1.562,13.879-2.8,18.146-8.184a21.182,21.182,0,0,0-18.409-33.889l-.016-.234a21.394,21.394,0,0,1,22.805,23.591,20.744,20.744,0,0,1-4.2,10.678c-4.32,5.455-10.791,6.759-18.284,8.268a61.592,61.592,0,0,1-14.955,1.1c-4.616-.1-8.263-.187-12.629,2.123-4.33,2.291-7.871,6.129-10.526,11.406" transform="translate(-218.242 -63.281)" fill="#c0cfff"/>
          <path id="Trazado_887473" data-name="Trazado 887473" d="M406.207,165.409s-1.273-8.473-1.763-9.035-10.674.515-10.674.515-1.017,7.072-.424,9.173,11.2,3.754,12.861-.653" transform="translate(-242.001 -96.153)" fill="#f3abaa"/>
          <path id="Trazado_887474" data-name="Trazado 887474" d="M396.841,190.514l-.522-4.374a9.714,9.714,0,0,1-2.677-5.353l12.861-.653v3.852l.653,4.178Z" transform="translate(-242.298 -110.878)" fill="#f3abaa"/>
          <path id="Trazado_887475" data-name="Trazado 887475" d="M376.868,96.993a4.894,4.894,0,0,0-2.811.884V85.092H362.965a4.917,4.917,0,1,0-7.587,0H342.328V98.224a4.916,4.916,0,1,1,0,7.372v13.132H355.79a4.916,4.916,0,1,1,6.763,0h11.5V105.943a4.916,4.916,0,1,0,2.811-8.949" transform="translate(-210.713 -47.425)" fill="#ffd550"/>
        </g>
      </g>
      <g id="Grupo_1101825" data-name="Grupo 1101825" transform="translate(131.616 29.622)">
        <g id="Grupo_1101824" data-name="Grupo 1101824" clip-path="url(#clip-path-2)">
          <path id="Trazado_887476" data-name="Trazado 887476" d="M325.541,88.451l28.184-21.482Z" transform="translate(-331.996 -70.844)" fill="#fff"/>
          <path id="Trazado_887477" data-name="Trazado 887477" d="M333.34,96.25l28.184-21.482Z" transform="translate(-336.796 -75.644)" fill="#fff"/>
          <path id="Trazado_887478" data-name="Trazado 887478" d="M341.14,104.05l28.184-21.482Z" transform="translate(-341.597 -80.445)" fill="#fff"/>
          <path id="Trazado_887479" data-name="Trazado 887479" d="M325.541,118.706l37.18-28.339Z" transform="translate(-331.996 -85.246)" fill="#fff"/>
          <path id="Trazado_887480" data-name="Trazado 887480" d="M333.866,127.032l37.18-28.339Z" transform="translate(-337.12 -90.371)" fill="#fff"/>
          <path id="Trazado_887481" data-name="Trazado 887481" d="M342.191,135.357l37.18-28.339Z" transform="translate(-342.244 -95.495)" fill="#fff"/>
          <path id="Trazado_887482" data-name="Trazado 887482" d="M350.517,143.683l37.18-28.339Z" transform="translate(-347.369 -100.62)" fill="#fff"/>
          <path id="Trazado_887483" data-name="Trazado 887483" d="M358.842,152.008l37.18-28.339Z" transform="translate(-352.493 -105.744)" fill="#fff"/>
          <path id="Trazado_887484" data-name="Trazado 887484" d="M367.168,160.333l37.18-28.339Z" transform="translate(-357.618 -110.868)" fill="#fff"/>
          <path id="Trazado_887485" data-name="Trazado 887485" d="M375.493,168.659l37.18-28.339Z" transform="translate(-362.742 -115.993)" fill="#fff"/>
        </g>
      </g>
      <g id="Grupo_1101827" data-name="Grupo 1101827">
        <g id="Grupo_1101826" data-name="Grupo 1101826" clip-path="url(#clip-path)">
          <path id="Trazado_887487" data-name="Trazado 887487" d="M455.832,242.785l-8.342.2-28.768.7-5.2.127c-4.528.353-10.264-2.106-10.845-6.611a39.632,39.632,0,0,1-.328-4.208c-1.375-8.417-3.889-25.088-3.458-31.977l11.75-2.547,6.6,26.053,43.829-10.494c.692,14.14-5.243,28.753-5.243,28.753" transform="translate(-245.501 -122.166)" fill="#475aea"/>
          <path id="Trazado_887488" data-name="Trazado 887488" d="M479.767,296.154l-.458,6.96-28.768.7Z" transform="translate(-277.32 -182.291)" fill="#0d0f44"/>
          <path id="Trazado_887489" data-name="Trazado 887489" d="M556.4,246.927c-.9-3.657-2.546-14.493-29.379-11.556-11.194,1.226-17.07,12.473-20.117,25.167-1.854,1.193-6.236,4.58-6.813,10.234a9.563,9.563,0,0,0,3.987,9.257l.034.023c-.142,2.117-.235,4.141-.293,6.024l-2.552,12.606,2.644.147,53.9.746c2.938-21.349,1.11-42.463-1.409-52.648" transform="translate(-307.778 -144.57)" fill="#475aea"/>
          <path id="Trazado_887490" data-name="Trazado 887490" d="M550.038,236.837s-1.567,2.937-1.958,10.184c0,0,16.452-6.272,19.684-12.488s-16.942-2.1-17.725,2.3" transform="translate(-337.359 -142.413)" fill="#f3abaa"/>
          <path id="Trazado_887491" data-name="Trazado 887491" d="M621.691,304.559s3.232,21.006,2.938,23.65-2.938,14.108-2.938,14.108h8.373s-2.5-31-8.373-37.757" transform="translate(-382.668 -187.465)" fill="#0d0f44"/>
          <path id="Trazado_887492" data-name="Trazado 887492" d="M392.842,169.194a10.511,10.511,0,0,1-2.635-4.374c-.5-2.285-5.395-5.745-5.395-7.182s.914-1.24,2.416,0a30.879,30.879,0,0,0,6.985,4.636,7.722,7.722,0,0,1,4.57,4.374c.457,1.5-2.807,3.721-5.941,2.546" transform="translate(-236.863 -96.412)" fill="#f3abaa"/>
          <path id="Trazado_887493" data-name="Trazado 887493" d="M614.979,243.122s-2.938,1.028-3.231,11.311,9.989,32.61,10.135,34.226-2.057,15.435-2.057,15.435h15.13s2.35-10.734,3.232-14.7-6.61-30.407-8.079-34.52-10.282-16.011-15.13-11.751" transform="translate(-376.544 -149.09)" fill="#475aea"/>
          <path id="Trazado_887494" data-name="Trazado 887494" d="M559.244,168.389c-1.051,3.939.508,12.69.508,12.69-5.974,6.215-17.628,3.87-16.257,2.3.779-.89,1.624-4.022,2.209-6.563.134-.577.253-1.124.357-1.607-3.114.659-4.827.493-5.9.061a4,4,0,0,1-1.245-.8c-1.173-1.078-2.182-2.056-.811-13.476s6.984-13.944,6.984-13.944c13.938-7.736,23.863,3.722,17.791,15.02a34.284,34.284,0,0,1-3.642,6.319" transform="translate(-330.816 -88.958)" fill="#f3abaa"/>
          <path id="Trazado_887495" data-name="Trazado 887495" d="M556.673,144.327s-1.8,5.439,2.122,7.541c5.06,2.709,3.46,2.93,5.321,5.476s2.514.278,4.668,2,1.27,13.556.784,17.189.6,5.2.6,5.2a6.756,6.756,0,0,0,6.844,1.371,16.914,16.914,0,0,0,6.719-4.131s-4.663-2.332-4.663-13.1,3.721-17.431-5.974-23.5a12.429,12.429,0,0,0-16.419,1.958" transform="translate(-342.394 -86.235)" fill="#0d0f44"/>
          <path id="Trazado_887496" data-name="Trazado 887496" d="M548.642,144.937s-3.2.275-6.952,6.177c0,0-2.709-2.063-.424-6.634s9.14-4.57,13.318-3.656Z" transform="translate(-332.6 -86.387)" fill="#0d0f44"/>
          <path id="Trazado_887497" data-name="Trazado 887497" d="M572.244,181.246a2.358,2.358,0,0,1,3.591-.457c2.155,1.7-.457,6.914-3.068,7.7s-3.395-4.045-.523-7.243" transform="translate(-351.109 -110.879)" fill="#f3abaa"/>
          <path id="Trazado_887498" data-name="Trazado 887498" d="M547.714,181.68c-.111.633-.488,1.1-.841,1.034s-.549-.626-.437-1.259.487-1.1.84-1.034.549.625.438,1.258" transform="translate(-336.328 -111.051)" fill="#0d0f44"/>
          <path id="Trazado_887499" data-name="Trazado 887499" d="M535.124,180.137s-1.958,3.622-3.378,4.455,1.126,2.742,2.4,2.154.979-6.609.979-6.609" transform="translate(-327.047 -110.879)" fill="#f3abaa"/>
          <path id="Trazado_887500" data-name="Trazado 887500" d="M538.406,206.017a1.548,1.548,0,0,1-1.116-.326l.169-.163c.007.008.78.74,3.2-.329l.095.214a5.924,5.924,0,0,1-2.345.6" transform="translate(-330.717 -126.306)" fill="#0d0f44"/>
          <path id="Trazado_887501" data-name="Trazado 887501" d="M546.347,173.636s1.924-.147,4.585,2.252l-.587.735s-1.11-1.52-4.292-1.494c0,0-.293-1.541.294-1.493" transform="translate(-336.066 -106.877)" fill="#0d0f44"/>
          <path id="Trazado_887502" data-name="Trazado 887502" d="M572.35,189.133a1.834,1.834,0,0,1-1.51-.7l.188-.14a1.889,1.889,0,0,0,2.331.355,4.023,4.023,0,0,0,1.656-2.018,3.631,3.631,0,0,0,.389-1.509,1.536,1.536,0,0,0-.646-1.292.974.974,0,0,0-1.283.213l-.2-.128a1.2,1.2,0,0,1,1.6-.284,1.771,1.771,0,0,1,.756,1.487,3.849,3.849,0,0,1-.41,1.61,4.244,4.244,0,0,1-1.76,2.128,2.415,2.415,0,0,1-1.119.274" transform="translate(-351.368 -112.918)" fill="#0d0f44"/>
          <path id="Trazado_887503" data-name="Trazado 887503" d="M556.165,217.961a17.663,17.663,0,0,1-6.112,4.062c.134-.577.253-1.124.357-1.607-3.115.66-4.827.493-5.9.061,1.785.42,5.3.378,11.65-2.516" transform="translate(-335.164 -134.161)" fill="#0d0f44"/>
          <path id="Trazado_887504" data-name="Trazado 887504" d="M517.846,287.585l-.234-.02c.348-4.047,3.311-8.722,3.341-8.768l.2.126c-.03.046-2.961,4.674-3.3,8.662" transform="translate(-318.605 -171.607)" fill="#0d0f44"/>
          <path id="Trazado_887505" data-name="Trazado 887505" d="M440.279,274.365c-.32-2.8.863-6.995,1.31-8.445l-2.575,2.83-.173-.158,3.316-3.644-.181.533c-.018.055-1.847,5.495-1.463,8.857Z" transform="translate(-270.118 -163.084)" fill="#0d0f44"/>
          <rect id="Rectángulo_403515" data-name="Rectángulo 403515" width="57.456" height="22.852" transform="translate(70.909 79)" fill="#c0cfff"/>
          <path id="Trazado_887506" data-name="Trazado 887506" d="M231.452,219.484l-.662-.914-9.215,6.267v.7l9.232,5.814.628-.937-8.339-5.251Z" transform="translate(-136.386 -134.536)" fill="#fff"/>
          <path id="Trazado_887507" data-name="Trazado 887507" d="M278.822,224.787l-9.141-6.217-.662.914,8.356,5.683-8.339,5.251.628.937,9.158-5.767Z" transform="translate(-165.589 -134.536)" fill="#fff"/>
          <rect id="Rectángulo_403516" data-name="Rectángulo 403516" width="82.035" height="28.932" transform="translate(65.915 117.992)" fill="#dbdfeb"/>
          <path id="Trazado_887508" data-name="Trazado 887508" d="M191.33,324.992h-7.04a1.768,1.768,0,0,1,0-3.536h7.04a1.768,1.768,0,0,1,0,3.536" transform="translate(-112.347 -197.865)" fill="#fff"/>
          <path id="Trazado_887509" data-name="Trazado 887509" d="M231.362,324.992H216.394a1.768,1.768,0,0,1,0-3.536h14.968a1.768,1.768,0,1,1,0,3.536" transform="translate(-132.108 -197.865)" fill="#fff"/>
          <path id="Trazado_887510" data-name="Trazado 887510" d="M307.527,324.992H270.212a1.768,1.768,0,1,1,0-3.536h37.316a1.768,1.768,0,0,1,0,3.536" transform="translate(-165.234 -197.865)" fill="#fff"/>
          <path id="Trazado_887511" data-name="Trazado 887511" d="M222.11,344.054h-5.716a1.768,1.768,0,0,1,0-3.536h5.716a1.768,1.768,0,0,1,0,3.536" transform="translate(-132.108 -209.598)" fill="#fff"/>
          <path id="Trazado_887512" data-name="Trazado 887512" d="M293.211,344.054H246.953a1.768,1.768,0,0,1,0-3.536h46.258a1.768,1.768,0,0,1,0,3.536" transform="translate(-150.918 -209.598)" fill="#fff"/>
          <path id="Trazado_887513" data-name="Trazado 887513" d="M236.356,361.884H216.394a1.768,1.768,0,0,1,0-3.536h19.962a1.768,1.768,0,1,1,0,3.536" transform="translate(-132.108 -220.573)" fill="#fff"/>
          <path id="Trazado_887514" data-name="Trazado 887514" d="M313.7,361.884H280.245a1.768,1.768,0,0,1,0-3.536H313.7a1.768,1.768,0,0,1,0,3.536" transform="translate(-171.41 -220.573)" fill="#fff"/>
          <path id="Trazado_887515" data-name="Trazado 887515" d="M191.33,343.438h-7.04a1.768,1.768,0,0,1,0-3.536h7.04a1.768,1.768,0,1,1,0,3.536" transform="translate(-112.347 -209.219)" fill="#fff"/>
          <path id="Trazado_887516" data-name="Trazado 887516" d="M191.33,361.884h-7.04a1.768,1.768,0,1,1,0-3.536h7.04a1.768,1.768,0,1,1,0,3.536" transform="translate(-112.347 -220.573)" fill="#fff"/>
          <rect id="Rectángulo_403517" data-name="Rectángulo 403517" width="22.181" height="5.543" transform="translate(65.914 114.206)" fill="#0d0f44"/>
          <path id="Trazado_887517" data-name="Trazado 887517" d="M178.914,303.192H176.33a1.768,1.768,0,0,1,0-3.537h2.584a1.768,1.768,0,0,1,0,3.537" transform="translate(-107.448 -184.446)" fill="#fff"/>
          <path id="Trazado_887518" data-name="Trazado 887518" d="M198.463,303.192h-2.584a1.768,1.768,0,0,1,0-3.537h2.584a1.768,1.768,0,0,1,0,3.537" transform="translate(-119.481 -184.446)" fill="#fff"/>
          <rect id="Rectángulo_403518" data-name="Rectángulo 403518" width="34.255" height="18.216" transform="translate(119.09 106.815)" fill="#a854f3"/>
          <path id="Trazado_887519" data-name="Trazado 887519" d="M317.008,302.968l7.058-10.474,7.139,7.8,4.136-5.568,7.736,8.238Z" transform="translate(-195.127 -180.039)" fill="#fff"/>
          <path id="Trazado_887520" data-name="Trazado 887520" d="M378.3,285.375a2.565,2.565,0,1,1-2.566-2.566,2.565,2.565,0,0,1,2.566,2.566" transform="translate(-229.697 -174.077)" fill="#fff"/>
          <path id="Trazado_887521" data-name="Trazado 887521" d="M462.794,375.147h-3.635v-.235h3.4v-3.4h.235Z" transform="translate(-282.625 -228.676)" fill="#c0cfff"/>
          <rect id="Rectángulo_403519" data-name="Rectángulo 403519" width="4.172" height="0.235" transform="translate(168.191 146.236)" fill="#c0cfff"/>
          <path id="Trazado_887522" data-name="Trazado 887522" d="M420.791,375.147h-3.635v-3.635h.235v3.4h3.4Z" transform="translate(-256.771 -228.676)" fill="#c0cfff"/>
          <rect id="Rectángulo_403520" data-name="Rectángulo 403520" width="0.235" height="4.575" transform="translate(160.384 133.685)" fill="#c0cfff"/>
          <path id="Trazado_887523" data-name="Trazado 887523" d="M417.39,329.993h-.235v-3.635h3.635v.235h-3.4Z" transform="translate(-256.771 -200.883)" fill="#c0cfff"/>
          <rect id="Rectángulo_403521" data-name="Rectángulo 403521" width="4.172" height="0.235" transform="translate(168.191 125.475)" fill="#c0cfff"/>
          <path id="Trazado_887524" data-name="Trazado 887524" d="M462.794,329.993h-.235v-3.4h-3.4v-.235h3.635Z" transform="translate(-282.625 -200.883)" fill="#c0cfff"/>
          <rect id="Rectángulo_403522" data-name="Rectángulo 403522" width="0.235" height="4.575" transform="translate(179.934 133.685)" fill="#c0cfff"/>
          <path id="Trazado_887525" data-name="Trazado 887525" d="M430.966,337.769h9.165V339.5h-9.165Zm3.671,1.063h1.822v11.925h-1.822Z" transform="translate(-265.272 -207.906)" fill="#3a1d71"/>
          <path id="Trazado_887526" data-name="Trazado 887526" d="M352.564,248.342a2.884,2.884,0,1,0-2.885,2.885,2.885,2.885,0,0,0,2.885-2.885" transform="translate(-213.462 -151.086)" fill="#c0cfff"/>
          <path id="Trazado_887527" data-name="Trazado 887527" d="M451.023,210.018a2.885,2.885,0,1,0-2.885,2.885,2.885,2.885,0,0,0,2.885-2.885" transform="translate(-274.066 -127.496)" fill="#c0cfff"/>
          <path id="Trazado_887528" data-name="Trazado 887528" d="M448.806,100.179a2.885,2.885,0,1,0-2.885,2.884,2.884,2.884,0,0,0,2.885-2.884" transform="translate(-272.702 -59.887)" fill="#c0cfff"/>
          <rect id="Rectángulo_403523" data-name="Rectángulo 403523" width="15.84" height="1.245" transform="translate(58.544 36.187)" fill="#c0cfff"/>
          <rect id="Rectángulo_403524" data-name="Rectángulo 403524" width="15.84" height="1.245" transform="translate(58.544 38.56)" fill="#c0cfff"/>
          <rect id="Rectángulo_403525" data-name="Rectángulo 403525" width="15.84" height="1.245" transform="translate(58.544 40.932)" fill="#c0cfff"/>
          <rect id="Rectángulo_403526" data-name="Rectángulo 403526" width="15.84" height="1.245" transform="translate(58.544 43.305)" fill="#c0cfff"/>
          <path id="Trazado_887529" data-name="Trazado 887529" d="M445.46,61.875h-5.229a3.578,3.578,0,0,1,0-7.156h5.229a3.578,3.578,0,0,1,0,7.156" transform="translate(-268.772 -33.681)" fill="#fff"/>
          <path id="Trazado_887530" data-name="Trazado 887530" d="M485.017,61.875h-5.229a3.578,3.578,0,0,1,0-7.156h5.229a3.578,3.578,0,0,1,0,7.156" transform="translate(-293.121 -33.681)" fill="#fff"/>
        </g>
      </g>
    </g>
  </g>
</svg>
