<svg xmlns="http://www.w3.org/2000/svg" xmlns:xlink="http://www.w3.org/1999/xlink" width="190" height="156" viewBox="0 0 190 156">
  <defs>
    <clipPath id="clip-path">
      <rect id="Rect치ngulo_403395" data-name="Rect치ngulo 403395" width="84.211" height="81.11" fill="#8722e2"/>
    </clipPath>
  </defs>
  <g id="Grupo_1101856" data-name="Grupo 1101856" transform="translate(-180 -9808)">
    <g id="Grupo_1101749" data-name="Grupo 1101749" transform="translate(0 4826)">
      <rect id="Rect치ngulo_403324" data-name="Rect치ngulo 403324" width="190" height="156" transform="translate(180 4982)" fill="#f2e5fd"/>
    </g>
    <g id="Grupo_1101751" data-name="Grupo 1101751" transform="translate(243 9845.445)">
      <g id="Grupo_1101750" data-name="Grupo 1101750" clip-path="url(#clip-path)">
        <path id="Trazado_887244" data-name="Trazado 887244" d="M44.069,15.287V5.933A5.931,5.931,0,0,0,38.163,0H5.906A5.914,5.914,0,0,0,0,5.933V75.177a5.914,5.914,0,0,0,5.906,5.933H38.163a5.931,5.931,0,0,0,5.906-5.933V58.9A9.426,9.426,0,0,1,39.82,56.1a8.661,8.661,0,0,1-1.39-2.139v10.69H5.559V11.492H38.43v5.64a42.056,42.056,0,0,1,5.639-1.845M17.4,71.569a1.243,1.243,0,0,1,1.229-1.229h6.815a1.226,1.226,0,0,1,1.229,1.229v2.619a1.2,1.2,0,0,1-1.229,1.2H18.627a1.221,1.221,0,0,1-1.229-1.2ZM26.858,7.136H17.05a1.39,1.39,0,1,1,0-2.78h9.808a1.39,1.39,0,0,1,0,2.78" transform="translate(0 -0.001)" fill="#8722e2"/>
        <path id="Trazado_887245" data-name="Trazado 887245" d="M145.976,73.829a42.047,42.047,0,0,0-53.656,0,3.246,3.246,0,0,0-.382,4.609l.257.286a3.23,3.23,0,0,0,4.531.359,35.173,35.173,0,0,1,44.839,0,3.238,3.238,0,0,0,4.537-.359l.256-.286a3.245,3.245,0,0,0-.382-4.609" transform="translate(-62.933 -44.295)" fill="#f0c518"/>
        <path id="Trazado_887246" data-name="Trazado 887246" d="M155.455,109.2a30.188,30.188,0,0,0-38.129,0,3.235,3.235,0,0,0-.412,4.621l.131.155a3.228,3.228,0,0,0,4.471.406,23.527,23.527,0,0,1,29.753,0,3.229,3.229,0,0,0,4.472-.406l.131-.155a3.236,3.236,0,0,0-.418-4.621" transform="translate(-80.178 -70.708)" fill="#f0c518"/>
        <path id="Trazado_887247" data-name="Trazado 887247" d="M164.964,144.625a18.366,18.366,0,0,0-22.673,0,3.23,3.23,0,0,0,4.042,5.038,11.912,11.912,0,0,1,14.59,0,3.23,3.23,0,0,0,4.042-5.038" transform="translate(-97.412 -97.146)" fill="#f0c518"/>
        <path id="Trazado_887248" data-name="Trazado 887248" d="M168.679,178.967a5.784,5.784,0,1,0,5.784,5.779,5.784,5.784,0,0,0-5.784-5.779" transform="translate(-112.464 -123.56)" fill="#f0c518"/>
      </g>
    </g>
  </g>
</svg>
