<svg xmlns="http://www.w3.org/2000/svg" xmlns:xlink="http://www.w3.org/1999/xlink" width="190" height="154.752" viewBox="0 0 190 154.752">
  <defs>
    <clipPath id="clip-path">
      <rect id="Rect치ngulo_403397" data-name="Rect치ngulo 403397" width="87.813" height="79.603" fill="none"/>
    </clipPath>
  </defs>
  <g id="Grupo_1101857" data-name="Grupo 1101857" transform="translate(-180 -10083.112)">
    <g id="Grupo_1101753" data-name="Grupo 1101753" transform="translate(0 5101.112)">
      <rect id="Rect치ngulo_403324" data-name="Rect치ngulo 403324" width="190" height="154.752" transform="translate(180 4982)" fill="#f2e5fd"/>
    </g>
    <g id="Grupo_1101755" data-name="Grupo 1101755" transform="translate(231.094 10120.687)">
      <g id="Grupo_1101754" data-name="Grupo 1101754" clip-path="url(#clip-path)">
        <path id="Trazado_887249" data-name="Trazado 887249" d="M70.342,15.969a17.652,17.652,0,0,0-4.572.607,25.418,25.418,0,0,0-48.837,4.287c-.607-.036-1.215-.072-1.858-.072a15.076,15.076,0,0,0,0,30.152h1.287V43.406a8.012,8.012,0,0,1,8-8H63.448a7.988,7.988,0,0,1,7.966,7.931v7.538a17.468,17.468,0,0,0-1.072-34.9" fill="#8722e2"/>
        <path id="Trazado_887250" data-name="Trazado 887250" d="M77.087,243.649H60.9a1.753,1.753,0,0,0-1.751,1.751,1.784,1.784,0,0,0,1.751,1.786H77.123a7.453,7.453,0,0,1-.214-1.786,9.454,9.454,0,0,1,.178-1.751" transform="translate(-41.433 -170.663)" fill="#f0c518"/>
        <path id="Trazado_887251" data-name="Trazado 887251" d="M190.221,243.649H174.038a9.377,9.377,0,0,1,.178,1.751,7.393,7.393,0,0,1-.214,1.786h16.219a1.761,1.761,0,0,0,1.751-1.786,1.8,1.8,0,0,0-1.751-1.751" transform="translate(-121.879 -170.663)" fill="#f0c518"/>
        <path id="Trazado_887252" data-name="Trazado 887252" d="M92.107,161.364V154.64h17.979a4.416,4.416,0,0,0,4.408-4.408V134.5a4.451,4.451,0,0,0-4.408-4.333h-39.1a4.416,4.416,0,0,0-4.408,4.408v15.658a4.416,4.416,0,0,0,4.408,4.408H88.968v6.724a4.855,4.855,0,1,0,3.138,0m-3.487-24.548h18.03a1.569,1.569,0,1,1,0,3.138H88.619a1.569,1.569,0,0,1,0-3.138M76.293,147.991H74.35a1.569,1.569,0,1,1,0-3.138h1.942a1.569,1.569,0,1,1,0,3.138m0-8.037H74.35a1.569,1.569,0,1,1,0-3.138h1.942a1.569,1.569,0,1,1,0,3.138m7.172,8.037H81.522a1.569,1.569,0,1,1,0-3.138h1.942a1.578,1.578,0,0,1,1.569,1.569,1.687,1.687,0,0,1-1.569,1.569m0-8.037H81.522a1.569,1.569,0,1,1,0-3.138h1.942a1.578,1.578,0,0,1,1.569,1.569,1.687,1.687,0,0,1-1.569,1.569m5.155,8.037a1.569,1.569,0,0,1,0-3.138h18.03a1.569,1.569,0,1,1,0,3.138Z" transform="translate(-46.636 -91.174)" fill="#f0c518"/>
      </g>
    </g>
  </g>
</svg>
