<svg id="Grupo_1101772" data-name="Grupo 1101772" xmlns="http://www.w3.org/2000/svg" xmlns:xlink="http://www.w3.org/1999/xlink" width="250.505" height="166.928" viewBox="0 0 250.505 166.928">
  <defs>
    <clipPath id="clip-path">
      <rect id="Rect치ngulo_403409" data-name="Rect치ngulo 403409" width="250.505" height="166.928" fill="none"/>
    </clipPath>
  </defs>
  <rect id="Rect치ngulo_403408" data-name="Rect치ngulo 403408" width="33.879" height="25.347" transform="translate(61.668 70.498) rotate(-54.158)" fill="#fff"/>
  <g id="Grupo_1101771" data-name="Grupo 1101771">
    <g id="Grupo_1101770" data-name="Grupo 1101770" clip-path="url(#clip-path)">
      <path id="Trazado_887275" data-name="Trazado 887275" d="M94.744,94.861a.83.83,0,0,1-.486-.157L73.711,79.862a.83.83,0,0,1-.187-1.158L93.362,51.241a.829.829,0,0,1,1.158-.187L115.067,65.9a.83.83,0,0,1,.187,1.158L95.416,94.518a.826.826,0,0,1-.54.333.793.793,0,0,1-.132.011M75.354,79l19.2,13.872,18.866-26.119-19.2-13.872Z" transform="translate(-12.528 -8.691)" fill="#080717"/>
      <path id="Trazado_887276" data-name="Trazado 887276" d="M82.616,69.328,94.345,53.091l19.318,13.954-6.951,13.983c-7.879-1.912-20.421-3.862-24.1-11.7" transform="translate(-14.107 -9.066)" fill="#080717"/>
      <path id="Trazado_887277" data-name="Trazado 887277" d="M133.24,17.934,128.6,15.947A28.327,28.327,0,0,0,93.21,27.335a9.353,9.353,0,1,0-6.456,17.53,29.378,29.378,0,0,0,17.623,30.286l3.681,1.576a20.273,20.273,0,0,0,26.616-10.654l9.219-21.525A20.273,20.273,0,0,0,133.24,17.934" transform="translate(-13.69 -2.331)" fill="#fff"/>
      <path id="Trazado_887278" data-name="Trazado 887278" d="M115.865,79.041a21.069,21.069,0,0,1-8.3-1.716l-3.681-1.576A30.4,30.4,0,0,1,85.692,45.267a10.182,10.182,0,0,1,7-19.118,29.259,29.259,0,0,1,36.059-11.129l4.64,1.986a21.125,21.125,0,0,1,11.089,27.7l-9.219,21.525a21.151,21.151,0,0,1-19.4,12.806m-26.521-51.8A8.524,8.524,0,0,0,86.83,43.908a.83.83,0,0,1,.578.885,28.718,28.718,0,0,0,17.125,29.431l3.68,1.576a19.443,19.443,0,0,0,25.528-10.218l9.218-21.525A19.442,19.442,0,0,0,132.741,18.53L128.1,16.544A27.588,27.588,0,0,0,93.749,27.6a.826.826,0,0,1-1.036.334,8.579,8.579,0,0,0-3.368-.69" transform="translate(-13.518 -2.166)" fill="#080717"/>
      <path id="Trazado_887279" data-name="Trazado 887279" d="M135.872,17.39l-12.4-5.311a19.882,19.882,0,0,0-26.1,10.449l-1.781,4.159a9.343,9.343,0,0,1,2,16.329,4.572,4.572,0,0,0,6.029-2.072l2.914-5.762,1.9-.365a12.294,12.294,0,0,0,7.394-4.534l2.66-3.426c29.853,5.165,28.046,17.15,28.046,17.15A20.273,20.273,0,0,0,135.872,17.39" transform="translate(-16.322 -1.787)" fill="#080717"/>
      <path id="Trazado_887280" data-name="Trazado 887280" d="M146.03,76.957a10.111,10.111,0,0,1-1.551-.12,9.96,9.96,0,0,1-4.348-17.882h0a9.96,9.96,0,1,1,5.9,18m-4.919-16.664a8.3,8.3,0,1,0,6.174-1.5,8.248,8.248,0,0,0-6.174,1.5Z" transform="translate(-23.231 -9.739)" fill="#6cf"/>
      <path id="Trazado_887281" data-name="Trazado 887281" d="M123.759,64.258a9.955,9.955,0,1,1,5.863-1.916,9.954,9.954,0,0,1-5.863,1.916M123.735,46a8.257,8.257,0,0,0-4.888,1.6h0a8.309,8.309,0,1,0,4.888-1.6m-5.377.926h0Z" transform="translate(-19.43 -7.572)" fill="#6cf"/>
      <path id="Trazado_887282" data-name="Trazado 887282" d="M115.07,48.245a.824.824,0,0,1-.377-.091L102.62,41.962a.829.829,0,0,1,.757-1.475l12.072,6.19a.829.829,0,0,1-.379,1.567" transform="translate(-17.446 -6.898)" fill="#6cf"/>
      <path id="Trazado_887283" data-name="Trazado 887283" d="M139.479,61.989a.838.838,0,0,1-.328-.068l-3.027-1.309a.829.829,0,0,1,.658-1.522l3.027,1.309a.829.829,0,0,1-.329,1.59" transform="translate(-23.159 -10.079)" fill="#6cf"/>
      <path id="Trazado_887284" data-name="Trazado 887284" d="M123.577,52.956c-.7,1.351-.577,2.809.283,3.256s2.127-.284,2.831-1.635.577-2.809-.283-3.258-2.127.284-2.831,1.637" transform="translate(-21.024 -8.741)" fill="#080717"/>
      <path id="Trazado_887285" data-name="Trazado 887285" d="M141.534,63.43c-.7,1.352-.577,2.809.283,3.257s2.127-.284,2.831-1.635.577-2.809-.283-3.257-2.127.284-2.831,1.635" transform="translate(-24.091 -10.53)" fill="#080717"/>
      <path id="Trazado_887286" data-name="Trazado 887286" d="M126.852,79.023a.784.784,0,0,1-.124-.009A6.147,6.147,0,0,1,121.42,73.2a.829.829,0,1,1,1.658-.059c.127,3.625,3.742,4.208,3.9,4.232a.829.829,0,0,1-.122,1.649" transform="translate(-20.734 -12.353)" fill="#080717"/>
      <path id="Trazado_887287" data-name="Trazado 887287" d="M135.658,45.508a.824.824,0,0,1-.6-.256c-.037-.038-3.761-3.862-8.064-2.931a.829.829,0,1,1-.351-1.621c5.219-1.129,9.438,3.222,9.615,3.407a.829.829,0,0,1-.6,1.4" transform="translate(-21.514 -6.918)" fill="#080717"/>
      <path id="Trazado_887288" data-name="Trazado 887288" d="M155.528,58.367a.829.829,0,0,1-.694-.374,8.5,8.5,0,0,0-6.909-3.683.815.815,0,0,1-.849-.807.828.828,0,0,1,.8-.851,10.172,10.172,0,0,1,8.341,4.431.829.829,0,0,1-.692,1.284" transform="translate(-25.115 -8.991)" fill="#080717"/>
      <path id="Trazado_887289" data-name="Trazado 887289" d="M94.8,45.68a.829.829,0,0,1-.7-1.275c.022-.035,2.216-3.526,1.472-6.5a4.653,4.653,0,0,0-2.426-2.985.829.829,0,1,1,.815-1.445,6.312,6.312,0,0,1,3.222,4.035c.912,3.668-1.578,7.617-1.685,7.784a.827.827,0,0,1-.7.381" transform="translate(-15.834 -5.699)" fill="#080717"/>
      <path id="Trazado_887290" data-name="Trazado 887290" d="M124.431,13.4a.828.828,0,0,1-.75-1.181c1.732-3.7,6.7-3.417,6.911-3.4a.829.829,0,0,1-.109,1.655c-.037,0-4.051-.217-5.3,2.451a.829.829,0,0,1-.751.478" transform="translate(-21.106 -1.504)" fill="#080717"/>
      <path id="Trazado_887291" data-name="Trazado 887291" d="M124.969,11.385a.844.844,0,0,1-.276-.047.831.831,0,0,1-.507-1.058,1.539,1.539,0,0,0-.5-1.948.836.836,0,0,1-.269-1.138.823.823,0,0,1,1.124-.282,3.206,3.206,0,0,1,1.208,3.918.828.828,0,0,1-.782.555" transform="translate(-21.054 -1.161)" fill="#080717"/>
      <path id="Trazado_887292" data-name="Trazado 887292" d="M30.866,119.083,53.341,89.533a16.185,16.185,0,0,1,22.935-2.886l10.5,8.325,4.574-4.86h.206a18.23,18.23,0,0,1,17.876,14.655l14.507,74.542H22.172Z" transform="translate(-3.786 -14.198)" fill="#a854f3"/>
      <path id="Trazado_887293" data-name="Trazado 887293" d="M135.159,160.021h2.431a6.7,6.7,0,0,0,6.291-4.407,2.97,2.97,0,0,0-2.791-3.984H120.665Z" transform="translate(-20.605 -25.892)" fill="#fff"/>
      <path id="Trazado_887294" data-name="Trazado 887294" d="M137.419,160.679h-2.431a.829.829,0,1,1,0-1.658h2.431a5.883,5.883,0,0,0,5.512-3.861,2.141,2.141,0,0,0-2.012-2.872H120.493a.829.829,0,1,1,0-1.658h20.426a3.8,3.8,0,0,1,3.571,5.1,7.547,7.547,0,0,1-7.071,4.953" transform="translate(-20.434 -25.721)" fill="#080717"/>
      <path id="Trazado_887295" data-name="Trazado 887295" d="M27.255,126.484,5.164,155.594c-11.177,14.729,1.917,35.434,20.016,31.648l69.206-14.479,8.347,5.843a9.255,9.255,0,0,0,9.2.813l2.285-1.061a8.585,8.585,0,0,0,9.262.168l1.927-1.185-2.223-2.741.744-.083a6.592,6.592,0,0,0,5.613-4.749l-17.8-17.792A16.141,16.141,0,0,0,98.155,147.4l-50.049,6.8L61.33,139.707s-8.392-13.223-34.074-13.223" transform="translate(-0.176 -21.598)" fill="#fff"/>
      <path id="Trazado_887296" data-name="Trazado 887296" d="M20.677,188.356a20.317,20.317,0,0,1-17.359-9.72,20.392,20.392,0,0,1,1.011-23.712l22.091-29.11a.828.828,0,0,1,.66-.328c25.842,0,34.423,13.051,34.775,13.608a.827.827,0,0,1-.088,1L50.084,152.9l47.784-6.5a17.063,17.063,0,0,1,14.284,4.815l17.8,17.791a.832.832,0,0,1,.211.813,7.393,7.393,0,0,1-5.582,5.228l1.294,1.6a.83.83,0,0,1-.21,1.229l-1.926,1.185a9.44,9.44,0,0,1-9.757.068L112.11,180a10.111,10.111,0,0,1-10.027-.885l-8.053-5.637L25.175,187.884a22.027,22.027,0,0,1-4.5.471m6.814-61.211L5.65,155.926a18.765,18.765,0,0,0-.93,21.823,18.765,18.765,0,0,0,20.116,8.512l69.206-14.479a.826.826,0,0,1,.645.133l8.347,5.843a8.45,8.45,0,0,0,8.378.74l2.285-1.061a.83.83,0,0,1,.809.063,7.778,7.778,0,0,0,8.368.152l1.122-.691-1.628-2.008a.829.829,0,0,1,.552-1.346l.744-.083a5.741,5.741,0,0,0,4.758-3.7l-17.441-17.431a15.4,15.4,0,0,0-12.888-4.345l-50.049,6.8a.829.829,0,0,1-.725-1.38l12.768-14a26.152,26.152,0,0,0-6.873-5.908c-4.693-2.9-12.95-6.353-25.723-6.425" transform="translate(0 -21.428)" fill="#080717"/>
      <path id="Trazado_887297" data-name="Trazado 887297" d="M121.891,175.241l12.968,11.443Z" transform="translate(-20.814 -29.924)" fill="#fff"/>
      <path id="Trazado_887298" data-name="Trazado 887298" d="M134.689,187.342a.829.829,0,0,1-.548-.207l-12.968-11.443a.829.829,0,1,1,1.1-1.244l12.969,11.443a.829.829,0,0,1-.549,1.451" transform="translate(-20.643 -29.753)" fill="#080717"/>
      <path id="Trazado_887299" data-name="Trazado 887299" d="M127.411,165.735,144.2,181.112Z" transform="translate(-21.757 -28.301)" fill="#fff"/>
      <path id="Trazado_887300" data-name="Trazado 887300" d="M144.026,181.77a.826.826,0,0,1-.56-.218l-16.785-15.377a.829.829,0,1,1,1.12-1.222l16.785,15.377a.829.829,0,0,1-.561,1.44" transform="translate(-21.586 -28.13)" fill="#080717"/>
      <path id="Trazado_887301" data-name="Trazado 887301" d="M33.883,162.961l19.835-3.052Z" transform="translate(-5.786 -27.306)" fill="#fff"/>
      <path id="Trazado_887302" data-name="Trazado 887302" d="M33.71,163.619a.829.829,0,0,1-.124-1.649l19.834-3.052a.829.829,0,1,1,.252,1.639l-19.835,3.051a.817.817,0,0,1-.127.01" transform="translate(-5.615 -27.135)" fill="#080717"/>
      <path id="Trazado_887303" data-name="Trazado 887303" d="M73.577,140.168a.829.829,0,0,1-.6-1.4l13.546-14.18a.829.829,0,0,1,1.2,1.146l-13.546,14.18a.829.829,0,0,1-.6.256" transform="translate(-12.422 -21.23)" fill="#080717"/>
      <path id="Trazado_887304" data-name="Trazado 887304" d="M196.162,197.52H98.176v-1.8a5.932,5.932,0,0,1,5.932-5.932h92.054Z" transform="translate(-16.764 -32.409)" fill="#080717"/>
      <path id="Trazado_887305" data-name="Trazado 887305" d="M170.491,184.535h89.1l19.578-59.176a8.834,8.834,0,0,0-8.387-11.609H200.291a8.833,8.833,0,0,0-8.387,6.059Z" transform="translate(-29.113 -19.424)" fill="#080717"/>
      <path id="Trazado_887306" data-name="Trazado 887306" d="M235.624,156.8a6.275,6.275,0,1,0,6.275-6.275,6.275,6.275,0,0,0-6.275,6.275" transform="translate(-40.235 -25.704)" fill="#fff"/>
      <path id="Trazado_887307" data-name="Trazado 887307" d="M241.728,163.737a7.1,7.1,0,1,1,7.1-7.1,7.112,7.112,0,0,1-7.1,7.1m0-12.55a5.446,5.446,0,1,0,5.446,5.446,5.452,5.452,0,0,0-5.446-5.446" transform="translate(-40.064 -25.534)" fill="#080717"/>
      <path id="Trazado_887308" data-name="Trazado 887308" d="M224.49,9.544a29.232,29.232,0,0,0-46.426,34.494l-4.368,16.3L190,55.97A29.231,29.231,0,0,0,224.49,9.544" transform="translate(-29.66 -0.168)" fill="#fff"/>
      <path id="Trazado_887309" data-name="Trazado 887309" d="M173.525,61a.83.83,0,0,1-.8-1.044l4.283-15.986a30.058,30.058,0,1,1,12.718,12.719L173.74,60.972a.83.83,0,0,1-.215.028M203.65,1.658a28.386,28.386,0,0,0-25.026,41.819.83.83,0,0,1,.07.607L174.7,59l14.914-4a.828.828,0,0,1,.607.07A28.4,28.4,0,1,0,203.65,1.658" transform="translate(-29.489 0)" fill="#080717"/>
      <path id="Trazado_887310" data-name="Trazado 887310" d="M202.352,42.6a.827.827,0,0,1-.586-.243l-5.514-5.514a.829.829,0,1,1,1.173-1.173l4.928,4.928,15.132-15.132a.829.829,0,0,1,1.173,1.173L202.938,42.356a.827.827,0,0,1-.586.243" transform="translate(-33.47 -4.307)" fill="#080717"/>
    </g>
  </g>
</svg>
