<svg id="Grupo_1101776" data-name="Grupo 1101776" xmlns="http://www.w3.org/2000/svg" xmlns:xlink="http://www.w3.org/1999/xlink" width="185.017" height="166.435" viewBox="0 0 185.017 166.435">
  <defs>
    <clipPath id="clip-path">
      <rect id="Rect치ngulo_403462" data-name="Rect치ngulo 403462" width="185.017" height="166.435" fill="none"/>
    </clipPath>
  </defs>
  <g id="Grupo_1101775" data-name="Grupo 1101775" clip-path="url(#clip-path)">
    <path id="Trazado_887356" data-name="Trazado 887356" d="M225.815,115.493a6.857,6.857,0,0,0-1.6-1.519c-.013-.027-.015-.055-.03-.081l-3.133-5.074a6.9,6.9,0,0,0-.98-1.039l-2.655-5.2a.761.761,0,0,0-.072-.115,6.964,6.964,0,0,0-.795-.876.742.742,0,0,0-.059-.23l-2.88-5.967a.754.754,0,0,0-.079-.13,6.917,6.917,0,0,0-8.948-1.814l-6.245,3.6c-.059.034-.113.072-.171.107a6.322,6.322,0,0,0-11.079,4.672l1.244,14.808v7.023a31.362,31.362,0,0,0,4.75,16.6l3.8,6.1-5.606,39.324a.772.772,0,0,0,.735.879l29.056,1.073h.029a.772.772,0,0,0,.771-.771V147.2l3.348-7.223a24.522,24.522,0,0,0,2.262-9.274l.384-8.667a10.117,10.117,0,0,0-2.039-6.544" transform="translate(-42.846 -21.194)" fill="#fff"/>
    <path id="Trazado_887357" data-name="Trazado 887357" d="M0,194.909,1.128,186.6a34.065,34.065,0,0,1,22.5-27.567l62.741-21.971a27.993,27.993,0,0,1,34.577,14.495l21.087,44.78H.715Z" transform="translate(0 -31.033)" fill="#a854f3"/>
    <path id="Trazado_887358" data-name="Trazado 887358" d="M49.3,127.358l3.217,17.757L47.1,152.736l17.876,12.418a15.7,15.7,0,0,0,24.509-15.076l-1.833-13.071Z" transform="translate(-10.787 -29.171)" fill="#fff"/>
    <path id="Trazado_887359" data-name="Trazado 887359" d="M73.689,168.544a16.4,16.4,0,0,1-9.386-2.986L46.428,153.14a.77.77,0,0,1-.188-1.08l5.236-7.356-3.159-17.437a.77.77,0,0,1,.947-.885l38.345,9.65a.772.772,0,0,1,.575.641l1.833,13.071a16.263,16.263,0,0,1-7.683,16.319,16.457,16.457,0,0,1-8.644,2.483M47.948,152.319l17.235,11.974a14.931,14.931,0,0,0,23.306-14.336L86.727,137.4l-36.681-9.231,3,16.58a.768.768,0,0,1-.13.584Z" transform="translate(-10.558 -28.942)" fill="#080717"/>
    <path id="Trazado_887360" data-name="Trazado 887360" d="M90.657,150.254a16.528,16.528,0,0,1,.162,2.486A24.746,24.746,0,0,1,80.4,148.526L52.231,128.958l.594-.834,36,9.059Z" transform="translate(-11.964 -29.347)" fill="#080717"/>
    <path id="Trazado_887361" data-name="Trazado 887361" d="M17.834,42.276c8.508-11.344,24.768-15.784,29.3-12.512a17.954,17.954,0,0,1,6.458-8.551c7.353-5.35,17.1-4.6,21.771,1.687,4.044,5.442,2.946,13.243-2.2,18.711a66.96,66.96,0,0,1,10.6,11.29c12.815,17.24-14.367,39.141-19.668,43-14.341,10.436-35.35,6.272-46.924-9.3s-9.608-30.625.668-44.326" transform="translate(-2.125 -4.042)" fill="#080717"/>
    <path id="Trazado_887362" data-name="Trazado 887362" d="M22.918,55.52c4.874-1.318,9.44-1.163,13.095.779,10.312,5.478,14.364,28.317-.971,40.168-.956.739-2.294,1-3.031,1.93C21.559,84.263,18.535,67.922,22.918,55.52" transform="translate(-4.804 -12.52)" fill="#080717"/>
    <path id="Trazado_887363" data-name="Trazado 887363" d="M74.038,44.121c-4.794,6.523-12.61,12.745-22.354,17.146-16.388,7.4-33.036,7.309-41.062.578C10.961,51.251,15.1,42,23.066,36.342c13.618-9.672,34.288-5.912,50.972,7.779" transform="translate(-2.433 -7.087)" fill="#080717"/>
    <path id="Trazado_887364" data-name="Trazado 887364" d="M32.651,91.622a13.177,13.177,0,0,1,7.757-.969,27.255,27.255,0,0,0,5.164-21.925A67.246,67.246,0,0,0,54.944,65.3C64.493,60.986,72.182,54.924,77,48.544a68.538,68.538,0,0,1,10.34,11.23c15.431,20.984,16.566,46.36,2.535,56.677-10.51,7.729-26.548,4.815-40.42-5.952a13.24,13.24,0,1,1-16.8-18.877" transform="translate(-5.693 -11.119)" fill="#fff"/>
    <path id="Trazado_887365" data-name="Trazado 887365" d="M75.564,121.35c-8.222,0-17.445-3.393-26.142-9.958a14.012,14.012,0,1,1-9.568-21.8,26.373,26.373,0,0,0,4.733-20.949.771.771,0,0,1,.548-.884,66.445,66.445,0,0,0,9.264-3.39c9.088-4.1,16.814-9.97,21.758-16.516a.768.768,0,0,1,.534-.3.778.778,0,0,1,.586.183A69.343,69.343,0,0,1,87.732,59.089c7.553,10.27,11.979,21.9,12.465,32.761.49,10.97-3.094,19.847-10.095,24.994a24.159,24.159,0,0,1-14.538,4.506M49.225,109.5a.772.772,0,0,1,.473.162c14.058,10.912,29.561,13.245,39.491,5.94,6.572-4.832,9.934-13.243,9.467-23.683C98.184,81.364,93.863,70.03,86.49,60a67.978,67.978,0,0,0-9.61-10.566C71.773,55.92,64.049,61.7,55.034,65.772a68.34,68.34,0,0,1-8.81,3.275A27.8,27.8,0,0,1,40.784,90.9a.77.77,0,0,1-.739.28,12.473,12.473,0,1,0,8.518,18.692.771.771,0,0,1,.519-.362.805.805,0,0,1,.143-.013m-16.8-18.107h0Z" transform="translate(-5.465 -10.89)" fill="#080717"/>
    <path id="Trazado_887366" data-name="Trazado 887366" d="M57.6,28.606h-.032a.771.771,0,0,1-.739-.8c.6-14.722,18.441-16.749,18.622-16.768a.771.771,0,0,1,.16,1.534A27.649,27.649,0,0,0,67.1,15.191c-5.562,2.824-8.5,7.089-8.721,12.675a.771.771,0,0,1-.771.739" transform="translate(-13.018 -2.527)" fill="#080717"/>
    <path id="Trazado_887367" data-name="Trazado 887367" d="M108.814,75.031c.527,1.976-.066,3.85-1.323,4.185s-2.7-.995-3.232-2.971.066-3.85,1.324-4.185,2.7,1,3.231,2.971" transform="translate(-23.837 -16.493)" fill="#080717"/>
    <path id="Trazado_887368" data-name="Trazado 887368" d="M99.327,67.995a.771.771,0,0,1-.43-1.411,17.118,17.118,0,0,1,8.434-2.626.8.8,0,0,1,.779.762.771.771,0,0,1-.762.78,15.818,15.818,0,0,0-7.594,2.365.764.764,0,0,1-.427.13" transform="translate(-22.574 -14.65)" fill="#080717"/>
    <path id="Trazado_887369" data-name="Trazado 887369" d="M85.9,86.18c.527,1.976-.066,3.85-1.323,4.185s-2.7-.995-3.231-2.971.065-3.85,1.323-4.185,2.7,1,3.231,2.971" transform="translate(-18.587 -19.047)" fill="#080717"/>
    <path id="Trazado_887370" data-name="Trazado 887370" d="M71.723,84.108a.754.754,0,0,1-.3-.059.769.769,0,0,1-.416-1.006c.129-.311,3.236-7.626,10.136-8.7a.771.771,0,1,1,.237,1.523c-6.036.943-8.921,7.7-8.95,7.771a.771.771,0,0,1-.712.475" transform="translate(-16.252 -17.025)" fill="#080717"/>
    <path id="Trazado_887371" data-name="Trazado 887371" d="M101.085,91.612a.771.771,0,0,1-.318-1.473c.789-.358,3.1-1.673,3.343-2.967a1.337,1.337,0,0,0-.5-1.247c-2.232-2.287-7.729-9.87-7.962-10.192a.771.771,0,1,1,1.249-.9c.057.078,5.663,7.812,7.817,10.02a2.871,2.871,0,0,1,.91,2.61c-.438,2.313-3.837,3.909-4.223,4.084a.762.762,0,0,1-.317.069" transform="translate(-21.875 -17.067)" fill="#080717"/>
    <path id="Trazado_887372" data-name="Trazado 887372" d="M97.737,108.829c-3.041,0-6.839-1.241-10.863-5.551A.771.771,0,0,1,88,102.225c8.423,9.019,15.323,3.374,15.613,3.129a.771.771,0,0,1,1,1.173,11.494,11.494,0,0,1-6.876,2.3" transform="translate(-19.851 -23.359)" fill="#080717"/>
    <path id="Trazado_887373" data-name="Trazado 887373" d="M34.415,113.745a.771.771,0,0,1-.423-1.415c4.882-3.2,10.249-.179,10.475-.049a.771.771,0,0,1-.768,1.337c-.048-.027-4.782-2.669-8.862,0a.773.773,0,0,1-.422.126" transform="translate(-7.706 -25.394)" fill="#080717"/>
    <path id="Trazado_887374" data-name="Trazado 887374" d="M197.37,112.315a.723.723,0,0,1-.128-.011l-.448-.075a6.969,6.969,0,0,1-3.97-2.153l-.9-.978a.772.772,0,0,1-.131-.847l2.752-5.915a11.836,11.836,0,0,1,4.852-5.294l6.245-3.6a6.919,6.919,0,0,1,8.948,1.814.869.869,0,0,1,.079.131l2.88,5.966a.771.771,0,0,1-1.388.67l-2.846-5.895a5.371,5.371,0,0,0-6.9-1.35l-6.245,3.6a10.3,10.3,0,0,0-4.223,4.608l-2.535,5.45.548.6a5.405,5.405,0,0,0,3.088,1.674l.448.076a.771.771,0,0,1-.126,1.531" transform="translate(-43.915 -21.194)" fill="#080717"/>
    <path id="Trazado_887375" data-name="Trazado 887375" d="M202.317,121.658a.724.724,0,0,1-.128-.011l-.448-.075a6.969,6.969,0,0,1-3.97-2.153l-.9-.978a.772.772,0,0,1-.13-.847l2.752-5.915a11.84,11.84,0,0,1,4.852-5.294l6.245-3.6a6.917,6.917,0,0,1,8.948,1.815.7.7,0,0,1,.072.115l2.668,5.225a.771.771,0,0,1-1.373.7l-2.636-5.162a5.373,5.373,0,0,0-6.91-1.357l-6.245,3.6a10.3,10.3,0,0,0-4.223,4.608l-2.535,5.45.548.6a5.413,5.413,0,0,0,3.087,1.675l.449.075a.771.771,0,0,1-.126,1.531" transform="translate(-45.048 -23.334)" fill="#080717"/>
    <path id="Trazado_887376" data-name="Trazado 887376" d="M207.126,129.9a.724.724,0,0,1-.128-.011l-.448-.075a6.969,6.969,0,0,1-3.97-2.153l-.9-.978a.774.774,0,0,1-.13-.846l2.752-5.915a11.841,11.841,0,0,1,4.852-5.294l6.245-3.6a6.918,6.918,0,0,1,8.948,1.814l3.133,5.074a.771.771,0,0,1-1.312.809l-3.092-5.013a5.362,5.362,0,0,0-6.908-1.348l-6.245,3.6a10.3,10.3,0,0,0-4.223,4.608l-2.535,5.45.548.6A5.413,5.413,0,0,0,206.8,128.3l.449.075a.771.771,0,0,1-.126,1.531" transform="translate(-46.15 -25.222)" fill="#080717"/>
    <path id="Trazado_887377" data-name="Trazado 887377" d="M225.808,193.64a.771.771,0,0,1-.771-.771V153.042a.772.772,0,0,1,.072-.325l3.42-7.376a23.006,23.006,0,0,0,2.12-8.694l.384-8.667a8.575,8.575,0,0,0-1.728-5.545,5.373,5.373,0,0,0-6.95-1.409l-6.245,3.6a10.305,10.305,0,0,0-4.223,4.608l-2.535,5.449.548.6a3.606,3.606,0,0,0,.772.586,5.915,5.915,0,0,0,6.3-.136l5.77-3.775a.771.771,0,1,1,.843,1.291l-5.769,3.775a7.464,7.464,0,0,1-7.946.161,5.163,5.163,0,0,1-1.1-.859l-.9-.978a.77.77,0,0,1-.13-.846l2.752-5.916a11.839,11.839,0,0,1,4.852-5.294l6.245-3.6a6.917,6.917,0,0,1,8.948,1.814,10.118,10.118,0,0,1,2.039,6.545l-.384,8.666a24.511,24.511,0,0,1-2.262,9.274l-3.348,7.223v39.657a.771.771,0,0,1-.771.771" transform="translate(-47.566 -27.205)" fill="#080717"/>
    <path id="Trazado_887378" data-name="Trazado 887378" d="M211.726,158.432a.77.77,0,0,1-.671-.389,21.537,21.537,0,0,1-1.3-16.736.771.771,0,1,1,1.454.515,20.262,20.262,0,0,0,1.182,15.458.771.771,0,0,1-.669,1.153" transform="translate(-47.783 -32.249)" fill="#080717"/>
    <rect id="Rect치ngulo_403461" data-name="Rect치ngulo 403461" width="12.076" height="9.572" transform="translate(148.047 69.789) rotate(-26.851)" fill="#080717"/>
    <path id="Trazado_887379" data-name="Trazado 887379" d="M188.8,23.683c11.168,17.741,8.547,39.472-5.854,48.537s-35.128,2.031-46.3-15.71S128.1,17.038,142.5,7.973s35.128-2.031,46.3,15.71" transform="translate(-29.713 -0.92)" fill="#080717"/>
    <path id="Trazado_887380" data-name="Trazado 887380" d="M168.681,76.727a32.9,32.9,0,0,1-10.57-1.813,43.318,43.318,0,0,1-22.34-18.226c-11.377-18.073-8.642-40.323,6.1-49.6,7.166-4.511,16.051-5.318,25.02-2.275a43.324,43.324,0,0,1,22.34,18.227c11.377,18.073,8.642,40.323-6.1,49.6a26.871,26.871,0,0,1-14.449,4.088M156.321,4.543a25.344,25.344,0,0,0-13.633,3.849c-14.018,8.824-16.536,30.121-5.613,47.474a41.772,41.772,0,0,0,21.531,17.588c8.52,2.891,16.937,2.139,23.7-2.119,14.018-8.824,16.536-30.121,5.613-47.474A41.778,41.778,0,0,0,166.39,6.273a31.351,31.351,0,0,0-10.069-1.729" transform="translate(-29.49 -0.687)" fill="#080717"/>
    <path id="Trazado_887381" data-name="Trazado 887381" d="M193.8,20.683c11.168,17.741,8.547,39.472-5.854,48.537s-35.128,2.031-46.3-15.71S133.1,14.038,147.5,4.973s35.128-2.031,46.3,15.71" transform="translate(-30.858 -0.233)" fill="#fff"/>
    <path id="Trazado_887382" data-name="Trazado 887382" d="M173.681,73.727a32.9,32.9,0,0,1-10.57-1.813,43.318,43.318,0,0,1-22.34-18.226c-11.377-18.073-8.642-40.323,6.1-49.6,7.166-4.511,16.051-5.318,25.02-2.275a43.32,43.32,0,0,1,22.34,18.227c11.377,18.073,8.642,40.323-6.1,49.6a26.871,26.871,0,0,1-14.449,4.088M161.321,1.543a25.344,25.344,0,0,0-13.633,3.849c-14.018,8.824-16.536,30.121-5.613,47.474a41.772,41.772,0,0,0,21.531,17.588c8.52,2.891,16.937,2.139,23.7-2.119,14.018-8.824,16.536-30.121,5.613-47.474A41.778,41.778,0,0,0,171.39,3.273a31.351,31.351,0,0,0-10.069-1.729" transform="translate(-30.635 0)" fill="#080717"/>
    <path id="Trazado_887383" data-name="Trazado 887383" d="M191.375,24.723c9.505,15.1,7.274,33.595-4.983,41.31s-29.9,1.729-39.4-13.371-7.274-33.595,4.983-41.31,29.9-1.729,39.4,13.371" transform="translate(-32.318 -1.829)" fill="#fff"/>
    <path id="Trazado_887384" data-name="Trazado 887384" d="M174.215,69.957a28.124,28.124,0,0,1-9.033-1.549,36.983,36.983,0,0,1-19.074-15.56,36.985,36.985,0,0,1-5.782-23.927c.969-8.038,4.879-14.589,11.006-18.446,12.6-7.929,30.749-1.823,40.466,13.612a36.985,36.985,0,0,1,5.782,23.927c-.97,8.038-4.879,14.589-11.007,18.446a22.984,22.984,0,0,1-12.358,3.5M163.688,8.536a21.444,21.444,0,0,0-11.535,3.243c-5.728,3.6-9.385,9.759-10.3,17.326a35.434,35.434,0,0,0,5.556,22.921,35.437,35.437,0,0,0,18.265,14.922c7.218,2.449,14.347,1.813,20.075-1.792s9.384-9.759,10.3-17.326a35.444,35.444,0,0,0-5.556-22.921c-6.536-10.383-17.024-16.373-26.8-16.373" transform="translate(-32.088 -1.604)" fill="#080717"/>
    <path id="Trazado_887385" data-name="Trazado 887385" d="M192.034,187.276a.771.771,0,0,1-.765-.88l5.606-39.324-3.8-6.1a31.359,31.359,0,0,1-4.75-16.6V117.35l-1.244-14.808a6.332,6.332,0,0,1,11.238-4.5l.063.078a.771.771,0,0,1-1.2.968l-.062-.078a4.79,4.79,0,0,0-8.5,3.407l1.247,14.872,0,7.087a29.828,29.828,0,0,0,4.516,15.788l3.947,6.336a.77.77,0,0,1,.109.517l-5.646,39.6a.77.77,0,0,1-.762.662" transform="translate(-42.846 -21.915)" fill="#080717"/>
  </g>
</svg>
