<svg xmlns="http://www.w3.org/2000/svg" xmlns:xlink="http://www.w3.org/1999/xlink" width="190" height="109" viewBox="0 0 190 109">
  <defs>
    <clipPath id="clip-path">
      <rect id="Rect치ngulo_403292" data-name="Rect치ngulo 403292" width="82.24" height="78.793" fill="#8722e2"/>
    </clipPath>
  </defs>
  <g id="Grupo_1101858" data-name="Grupo 1101858" transform="translate(-180 -1053)">
    <rect id="Rect치ngulo_403291" data-name="Rect치ngulo 403291" width="190" height="109" transform="translate(180 1053)" fill="#f2e5fd"/>
    <g id="Grupo_1101563" data-name="Grupo 1101563" transform="translate(227.855 1068.546)">
      <g id="Grupo_1101562" data-name="Grupo 1101562" clip-path="url(#clip-path)">
        <path id="Trazado_879187" data-name="Trazado 879187" d="M481.581,1079.523v-13.486c-4.635.036-9.179.264-13.491.669,3.281,7.308,8.084,12.149,13.491,12.816" transform="translate(-441.746 -1006.04)" fill="#8722e2"/>
        <path id="Trazado_879188" data-name="Trazado 879188" d="M753.456,1079.533a13.7,13.7,0,0,0,8.1-4.486l-1.123-8.8c-2.29-.116-4.624-.182-6.981-.2Z" transform="translate(-711.051 -1006.051)" fill="#8722e2"/>
        <path id="Trazado_879189" data-name="Trazado 879189" d="M468.368,42.983c4.3.412,8.834.643,13.475.678V30.2c-5.4.666-10.195,5.494-13.475,12.782" transform="translate(-442.008 -28.501)" fill="#8722e2"/>
        <path id="Trazado_879190" data-name="Trazado 879190" d="M828.794,10.81c.626,1.135,1.2,2.333,1.738,3.577a104.028,104.028,0,0,0,10.9-1.814A37.814,37.814,0,0,0,818.05.2c4.073,1.619,7.783,5.242,10.744,10.609" transform="translate(-772.01 -0.19)" fill="#8722e2"/>
        <path id="Trazado_879191" data-name="Trazado 879191" d="M251.113,0a37.828,37.828,0,0,0-23.484,12.39,103.982,103.982,0,0,0,10.957,1.818C241.644,7.158,246.047,2.024,251.113,0" transform="translate(-214.818)" fill="#8722e2"/>
        <path id="Trazado_879192" data-name="Trazado 879192" d="M753.456,30.224V43.683c4.641-.036,9.177-.269,13.471-.681-3.28-7.285-8.075-12.11-13.471-12.777" transform="translate(-711.051 -28.523)" fill="#8722e2"/>
        <path id="Trazado_879193" data-name="Trazado 879193" d="M818.14,1284.559a37.7,37.7,0,0,0,5.121-1.027l-.257-2.018a16.864,16.864,0,0,1-4.864,3.045" transform="translate(-772.095 -1209.39)" fill="#8722e2"/>
        <path id="Trazado_879194" data-name="Trazado 879194" d="M237.536,1082.7a108.082,108.082,0,0,0-11,1.786,37.824,37.824,0,0,0,23.54,12.46c-5.074-2.029-9.482-7.177-12.54-14.246" transform="translate(-213.786 -1021.769)" fill="#8722e2"/>
        <path id="Trazado_879195" data-name="Trazado 879195" d="M78.385,267.48H76.038a37.821,37.821,0,0,0-4.792-8.223,101.912,101.912,0,0,1-11.739,2.079,53.187,53.187,0,0,1,1.815,6.143H58.686a50.083,50.083,0,0,0-1.791-5.855c-4.6.469-9.491.732-14.49.77v5.084h-2.57V262.4c-5-.038-9.887-.3-14.494-.767a50.058,50.058,0,0,0-1.789,5.851H20.947a53.052,53.052,0,0,1,1.835-6.133,102.059,102.059,0,0,1-11.793-2.082A37.862,37.862,0,0,0,6.2,267.48H3.855A3.859,3.859,0,0,0,0,271.335V293.18a3.859,3.859,0,0,0,3.855,3.855H6.2a37.872,37.872,0,0,0,4.724,8.135,105.68,105.68,0,0,1,11.84-2.042,53.412,53.412,0,0,1-1.821-6.092h2.606a50.035,50.035,0,0,0,1.775,5.815c4.623-.461,9.516-.719,14.508-.756v-5.059h2.57v5.059c2.243.017,4.464.078,6.651.183l-.669-5.242-.164-1.285-.164-1.285H3.855A1.286,1.286,0,0,1,2.57,293.18V271.335a1.286,1.286,0,0,1,1.285-1.285h74.53a1.286,1.286,0,0,1,1.285,1.285V293.18a1.286,1.286,0,0,1-1.285,1.285H65.726l1.723,1.285,1.722,1.285,5.02,3.746a37.792,37.792,0,0,0,1.847-3.746h2.347a3.859,3.859,0,0,0,3.855-3.855V271.335a3.859,3.859,0,0,0-3.855-3.855" transform="translate(0 -244.666)" fill="#8722e2"/>
        <path id="Trazado_879196" data-name="Trazado 879196" d="M935.882,801.915,911.471,783.7a.556.556,0,0,0-.314-.133.221.221,0,0,0-.035,0c-.149.018-.229.177-.2.448l3.863,30.259c.031.253.13.382.261.382h.026a.507.507,0,0,0,.3-.225l5.309-7.046a.59.59,0,0,1,.385-.248.408.408,0,0,1,.056,0,.542.542,0,0,1,.457.3l6.108,10.422a.809.809,0,0,0,.7.4.837.837,0,0,0,.1-.007.8.8,0,0,0,.3-.1l3.618-2.119a.813.813,0,0,0,.289-1.106l-6.128-10.457a.5.5,0,0,1,.391-.8l8.762-1.161c.44-.059.508-.324.153-.59" transform="translate(-859.651 -739.469)" fill="#8722e2"/>
        <path id="Trazado_879197" data-name="Trazado 879197" d="M151.809,528.337a.162.162,0,0,0-.156.121L148.8,539.7l-.333-1.235-2.313-8.6-.379-1.409a.16.16,0,0,0-.155-.119h-2.146a.161.161,0,0,0-.155.119L140.3,539.7l-2.849-11.242a.161.161,0,0,0-.156-.121h-3a.161.161,0,0,0-.129.065.163.163,0,0,0-.026.141l4.384,15.391a.16.16,0,0,0,.154.117h2.885a.162.162,0,0,0,.156-.12l2.844-10.784,1.327,5.073,1.495,5.712a.161.161,0,0,0,.156.12h2.884a.16.16,0,0,0,.154-.117l4.407-15.391a.162.162,0,0,0-.155-.205h-3.022Z" transform="translate(-126.586 -498.602)" fill="#8722e2"/>
        <path id="Trazado_879198" data-name="Trazado 879198" d="M566.149,528.4a.16.16,0,0,0-.128-.065H563a.161.161,0,0,0-.156.121L559.994,539.7l-2.957-10.989-.068-.255a.161.161,0,0,0-.156-.119h-2.146a.16.16,0,0,0-.154.119l-.046.169L551.488,539.7l-2.849-11.242a.162.162,0,0,0-.156-.121h-3a.162.162,0,0,0-.156.205l4.385,15.391a.159.159,0,0,0,.154.117h2.885a.162.162,0,0,0,.156-.12l1.559-5.914,1.284-4.871,1.286,4.914,1.536,5.87a.162.162,0,0,0,.156.12h2.884a.16.16,0,0,0,.154-.117l.284-.99.617-2.154,3.506-12.247a.157.157,0,0,0-.025-.14" transform="translate(-514.632 -498.601)" fill="#8722e2"/>
        <path id="Trazado_879199" data-name="Trazado 879199" d="M961.053,544.05h2.885a.16.16,0,0,0,.155-.121l1.518-5.756,1.325-5.028,2.822,10.784a.162.162,0,0,0,.155.121H972.8a.16.16,0,0,0,.154-.117l4.407-15.391a.162.162,0,0,0-.154-.205h-3.023a.161.161,0,0,0-.156.121L971.178,539.7l-3.025-11.244a.16.16,0,0,0-.155-.119h-2.145a.161.161,0,0,0-.155.119l-.359,1.335-2.307,8.576-.359,1.333-2.848-11.242a.162.162,0,0,0-.156-.121h-3a.162.162,0,0,0-.154.205l3.976,13.957.408,1.434a.162.162,0,0,0,.154.117" transform="translate(-902.676 -498.602)" fill="#8722e2"/>
      </g>
    </g>
  </g>
</svg>
