<svg xmlns="http://www.w3.org/2000/svg" xmlns:xlink="http://www.w3.org/1999/xlink" width="190" height="123" viewBox="0 0 190 123">
  <defs>
    <clipPath id="clip-path">
      <rect id="Rect치ngulo_403466" data-name="Rect치ngulo 403466" width="78.463" height="78.463" fill="none"/>
    </clipPath>
  </defs>
  <g id="Grupo_1101781" data-name="Grupo 1101781" transform="translate(-180 -1482)">
    <g id="Grupo_1101625" data-name="Grupo 1101625" transform="translate(0 -3500)">
      <rect id="Rect치ngulo_403324" data-name="Rect치ngulo 403324" width="190" height="123" transform="translate(180 4982)" fill="#f2e5fd"/>
    </g>
    <g id="Grupo_1101780" data-name="Grupo 1101780" transform="translate(236 1504)">
      <g id="Grupo_1101779" data-name="Grupo 1101779" clip-path="url(#clip-path)">
        <path id="Trazado_887386" data-name="Trazado 887386" d="M39.232,0A39.232,39.232,0,1,0,78.463,39.231,39.232,39.232,0,0,0,39.232,0M28.522,48.588l-2.995,2.995L13.176,39.231,25.528,26.879l2.995,2.995-9.357,9.357Zm7.423,6.738L31.9,54.082l9.5-30.947,4.048,1.243Zm16.99-3.743-2.995-2.995L59.3,39.231l-9.357-9.357,2.995-2.995L65.287,39.231Z" transform="translate(0 0.001)" fill="#8722e2"/>
      </g>
    </g>
  </g>
</svg>
