<svg xmlns="http://www.w3.org/2000/svg" xmlns:xlink="http://www.w3.org/1999/xlink" width="400" height="219" viewBox="0 0 400 219">
  <defs>
    <clipPath id="clip-path">
      <rect id="Rectángulo_403574" data-name="Rectángulo 403574" width="278.736" height="177.381" fill="none"/>
    </clipPath>
    <clipPath id="clip-path-2">
      <rect id="Rectángulo_403575" data-name="Rectángulo 403575" width="74.151" height="50.106" fill="none"/>
    </clipPath>
  </defs>
  <g id="Grupo_1101840" data-name="Grupo 1101840" transform="translate(-1020 -1878)">
    <rect id="Rectángulo_403543" data-name="Rectángulo 403543" width="400" height="219" transform="translate(1020 1878)" fill="#f2e5fd"/>
    <g id="Grupo_1101839" data-name="Grupo 1101839" transform="translate(1068.095 1898.81)">
      <rect id="Rectángulo_403544" data-name="Rectángulo 403544" width="138.676" height="102.231" transform="translate(27.628 19.475)" fill="#fff"/>
      <path id="Trazado_887595" data-name="Trazado 887595" d="M201.76,146.688H62.817V44.189H201.76Zm-138.676-.267H201.493V44.456H63.084Z" transform="translate(-35.322 -24.848)" fill="#0d0f44"/>
      <rect id="Rectángulo_403545" data-name="Rectángulo 403545" width="69.18" height="48.426" transform="translate(37.551 64.865)" fill="#c0cfff"/>
      <rect id="Rectángulo_403546" data-name="Rectángulo 403546" width="88.942" height="6.535" transform="translate(61.691 25.34)" fill="#c0cfff"/>
      <g id="Grupo_1101834" data-name="Grupo 1101834">
        <g id="Grupo_1101833" data-name="Grupo 1101833" clip-path="url(#clip-path)">
          <path id="Trazado_887596" data-name="Trazado 887596" d="M91.646,245.2s47.178-45.176,97.085-50.291l-39.753,42.884Z" transform="translate(-51.533 -109.596)" fill="#00ffdf"/>
          <path id="Trazado_887597" data-name="Trazado 887597" d="M471.811,245.2s-47.178-45.176-97.085-50.291l39.752,42.884Z" transform="translate(-210.711 -109.596)" fill="#00ffdf"/>
          <path id="Trazado_887598" data-name="Trazado 887598" d="M246.793,194.9S221.308,203,194.9,265.568H327.681s-13.446-50.784-54.066-70.664Z" transform="translate(-109.595 -109.596)" fill="#00ffdf"/>
          <path id="Trazado_887599" data-name="Trazado 887599" d="M215.307,271.714a99.82,99.82,0,0,1,24.986-36.969l-15.319,31.222Z" transform="translate(-121.069 -131.999)" fill="#0d0f44"/>
          <path id="Trazado_887600" data-name="Trazado 887600" d="M462.986,273.395c-8.911-18.578-25.2-32.806-25.2-32.806s14.2,15.4,17.568,32.806Z" transform="translate(-246.172 -135.285)" fill="#0d0f44"/>
          <path id="Trazado_887601" data-name="Trazado 887601" d="M327.388,366.6l-163.336-.841L178.8,345.612l128.009-1.363Z" transform="translate(-92.248 -193.574)" fill="#fff"/>
          <path id="Trazado_887602" data-name="Trazado 887602" d="M327.358,366.56l-163.9-.844L178.4,345.307h.067l128.069-1.363.04.044Zm-163.38-1.108,162.768.838-20.329-22.078-127.883,1.361Z" transform="translate(-91.911 -193.402)" fill="#0d0f44"/>
          <path id="Trazado_887603" data-name="Trazado 887603" d="M325.277,365.651l-146.262-.4L189.661,349.7h.07l121.181-1.118.041.048Zm-145.757-.662,145.181.393L310.788,348.85,189.8,349.966Z" transform="translate(-100.661 -196.01)" fill="#0d0f44"/>
          <rect id="Rectángulo_403547" data-name="Rectángulo 403547" width="125.27" height="0.267" transform="matrix(1, -0.008, 0.008, 1, 87.29, 156.352)" fill="#0d0f44"/>
          <rect id="Rectángulo_403548" data-name="Rectángulo 403548" width="129.909" height="0.267" transform="translate(85.306 159.187) rotate(-0.282)" fill="#0d0f44"/>
          <rect id="Rectángulo_403549" data-name="Rectángulo 403549" width="134.907" height="0.267" transform="translate(83.179 162.239) rotate(-0.095)" fill="#0d0f44"/>
          <rect id="Rectángulo_403550" data-name="Rectángulo 403550" width="140.308" height="0.267" transform="translate(80.89 165.648)" fill="#0d0f44"/>
          <rect id="Rectángulo_403551" data-name="Rectángulo 403551" width="18.066" height="0.267" transform="translate(84.596 169.053) rotate(-58.134)" fill="#0d0f44"/>
          <rect id="Rectángulo_403552" data-name="Rectángulo 403552" width="17.625" height="0.267" transform="translate(90.929 169.079) rotate(-61)" fill="#0d0f44"/>
          <rect id="Rectángulo_403553" data-name="Rectángulo 403553" width="17.221" height="0.267" transform="translate(97.32 169.102) rotate(-64.024)" fill="#0d0f44"/>
          <rect id="Rectángulo_403554" data-name="Rectángulo 403554" width="16.862" height="0.267" transform="translate(103.785 169.131) rotate(-67.308)" fill="#0d0f44"/>
          <rect id="Rectángulo_403555" data-name="Rectángulo 403555" width="16.552" height="0.267" transform="translate(110.308 169.156) rotate(-70.732)" fill="#0d0f44"/>
          <rect id="Rectángulo_403556" data-name="Rectángulo 403556" width="16.299" height="0.267" transform="translate(116.891 169.18) rotate(-74.3)" fill="#0d0f44"/>
          <rect id="Rectángulo_403557" data-name="Rectángulo 403557" width="16.108" height="0.267" transform="translate(123.547 169.207) rotate(-78.082)" fill="#0d0f44"/>
          <rect id="Rectángulo_403558" data-name="Rectángulo 403558" width="15.987" height="0.267" transform="translate(130.27 169.234) rotate(-81.99)" fill="#0d0f44"/>
          <rect id="Rectángulo_403559" data-name="Rectángulo 403559" width="15.94" height="0.267" transform="translate(137.067 169.262) rotate(-86.055)" fill="#0d0f44"/>
          <rect id="Rectángulo_403560" data-name="Rectángulo 403560" width="0.267" height="15.973" transform="matrix(1, -0.003, 0.003, 1, 143.888, 153.317)" fill="#0d0f44"/>
          <rect id="Rectángulo_403561" data-name="Rectángulo 403561" width="0.267" height="16.09" transform="translate(149.658 153.273) rotate(-4.303)" fill="#0d0f44"/>
          <rect id="Rectángulo_403562" data-name="Rectángulo 403562" width="0.267" height="16.295" transform="matrix(0.989, -0.147, 0.147, 0.989, 155.479, 153.229)" fill="#0d0f44"/>
          <rect id="Rectángulo_403563" data-name="Rectángulo 403563" width="0.267" height="16.588" transform="translate(161.351 153.184) rotate(-12.555)" fill="#0d0f44"/>
          <rect id="Rectángulo_403564" data-name="Rectángulo 403564" width="0.267" height="16.97" transform="translate(167.275 153.139) rotate(-16.573)" fill="#0d0f44"/>
          <rect id="Rectángulo_403565" data-name="Rectángulo 403565" width="0.267" height="17.441" transform="translate(173.252 153.092) rotate(-20.467)" fill="#0d0f44"/>
          <rect id="Rectángulo_403566" data-name="Rectángulo 403566" width="0.267" height="17.999" transform="matrix(0.912, -0.41, 0.41, 0.912, 179.282, 153.044)" fill="#0d0f44"/>
          <rect id="Rectángulo_403567" data-name="Rectángulo 403567" width="0.267" height="18.64" transform="matrix(0.885, -0.466, 0.466, 0.885, 185.365, 152.996)" fill="#0d0f44"/>
          <rect id="Rectángulo_403568" data-name="Rectángulo 403568" width="0.267" height="19.363" transform="matrix(0.856, -0.517, 0.517, 0.856, 191.503, 152.946)" fill="#0d0f44"/>
          <rect id="Rectángulo_403569" data-name="Rectángulo 403569" width="0.267" height="20.163" transform="matrix(0.826, -0.564, 0.564, 0.826, 197.696, 152.896)" fill="#0d0f44"/>
          <rect id="Rectángulo_403570" data-name="Rectángulo 403570" width="0.267" height="21.038" transform="translate(203.944 152.843) rotate(-37.35)" fill="#0d0f44"/>
          <path id="Trazado_887604" data-name="Trazado 887604" d="M102.26,287.3s-18.833,4.359-16.217,19.356,14.474,14.125,26.506,11.509,38.015-17.089,38.015-17.089,7.673,4.826,15,2.413l1.511,3.051v4.592s-1.627,3.2-.755,3.895,1.686.291,2.732-.7a7.9,7.9,0,0,0,1.511-3.429l1.047-6.278,2.034,4.883.639,3.2s-1.163,3.488,0,4.534,2.383-.232,2.848-1.686a14.342,14.342,0,0,0,.581-2.79v-5.871l-1.046-5.348.7-.058,2.267,5.406,1.221,7.556s-.233,4.941.755,5.58,3.081,1.395,3.6-2.732l-.058-3.72-.465-7.324-1.453-5.638.872-.291,2.325,4.941,1.046,5.154s-.155,4.65,2.17,3.8,1.705-4.573,1.705-4.573l-.853-7.983s-1.008-8.138-2.17-9.533-8.525-5.038-10.463-5.27-62.176-4.088-75.6.446" transform="translate(-48.242 -160.318)" fill="#f3abaa"/>
          <path id="Trazado_887605" data-name="Trazado 887605" d="M314.12,298.756s7.556,2.557,11.277,2.209,2.674,1.395,0,3.139-10.347.814-10.347.814Z" transform="translate(-176.632 -167.993)" fill="#f3abaa"/>
          <path id="Trazado_887606" data-name="Trazado 887606" d="M437.817,302.408s-4.65,3.6-12.788,0l-1.046,5.583,1.511,3.952s2.209.581,1.976,1.86-.93,2.441-3.488,1.627-3.72-3.6-5.231-4.882,0-9.417,0-9.417-10.579-5.58-10.347-11.858,17.786-5.464,27.784-3.371,34.295,2.441,41.154,2.441,20.693,5.578,19.414,17.206-9.417,11.742-14.648,12.207-41.038-8.143-44.293-15.348" transform="translate(-229.647 -159.905)" fill="#f3abaa"/>
          <path id="Trazado_887607" data-name="Trazado 887607" d="M418.487,313.4s-3.526,11.145-3.526,12.23,1.628,4.34,3.023,5.115,5.27,1.008,5.27-.543a36.567,36.567,0,0,0-.775-5.115l2.713-9.92Z" transform="translate(-233.335 -176.226)" fill="#f3abaa"/>
          <path id="Trazado_887608" data-name="Trazado 887608" d="M407.472,306.078s-6.51,7.3-6.9,9.312,0,9.223,0,9.223a3.745,3.745,0,0,0,3.329,2.62c2.716.248,5.559-.587,4.9-1.5s-.106-9.1.1-9.951,2.994-6.495,2.994-6.495Z" transform="translate(-225.149 -172.11)" fill="#f3abaa"/>
          <path id="Trazado_887609" data-name="Trazado 887609" d="M384.882,292.882l-8.262,8.98-5.735,9.363s-5.038,5.813-4.8,7.053,2.093,1.627,4.8.387,6.123-6.2,6.123-6.2l6.355-6.2,6.941-6.057Z" transform="translate(-205.845 -164.69)" fill="#f3abaa"/>
          <path id="Trazado_887610" data-name="Trazado 887610" d="M384.368,290.9a85.819,85.819,0,0,1-13.029,3.943c-6.976,1.472-6.976.054-7.208,2.7s4.573,2.492,7.905,2.414,8.448.961,8.99.79,5.985-6.505,3.341-9.848" transform="translate(-204.749 -163.575)" fill="#f3abaa"/>
          <rect id="Rectángulo_403571" data-name="Rectángulo 403571" width="162.058" height="5.199" transform="translate(71.804 172.182)" fill="#0d0f44"/>
          <path id="Trazado_887611" data-name="Trazado 887611" d="M342.3,183.232c-.642,10.279-14.939,10.795-14.939,10.795s-14.507-.516-15.159-10.795c0,0,1.857-1.981,3.07-8.472a59.425,59.425,0,0,0,.843-7.074h22.33a61.181,61.181,0,0,0,.765,6.7c1.191,6.789,3.09,8.845,3.09,8.845" transform="translate(-175.551 -94.291)" fill="#f3abaa"/>
          <path id="Trazado_887612" data-name="Trazado 887612" d="M343.15,174.387c-10.317,12.506-19.967,4.731-23.938.372a59.425,59.425,0,0,0,.843-7.074h22.33a61.181,61.181,0,0,0,.765,6.7" transform="translate(-179.495 -94.291)" fill="#0d0f44"/>
          <path id="Trazado_887613" data-name="Trazado 887613" d="M335.465,63.745c-7.59-7.028-14.775-5.763-14.775-5.763s-7.184-1.265-14.774,5.763c0,0-5.9,5.217-5.341,18.7.475,11.387,1.674,24.986,12.859,31.311a14.715,14.715,0,0,0,14.513,0c11.185-6.325,12.384-19.923,12.859-31.311.562-13.485-5.341-18.7-5.341-18.7" transform="translate(-168.994 -32.554)" fill="#f3abaa"/>
          <path id="Trazado_887614" data-name="Trazado 887614" d="M297.13,113.63a3.1,3.1,0,0,0-3.386-1.689c-1.079.229-2.173,1.074-2.614,3.372-.991,5.17.772,13.324,5.289,12.387,4.166-.864,3.366-8.706.711-14.07" transform="translate(-163.554 -62.909)" fill="#f3abaa"/>
          <path id="Trazado_887615" data-name="Trazado 887615" d="M385.153,113.63a3.1,3.1,0,0,1,3.386-1.689c1.079.229,2.173,1.074,2.614,3.372.991,5.17-.772,13.324-5.289,12.387-4.166-.864-3.366-8.706-.711-14.07" transform="translate(-215.336 -62.909)" fill="#f3abaa"/>
          <path id="Trazado_887616" data-name="Trazado 887616" d="M343.728,141.269a3.244,3.244,0,0,1-.639-.062,2.188,2.188,0,0,1-1.831-1.881l.249-.038a1.938,1.938,0,0,0,1.632,1.672,2.972,2.972,0,0,0,2.964-1.049,1.552,1.552,0,0,0-.278-1.861c-2.316-2.917-2.047-7.324-2.044-7.368l.251.017c0,.043-.264,4.355,1.99,7.195a1.8,1.8,0,0,1,.3,2.149,3.112,3.112,0,0,1-2.589,1.226" transform="translate(-191.892 -73.483)" fill="#0d0f44"/>
          <path id="Trazado_887617" data-name="Trazado 887617" d="M323.639,129.816c0,1.258-.633,2.277-1.413,2.277s-1.413-1.019-1.413-2.277.632-2.277,1.413-2.277,1.413,1.019,1.413,2.277" transform="translate(-180.395 -71.716)" fill="#0d0f44"/>
          <path id="Trazado_887618" data-name="Trazado 887618" d="M367.478,129.816c0,1.258-.633,2.277-1.413,2.277s-1.414-1.019-1.414-2.277.633-2.277,1.414-2.277,1.413,1.019,1.413,2.277" transform="translate(-205.046 -71.716)" fill="#0d0f44"/>
          <path id="Trazado_887619" data-name="Trazado 887619" d="M356.139,116.664a33.617,33.617,0,0,1,7.27,2.194.743.743,0,0,0,.711-1.3A21.353,21.353,0,0,0,356.4,114.7a.743.743,0,0,0-.868.734v.5a.743.743,0,0,0,.611.732" transform="translate(-199.916 -64.492)" fill="#0d0f44"/>
          <path id="Trazado_887620" data-name="Trazado 887620" d="M321.9,116.664a33.618,33.618,0,0,0-7.27,2.194.743.743,0,0,1-.711-1.3,21.353,21.353,0,0,1,7.723-2.854.743.743,0,0,1,.868.734v.5a.743.743,0,0,1-.611.732" transform="translate(-176.327 -64.492)" fill="#0d0f44"/>
          <path id="Trazado_887621" data-name="Trazado 887621" d="M346.831,208.288s4.074,6.963,8.422,7.893,13.27-10.676,8.809-21.672l-4.349-1.462s.273,9.905-12.882,15.24" transform="translate(-195.026 -108.552)" fill="#0d0f44"/>
          <path id="Trazado_887622" data-name="Trazado 887622" d="M322.628,208.288s-4.074,6.963-8.422,7.893-13.271-10.676-8.809-21.672l4.349-1.462s-.273,9.905,12.882,15.24" transform="translate(-171.043 -108.552)" fill="#0d0f44"/>
          <path id="Trazado_887623" data-name="Trazado 887623" d="M431.587,332.126l-1.2-2.159v-.033l-.233-8.6.267-.007.231,8.57,1.172,2.1Z" transform="translate(-241.876 -180.683)" fill="#0d0f44"/>
          <path id="Trazado_887624" data-name="Trazado 887624" d="M417.04,332.1a18.911,18.911,0,0,1-1.717-2.977c-.3-.915.489-7.262.523-7.531L417,317.27l.258.069-1.145,4.3c-.225,1.8-.766,6.684-.531,7.4a19.219,19.219,0,0,0,1.683,2.91Z" transform="translate(-233.501 -178.403)" fill="#0d0f44"/>
          <rect id="Rectángulo_403572" data-name="Rectángulo 403572" width="7.103" height="0.267" transform="matrix(0.561, -0.828, 0.828, 0.561, 175.313, 143.204)" fill="#0d0f44"/>
          <path id="Trazado_887625" data-name="Trazado 887625" d="M391.293,300.147,391.07,300c2.538-3.869,8.3-9.269,8.359-9.323l.182.195c-.058.054-5.8,5.433-8.318,9.275" transform="translate(-219.901 -163.45)" fill="#0d0f44"/>
          <path id="Trazado_887626" data-name="Trazado 887626" d="M297.718,73.544a4.6,4.6,0,0,0,3.077-3.418c.166-.829.176-1.837.893-2.284a2.264,2.264,0,0,1,1.163-.242,2.547,2.547,0,0,0,1.173-.208.839.839,0,0,0,.443-1c.1,1.4,1.61,2.5,2.991,2.768a9.729,9.729,0,0,0,4.166-.407c1.827,1.468,4.52.843,6.859.7a26.9,26.9,0,0,1,7.419.928,4.717,4.717,0,0,1,2.744,1.283c.7.845.738,2.086,1.411,2.952.379.488.936.823,1.273,1.341,1.263,1.939-1.243,4.9.226,6.691.576-.243,1.236-.257,1.813-.5a5.1,5.1,0,0,1,2.3-5.747,1.989,1.989,0,0,0,.789-2.079c-.147-.762-.551-1.462-.654-2.232-.279-2.092,1.7-4.036,1.3-6.108-.2-1.037-.97-1.88-1.264-2.894a14.249,14.249,0,0,1-.229-2.614,2.594,2.594,0,0,0-1.229-2.19,6.762,6.762,0,0,0-4.936-6.157,14.161,14.161,0,0,0-11.193-4.164c-.581-1.2-2.122-1.665-3.452-1.722a11.516,11.516,0,0,0-6.281,1.561,4.5,4.5,0,0,0-4.529,1.572c-2-.288-4.283.531-6.12,1.377a5.885,5.885,0,0,0-2.084,1.4,2.332,2.332,0,0,0-.5,2.348,4.874,4.874,0,0,0-1.473,5.671,6.706,6.706,0,0,0-2.929,4.675,6.51,6.51,0,0,0,1.888,5.1,2.653,2.653,0,0,0,.453,3.621c2.142,1.874,1.62,5.556.967,8.327l2.726,2.061c-.119-3.413.625-6.987.8-10.4" transform="translate(-163.552 -25.993)" fill="#0d0f44"/>
          <path id="Trazado_887627" data-name="Trazado 887627" d="M337.645,127.949l-1.812.5c-1.8,13.078-6.974,14.461-6.974,14.461a11.154,11.154,0,0,0-2.975-2.777c-1.755-1.046-7.894.465-10.917,0s-7.42,3.073-7.42,3.073c-3.932-2.624-6.355-13.459-6.355-13.459l-2.726-2.061c.418,7.735,3.481,19.655,5.142,24.253s11.94,11.562,18.883,9.7,14.331-12.09,15.155-19.251a72.947,72.947,0,0,0,0-14.44m-11.053,19.159c-1.279,3.139-6.975,3.72-11.044,2.558a7.055,7.055,0,0,1-3.252-1.711,1.721,1.721,0,0,1-.1-2.251,11.719,11.719,0,0,1,3-2.794c1.976-1.149,6.445-.938,7.292-.521s5.253,1.893,4.1,4.719" transform="translate(-167.828 -71.799)" fill="#0d0f44"/>
          <path id="Trazado_887628" data-name="Trazado 887628" d="M339.3,169.321a5.483,5.483,0,0,1-.943-.081,5.416,5.416,0,0,1-3.516-2.286l.227-.14a5.244,5.244,0,0,0,3.339,2.164c1.962.339,4.176-.464,6.579-2.39l.167.208a9.675,9.675,0,0,1-5.853,2.525" transform="translate(-188.285 -93.674)" fill="#0d0f44"/>
          <rect id="Rectángulo_403573" data-name="Rectángulo 403573" width="74.151" height="50.106" transform="translate(9.027 8.197)" fill="#8722e2"/>
          <path id="Trazado_887629" data-name="Trazado 887629" d="M283.378,6.413A6.413,6.413,0,1,1,276.965,0a6.413,6.413,0,0,1,6.413,6.413" transform="translate(-152.133)" fill="#f0c518"/>
        </g>
      </g>
      <g id="Grupo_1101836" data-name="Grupo 1101836" transform="translate(9.027 8.197)">
        <g id="Grupo_1101835" data-name="Grupo 1101835" clip-path="url(#clip-path-2)">
          <path id="Trazado_887630" data-name="Trazado 887630" d="M95.906,77.079l-.26-.059c2.236-9.887-4.308-21.153-14-24.109-7.3-2.225-15.741.453-21.031,5.944A19.552,19.552,0,0,1,64.4,64.425a10.175,10.175,0,0,1,.9,6.934c-.62,2.183-2.759,4.309-5.262,4.093a5.345,5.345,0,0,1-4.424-4.176,10.264,10.264,0,0,1,.707-6.266,19.343,19.343,0,0,1,3.912-6.162,19.563,19.563,0,0,0-27.093-1q.832.521,1.623,1.11c2.248,1.674,5.054,4.45,5.655,8.166.524,3.231-1.231,7.256-4.678,8.1a5.829,5.829,0,0,1-4.556-.882,7.727,7.727,0,0,1-3.38-4.966c-.6-3.212.65-6.857,3.421-10a18.633,18.633,0,0,1,1.469-1.488A24.5,24.5,0,0,0,.215,64.318L0,64.16A24.767,24.767,0,0,1,32.9,57.7a19.828,19.828,0,0,1,27.513.953,22.057,22.057,0,0,1,6.293-4.577,20.866,20.866,0,0,1,15.013-1.422A21.5,21.5,0,0,1,95.906,77.079M60.427,59.048a18.8,18.8,0,0,0-3.858,6.058,10.017,10.017,0,0,0-.7,6.1,5.173,5.173,0,0,0,4.189,3.976c2.367.2,4.392-1.822,4.982-3.9a9.92,9.92,0,0,0-.884-6.752,19.291,19.291,0,0,0-3.732-5.486m-27.5-1.015a18.48,18.48,0,0,0-1.507,1.519c-2.717,3.081-3.941,6.644-3.359,9.775a7.459,7.459,0,0,0,3.263,4.791,5.561,5.561,0,0,0,4.348.847c3.3-.809,4.982-4.685,4.478-7.8-.588-3.628-3.344-6.35-5.552-8q-.813-.605-1.672-1.139" transform="translate(-9.027 -37.355)" fill="#fff"/>
        </g>
      </g>
      <g id="Grupo_1101838" data-name="Grupo 1101838">
        <g id="Grupo_1101837" data-name="Grupo 1101837" clip-path="url(#clip-path)">
          <path id="Trazado_887631" data-name="Trazado 887631" d="M234.712,102.35H226.7v-.267h8.01Zm-16.02,0H215V97.764h.267v4.32h3.423ZM234.845,96h-.267V87.99h.267Zm-19.576-6.246H215V82.507h1.03v.267h-.763Zm16.782-6.98h-8.01v-.267h8.01Z" transform="translate(-120.897 -46.394)" fill="#0d0f44"/>
          <path id="Trazado_887632" data-name="Trazado 887632" d="M225.443,87.607h10.7l-.091,2.194-10.6-.016Zm4.253,1.345,2.115,0-.3,14.032-1.976-.021Z" transform="translate(-126.768 -49.262)" fill="#ff2633"/>
          <path id="Trazado_887633" data-name="Trazado 887633" d="M514.407,54.884h-94.88v59.495h23.882l-1.637,12.574,12.813-12.574h59.823Z" transform="translate(-235.903 -30.862)" fill="#fff"/>
          <path id="Trazado_887634" data-name="Trazado 887634" d="M441.416,127.147l1.668-12.806H419.221V54.579h95.147v59.762h-59.9Zm-21.928-13.073h23.9l-1.608,12.342,12.577-12.342H514.1V54.846H419.488Z" transform="translate(-235.731 -30.69)" fill="#0d0f44"/>
          <path id="Trazado_887635" data-name="Trazado 887635" d="M434.245,112.683H417.738l-.6-61.257h16.944Z" transform="translate(-234.561 -28.917)" fill="#dbdfeb"/>
          <path id="Trazado_887636" data-name="Trazado 887636" d="M513.3,44.871H417.14v9.207h95.925Z" transform="translate(-234.561 -25.231)" fill="#0d0f44"/>
          <path id="Trazado_887637" data-name="Trazado 887637" d="M581.371,54.792h-5.824a2.1,2.1,0,1,1,0-4.2h5.824a2.1,2.1,0,1,1,0,4.2" transform="translate(-322.454 -28.449)" fill="#fff"/>
          <path id="Trazado_887638" data-name="Trazado 887638" d="M611.65,54.792h-5.824a2.1,2.1,0,1,1,0-4.2h5.824a2.1,2.1,0,0,1,0,4.2" transform="translate(-339.48 -28.449)" fill="#fff"/>
          <path id="Trazado_887639" data-name="Trazado 887639" d="M434.448,82.368h-8.357a2.1,2.1,0,1,1,0-4.2h8.357a2.1,2.1,0,0,1,0,4.2" transform="translate(-238.414 -43.956)" fill="#fff"/>
          <path id="Trazado_887640" data-name="Trazado 887640" d="M475.268,82.368h-5.824a2.1,2.1,0,1,1,0-4.2h5.824a2.1,2.1,0,1,1,0,4.2" transform="translate(-262.791 -43.956)" fill="#f0c518"/>
          <path id="Trazado_887641" data-name="Trazado 887641" d="M549.065,82.368H499.324a2.1,2.1,0,0,1,0-4.2h49.741a2.1,2.1,0,1,1,0,4.2" transform="translate(-279.593 -43.956)" fill="#3a1d71"/>
          <path id="Trazado_887642" data-name="Trazado 887642" d="M477.159,103.443h-7.715a2.1,2.1,0,1,1,0-4.2h7.715a2.1,2.1,0,1,1,0,4.2" transform="translate(-262.791 -55.806)" fill="#f0c518"/>
          <path id="Trazado_887643" data-name="Trazado 887643" d="M525.932,103.443h-23.4a2.1,2.1,0,1,1,0-4.2h23.4a2.1,2.1,0,0,1,0,4.2" transform="translate(-281.397 -55.806)" fill="#3a1d71"/>
          <path id="Trazado_887644" data-name="Trazado 887644" d="M535.893,145.593h-23.4a2.1,2.1,0,0,1,0-4.2h23.4a2.1,2.1,0,1,1,0,4.2" transform="translate(-286.998 -79.507)" fill="#3a1d71"/>
          <path id="Trazado_887645" data-name="Trazado 887645" d="M515.742,124.518h-23.4a2.1,2.1,0,0,1,0-4.2h23.4a2.1,2.1,0,1,1,0,4.2" transform="translate(-275.667 -67.657)" fill="#3a1d71"/>
          <path id="Trazado_887646" data-name="Trazado 887646" d="M584.342,124.518h-23.4a2.1,2.1,0,0,1,0-4.2h23.4a2.1,2.1,0,0,1,0,4.2" transform="translate(-314.241 -67.657)" fill="#3a1d71"/>
          <path id="Trazado_887647" data-name="Trazado 887647" d="M482.216,145.593H469.444a2.1,2.1,0,1,1,0-4.2h12.772a2.1,2.1,0,0,1,0,4.2" transform="translate(-262.791 -79.507)" fill="#f0c518"/>
          <path id="Trazado_887648" data-name="Trazado 887648" d="M473.5,124.518h-4.053a2.1,2.1,0,1,1,0-4.2H473.5a2.1,2.1,0,1,1,0,4.2" transform="translate(-262.791 -67.657)" fill="#f0c518"/>
          <path id="Trazado_887649" data-name="Trazado 887649" d="M473.5,166.667h-4.053a2.1,2.1,0,1,1,0-4.2H473.5a2.1,2.1,0,1,1,0,4.2" transform="translate(-262.791 -91.357)" fill="#f0c518"/>
          <path id="Trazado_887650" data-name="Trazado 887650" d="M434.448,103.443h-8.357a2.1,2.1,0,1,1,0-4.2h8.357a2.1,2.1,0,0,1,0,4.2" transform="translate(-238.414 -55.806)" fill="#fff"/>
          <path id="Trazado_887651" data-name="Trazado 887651" d="M434.448,124.518h-8.357a2.1,2.1,0,1,1,0-4.2h8.357a2.1,2.1,0,0,1,0,4.2" transform="translate(-238.414 -67.657)" fill="#fff"/>
          <path id="Trazado_887652" data-name="Trazado 887652" d="M434.448,145.593h-8.357a2.1,2.1,0,1,1,0-4.2h8.357a2.1,2.1,0,0,1,0,4.2" transform="translate(-238.414 -79.507)" fill="#fff"/>
          <path id="Trazado_887653" data-name="Trazado 887653" d="M434.448,166.667h-8.357a2.1,2.1,0,1,1,0-4.2h8.357a2.1,2.1,0,0,1,0,4.2" transform="translate(-238.414 -91.357)" fill="#fff"/>
        </g>
      </g>
    </g>
  </g>
</svg>
