<svg xmlns="http://www.w3.org/2000/svg" width="69.792" height="98.518" viewBox="0 0 69.792 98.518">
  <g id="Grupo_1101782" data-name="Grupo 1101782" transform="translate(0 0.001)">
    <path id="Trazado_887387" data-name="Trazado 887387" d="M40.179,0V3.876h-3.59V0H32.665V11.74h3.924V7.809h3.59V11.74H44.1V0Z" transform="translate(-22.926)"/>
    <path id="Trazado_887388" data-name="Trazado 887388" d="M76.751,0V3.892h3.455V11.74H84.13V3.892h3.457V0Z" transform="translate(-53.868)"/>
    <path id="Trazado_887389" data-name="Trazado 887389" d="M127.986,0l-2.514,4.125L122.954,0h-4.092V11.74h3.84V5.921l2.7,4.174h.068l2.7-4.174V11.74h3.908V0Z" transform="translate(-83.424)"/>
    <path id="Trazado_887390" data-name="Trazado 887390" d="M169.745,0V11.74h9.444V7.859H173.67V0Z" transform="translate(-119.136)"/>
    <path id="Trazado_887391" data-name="Trazado 887391" d="M0,64.951l6.351,71.24,28.5,7.912,28.581-7.924,6.358-71.229Z" transform="translate(0 -45.587)" fill="#e44d26"/>
    <path id="Trazado_887392" data-name="Trazado 887392" d="M140.138,145.357l5.434-60.868H117.044V151.76Z" transform="translate(-82.148 -59.3)" fill="#f16529"/>
    <path id="Trazado_887393" data-name="Trazado 887393" d="M65.556,122.531H86.63l.783-8.737H43.647L46,140.216H76.285L75.27,151.547l-9.745,2.631h0l-.008,0-9.73-2.628-.622-6.969H46.394L47.618,158.3l17.9,4.969.041-.012h0L83.437,158.3l2.4-26.823H53.995l-.8-8.948h12.36Z" transform="translate(-30.634 -79.867)" fill="#fff"/>
    <path id="Trazado_887394" data-name="Trazado 887394" d="M72,226.659h0l-.008,0-9.73-2.628-.622-6.969H52.862l1.224,13.719,17.9,4.969.014,0Z" transform="translate(-37.101 -152.35)" fill="#ebebeb"/>
    <path id="Trazado_887395" data-name="Trazado 887395" d="M65.529,140.216v-8.737H53.994l-.8-8.948H65.529v-8.737H43.646L46,140.216H65.529Z" transform="translate(-30.633 -79.867)" fill="#ebebeb"/>
  </g>
</svg>
