<svg xmlns="http://www.w3.org/2000/svg" xmlns:xlink="http://www.w3.org/1999/xlink" width="135" height="109" viewBox="0 0 135 109">
  <defs>
    <clipPath id="clip-path">
      <rect id="Rect치ngulo_403299" data-name="Rect치ngulo 403299" width="94" height="94" transform="translate(0.197 0.195)" fill="#8722e2"/>
    </clipPath>
  </defs>
  <g id="Grupo_1101859" data-name="Grupo 1101859" transform="translate(-360 -1229)">
    <rect id="Rect치ngulo_403300" data-name="Rect치ngulo 403300" width="135" height="109" transform="translate(360 1229)" fill="#f2e5fd"/>
    <g id="Grupo_1101565" data-name="Grupo 1101565" transform="translate(375.803 1235.805)">
      <g id="Grupo_1101564" data-name="Grupo 1101564" clip-path="url(#clip-path)">
        <path id="Trazado_879200" data-name="Trazado 879200" d="M189.591,157.182h20.354a2.882,2.882,0,0,1,2.877,2.877v25.4h-5.749V165.808a2.882,2.882,0,0,0-2.877-2.877H190.268a26.8,26.8,0,0,0-.676-5.749M179.338,212.82H160.061a2.882,2.882,0,0,1-2.877-2.877v-20.3a26.509,26.509,0,0,0,5.749.681v13.875a2.882,2.882,0,0,0,2.877,2.876h13.528Z" transform="translate(-137.905 -137.904)" fill="#a854f3" fill-rule="evenodd"/>
        <path id="Trazado_879201" data-name="Trazado 879201" d="M25.269,50.538A25.269,25.269,0,1,1,50.538,25.269,25.3,25.3,0,0,1,25.269,50.538m0-48.331A23.062,23.062,0,1,0,48.331,25.269,23.088,23.088,0,0,0,25.269,2.208" fill="#8722e2"/>
        <path id="Trazado_879202" data-name="Trazado 879202" d="M25.269,50.539a1.1,1.1,0,0,1-.553-.149A28.726,28.726,0,0,1,13.489,39.107a35.453,35.453,0,0,0-6.145,2.6A1.1,1.1,0,0,1,6.3,39.763a37.663,37.663,0,0,1,6.194-2.654A28.7,28.7,0,0,1,9.958,26.374H1.1a1.1,1.1,0,1,1,0-2.208H9.958a28.7,28.7,0,0,1,2.59-10.861A37.654,37.654,0,0,1,6.3,10.633,1.1,1.1,0,1,1,7.344,8.69a35.463,35.463,0,0,0,6.213,2.621A28.724,28.724,0,0,1,24.716.15a1.105,1.105,0,0,1,1.107,0A28.721,28.721,0,0,1,36.628,10.694a35.468,35.468,0,0,0,5.8-2.792A1.1,1.1,0,0,1,43.565,9.8a37.658,37.658,0,0,1-5.883,2.859,28.71,28.71,0,0,1,2.9,11.511h8.854a1.1,1.1,0,1,1,0,2.208H40.58a28.708,28.708,0,0,1-2.839,11.39A37.643,37.643,0,0,1,43.565,40.6a1.1,1.1,0,0,1-1.134,1.894A35.454,35.454,0,0,0,36.7,39.728,28.723,28.723,0,0,1,25.823,50.391a1.1,1.1,0,0,1-.554.149M15.676,38.492a26.522,26.522,0,0,0,8.49,8.99V37.452a35.522,35.522,0,0,0-8.49,1.04m10.7-.973v9.963A26.515,26.515,0,0,0,34.562,39a35.545,35.545,0,0,0-8.189-1.483m0-2.212a37.76,37.76,0,0,1,9.272,1.72,26.507,26.507,0,0,0,2.726-10.653h-12ZM12.167,26.374A26.5,26.5,0,0,0,14.631,36.48a37.753,37.753,0,0,1,9.535-1.236v-8.87Zm14.206-2.208h12a26.513,26.513,0,0,0-2.788-10.778,37.764,37.764,0,0,1-9.21,1.7Zm-14.206,0h12V15.152a37.746,37.746,0,0,1-9.474-1.22,26.505,26.505,0,0,0-2.524,10.234m3.581-12.244a35.531,35.531,0,0,0,8.417,1.022V3.058a26.515,26.515,0,0,0-8.417,8.864M26.373,3.058v9.819a35.556,35.556,0,0,0,8.115-1.46,26.517,26.517,0,0,0-8.115-8.359" transform="translate(0 -0.001)" fill="#8722e2"/>
        <path id="Trazado_879203" data-name="Trazado 879203" d="M391.586,447.066H363.9a1.763,1.763,0,0,1-1.208-3.04l.01-.01a6.119,6.119,0,0,1,4.316-1.7h4.639a.209.209,0,0,0,.2-.207v-2.428H355.071a2.825,2.825,0,0,1-2.822-2.822V405.023a2.825,2.825,0,0,1,2.822-2.822h45.348a2.825,2.825,0,0,1,2.822,2.822v31.841a2.825,2.825,0,0,1-2.822,2.822H383.628v2.428a.21.21,0,0,0,.207.207h4.64a6.146,6.146,0,0,1,4.313,1.692l.013.013a1.763,1.763,0,0,1-1.215,3.04m-26.23-2.208h24.773a4.065,4.065,0,0,0-1.654-.33h-4.64a2.418,2.418,0,0,1-2.415-2.415v-2.4h-7.358v2.4a2.414,2.414,0,0,1-2.407,2.415h-4.639a4.077,4.077,0,0,0-1.659.33m-10.9-11.878v3.883a.623.623,0,0,0,.614.615h45.348a.623.623,0,0,0,.614-.615v-3.883Zm0-2.208h46.577v-25.75a.623.623,0,0,0-.614-.614H355.071a.623.623,0,0,0-.614.614Z" transform="translate(-309.046 -352.871)" fill="#8722e2"/>
        <path id="Trazado_879204" data-name="Trazado 879204" d="M548.984,657.576a1.557,1.557,0,1,1-1.557,1.557,1.559,1.559,0,0,1,1.557-1.557" transform="translate(-480.285 -576.924)" fill="#8722e2" fill-rule="evenodd"/>
      </g>
    </g>
  </g>
</svg>
