<svg xmlns="http://www.w3.org/2000/svg" xmlns:xlink="http://www.w3.org/1999/xlink" width="505" height="318" viewBox="0 0 505 318">
  <defs>
    <clipPath id="clip-path">
      <rect id="Rectángulo_403579" data-name="Rectángulo 403579" width="193.094" height="203.656" fill="#3a1d71"/>
    </clipPath>
    <clipPath id="clip-path-2">
      <rect id="Rectángulo_403305" data-name="Rectángulo 403305" width="30.116" height="19.55" fill="#8722e2"/>
    </clipPath>
  </defs>
  <g id="Grupo_1101861" data-name="Grupo 1101861" transform="translate(6711 9979)">
    <g id="Grupo_1101845" data-name="Grupo 1101845" transform="translate(-7521 -11700)">
      <g id="Grupo_1101572" data-name="Grupo 1101572" transform="translate(-53 743)">
        <rect id="Rectángulo_403031" data-name="Rectángulo 403031" width="505" height="318" rx="21" transform="translate(863 978)" fill="#8722e2"/>
      </g>
    </g>
    <g id="Grupo_1101849" data-name="Grupo 1101849" transform="translate(-6560.047 -9917.324)">
      <g id="Grupo_1101848" data-name="Grupo 1101848" transform="translate(0 -0.003)" clip-path="url(#clip-path)">
        <path id="Trazado_887654" data-name="Trazado 887654" d="M2.829,106.769A4.609,4.609,0,0,0,.26,112.582,4.274,4.274,0,0,0,5.023,115.5l3.768,17.856c-.045.015-.09.027-.135.044a2.933,2.933,0,0,0-1.635,3.7,2.7,2.7,0,0,0,3.506,1.725c.045-.017.087-.039.13-.058l7.836,15.921a5.018,5.018,0,0,0-2.03,5.9,4.515,4.515,0,0,0,7.323,2.08L34.931,175.5a3.558,3.558,0,0,0-.7,3.531,3.2,3.2,0,0,0,4.153,2.043,3.247,3.247,0,0,0,1.5-1.191l14.9,10a3.831,3.831,0,0,0-.224,3.022A3.422,3.422,0,0,0,59,195.09a3.557,3.557,0,0,0,2.049-2.124L77.9,198.584a3.568,3.568,0,0,0,.1,1.974,3.185,3.185,0,0,0,4.138,2.036,3.38,3.38,0,0,0,2.1-2.827l18.157.842a3.273,3.273,0,0,0,.176.982,2.926,2.926,0,0,0,3.8,1.871,3.154,3.154,0,0,0,1.92-3.4l18.709-4.4c.008.026.014.051.022.077a2.208,2.208,0,0,0,2.868,1.411,2.4,2.4,0,0,0,1.337-3.027c-.009-.026-.02-.049-.03-.074l10.812-5.926,5.807-3.182a3.322,3.322,0,0,0,4.083,1.524,3.7,3.7,0,0,0,1.485-5.635l13.77-13.323a2.192,2.192,0,0,0,2.31.477,2.447,2.447,0,0,0,1.364-3.087,2.389,2.389,0,0,0-.746-1.076l9.789-16.237a3.662,3.662,0,0,0,3.2.275,4.128,4.128,0,0,0,2.3-5.207,3.955,3.955,0,0,0-2.256-2.409l4.147-13.849,1.405-4.692a1.977,1.977,0,0,0,1.139-.085,2.245,2.245,0,0,0,1.251-2.832,2.122,2.122,0,0,0-1.662-1.43l.85-20.407a2.779,2.779,0,0,0,.914-.183,3.133,3.133,0,0,0,1.746-3.952,2.91,2.91,0,0,0-3.17-2L185.7,71.633c.048-.016.1-.029.145-.047a3.024,3.024,0,0,0,1.686-3.815,2.782,2.782,0,0,0-3.615-1.779c-.048.018-.093.041-.14.062l-8.519-17.308a3.328,3.328,0,0,0,1.282-3.869,2.984,2.984,0,0,0-4.792-1.424L159.387,29.231a3.26,3.26,0,0,0,.779-3.328,3.026,3.026,0,0,0-3.99-1.817,3.291,3.291,0,0,0-1.418,1.053L139.617,14.974a3.739,3.739,0,0,0,.216-2.945,3.34,3.34,0,0,0-4.339-2.135,3.471,3.471,0,0,0-2,2.068L115.856,6.08a2.744,2.744,0,0,0-.088-1.468,2.451,2.451,0,0,0-3.185-1.567,2.6,2.6,0,0,0-1.613,2.124L93.257,4.347a4.59,4.59,0,0,0-.251-1.466A4.1,4.1,0,0,0,87.683.263a4.42,4.42,0,0,0-2.674,4.849L68.379,9.019c-.019-.067-.039-.133-.061-.2a3.131,3.131,0,0,0-4.069-2,3.4,3.4,0,0,0-1.9,4.293c.023.066.048.131.074.194L45.905,20.36a2.511,2.511,0,0,0-3.062-1.106,2.8,2.8,0,0,0-1.156,4.221l-13.6,13.16a3.212,3.212,0,0,0-3.453-.768,3.58,3.58,0,0,0-2,4.516,3.494,3.494,0,0,0,1.168,1.64l-3.259,5.405-5.868,9.733a3.825,3.825,0,0,0-3.35-.292,4.311,4.311,0,0,0-2.4,5.439,4.129,4.129,0,0,0,2.365,2.52l-.806,2.69L6.064,82.285a2.832,2.832,0,0,0-1.72.1,3.211,3.211,0,0,0-1.79,4.05,3.026,3.026,0,0,0,2.469,2.056l-.75,18a4.09,4.09,0,0,0-1.445.274m6.378,26.486L5.441,115.4c.11-.032.22-.068.329-.109a4.335,4.335,0,0,0,2.175-1.861L20,120.517a3.445,3.445,0,0,0-.108,2.524,3.322,3.322,0,0,0,.6,1.056L11.349,133.9a2.638,2.638,0,0,0-2.142-.649M8.361,85.224l26.23-3.155a4.336,4.336,0,0,0,.18.721,4.2,4.2,0,0,0,.524,1.032L13.79,102.5,6.9,88.07a3.21,3.21,0,0,0,1.457-2.845m50.119-41.18a4.412,4.412,0,0,0,1.484,2.078L40.4,77.8a3.758,3.758,0,0,0-2-.551L36.044,40.147a1.843,1.843,0,0,0,.316-.088,1.987,1.987,0,0,0,1.2-1.374l20.69,3.381a4.66,4.66,0,0,0,.233,1.979m8.1-2.386,37.191-9.866c.009.03.016.06.026.09a3.146,3.146,0,0,0,.5.921L82.376,55.04a3.827,3.827,0,0,0-4.08-.878,3.952,3.952,0,0,0-1.517,1.045l-11-9.962a4.638,4.638,0,0,0,.8-3.586M109.386,56.5l25.16-8.3A3,3,0,0,0,136,49.844L120.983,90.516a2.983,2.983,0,0,0-1.865-.008l-11.158-30.9a2.815,2.815,0,0,0,1.427-3.1m51.369,5.478a3.3,3.3,0,0,0,2.347,2.169l-3.366,23.32a2.93,2.93,0,0,0-1.309.186c-.073.028-.144.06-.214.093l-19.4-38.083a3,3,0,0,0,.951-1.04L160.8,59.509a3.583,3.583,0,0,0-.048,2.47m21.473,7.828a3.029,3.029,0,0,0,.341.686L161.734,88.483a3.066,3.066,0,0,0-1.576-.947l3.366-23.32a3.072,3.072,0,0,0,1.384-.194,3.311,3.311,0,0,0,1.862-1.85L182.161,68a3.114,3.114,0,0,0,.067,1.806m4.823,50.172-25.045,8.195a3.635,3.635,0,0,0-3.076-2.452l.7-31.746a2.948,2.948,0,0,0,.914-.194,3.057,3.057,0,0,0,1.064-.693l25.821,25.131a2.3,2.3,0,0,0-.375,1.758m-8.9,25.456a4.212,4.212,0,0,0,.225.531L156.123,160.3l2.389-26.985a3.422,3.422,0,0,0,1.354-.227,3.624,3.624,0,0,0,1.749-1.439l16.738,10.515a4.254,4.254,0,0,0-.206,3.271m-22.739,15.353-21.959,15.887a3.341,3.341,0,0,0-1.9-1.268l3.73-24.964a3.844,3.844,0,0,0,1.807-.236,4.06,4.06,0,0,0,1.837-1.426l16.559,11.935-.095.061Zm-46.227,4.134a4.552,4.552,0,0,0-.282-.649l23.481-15.618a4.056,4.056,0,0,0,2.472,1.717l-3.729,24.964a3.174,3.174,0,0,0-1.455.2,3.4,3.4,0,0,0-1.8,1.641l-18.733-9.109a4.617,4.617,0,0,0,.048-3.144m-5.523-39.3a2.959,2.959,0,0,0-1.007-1.4l15.932-27.569a3,3,0,0,0,2.2.282l13.493,45.246a4.1,4.1,0,0,0-2.053,1.8l-28.633-16.131a3.125,3.125,0,0,0,.071-2.223m-77.843-4.613L52.21,110.867a3.226,3.226,0,0,0,1.188,1.449L45.315,128.2a3.456,3.456,0,0,0-2.777-.125,3.7,3.7,0,0,0-1.993,1.855l-14.794-6.9a3.445,3.445,0,0,0,.064-2.029M70.1,152.492l-13.78-39.953a3.2,3.2,0,0,0,1.6-1.7l40.351,15.024a3.125,3.125,0,0,0,.071,1.8,3.022,3.022,0,0,0,.469.866L73.974,153.452a3.814,3.814,0,0,0-3.872-.96m-22.9-22.121a3.788,3.788,0,0,0-1.514-1.957l8.083-15.884a2.955,2.955,0,0,0,2.144.163L69.7,152.647a3.942,3.942,0,0,0-1.312.96l-21.7-19.6a4.012,4.012,0,0,0,.521-3.636m51.206-4.935L58.06,110.412a3.445,3.445,0,0,0-.074-2,3.407,3.407,0,0,0-.175-.415l25.506-16.72a2.924,2.924,0,0,0,3.434,1.135L99.685,124a2.918,2.918,0,0,0-1.274,1.438M85.361,86.259,80.668,62.173c.118-.033.235-.071.352-.115a4.194,4.194,0,0,0,2.619-3.868l20.587-.76a2.9,2.9,0,0,0,.138.625,2.753,2.753,0,0,0,.808,1.2L87.284,86.67a2.882,2.882,0,0,0-1.923-.41m-.419.093c-.072.021-.145.043-.217.07a3.125,3.125,0,0,0-1.9,2.261L42.334,81.81a4.32,4.32,0,0,0-.215-1.842c-.039-.114-.084-.225-.132-.333L76.254,60.288a3.915,3.915,0,0,0,3.995,1.977Zm-42.677-4.1,40.492,6.873a3.325,3.325,0,0,0,.167,1.368,3.29,3.29,0,0,0,.168.392L57.586,107.61a3,3,0,0,0-3.99-.981L40.691,84.757a4.152,4.152,0,0,0,1.575-2.5M45.029,135.3a3.614,3.614,0,0,0,1.378-.945l21.7,19.6a4.349,4.349,0,0,0-.815,2.722l-20.921,2.144a2.806,2.806,0,0,0-.089-.325,2.576,2.576,0,0,0-2.09-1.748l-.169-21.222a3.477,3.477,0,0,0,1-.223m.893,25.736L68.367,178.2a2.993,2.993,0,0,0-.377,1.121l-18.832-1.073L44.9,161.877a2.559,2.559,0,0,0,1.023-.844m.228-.383a2.811,2.811,0,0,0,.286-1.387l20.9-2.142a4.382,4.382,0,0,0,.194.8,4,4,0,0,0,3.408,2.738l-.391,16.17a2.6,2.6,0,0,0-.789.17,2.717,2.717,0,0,0-1.142.839Zm25.217.023a3.775,3.775,0,0,0,1.242-.25,4.079,4.079,0,0,0,2.4-2.6l26.17,7.649a4.614,4.614,0,0,0,.083,2.25l-28.09,10.789a2.739,2.739,0,0,0-2.2-1.668Zm1.952,18.265,28.09-10.789a4.343,4.343,0,0,0,1.466,1.9L89.968,192,73.117,181.02a3.01,3.01,0,0,0,.2-2.083m27.975-13.9-26.17-7.649a4.379,4.379,0,0,0-.146-2.327,4.229,4.229,0,0,0-.708-1.284L99.1,128.855a2.75,2.75,0,0,0,2,.768l3.472,32.459a4.021,4.021,0,0,0-.748.206,4.3,4.3,0,0,0-2.533,2.749m-1.216-41.219L87.144,92.229a3.165,3.165,0,0,0,1.569-2.223l28.173,3.52a3.487,3.487,0,0,0,.187,1.305,3.3,3.3,0,0,0,1.145,1.58L114,103.7l-11.719,20.279a2.685,2.685,0,0,0-2.206-.164m55.712,3.357a3.971,3.971,0,0,0-.545,3.639,3.92,3.92,0,0,0,.3.667l-16.638,12.092a3.946,3.946,0,0,0-4.227-1.535L121.188,96.793a3.129,3.129,0,0,0,1.074-.737ZM122.544,95.717a3.461,3.461,0,0,0,.651-2.035l33.228-2.505a3.416,3.416,0,0,0,.156.657,3.121,3.121,0,0,0,2.619,2.132l-.7,31.746a3.435,3.435,0,0,0-1.1.227,3.575,3.575,0,0,0-1.328.9Zm16.615,52.692a4.479,4.479,0,0,0,.347-3.689,4.4,4.4,0,0,0-.354-.775l16.638-12.092a3.582,3.582,0,0,0,2.3,1.421l-2.394,27.052Zm18.676-60.45a3.313,3.313,0,0,0-1.443,2.766l-33.228,2.506a3.492,3.492,0,0,0-.16-.678,3.259,3.259,0,0,0-1.625-1.876L136.4,50.006a2.753,2.753,0,0,0,1.851-.047c.065-.025.127-.055.189-.084Zm-39.116,2.709a3.306,3.306,0,0,0-1.782,2.41l-28.171-3.52a3.329,3.329,0,0,0-.179-1.236,3.159,3.159,0,0,0-.953-1.394l17.888-27.421a2.5,2.5,0,0,0,2.036.256ZM105.932,54.507a2.759,2.759,0,0,0-1.723,2.472l-20.584.759a4.4,4.4,0,0,0-.225-1.065,4.248,4.248,0,0,0-.726-1.307l21.922-22.234a2.881,2.881,0,0,0,1.789.793l.2,20.431a2.5,2.5,0,0,0-.656.152M76.5,55.55a4.386,4.386,0,0,0-.585,4c.041.118.087.232.136.343L41.787,79.236a4.03,4.03,0,0,0-1.031-1.186L60.322,46.369a4.014,4.014,0,0,0,3.562.335A4.186,4.186,0,0,0,65.5,45.588ZM39.782,85.256a3.848,3.848,0,0,0,.545-.26l12.905,21.872a3.389,3.389,0,0,0-1.169,3.575l-26.4,10.138a3.2,3.2,0,0,0-1.479-1.619L37.172,85.28a3.7,3.7,0,0,0,2.61-.024M23.793,118.792a2.95,2.95,0,0,0-2.038.033q-.072.028-.142.059l-7.626-15.973L35.566,84.172a3.935,3.935,0,0,0,1.21.938Zm-2.563.3a3.182,3.182,0,0,0-1.022,1.035L8.152,113.038a4.749,4.749,0,0,0,.186-3.558,4.618,4.618,0,0,0-.588-1.153l5.9-5.123Zm-2,35.237c-.123.047-.242.1-.358.157l-7.835-15.918a2.969,2.969,0,0,0,1.124-3.437,2.91,2.91,0,0,0-.507-.9l9.139-9.809a3.053,3.053,0,0,0,1.636.765l-1.564,28.851a4.4,4.4,0,0,0-1.634.295m4.5.8a4.525,4.525,0,0,0-2.439-1.065l1.564-28.85a2.966,2.966,0,0,0,1.03-.2,3.164,3.164,0,0,0,1.692-1.558l14.794,6.9A4.025,4.025,0,0,0,40.362,133a3.86,3.86,0,0,0,.845,1.4Zm17.8-20.418a3.543,3.543,0,0,0,2.074.823l.168,21.2a2.436,2.436,0,0,0-.75.16,2.662,2.662,0,0,0-1.65,2.136l-15.924-.253a5.121,5.121,0,0,0-.277-1.519,4.9,4.9,0,0,0-1.116-1.827Zm-3.3,39.891a3.066,3.066,0,0,0-2.063.054,3.2,3.2,0,0,0-.919.546L24.1,162.363a5.032,5.032,0,0,0,1.339-3.147l15.905.253a2.814,2.814,0,0,0,.151.861,2.628,2.628,0,0,0,1.345,1.53Zm.4.161,4.616-12.742a2.4,2.4,0,0,0,1.249.012l4.215,16.2-8.195-.427a3.581,3.581,0,0,0-.195-1.112,3.344,3.344,0,0,0-1.69-1.936M55.012,189.5l-14.9-10a3.567,3.567,0,0,0,.376-1.246l8.386.437L55.645,188.8a3.572,3.572,0,0,0-.634.7m1.62-1.288a3.409,3.409,0,0,0-.637.325l-6.573-9.817,18.545,1.057a3.011,3.011,0,0,0,.162.914,2.931,2.931,0,0,0,.38.74l-8.233,7.638a3.34,3.34,0,0,0-3.645-.857m21.4,9.942-16.846-5.617a3.834,3.834,0,0,0-.107-2.138,3.719,3.719,0,0,0-.518-.992l8.234-7.639a2.623,2.623,0,0,0,2.833.643c.068-.026.133-.057.2-.088l7.464,14.206a3.373,3.373,0,0,0-1.258,1.624m1.9-1.962c-.093.036-.183.076-.27.119L72.2,182.1a2.782,2.782,0,0,0,.7-.7l16.762,10.922-6.165,4.852a3.121,3.121,0,0,0-3.559-.988m22.49,3.968-18.158-.842a3.57,3.57,0,0,0-.194-1.089,3.5,3.5,0,0,0-.324-.686l6.312-4.967,12.575,6.738a3.273,3.273,0,0,0-.212.847m1.929-2.579a3,3,0,0,0-1.526,1.328L90.342,192.22l12.9-21.931a4.022,4.022,0,0,0,1.817.545l.085,26.57a2.829,2.829,0,0,0-.79.177m.65-35.55-3.473-32.461a2.714,2.714,0,0,0,.438-.124,2.85,2.85,0,0,0,1.418-1.206l8.272,4.66,20.36,11.471a4.484,4.484,0,0,0-.138,3.279,4.43,4.43,0,0,0,.271.625l-23.481,15.618a4.109,4.109,0,0,0-3.67-1.861m.568,35.37-.085-26.569a3.986,3.986,0,0,0,1.2-.26,4.241,4.241,0,0,0,2.27-2.095l18.733,9.109a3.7,3.7,0,0,0-.023,2.48,3.611,3.611,0,0,0,.412.83l-20.542,17.489a2.915,2.915,0,0,0-1.965-.985m23.6-4.823a2.122,2.122,0,0,0-.8.14,2.375,2.375,0,0,0-1.454,2.509l-18.712,4.4c-.016-.058-.031-.115-.05-.173a3.2,3.2,0,0,0-.352-.712l20.544-17.491a3.316,3.316,0,0,0,1.889,1.09Zm12-4.491-10.157,5.566a2.239,2.239,0,0,0-1.421-1.026l1.069-10.238a3.179,3.179,0,0,0,1.3-.21,3.467,3.467,0,0,0,2.089-2.4l13.322,2.831a3.762,3.762,0,0,0,.174,1.716c.026.076.055.15.086.223Zm8.411-8.371a3.525,3.525,0,0,0-2.125,2.449l-13.322-2.832a3.7,3.7,0,0,0-.172-1.684,3.644,3.644,0,0,0-.27-.6l21.84-15.8-4.2,18.307a3.222,3.222,0,0,0-1.756.162m3.526.787a3.386,3.386,0,0,0-1.354-.842l4.254-18.561.044.032.008-.089,10.432,4.065a2.52,2.52,0,0,0,.06,1.443,2.449,2.449,0,0,0,.325.631Zm16.626-16.918a2.166,2.166,0,0,0-1.818-.121,2.323,2.323,0,0,0-1.275,1.22l-10.279-4,22.235-14.326a3.949,3.949,0,0,0,.926.995ZM186.7,126.8l-3.985,13.308a3.642,3.642,0,0,0-2.271.118,3.872,3.872,0,0,0-1.876,1.549l-16.738-10.515a3.982,3.982,0,0,0,.3-2.657l25.045-8.195a2.147,2.147,0,0,0,1.092,1.16Zm3.126-29.872-.85,20.409a2,2,0,0,0-.594.129,2.068,2.068,0,0,0-.669.421L161.895,92.758a3.366,3.366,0,0,0,.636-1.5L187.252,93.8a3.224,3.224,0,0,0,.173,1.128,2.953,2.953,0,0,0,2.4,2.005m-4.549-25.2,4.049,19.187c-.053.017-.106.031-.158.051a3.044,3.044,0,0,0-1.878,2.375l-24.721-2.539a3.414,3.414,0,0,0-.185-1.207,3.331,3.331,0,0,0-.382-.77l20.834-17.99a2.738,2.738,0,0,0,2.442.892M172.073,48.757a2.92,2.92,0,0,0,2.63.269c.058-.022.113-.05.17-.076l8.519,17.308a2.928,2.928,0,0,0-1.087,1.316l-15.389-5.827a3.581,3.581,0,0,0-.07-2.109,3.406,3.406,0,0,0-1.013-1.495Zm-6.591,9.129a3.087,3.087,0,0,0-2.79-.291,3.279,3.279,0,0,0-1.7,1.508L139.952,48.217a3.218,3.218,0,0,0,.211-1.007L170.6,46.3a3.385,3.385,0,0,0,.167.79,3.217,3.217,0,0,0,.952,1.4ZM155.089,29.471a3.06,3.06,0,0,0,3.127.53,3.282,3.282,0,0,0,.844-.478L171.43,43.76a3.336,3.336,0,0,0-.84,2.092l-30.442.908a3.212,3.212,0,0,0-.158-.74,3.108,3.108,0,0,0-.487-.9ZM137.81,16.609a3.4,3.4,0,0,0,1.578-1.253l15.121,10.151a3.221,3.221,0,0,0-.282,2.677,3.021,3.021,0,0,0,.554.974L139.209,44.794a2.847,2.847,0,0,0-1.8-.794l-.483-27.188a3.236,3.236,0,0,0,.881-.2m-1.309.212.483,27.191a2.782,2.782,0,0,0-.728.169,3.108,3.108,0,0,0-1.839,3.588l-25.159,8.3a2.637,2.637,0,0,0-2.243-1.722l-.2-20.431a2.813,2.813,0,0,0,.765-.174,3.163,3.163,0,0,0,1.763-3.989c-.028-.083-.062-.162-.1-.24L133.8,15.175a3.361,3.361,0,0,0,2.7,1.646M112.959,8.08a2.347,2.347,0,0,0,1.324-.107,2.541,2.541,0,0,0,1.443-1.462l17.638,5.881a3.743,3.743,0,0,0,.105,2.081c.036.105.077.208.122.307L109.036,29.118a2.98,2.98,0,0,0-1.454-1.221ZM93.239,4.8l17.712.821a2.747,2.747,0,0,0,.148.786,2.551,2.551,0,0,0,1.449,1.55L107.17,27.774a2.785,2.785,0,0,0-1.611.119,2.891,2.891,0,0,0-.5.25l-13.41-20.3A4.463,4.463,0,0,0,93.239,4.8M90.524,8.5a4.076,4.076,0,0,0,.776-.4l13.411,20.3a3.2,3.2,0,0,0-1.046,2.952L66.473,41.221q-.032-.11-.07-.22a4.432,4.432,0,0,0-1.29-1.92l21.7-31.044a3.962,3.962,0,0,0,3.71.462m-24.1,4.614A3.376,3.376,0,0,0,68.473,9.46L85.1,5.553c.029.109.061.219.1.327A4.364,4.364,0,0,0,86.47,7.769l-21.7,31.044a4.106,4.106,0,0,0-1.721-.694l2.2-24.805a3.016,3.016,0,0,0,1.168-.2M46.147,20.879c-.014-.04-.031-.078-.047-.117l16.523-9.056a3.178,3.178,0,0,0,2.2,1.565l-2.2,24.806A4,4,0,0,0,61,38.342a4.163,4.163,0,0,0-1.309.809L45.653,23.616a2.835,2.835,0,0,0,.494-2.737m-1.54,3.486a2.536,2.536,0,0,0,.735-.44l14.04,15.537a4.556,4.556,0,0,0-1.068,2.157l-20.69-3.381a2.121,2.121,0,0,0-.114-.779,2,2,0,0,0-.738-.99l5.964-12.153a2.441,2.441,0,0,0,1.872.048m-2.629-.559a2.6,2.6,0,0,0,.377.3L36.391,36.262a1.818,1.818,0,0,0-1.345-.014,2.023,2.023,0,0,0-1.262,1.876l-4.713.486a3.7,3.7,0,0,0-.158-.639,3.576,3.576,0,0,0-.537-1ZM29.113,39.06l4.713-.486a2.123,2.123,0,0,0,.072.273,1.934,1.934,0,0,0,1.72,1.332l2.353,37.1a3.714,3.714,0,0,0-.5.1L26.986,42.46a3.533,3.533,0,0,0,2.127-3.4m-4.945,3.2a3.178,3.178,0,0,0,2.41.333L37.062,77.521a3.9,3.9,0,0,0-1.6,1.195L16.037,63.231a4.435,4.435,0,0,0,.447-3.826,4.2,4.2,0,0,0-1.443-2ZM11.7,64.965a3.8,3.8,0,0,0,2.381-.121,4.009,4.009,0,0,0,1.7-1.253L35.2,79.076a4.3,4.3,0,0,0-.66,2.545L8.309,84.776a3.306,3.306,0,0,0-.126-.5,3.076,3.076,0,0,0-1.711-1.853ZM5.451,88.515a2.847,2.847,0,0,0,.942-.188c.044-.017.085-.038.127-.057l6.931,14.521-5.973,5.187A4.235,4.235,0,0,0,4.7,106.515Z" transform="translate(0 0.003)" fill="#3a1d71"/>
      </g>
    </g>
    <g id="Grupo_1101843" data-name="Grupo 1101843" transform="translate(-7188 -12833)">
      <ellipse id="Elipse_11686" data-name="Elipse 11686" cx="20.5" cy="20" rx="20.5" ry="20" transform="translate(730 3093)" fill="#debefb"/>
      <ellipse id="Elipse_11687" data-name="Elipse 11687" cx="20.5" cy="20" rx="20.5" ry="20" transform="translate(674 3090)" fill="#debefb"/>
      <ellipse id="Elipse_11688" data-name="Elipse 11688" cx="20" cy="20.5" rx="20" ry="20.5" transform="translate(625 3059)" fill="#debefb"/>
      <ellipse id="Elipse_11689" data-name="Elipse 11689" cx="20.5" cy="21" rx="20.5" ry="21" transform="translate(600 2995)" fill="#debefb"/>
      <g id="Grupo_1101594" data-name="Grupo 1101594" transform="translate(735.74 2897.085)">
        <ellipse id="Elipse_11682" data-name="Elipse 11682" cx="20" cy="20.5" rx="20" ry="20.5" transform="translate(0.26 -0.085)" fill="#debefb"/>
        <g id="Grupo_1101582" data-name="Grupo 1101582" transform="translate(5.171 10.534)">
          <g id="Grupo_1101573" data-name="Grupo 1101573" transform="translate(0 0)" clip-path="url(#clip-path-2)">
            <path id="Trazado_879211" data-name="Trazado 879211" d="M137.108,16.257H112.593V1.241A1.242,1.242,0,0,1,113.835,0h22.031a1.242,1.242,0,0,1,1.242,1.242Z" transform="translate(-109.793 0.001)" fill="#8722e2"/>
            <rect id="Rectángulo_403304" data-name="Rectángulo 403304" width="21.194" height="14.699" transform="translate(4.461 1.713)" fill="#fff"/>
            <path id="Trazado_879212" data-name="Trazado 879212" d="M29.088,686.636H1.028a1.015,1.015,0,0,1-.912-.984L0,684.7a.5.5,0,0,1,.42-.606H29.692a.5.5,0,0,1,.42.606l-.111.947a1.015,1.015,0,0,1-.912.984" transform="translate(0 -667.086)" fill="#8722e2"/>
            <path id="Trazado_879213" data-name="Trazado 879213" d="M519.1,723.172h-3.88a.312.312,0,0,1,0-.624h3.88a.312.312,0,1,1,0,.624" transform="translate(-502.104 -704.579)" fill="#fff"/>
          </g>
        </g>
      </g>
      <g id="Grupo_1101596" data-name="Grupo 1101596" transform="translate(786.951 2924.233)">
        <ellipse id="Elipse_11683" data-name="Elipse 11683" cx="20.5" cy="21" rx="20.5" ry="21" transform="translate(0.049 -0.233)" fill="#debefb"/>
        <g id="Grupo_1101583" data-name="Grupo 1101583" transform="translate(5.416 10.77)">
          <g id="Grupo_1101573-2" data-name="Grupo 1101573" transform="translate(0 0)" clip-path="url(#clip-path-2)">
            <path id="Trazado_879211-2" data-name="Trazado 879211" d="M137.108,16.257H112.593V1.241A1.242,1.242,0,0,1,113.835,0h22.031a1.242,1.242,0,0,1,1.242,1.242Z" transform="translate(-109.793 0.001)" fill="#8722e2"/>
            <rect id="Rectángulo_403304-2" data-name="Rectángulo 403304" width="21.194" height="14.699" transform="translate(4.461 1.713)" fill="#fff"/>
            <path id="Trazado_879212-2" data-name="Trazado 879212" d="M29.088,686.636H1.028a1.015,1.015,0,0,1-.912-.984L0,684.7a.5.5,0,0,1,.42-.606H29.692a.5.5,0,0,1,.42.606l-.111.947a1.015,1.015,0,0,1-.912.984" transform="translate(0 -667.086)" fill="#8722e2"/>
            <path id="Trazado_879213-2" data-name="Trazado 879213" d="M519.1,723.172h-3.88a.312.312,0,0,1,0-.624h3.88a.312.312,0,1,1,0,.624" transform="translate(-502.104 -704.579)" fill="#fff"/>
          </g>
        </g>
      </g>
      <g id="Grupo_1101597" data-name="Grupo 1101597" transform="translate(818.418 2995.188)">
        <circle id="Elipse_11684" data-name="Elipse 11684" cx="21" cy="21" r="21" transform="translate(-0.417 -0.188)" fill="#debefb"/>
        <g id="Grupo_1101584" data-name="Grupo 1101584" transform="translate(6.304 10.027)">
          <g id="Grupo_1101573-3" data-name="Grupo 1101573" clip-path="url(#clip-path-2)">
            <path id="Trazado_879211-3" data-name="Trazado 879211" d="M137.108,16.257H112.593V1.241A1.242,1.242,0,0,1,113.835,0h22.031a1.242,1.242,0,0,1,1.242,1.242Z" transform="translate(-109.793 0.001)" fill="#8722e2"/>
            <rect id="Rectángulo_403304-3" data-name="Rectángulo 403304" width="21.194" height="14.699" transform="translate(4.461 1.713)" fill="#fff"/>
            <path id="Trazado_879212-3" data-name="Trazado 879212" d="M29.088,686.636H1.028a1.015,1.015,0,0,1-.912-.984L0,684.7a.5.5,0,0,1,.42-.606H29.692a.5.5,0,0,1,.42.606l-.111.947a1.015,1.015,0,0,1-.912.984" transform="translate(0 -667.086)" fill="#8722e2"/>
            <path id="Trazado_879213-3" data-name="Trazado 879213" d="M519.1,723.172h-3.88a.312.312,0,0,1,0-.624h3.88a.312.312,0,1,1,0,.624" transform="translate(-502.104 -704.579)" fill="#fff"/>
          </g>
        </g>
      </g>
      <g id="Grupo_1101598" data-name="Grupo 1101598" transform="translate(786.951 3058.739)">
        <circle id="Elipse_11685" data-name="Elipse 11685" cx="20.5" cy="20.5" r="20.5" transform="translate(0.049 0.262)" fill="#debefb"/>
        <g id="Grupo_1101585" data-name="Grupo 1101585" transform="translate(5.196 11.04)">
          <g id="Grupo_1101573-4" data-name="Grupo 1101573" transform="translate(0 0)" clip-path="url(#clip-path-2)">
            <path id="Trazado_879211-4" data-name="Trazado 879211" d="M137.108,16.257H112.593V1.241A1.242,1.242,0,0,1,113.835,0h22.031a1.242,1.242,0,0,1,1.242,1.242Z" transform="translate(-109.793 0.001)" fill="#8722e2"/>
            <rect id="Rectángulo_403304-4" data-name="Rectángulo 403304" width="21.194" height="14.699" transform="translate(4.461 1.713)" fill="#fff"/>
            <path id="Trazado_879212-4" data-name="Trazado 879212" d="M29.088,686.636H1.028a1.015,1.015,0,0,1-.912-.984L0,684.7a.5.5,0,0,1,.42-.606H29.692a.5.5,0,0,1,.42.606l-.111.947a1.015,1.015,0,0,1-.912.984" transform="translate(0 -667.086)" fill="#8722e2"/>
            <path id="Trazado_879213-4" data-name="Trazado 879213" d="M519.1,723.172h-3.88a.312.312,0,0,1,0-.624h3.88a.312.312,0,1,1,0,.624" transform="translate(-502.104 -704.579)" fill="#fff"/>
          </g>
        </g>
      </g>
      <g id="Grupo_1101586" data-name="Grupo 1101586" transform="translate(735.091 3103.312)">
        <g id="Grupo_1101573-5" data-name="Grupo 1101573" transform="translate(0 0)" clip-path="url(#clip-path-2)">
          <path id="Trazado_879211-5" data-name="Trazado 879211" d="M137.108,16.257H112.593V1.241A1.242,1.242,0,0,1,113.835,0h22.031a1.242,1.242,0,0,1,1.242,1.242Z" transform="translate(-109.793 0.001)" fill="#8722e2"/>
          <rect id="Rectángulo_403304-5" data-name="Rectángulo 403304" width="21.194" height="14.699" transform="translate(4.461 1.713)" fill="#fff"/>
          <path id="Trazado_879212-5" data-name="Trazado 879212" d="M29.088,686.636H1.028a1.015,1.015,0,0,1-.912-.984L0,684.7a.5.5,0,0,1,.42-.606H29.692a.5.5,0,0,1,.42.606l-.111.947a1.015,1.015,0,0,1-.912.984" transform="translate(0 -667.086)" fill="#8722e2"/>
          <path id="Trazado_879213-5" data-name="Trazado 879213" d="M519.1,723.172h-3.88a.312.312,0,0,1,0-.624h3.88a.312.312,0,1,1,0,.624" transform="translate(-502.104 -704.579)" fill="#fff"/>
        </g>
      </g>
      <g id="Grupo_1101587" data-name="Grupo 1101587" transform="translate(677.076 3103.311)">
        <g id="Grupo_1101573-6" data-name="Grupo 1101573" clip-path="url(#clip-path-2)">
          <path id="Trazado_879211-6" data-name="Trazado 879211" d="M137.108,16.257H112.593V1.241A1.242,1.242,0,0,1,113.835,0h22.031a1.242,1.242,0,0,1,1.242,1.242Z" transform="translate(-109.793 0.001)" fill="#8722e2"/>
          <rect id="Rectángulo_403304-6" data-name="Rectángulo 403304" width="21.194" height="14.699" transform="translate(4.461 1.713)" fill="#fff"/>
          <path id="Trazado_879212-6" data-name="Trazado 879212" d="M29.088,686.636H1.028a1.015,1.015,0,0,1-.912-.984L0,684.7a.5.5,0,0,1,.42-.606H29.692a.5.5,0,0,1,.42.606l-.111.947a1.015,1.015,0,0,1-.912.984" transform="translate(0 -667.086)" fill="#8722e2"/>
          <path id="Trazado_879213-6" data-name="Trazado 879213" d="M519.1,723.172h-3.88a.312.312,0,0,1,0-.624h3.88a.312.312,0,1,1,0,.624" transform="translate(-502.104 -704.579)" fill="#fff"/>
        </g>
      </g>
      <g id="Grupo_1101588" data-name="Grupo 1101588" transform="translate(629.944 3069.778)">
        <g id="Grupo_1101573-7" data-name="Grupo 1101573" clip-path="url(#clip-path-2)">
          <path id="Trazado_879211-7" data-name="Trazado 879211" d="M137.108,16.257H112.593V1.241A1.242,1.242,0,0,1,113.835,0h22.031a1.242,1.242,0,0,1,1.242,1.242Z" transform="translate(-109.793 0.001)" fill="#8722e2"/>
          <rect id="Rectángulo_403304-7" data-name="Rectángulo 403304" width="21.194" height="14.699" transform="translate(4.461 1.713)" fill="#fff"/>
          <path id="Trazado_879212-7" data-name="Trazado 879212" d="M29.088,686.636H1.028a1.015,1.015,0,0,1-.912-.984L0,684.7a.5.5,0,0,1,.42-.606H29.692a.5.5,0,0,1,.42.606l-.111.947a1.015,1.015,0,0,1-.912.984" transform="translate(0 -667.086)" fill="#8722e2"/>
          <path id="Trazado_879213-7" data-name="Trazado 879213" d="M519.1,723.172h-3.88a.312.312,0,0,1,0-.624h3.88a.312.312,0,1,1,0,.624" transform="translate(-502.104 -704.579)" fill="#fff"/>
        </g>
      </g>
      <g id="Grupo_1101589" data-name="Grupo 1101589" transform="translate(605.463 3005.215)">
        <g id="Grupo_1101573-8" data-name="Grupo 1101573" clip-path="url(#clip-path-2)">
          <path id="Trazado_879211-8" data-name="Trazado 879211" d="M137.108,16.257H112.593V1.241A1.242,1.242,0,0,1,113.835,0h22.031a1.242,1.242,0,0,1,1.242,1.242Z" transform="translate(-109.793 0.001)" fill="#8722e2"/>
          <rect id="Rectángulo_403304-8" data-name="Rectángulo 403304" width="21.194" height="14.699" transform="translate(4.461 1.713)" fill="#fff"/>
          <path id="Trazado_879212-8" data-name="Trazado 879212" d="M29.088,686.636H1.028a1.015,1.015,0,0,1-.912-.984L0,684.7a.5.5,0,0,1,.42-.606H29.692a.5.5,0,0,1,.42.606l-.111.947a1.015,1.015,0,0,1-.912.984" transform="translate(0 -667.086)" fill="#8722e2"/>
          <path id="Trazado_879213-8" data-name="Trazado 879213" d="M519.1,723.172h-3.88a.312.312,0,0,1,0-.624h3.88a.312.312,0,1,1,0,.624" transform="translate(-502.104 -704.579)" fill="#fff"/>
        </g>
      </g>
      <g id="Grupo_1101599" data-name="Grupo 1101599" transform="translate(617.276 2931.02)">
        <circle id="Elipse_11690" data-name="Elipse 11690" cx="20.5" cy="20.5" r="20.5" transform="translate(-0.276 -0.02)" fill="#debefb"/>
        <g id="Grupo_1101590" data-name="Grupo 1101590" transform="translate(5.169 10.77)">
          <g id="Grupo_1101573-9" data-name="Grupo 1101573" transform="translate(0 0)" clip-path="url(#clip-path-2)">
            <path id="Trazado_879211-9" data-name="Trazado 879211" d="M137.108,16.257H112.593V1.241A1.242,1.242,0,0,1,113.835,0h22.031a1.242,1.242,0,0,1,1.242,1.242Z" transform="translate(-109.793 0.001)" fill="#8722e2"/>
            <rect id="Rectángulo_403304-9" data-name="Rectángulo 403304" width="21.194" height="14.699" transform="translate(4.461 1.713)" fill="#fff"/>
            <path id="Trazado_879212-9" data-name="Trazado 879212" d="M29.088,686.636H1.028a1.015,1.015,0,0,1-.912-.984L0,684.7a.5.5,0,0,1,.42-.606H29.692a.5.5,0,0,1,.42.606l-.111.947a1.015,1.015,0,0,1-.912.984" transform="translate(0 -667.086)" fill="#8722e2"/>
            <path id="Trazado_879213-9" data-name="Trazado 879213" d="M519.1,723.172h-3.88a.312.312,0,0,1,0-.624h3.88a.312.312,0,1,1,0,.624" transform="translate(-502.104 -704.579)" fill="#fff"/>
          </g>
        </g>
      </g>
      <g id="Grupo_1101595" data-name="Grupo 1101595" transform="translate(670.955 2894)">
        <circle id="Elipse_11691" data-name="Elipse 11691" cx="20.5" cy="20.5" r="20.5" transform="translate(0.045)" fill="#debefb"/>
        <g id="Grupo_1101591" data-name="Grupo 1101591" transform="translate(5.673 10.534)">
          <g id="Grupo_1101573-10" data-name="Grupo 1101573" clip-path="url(#clip-path-2)">
            <path id="Trazado_879211-10" data-name="Trazado 879211" d="M137.108,16.257H112.593V1.241A1.242,1.242,0,0,1,113.835,0h22.031a1.242,1.242,0,0,1,1.242,1.242Z" transform="translate(-109.793 0.001)" fill="#8722e2"/>
            <rect id="Rectángulo_403304-10" data-name="Rectángulo 403304" width="21.194" height="14.699" transform="translate(4.461 1.713)" fill="#fff"/>
            <path id="Trazado_879212-10" data-name="Trazado 879212" d="M29.088,686.636H1.028a1.015,1.015,0,0,1-.912-.984L0,684.7a.5.5,0,0,1,.42-.606H29.692a.5.5,0,0,1,.42.606l-.111.947a1.015,1.015,0,0,1-.912.984" transform="translate(0 -667.086)" fill="#8722e2"/>
            <path id="Trazado_879213-10" data-name="Trazado 879213" d="M519.1,723.172h-3.88a.312.312,0,0,1,0-.624h3.88a.312.312,0,1,1,0,.624" transform="translate(-502.104 -704.579)" fill="#fff"/>
          </g>
        </g>
      </g>
      <circle id="Elipse_11693" data-name="Elipse 11693" cx="5.861" cy="5.861" r="5.861" transform="translate(614.659 3001.029)" fill="#f2e5fd"/>
      <text id="A" transform="translate(616.669 3009.103)" fill="#8722e2" font-size="10" font-family="Roboto-Black, Roboto" font-weight="800"><tspan x="0" y="0">A</tspan></text>
      <circle id="Elipse_11694" data-name="Elipse 11694" cx="5.861" cy="5.861" r="5.861" transform="translate(631.137 2935.647)" fill="#f2e5fd"/>
      <text id="B" transform="translate(633.147 2943.722)" fill="#8722e2" font-size="10" font-family="Roboto-Black, Roboto" font-weight="800"><tspan x="0" y="0">B</tspan></text>
      <circle id="Elipse_11695" data-name="Elipse 11695" cx="5.861" cy="5.861" r="5.861" transform="translate(685.763 2899.244)" fill="#f2e5fd"/>
      <text id="C" transform="translate(687.773 2907.319)" fill="#8722e2" font-size="10" font-family="Roboto-Black, Roboto" font-weight="800"><tspan x="0" y="0">C</tspan></text>
      <circle id="Elipse_11696" data-name="Elipse 11696" cx="5.861" cy="5.861" r="5.861" transform="translate(750.733 2900.17)" fill="#f2e5fd"/>
      <text id="D" transform="translate(752.743 2908.244)" fill="#8722e2" font-size="10" font-family="Roboto-Black, Roboto" font-weight="800"><tspan x="0" y="0">D</tspan></text>
      <circle id="Elipse_11697" data-name="Elipse 11697" cx="5.861" cy="5.861" r="5.861" transform="translate(801.45 2929.169)" fill="#f2e5fd"/>
      <text id="E" transform="translate(803.46 2937.243)" fill="#8722e2" font-size="10" font-family="Roboto-Black, Roboto" font-weight="800"><tspan x="0" y="0">E</tspan></text>
      <ellipse id="Elipse_11698" data-name="Elipse 11698" cx="6" cy="5.5" rx="6" ry="5.5" transform="translate(835 3000)" fill="#f2e5fd"/>
      <text id="F" transform="translate(837.087 3007.581)" fill="#8722e2" font-size="10" font-family="Roboto-Black, Roboto" font-weight="800"><tspan x="0" y="0">F</tspan></text>
      <circle id="Elipse_11699" data-name="Elipse 11699" cx="5.861" cy="5.861" r="5.861" transform="translate(801.45 3064.225)" fill="#f2e5fd"/>
      <text id="G" transform="translate(803.46 3072.3)" fill="#8722e2" font-size="10" font-family="Roboto-Black, Roboto" font-weight="800"><tspan x="0" y="0">G</tspan></text>
      <circle id="Elipse_11700" data-name="Elipse 11700" cx="5.861" cy="5.861" r="5.861" transform="translate(743.453 3097.918)" fill="#f2e5fd"/>
      <text id="H" transform="translate(745.463 3105.993)" fill="#8722e2" font-size="10" font-family="Roboto-Black, Roboto" font-weight="800"><tspan x="0" y="0">H</tspan></text>
      <circle id="Elipse_11701" data-name="Elipse 11701" cx="5.861" cy="5.861" r="5.861" transform="translate(686.535 3097.61)" fill="#f2e5fd"/>
      <text id="I" transform="translate(690.396 3105.684)" fill="#8722e2" font-size="10" font-family="Roboto-Black, Roboto" font-weight="800"><tspan x="0" y="0">I</tspan></text>
      <circle id="Elipse_11702" data-name="Elipse 11702" cx="5.861" cy="5.861" r="5.861" transform="translate(639.14 3064.534)" fill="#f2e5fd"/>
      <text id="J" transform="translate(641.15 3072.608)" fill="#8722e2" font-size="10" font-family="Roboto-Black, Roboto" font-weight="800"><tspan x="0" y="0">J</tspan></text>
    </g>
  </g>
</svg>
