<svg xmlns="http://www.w3.org/2000/svg" xmlns:xlink="http://www.w3.org/1999/xlink" width="154.055" height="118.247" viewBox="0 0 154.055 118.247">
  <defs>
    <clipPath id="clip-path">
      <rect id="Rectángulo_403233" data-name="Rectángulo 403233" width="154.055" height="118.247" fill="none"/>
    </clipPath>
  </defs>
  <g id="Grupo_1101541" data-name="Grupo 1101541" transform="translate(0 -0.005)">
    <g id="Grupo_1101540" data-name="Grupo 1101540" transform="translate(0 0.005)" clip-path="url(#clip-path)">
      <path id="Trazado_879024" data-name="Trazado 879024" d="M1404.889,250.658a3.091,3.091,0,1,1-3.091-3.091,3.091,3.091,0,0,1,3.091,3.091" transform="translate(-1273.504 -225.407)" fill="#231f20"/>
      <path id="Trazado_879025" data-name="Trazado 879025" d="M1543.019,250.658a3.091,3.091,0,1,1-3.091-3.091,3.091,3.091,0,0,1,3.091,3.091" transform="translate(-1399.269 -225.407)" fill="#231f20"/>
      <path id="Trazado_879026" data-name="Trazado 879026" d="M1336.808,319.723a3.091,3.091,0,1,1-3.091-3.091,3.091,3.091,0,0,1,3.091,3.091" transform="translate(-1211.517 -288.29)" fill="#231f20"/>
      <path id="Trazado_879027" data-name="Trazado 879027" d="M1474.938,319.723a3.091,3.091,0,1,1-3.091-3.091,3.091,3.091,0,0,1,3.091,3.091" transform="translate(-1337.282 -288.29)" fill="#231f20"/>
      <path id="Trazado_879028" data-name="Trazado 879028" d="M1613.067,319.723a3.091,3.091,0,1,1-3.091-3.091,3.091,3.091,0,0,1,3.091,3.091" transform="translate(-1463.047 -288.29)" fill="#231f20"/>
      <path id="Trazado_879029" data-name="Trazado 879029" d="M399.587,883.829a3.091,3.091,0,1,1-3.091-3.091,3.091,3.091,0,0,1,3.091,3.091" transform="translate(-358.19 -801.9)" fill="#231f20"/>
      <path id="Trazado_879030" data-name="Trazado 879030" d="M537.717,883.829a3.091,3.091,0,1,1-3.091-3.091,3.091,3.091,0,0,1,3.091,3.091" transform="translate(-483.955 -801.9)" fill="#231f20"/>
      <path id="Trazado_879031" data-name="Trazado 879031" d="M675.847,883.829a3.091,3.091,0,1,1-3.091-3.091,3.091,3.091,0,0,1,3.091,3.091" transform="translate(-609.721 -801.9)" fill="#231f20"/>
      <path id="Trazado_879032" data-name="Trazado 879032" d="M466.684,952.894a3.091,3.091,0,1,1-3.091-3.091,3.091,3.091,0,0,1,3.091,3.091" transform="translate(-419.281 -864.783)" fill="#231f20"/>
      <path id="Trazado_879033" data-name="Trazado 879033" d="M604.814,952.894a3.091,3.091,0,1,1-3.091-3.091,3.091,3.091,0,0,1,3.091,3.091" transform="translate(-545.046 -864.783)" fill="#231f20"/>
      <rect id="Rectángulo_403177" data-name="Rectángulo 403177" width="19.568" height="14.954" transform="translate(76.262 91.39)" fill="#beb4d0"/>
      <path id="Trazado_879042" data-name="Trazado 879042" d="M869.942,1034.333H850.028v-15.3h19.914Zm-19.568-.346H869.6v-14.608H850.374Z" transform="translate(-773.939 -927.816)" fill="#231f20"/>
      <rect id="Rectángulo_403178" data-name="Rectángulo 403178" width="19.568" height="14.954" transform="translate(74.438 91.39)" fill="#fff6ed"/>
      <path id="Trazado_879043" data-name="Trazado 879043" d="M851.149,1053.4l-19.568,10.567V1053.4Z" transform="translate(-757.143 -959.107)" fill="#a854f3"/>
      <path id="Trazado_879044" data-name="Trazado 879044" d="M817.178,1190.93h-31.42v-.835a2.068,2.068,0,0,1,2.068-2.068H815.11a2.068,2.068,0,0,1,2.068,2.068Z" transform="translate(-715.422 -1081.683)" fill="#2d6935"/>
      <path id="Trazado_879045" data-name="Trazado 879045" d="M815.593,1189.344H783.827v-1.008a2.244,2.244,0,0,1,2.241-2.241h27.284a2.244,2.244,0,0,1,2.241,2.241Zm-31.42-.346h31.074v-.662a1.9,1.9,0,0,0-1.9-1.9H786.068a1.9,1.9,0,0,0-1.9,1.9Z" transform="translate(-713.664 -1079.924)" fill="#231f20"/>
      <path id="Trazado_879046" data-name="Trazado 879046" d="M796.8,1190.93h-31.42v-.835a2.068,2.068,0,0,1,2.068-2.068H794.73a2.068,2.068,0,0,1,2.068,2.068Z" transform="translate(-696.866 -1081.683)" fill="#fff6ed"/>
      <path id="Trazado_879047" data-name="Trazado 879047" d="M849.564,1034.333H829.65v-15.3h19.914ZM830,1033.987h19.222v-14.608H830Z" transform="translate(-755.385 -927.816)" fill="#231f20"/>
      <path id="Trazado_879048" data-name="Trazado 879048" d="M795.212,1189.344H763.446v-1.008a2.244,2.244,0,0,1,2.241-2.241h27.284a2.244,2.244,0,0,1,2.241,2.241Zm-31.42-.346h31.074v-.662a1.9,1.9,0,0,0-1.9-1.9H765.687a1.9,1.9,0,0,0-1.9,1.9Z" transform="translate(-695.107 -1079.924)" fill="#231f20"/>
      <path id="Trazado_879049" data-name="Trazado 879049" d="M484.548,395.845h-98.5a3.068,3.068,0,0,1-3.068-3.068v-58.51a3.068,3.068,0,0,1,3.068-3.068h98.5a3.068,3.068,0,0,1,3.068,3.068v58.51a3.068,3.068,0,0,1-3.068,3.068" transform="translate(-348.694 -301.552)" fill="#a854f3"/>
      <path id="Trazado_879050" data-name="Trazado 879050" d="M482.788,394.258h-98.5a3.245,3.245,0,0,1-3.241-3.241v-58.51a3.245,3.245,0,0,1,3.241-3.241h98.5a3.245,3.245,0,0,1,3.241,3.241v58.51a3.245,3.245,0,0,1-3.241,3.241m-98.5-64.647a2.9,2.9,0,0,0-2.9,2.9v58.51a2.9,2.9,0,0,0,2.9,2.9h98.5a2.9,2.9,0,0,0,2.9-2.9v-58.51a2.9,2.9,0,0,0-2.9-2.9Z" transform="translate(-346.934 -299.792)" fill="#231f20"/>
      <path id="Trazado_879051" data-name="Trazado 879051" d="M457.961,395.845h-98.5a3.068,3.068,0,0,1-3.068-3.068v-58.51a3.068,3.068,0,0,1,3.068-3.068h98.5a3.068,3.068,0,0,1,3.068,3.068v58.51a3.068,3.068,0,0,1-3.068,3.068" transform="translate(-324.487 -301.552)" fill="#fff6ed"/>
      <rect id="Rectángulo_403179" data-name="Rectángulo 403179" width="99.867" height="53.929" transform="translate(34.288 32.086)" fill="#00ffdf"/>
      <path id="Trazado_879052" data-name="Trazado 879052" d="M456.2,394.258H357.7a3.245,3.245,0,0,1-3.241-3.241v-58.51a3.245,3.245,0,0,1,3.241-3.241h98.5a3.245,3.245,0,0,1,3.241,3.241v58.51a3.245,3.245,0,0,1-3.241,3.241m-98.5-64.647a2.9,2.9,0,0,0-2.9,2.9v58.51a2.9,2.9,0,0,0,2.9,2.9h98.5a2.9,2.9,0,0,0,2.9-2.9v-58.51a2.9,2.9,0,0,0-2.9-2.9Z" transform="translate(-322.727 -299.792)" fill="#231f20"/>
      <path id="Trazado_879053" data-name="Trazado 879053" d="M481.329,410.792H381.116V356.517H481.329Zm-99.867-.346h99.521V356.863H381.462Z" transform="translate(-347.001 -324.604)" fill="#231f20"/>
      <path id="Trazado_879054" data-name="Trazado 879054" d="M930.219,996.523a.955.955,0,1,1,.955.954.955.955,0,0,1-.955-.954" transform="translate(-846.952 -906.452)" fill="#231f20"/>
      <rect id="Rectángulo_403180" data-name="Rectángulo 403180" width="13.722" height="19.279" transform="translate(13.985 86.406)" fill="#00ffdf"/>
      <path id="Trazado_879055" data-name="Trazado 879055" d="M202.572,1002.553a2.993,2.993,0,1,1,2.993-2.993,3,3,0,0,1-2.993,2.993m0-5.755a2.762,2.762,0,1,0,2.762,2.762,2.765,2.765,0,0,0-2.762-2.762" transform="translate(-181.714 -907.362)" fill="#2d6935"/>
      <rect id="Rectángulo_403181" data-name="Rectángulo 403181" width="7.353" height="0.7" transform="translate(17.181 97.232)" fill="#ef4647"/>
      <rect id="Rectángulo_403182" data-name="Rectángulo 403182" width="7.353" height="0.7" transform="translate(17.181 98.895)" fill="#ef4647"/>
      <rect id="Rectángulo_403183" data-name="Rectángulo 403183" width="7.353" height="0.7" transform="translate(17.181 100.368)" fill="#ef4647"/>
      <path id="Trazado_879056" data-name="Trazado 879056" d="M1291.507,1113.011h1.005l-.013,1.263,1.083-.644.5.9-1.121.606,1.121.619-.5.9-1.1-.644.026,1.25h-1.005l.026-1.263-1.1.644-.5-.889,1.108-.619-1.108-.606.5-.915,1.1.657Z" transform="translate(-1174.468 -1013.382)" fill="#f0c518"/>
      <path id="Trazado_879057" data-name="Trazado 879057" d="M1387.688,1113.011h1.005l-.013,1.263,1.083-.644.5.9-1.121.606,1.121.619-.5.9-1.1-.644.026,1.25h-1.005l.026-1.263-1.1.644-.5-.889,1.109-.619-1.109-.606.5-.915,1.1.657Z" transform="translate(-1262.04 -1013.382)" fill="#f0c518"/>
      <path id="Trazado_879058" data-name="Trazado 879058" d="M1483.869,1113.011h1.005l-.013,1.263,1.083-.644.5.9-1.121.606,1.121.619-.5.9-1.1-.644.026,1.25h-1.005l.026-1.263-1.1.644-.5-.889,1.108-.619-1.108-.606.5-.915,1.1.657Z" transform="translate(-1349.611 -1013.382)" fill="#f0c518"/>
      <path id="Trazado_879059" data-name="Trazado 879059" d="M1580.05,1113.011h1.005l-.013,1.263,1.083-.644.5.9-1.121.606,1.121.619-.5.9-1.1-.644.026,1.25h-1.005l.026-1.263-1.1.644-.5-.889,1.109-.619-1.109-.606.5-.915,1.1.657Z" transform="translate(-1437.182 -1013.382)" fill="#f0c518"/>
      <path id="Trazado_879060" data-name="Trazado 879060" d="M1676.23,1113.011h1.005l-.013,1.263,1.083-.644.5.9-1.121.606,1.121.619-.5.9-1.1-.644.026,1.25h-1.005l.026-1.263-1.1.644-.5-.889,1.108-.619-1.108-.606.5-.915,1.1.657Z" transform="translate(-1524.754 -1013.382)" fill="#f0c518"/>
      <rect id="Rectángulo_403184" data-name="Rectángulo 403184" width="42.071" height="7.765" transform="translate(86.595 69.273)" fill="#fff"/>
      <path id="Trazado_879061" data-name="Trazado 879061" d="M996.9,771.13H954.479v-8.111H996.9Zm-42.071-.346H996.55v-7.419H954.825Z" transform="translate(-869.04 -694.719)" fill="#231f20"/>
      <path id="Trazado_879062" data-name="Trazado 879062" d="M1308.351,823.749l-12.219-11.9,1.9,16.952,3.511-3.681,2.894,5.916,1.751-.857-2.894-5.916Z" transform="translate(-1180.11 -739.177)" fill="#231f20"/>
      <path id="Trazado_879063" data-name="Trazado 879063" d="M67.146,417.649H3.778a1.845,1.845,0,0,0-1.845,1.845v3.156H68.991v-3.156a1.845,1.845,0,0,0-1.845-1.845" transform="translate(-1.76 -380.264)" fill="#a854f3"/>
      <rect id="Rectángulo_403185" data-name="Rectángulo 403185" width="32.097" height="36.847" transform="translate(20.846 45.84)" fill="#fff6ed"/>
      <rect id="Rectángulo_403186" data-name="Rectángulo 403186" width="10.015" height="1.346" transform="translate(5.295 57.895)" fill="#ef4647"/>
      <rect id="Rectángulo_403187" data-name="Rectángulo 403187" width="7.388" height="2.03" transform="translate(23.245 48.499)" fill="#fbb033"/>
      <rect id="Rectángulo_403188" data-name="Rectángulo 403188" width="8.293" height="1.346" transform="translate(6.139 59.897)" fill="#ef4647"/>
      <rect id="Rectángulo_403189" data-name="Rectángulo 403189" width="27.377" height="0.77" transform="translate(23.206 53.376)" fill="#fbb033"/>
      <rect id="Rectángulo_403190" data-name="Rectángulo 403190" width="27.377" height="0.77" transform="translate(23.206 55.014)" fill="#fbb033"/>
      <rect id="Rectángulo_403191" data-name="Rectángulo 403191" width="27.377" height="0.77" transform="translate(23.206 51.738)" fill="#fbb033"/>
      <rect id="Rectángulo_403192" data-name="Rectángulo 403192" width="8.899" height="0.367" transform="translate(5.872 64.071)" fill="#fbb033"/>
      <rect id="Rectángulo_403193" data-name="Rectángulo 403193" width="7.338" height="0.3" transform="translate(6.653 64.994)" fill="#fbb033"/>
      <rect id="Rectángulo_403194" data-name="Rectángulo 403194" width="5.028" height="0.3" transform="translate(7.807 65.887)" fill="#fbb033"/>
      <path id="Trazado_879064" data-name="Trazado 879064" d="M67.4,458.838H0v-41.1a2.02,2.02,0,0,1,2.018-2.018H65.386a2.02,2.02,0,0,1,2.018,2.018ZM.346,458.492H67.058V417.735a1.674,1.674,0,0,0-1.672-1.672H2.018a1.674,1.674,0,0,0-1.672,1.672Z" transform="translate(0 -378.505)" fill="#231f20"/>
      <path id="Trazado_879065" data-name="Trazado 879065" d="M28.292,438.1a.923.923,0,1,1,.923-.923.924.924,0,0,1-.923.923m0-1.5a.577.577,0,1,0,.577.577.577.577,0,0,0-.577-.577" transform="translate(-24.919 -397.204)" fill="#231f20"/>
      <path id="Trazado_879066" data-name="Trazado 879066" d="M56.216,438.1a.923.923,0,1,1,.923-.923.924.924,0,0,1-.923.923m0-1.5a.577.577,0,1,0,.577.577.577.577,0,0,0-.577-.577" transform="translate(-50.344 -397.204)" fill="#231f20"/>
      <path id="Trazado_879067" data-name="Trazado 879067" d="M84.141,438.1a.923.923,0,1,1,.923-.923.924.924,0,0,1-.923.923m0-1.5a.577.577,0,1,0,.577.577.577.577,0,0,0-.577-.577" transform="translate(-75.769 -397.204)" fill="#231f20"/>
      <path id="Trazado_879068" data-name="Trazado 879068" d="M67.4,421.064H0v-3.329a2.02,2.02,0,0,1,2.018-2.018H65.386a2.02,2.02,0,0,1,2.018,2.018ZM.346,420.718H67.058v-2.983a1.674,1.674,0,0,0-1.672-1.672H2.018a1.674,1.674,0,0,0-1.672,1.672Z" transform="translate(0 -378.505)" fill="#231f20"/>
      <rect id="Rectángulo_403195" data-name="Rectángulo 403195" width="1.909" height="1.909" transform="translate(151.774 66.209)" fill="#fbb033"/>
      <rect id="Rectángulo_403196" data-name="Rectángulo 403196" width="1.909" height="1.909" transform="translate(151.774 70.428)" fill="#fbb033"/>
      <rect id="Rectángulo_403197" data-name="Rectángulo 403197" width="1.909" height="1.909" transform="translate(17.98 28.024)" fill="#fbb033"/>
      <rect id="Rectángulo_403198" data-name="Rectángulo 403198" width="1.909" height="1.909" transform="translate(66.277)" fill="#fbb033"/>
      <rect id="Rectángulo_403199" data-name="Rectángulo 403199" width="1.909" height="1.909" transform="translate(109.446 116.338)" fill="#fbb033"/>
      <rect id="Rectángulo_403200" data-name="Rectángulo 403200" width="1.909" height="1.909" transform="translate(147.502 66.209)" fill="#fbb033"/>
      <rect id="Rectángulo_403201" data-name="Rectángulo 403201" width="1.909" height="1.909" transform="translate(147.502 70.428)" fill="#debefb"/>
      <rect id="Rectángulo_403202" data-name="Rectángulo 403202" width="1.909" height="1.909" transform="translate(102.055 11.246)" fill="#2d6935"/>
      <rect id="Rectángulo_403203" data-name="Rectángulo 403203" width="67.058" height="37.774" transform="translate(85.612 24.012)" fill="#fff6ed"/>
      <rect id="Rectángulo_403204" data-name="Rectángulo 403204" width="13.902" height="3.733" transform="translate(95.545 54.668)" fill="#2d6935"/>
      <path id="Trazado_879069" data-name="Trazado 879069" d="M1033.987,551.572h-24.214v-3.491h24.214Zm-23.869-.346h23.523v-2.8h-23.523Z" transform="translate(-919.385 -499.021)" fill="#231f20"/>
      <path id="Trazado_879070" data-name="Trazado 879070" d="M1033.987,481.5h-24.214v-3.492h24.214Zm-23.869-.346h23.523v-2.8h-23.523Z" transform="translate(-919.385 -435.219)" fill="#231f20"/>
      <rect id="Rectángulo_403205" data-name="Rectángulo 403205" width="12.873" height="2.887" transform="translate(96.573 28.439)" fill="#ef4647"/>
      <rect id="Rectángulo_403206" data-name="Rectángulo 403206" width="23.869" height="0.812" transform="translate(91.075 33.371)" fill="#fbb033"/>
      <rect id="Rectángulo_403207" data-name="Rectángulo 403207" width="19.681" height="0.665" transform="translate(93.169 34.902)" fill="#fbb033"/>
      <rect id="Rectángulo_403208" data-name="Rectángulo 403208" width="13.487" height="0.665" transform="translate(96.266 36.368)" fill="#fbb033"/>
      <rect id="Rectángulo_403209" data-name="Rectángulo 403209" width="6.012" height="0.665" transform="translate(90.388 41.298)" fill="#fbb033"/>
      <rect id="Rectángulo_403210" data-name="Rectángulo 403210" width="6.012" height="0.665" transform="translate(90.388 47.664)" fill="#fbb033"/>
      <path id="Trazado_879071" data-name="Trazado 879071" d="M1021.625,212.383H958.257a1.845,1.845,0,0,0-1.845,1.845v3.156h67.058v-3.156a1.845,1.845,0,0,0-1.845-1.845" transform="translate(-870.8 -193.372)" fill="#f0c518"/>
      <path id="Trazado_879072" data-name="Trazado 879072" d="M1021.883,253.572h-67.4v-41.1a2.02,2.02,0,0,1,2.018-2.018h63.368a2.02,2.02,0,0,1,2.018,2.018Zm-67.059-.346h66.712V212.469a1.674,1.674,0,0,0-1.672-1.672H956.5a1.674,1.674,0,0,0-1.672,1.672Z" transform="translate(-869.04 -191.613)" fill="#231f20"/>
      <rect id="Rectángulo_403211" data-name="Rectángulo 403211" width="67.058" height="0.346" transform="translate(85.612 23.839)" fill="#231f20"/>
      <path id="Trazado_879073" data-name="Trazado 879073" d="M982.77,232.832a.923.923,0,1,1,.923-.923.924.924,0,0,1-.923.923m0-1.5a.577.577,0,1,0,.577.577.577.577,0,0,0-.577-.577" transform="translate(-893.959 -210.311)" fill="#231f20"/>
      <path id="Trazado_879074" data-name="Trazado 879074" d="M1010.7,232.832a.923.923,0,1,1,.922-.923.924.924,0,0,1-.922.923m0-1.5a.577.577,0,1,0,.577.577.577.577,0,0,0-.577-.577" transform="translate(-919.385 -210.311)" fill="#231f20"/>
      <path id="Trazado_879075" data-name="Trazado 879075" d="M1038.62,232.832a.923.923,0,1,1,.923-.923.924.924,0,0,1-.923.923m0-1.5a.577.577,0,1,0,.577.577.577.577,0,0,0-.577-.577" transform="translate(-944.809 -210.311)" fill="#231f20"/>
      <path id="Trazado_879186" data-name="Trazado 879186" d="M0,0H31.452V32.866H0Z" transform="translate(119.141 26.104)" fill="#a854f3"/>
      <path id="Trazado_879076" data-name="Trazado 879076" d="M1456.016,296.756l-.052-.305c6.149-1.04,8.016-3.143,9.665-7.18l.286.117c-1.694,4.144-3.607,6.3-9.9,7.368" transform="translate(-1325.635 -263.378)" fill="#fbb033"/>
      <path id="Trazado_879077" data-name="Trazado 879077" d="M1576.317,590.226l-.292-.1c1.517-4.325,6.109-6.751,9.66-6.838l.008.309c-3.447.084-7.9,2.437-9.376,6.631" transform="translate(-1434.949 -531.074)" fill="#fbb033"/>
      <path id="Trazado_879078" data-name="Trazado 879078" d="M1333.537,292.135a18.646,18.646,0,0,1-4.141-.534l.069-.3c6.482,1.489,8.566-.384,10.144-2.431l.245.189a7.1,7.1,0,0,1-6.318,3.077" transform="translate(-1210.397 -263.012)" fill="#fbb033"/>
      <path id="Trazado_879079" data-name="Trazado 879079" d="M1327.651,354.244l-.263-.164a19.32,19.32,0,0,1,11.459-8.443,7.77,7.77,0,0,1,3.469-.236,4.281,4.281,0,0,1,.9.292,18.042,18.042,0,0,1,2.873-1.087c.763-.223,1.549-.418,2.309-.608a24.439,24.439,0,0,0,5.4-1.8c1.8-.935,3.7-2.317,5.453-7.924l.3.092c-1.784,5.721-3.747,7.142-5.605,8.107a24.67,24.67,0,0,1-5.463,1.824c-.757.189-1.54.384-2.3.6a18.147,18.147,0,0,0-2.614.968,3.292,3.292,0,0,1,1.471,1.649c.656,1.734-.53,3.646-2.042,4.638a3.976,3.976,0,0,1-1.931.725,2.2,2.2,0,0,1-1.91-.8,2.854,2.854,0,0,1,.207-3.077,8.612,8.612,0,0,1,3.5-3.125,4.04,4.04,0,0,0-.6-.173,7.481,7.481,0,0,0-3.329.233,19.008,19.008,0,0,0-11.273,8.307m15.567-8.207a8.456,8.456,0,0,0-3.6,3.125,2.561,2.561,0,0,0-.224,2.733,1.886,1.886,0,0,0,1.642.679,3.68,3.68,0,0,0,1.78-.675c1.408-.924,2.521-2.688,1.922-4.27a3.043,3.043,0,0,0-1.524-1.592" transform="translate(-1208.569 -304.353)" fill="#fbb033"/>
      <path id="Trazado_879080" data-name="Trazado 879080" d="M1327.205,307.188l-.227-.21a21.623,21.623,0,0,1,11.8-6.588c.938-.177,1.9-.278,2.832-.375a30.327,30.327,0,0,0,3.174-.445c6.021-1.285,9.456-4.677,9.934-9.807l.308.029c-.492,5.279-4.012,8.765-10.178,10.081a30.6,30.6,0,0,1-3.206.45c-.925.1-1.881.2-2.806.371a21.312,21.312,0,0,0-11.626,6.493" transform="translate(-1208.195 -263.826)" fill="#fbb033"/>
      <path id="Trazado_879081" data-name="Trazado 879081" d="M1421.533,549.584l-.29-.107c.627-1.7,2.628-2.368,4.151-2.427.5-.02,1.013-.006,1.508.007a9.552,9.552,0,0,0,3.322-.3c1.69-.574,2.89-2.051,4.05-3.479,1.222-1.5,2.486-3.06,4.341-3.608a9.438,9.438,0,0,1,2.552-.271c.477-.007.971-.014,1.448-.063a4.611,4.611,0,0,0,2.062-.694l.173.257a4.924,4.924,0,0,1-2.2.744c-.49.051-.991.058-1.475.065a9.214,9.214,0,0,0-2.469.258c-1.763.521-2.942,1.971-4.189,3.507-1.187,1.462-2.416,2.973-4.19,3.576a9.768,9.768,0,0,1-3.429.313c-.49-.013-1-.027-1.487-.008-1.428.056-3.3.672-3.874,2.225" transform="translate(-1294.022 -490.429)" fill="#fbb033"/>
      <path id="Trazado_879082" data-name="Trazado 879082" d="M1327.709,297.918l-.25-.183a10.862,10.862,0,0,1,5.7-3.483,18.652,18.652,0,0,1,2.648-.436c.717-.085,1.395-.166,1.944-.282a8.216,8.216,0,0,0,5.611-4.434l.272.148a8.512,8.512,0,0,1-5.82,4.589c-.563.119-1.247.2-1.972.287a18.463,18.463,0,0,0-2.6.426,10.553,10.553,0,0,0-5.536,3.368" transform="translate(-1208.633 -263.222)" fill="#fbb033"/>
      <path id="Trazado_879083" data-name="Trazado 879083" d="M1346.321,500.754l-.3-.059c.916-4.715,2.156-6.306,3.135-7.165a5.56,5.56,0,0,1,5.522-.745c.354.14.7.315,1.03.485a6.245,6.245,0,0,0,1.8.7,4.67,4.67,0,0,0,4.15-1.981,18.516,18.516,0,0,0,1.474-2.163,21.265,21.265,0,0,1,1.3-1.956,5.271,5.271,0,0,1,4.313-2.372,6.85,6.85,0,0,1,1.607.376c.283.091.575.185.864.254a5.974,5.974,0,0,0,4.964-1.087l.191.244a6.291,6.291,0,0,1-5.227,1.144c-.3-.072-.6-.168-.887-.26a6.524,6.524,0,0,0-1.534-.362c-1.961-.136-3.484,1.53-4.047,2.253a21.057,21.057,0,0,0-1.284,1.927,18.728,18.728,0,0,1-1.5,2.2,4.973,4.973,0,0,1-4.438,2.088,6.573,6.573,0,0,1-1.886-.729c-.326-.167-.663-.339-1-.473a5.241,5.241,0,0,0-5.2.69c-.941.827-2.137,2.368-3.035,6.991" transform="translate(-1225.531 -441.624)" fill="#fbb033"/>
      <path id="Trazado_879084" data-name="Trazado 879084" d="M1643.093,436.349l-.039-.307a6.764,6.764,0,0,0,3.554-1.762l.221.217a6.952,6.952,0,0,1-3.736,1.852" transform="translate(-1495.978 -395.406)" fill="#fbb033"/>
      <rect id="Rectángulo_403213" data-name="Rectángulo 403213" width="25.668" height="9.63" transform="translate(55.898 45.84)" fill="#fff6ed"/>
      <rect id="Rectángulo_403214" data-name="Rectángulo 403214" width="25.668" height="9.63" transform="translate(55.898 56.952)" fill="#fff6ed"/>
      <rect id="Rectángulo_403215" data-name="Rectángulo 403215" width="25.668" height="9.63" transform="translate(55.898 68.348)" fill="#fff6ed"/>
      <rect id="Rectángulo_403216" data-name="Rectángulo 403216" width="12.797" height="0.867" transform="translate(64.785 48.108)" fill="#fbb033"/>
      <rect id="Rectángulo_403217" data-name="Rectángulo 403217" width="12.797" height="0.867" transform="translate(64.785 49.953)" fill="#fbb033"/>
      <rect id="Rectángulo_403218" data-name="Rectángulo 403218" width="10.461" height="0.867" transform="translate(64.785 51.799)" fill="#fbb033"/>
      <rect id="Rectángulo_403219" data-name="Rectángulo 403219" width="12.797" height="0.867" transform="translate(64.785 59.354)" fill="#fbb033"/>
      <rect id="Rectángulo_403220" data-name="Rectángulo 403220" width="12.797" height="0.867" transform="translate(64.785 61.199)" fill="#fbb033"/>
      <rect id="Rectángulo_403221" data-name="Rectángulo 403221" width="10.461" height="0.867" transform="translate(64.785 63.044)" fill="#fbb033"/>
      <rect id="Rectángulo_403222" data-name="Rectángulo 403222" width="12.797" height="0.867" transform="translate(64.981 70.884)" fill="#fbb033"/>
      <rect id="Rectángulo_403223" data-name="Rectángulo 403223" width="12.797" height="0.867" transform="translate(64.981 72.729)" fill="#fbb033"/>
      <rect id="Rectángulo_403224" data-name="Rectángulo 403224" width="10.461" height="0.867" transform="translate(64.981 74.575)" fill="#fbb033"/>
      <rect id="Rectángulo_403225" data-name="Rectángulo 403225" width="7.338" height="1.376" transform="translate(50.765 34.496)" fill="#231f20"/>
      <path id="Trazado_879086" data-name="Trazado 879086" d="M260.384,178.457H258.39v-1.994h1.994Zm-1.763-.231h1.533v-1.533h-1.533Z" transform="translate(-235.261 -160.668)" fill="#ef4647"/>
      <path id="Trazado_879087" data-name="Trazado 879087" d="M912.686,50.81h-1.994V48.816h1.994Zm-1.763-.231h1.533V49.047h-1.533Z" transform="translate(-829.173 -44.447)" fill="#ef4647"/>
      <path id="Trazado_879090" data-name="Trazado 879090" d="M410.672,45.692a.658.658,0,1,1,.4.84.658.658,0,0,1-.4-.84" transform="translate(-373.876 -41.204)" fill="#231f20"/>
      <path id="Trazado_879091" data-name="Trazado 879091" d="M790.8,180.789a.658.658,0,1,1,.4.84.658.658,0,0,1-.4-.84" transform="translate(-719.982 -164.208)" fill="#231f20"/>
      <path id="Trazado_879092" data-name="Trazado 879092" d="M598.905,111.009h-1.994v-1.994h1.994Zm-1.764-.231h1.533v-1.533h-1.533Z" transform="translate(-543.479 -99.257)" fill="#ef4647"/>
      <rect id="Rectángulo_403228" data-name="Rectángulo 403228" width="4.536" height="4.536" transform="translate(58.103 48.108)" fill="#2d6935"/>
      <rect id="Rectángulo_403229" data-name="Rectángulo 403229" width="4.536" height="4.536" transform="translate(58.103 59.364)" fill="#2d6935"/>
      <rect id="Rectángulo_403230" data-name="Rectángulo 403230" width="4.536" height="4.536" transform="translate(58.103 70.895)" fill="#2d6935"/>
      <path id="Trazado_879095" data-name="Trazado 879095" d="M134.511,559.468a.09.09,0,0,1-.011-.18l.536-.063-.222-1.052a.09.09,0,1,1,.177-.037l.242,1.149a.09.09,0,0,1-.078.108l-.634.075h-.011" transform="translate(-122.388 -508.11)" fill="#231f20"/>
      <rect id="Rectángulo_403232" data-name="Rectángulo 403232" width="15.491" height="15.773" transform="translate(28.72 58.371)" fill="#a854f3"/>
      <path id="Trazado_879096" data-name="Trazado 879096" d="M374.495,846.2a.505.505,0,1,1,.505.505.505.505,0,0,1-.505-.505" transform="translate(-340.973 -769.99)" fill="#2d6935"/>
      <path id="Trazado_879097" data-name="Trazado 879097" d="M399.44,846.2a.505.505,0,1,1,.505.505.505.505,0,0,1-.505-.505" transform="translate(-363.685 -769.99)" fill="#2d6935"/>
      <path id="Trazado_879098" data-name="Trazado 879098" d="M424.386,846.2a.505.505,0,1,1,.505.505.505.505,0,0,1-.505-.505" transform="translate(-386.398 -769.99)" fill="#2d6935"/>
      <path id="Trazado_879099" data-name="Trazado 879099" d="M266.192,714.214l-2.658-2.658,2.727-2.727.245.245-2.482,2.482,2.414,2.413Z" transform="translate(-239.944 -645.379)" fill="#231f20"/>
      <path id="Trazado_879100" data-name="Trazado 879100" d="M525.066,714.214l-.245-.245,2.482-2.482-2.413-2.413.245-.245,2.658,2.658Z" transform="translate(-477.842 -645.379)" fill="#231f20"/>
    </g>
  </g>
</svg>
